G04 DipTrace 3.2.0.1*
G04 Bottom.gbr*
%MOIN*%
G04 #@! TF.FileFunction,Copper,L2,Bot*
G04 #@! TF.Part,Single*
G04 #@! TA.AperFunction,Conductor*
%ADD14C,0.01*%
%ADD15C,0.03*%
G04 #@! TA.AperFunction,CopperBalancing*
%ADD16C,0.025*%
%ADD17C,0.012992*%
G04 #@! TA.AperFunction,ComponentPad*
%ADD19C,0.07*%
%ADD20R,0.062992X0.062992*%
%ADD21C,0.062992*%
%ADD22R,0.09X0.09*%
%ADD23C,0.09*%
%ADD24C,0.09*%
%ADD25R,0.07X0.07*%
%ADD26O,0.098425X0.062992*%
%ADD27R,0.059055X0.059055*%
%ADD28C,0.059055*%
%ADD29C,0.07874*%
%ADD30R,0.07874X0.07874*%
%ADD31O,0.141732X0.11811*%
%ADD32R,0.122047X0.122047*%
%ADD33C,0.122047*%
G04 #@! TA.AperFunction,ViaPad*
%ADD34C,0.04*%
%FSLAX26Y26*%
G04*
G70*
G90*
G75*
G01*
G04 Bottom*
%LPD*%
X1344000Y2144000D2*
D14*
Y2044000D1*
X1444000Y1944000D1*
X1544000D1*
X744000Y2444000D2*
Y2544000D1*
Y2626000D1*
X726000Y2644000D1*
X644000D1*
X2744000Y1344000D2*
X2692000Y1396000D1*
Y1760193D1*
X2792000Y1860193D1*
Y2067067D1*
X2742134Y2116933D1*
Y3277173D1*
X2844000Y3379039D1*
X2144000Y1644000D2*
Y1744000D1*
X2044000Y1844000D2*
X1985000Y1903000D1*
Y2180597D1*
X2003001Y2198598D1*
X2688134D1*
X2706134Y2216598D1*
Y3435063D1*
X2724134Y3453063D1*
X3769976D1*
X3844000Y3379039D1*
X2144000Y1744000D2*
Y1826000D1*
X2126000Y1844000D1*
X2044000D1*
X744000Y2144000D2*
X662000D1*
X644000Y2126000D1*
Y2044000D1*
X1244000Y1744000D2*
X1192000Y1692000D1*
Y1062000D1*
X1210000Y1044000D1*
X2144000D1*
X944000Y1744000D2*
X1024287D1*
X1072287Y1792000D1*
X1196000D1*
X1244000Y1744000D1*
X644000Y2044000D2*
Y1954657D1*
X662000Y1936657D1*
X751343D1*
X944000Y1744000D1*
X844000Y3008961D2*
X596000D1*
X578000Y2990961D1*
Y1810000D1*
X644000Y1744000D1*
X2494000Y3244000D2*
X2394000D1*
X2344000Y1344000D2*
Y1244000D1*
X2444000D1*
X2744000Y944000D1*
X844000Y2844000D2*
X892000Y2796000D1*
Y2401472D1*
X910000Y2383472D1*
X1168528D1*
X1186528Y2401472D1*
Y2592000D1*
X1204528Y2610000D1*
X1708346D1*
X1775921Y2542425D1*
X2119591D1*
X944000Y2044000D2*
X844000D1*
X2544000Y1244000D2*
Y1344000D1*
X1844000Y1508961D2*
X2446563D1*
X2468524Y1487000D1*
X3292000D2*
Y840291D1*
X1401476Y1200000D2*
X1500000D1*
X1544000Y1244000D1*
X2144000Y1144000D2*
X2077000Y1077000D1*
X1401476D1*
X2244000Y1244000D2*
Y1344000D1*
X1244000Y2144000D2*
Y2044000D1*
X1444000Y1844000D1*
X1544000D1*
X844000Y3194000D2*
X955458Y3305458D1*
Y3878293D1*
X1119591Y4042425D1*
X1144000Y2044000D2*
Y2144000D1*
X1444000Y2844000D2*
X1396000Y2892000D1*
X1162000D1*
X1144000Y2874000D1*
X1126000Y2892000D1*
X792000D1*
X744000Y2844000D1*
X1144000Y2874000D2*
Y2444000D1*
X1344000D2*
Y2544000D1*
X1444000D1*
X1572945Y2398476D2*
X1835740D1*
X1888642Y2345575D1*
X2119591D1*
X1444000Y2544000D2*
X1572945D1*
X2119591Y2345575D2*
Y2444000D1*
X844000D2*
Y2544000D1*
Y2726000D1*
X826000Y2744000D1*
X644000D1*
X944000Y2544000D2*
Y2444000D1*
X1444000Y844000D2*
X1344000D1*
X1244000D2*
X1144000D1*
X1344000D2*
Y944000D1*
X1244000Y844000D2*
Y944000D1*
X1344000Y844000D2*
X1244000D1*
X3444000Y1244000D2*
Y1344000D1*
X2119591Y4042425D2*
X2171965Y3990051D1*
Y3421965D1*
X2094000Y3344000D1*
X3094000Y3044000D2*
Y3125996D1*
X3112004Y3144000D1*
X3062004Y3194000D1*
X2844000D1*
X3112004Y3144000D2*
X3294000D1*
X2744000Y2044000D2*
X2678000Y1978000D1*
X2544000D1*
X2526000Y1996000D1*
X2192000D1*
X2144000Y2044000D1*
X2544000Y1978000D2*
Y1644000D1*
X2744000D2*
Y1744000D1*
X2844000D1*
X4119591Y2345575D2*
X3884016Y2110000D1*
X2984908D1*
X2893738Y2018829D1*
Y1793738D1*
X2844000Y1744000D1*
X4119591Y2444000D2*
Y2345575D1*
X3192000Y2542425D2*
X3119591D1*
X3092000Y1943224D2*
Y914000D1*
X3074000Y896000D1*
X2692000D1*
X2644000Y944000D1*
X2244000Y1644000D2*
Y1744000D1*
Y1926000D1*
X2226000Y1944000D1*
X2044000D1*
X2344000Y1744000D2*
Y1644000D1*
X3192000Y1894000D2*
Y878000D1*
X3174000Y860000D1*
X2428000D1*
X2344000Y944000D1*
Y1174000D1*
X2326000Y1192000D1*
X2162000D1*
X2144000Y1210000D1*
Y1344000D1*
X3119591Y2345575D2*
X2965105Y2500060D1*
Y2887856D1*
X2844000Y3008961D1*
X3394000Y3244000D2*
X3294000D1*
Y3326000D1*
X3276000Y3344000D1*
X3194000D1*
X2537097Y1437097D2*
D15*
X2037097D1*
X1744000Y1144000D1*
X1694000D1*
X1344000D1*
X1244000Y1244000D1*
Y1444000D1*
X1044000Y2144000D2*
X1144000Y2244000D1*
X1544000D1*
X1694000Y2094000D1*
Y1144000D1*
X1044000Y2144000D2*
D14*
Y1944000D1*
X3444000Y944000D2*
X3544000Y1044000D1*
Y1344000D1*
X3344000Y1644000D2*
X3386528Y1601472D1*
Y496000D1*
X3368528Y478000D1*
X1410000D1*
X1344000Y544000D1*
X3544000Y1744000D2*
X3444000D1*
X3844000Y3008961D2*
X3709190Y2874151D1*
Y2161000D1*
X3691190Y2143000D1*
X2862000D1*
X2844000Y2125000D1*
Y2044000D1*
X2119591Y3944000D2*
X2028000Y3852409D1*
Y3340004D1*
X2171965Y3196039D1*
Y2254230D1*
X2153967Y2236232D1*
X1952000D1*
X3344000Y1487000D2*
Y1344000D1*
Y610000D1*
X3326000Y592000D1*
X1192000D1*
X1144000Y544000D1*
X3394000Y3144000D2*
Y3062000D1*
X3412000Y3044000D1*
X3494000D1*
X3044000Y1244000D2*
Y1344000D1*
X2944000Y3594000D2*
Y4122000D1*
X2924000Y4142000D1*
X2058902D1*
X1796843Y3879941D1*
X1379941D1*
X1294000Y3794000D1*
X3044000Y1344000D2*
X2986528Y1401472D1*
Y1973000D1*
X2494000Y3144000D2*
Y3062000D1*
Y2894000D1*
X2444000Y2844000D1*
X2494000Y3062000D2*
X2512000Y3044000D1*
X2594000D1*
X2944000Y1344000D2*
Y1244000D1*
X2892000Y1192000D1*
X2610000D1*
X2592000Y1210000D1*
Y1368528D1*
X2574000Y1386528D1*
X2078000D1*
X2060000Y1368528D1*
Y1150976D1*
X2042000Y1132976D1*
X1844000D1*
X3444000Y2044000D2*
X3344000D1*
X3144000D2*
X3044000Y1944000D1*
Y1644000D1*
X3344000Y2044000D2*
X3144000D1*
X2944000Y1644000D2*
Y1444055D1*
X2886472Y1386528D1*
X3344000Y1744000D2*
X3392000Y1792000D1*
X4189965D1*
X4207965Y1810000D1*
Y3855626D1*
X4119591Y3944000D1*
X1244000Y2544000D2*
Y2444000D1*
Y2383476D1*
X1262000Y2365476D1*
X1704000D1*
X1722000Y2347476D1*
Y1816000D1*
X1844000Y1694000D1*
X3392000D2*
X3844000D1*
X1344000Y1244000D2*
Y1344000D1*
Y1544000D1*
X1444000Y1644000D1*
Y1344000D2*
Y1244000D1*
X2605000Y2110000D2*
X2310000D1*
X2244000Y2044000D1*
X3134000Y1887000D2*
Y1974000D1*
X3152000Y1992000D1*
X4171965D1*
X4189965Y2010000D1*
Y2472051D1*
X4119591Y2542425D1*
X2994000Y4094000D2*
Y4194000D1*
X3094000Y4094000D2*
Y4194000D1*
X3194000Y4094000D2*
Y4194000D1*
D34*
X2537097Y1437097D3*
X2444000Y944000D3*
X3144000Y1044000D3*
X2444000Y694000D3*
X3192000Y1894000D3*
Y2542425D3*
X3092000Y1943224D3*
X3292000Y1487000D3*
X2468524D3*
X1401476Y1200000D3*
Y1077000D3*
X2605000Y2110000D3*
X1952000Y2236232D3*
X3344000Y1487000D3*
X2986528Y1973000D3*
X2944000Y3594000D3*
X2886472Y1386528D3*
X3392000Y1694000D3*
X1572945Y2398476D3*
Y2544000D3*
X3292000Y840291D3*
X4044000Y1894000D3*
X3134000Y1887000D3*
X650774Y4267655D2*
D16*
X4077199D1*
X661970Y4242786D2*
X2432986D1*
X2628782D2*
X2659200D1*
X2728791D2*
X2759209D1*
X2828800D2*
X2859218D1*
X2928774D2*
X2959227D1*
X3028783D2*
X3059201D1*
X3128792D2*
X3159210D1*
X3228766D2*
X4066003D1*
X667819Y4217917D2*
X2432986D1*
X3249901D2*
X4060190D1*
X669003Y4193049D2*
X780052D1*
X907920D2*
X1780073D1*
X1907940D2*
X2432986D1*
X3254997D2*
X3780078D1*
X3907946D2*
X4059006D1*
X665630Y4168180D2*
X758091D1*
X929917D2*
X1758112D1*
X1929902D2*
X2045149D1*
X3249004D2*
X3758081D1*
X3929907D2*
X4062379D1*
X657376Y4143311D2*
X748761D1*
X939247D2*
X1260039D1*
X1327980D2*
X1748746D1*
X1939267D2*
X2017411D1*
X3227976D2*
X3748751D1*
X3939237D2*
X4070632D1*
X643095Y4118442D2*
X747577D1*
X940431D2*
X1238365D1*
X1349654D2*
X1747598D1*
X1940416D2*
X1992543D1*
X3249650D2*
X3747603D1*
X3940421D2*
X4084914D1*
X619985Y4093573D2*
X754252D1*
X933757D2*
X1080547D1*
X1158643D2*
X1233019D1*
X1355001D2*
X1754236D1*
X1933777D2*
X1967675D1*
X2053271D2*
X2080531D1*
X2158663D2*
X2432986D1*
X3254997D2*
X3754241D1*
X3933782D2*
X4080536D1*
X435002Y4068705D2*
X482178D1*
X575848D2*
X771297D1*
X916712D2*
X1059985D1*
X1179204D2*
X1238760D1*
X1349259D2*
X1771317D1*
X1916696D2*
X1942808D1*
X2028404D2*
X2059970D1*
X2179189D2*
X2438763D1*
X3249255D2*
X3771322D1*
X3916701D2*
X4059975D1*
X4245831D2*
X4290028D1*
X435002Y4043836D2*
X1054243D1*
X1184946D2*
X1261403D1*
X1326581D2*
X1917940D1*
X2003536D2*
X2054228D1*
X2184930D2*
X2461406D1*
X2526584D2*
X2561415D1*
X2626593D2*
X2661389D1*
X2726602D2*
X2761398D1*
X2826611D2*
X2861407D1*
X3026594D2*
X3061390D1*
X3126603D2*
X3161399D1*
X3226612D2*
X4054233D1*
X4184936D2*
X4290028D1*
X435002Y4018967D2*
X1053311D1*
X1180424D2*
X1893072D1*
X1978668D2*
X2058750D1*
X2185863D2*
X2913008D1*
X2974993D2*
X4058755D1*
X4180414D2*
X4290028D1*
X435002Y3994098D2*
X1028443D1*
X1162303D2*
X1868204D1*
X1953800D2*
X2076871D1*
X2202693D2*
X2913008D1*
X2974993D2*
X4076876D1*
X4162293D2*
X4290028D1*
X435002Y3969230D2*
X1003575D1*
X1179671D2*
X1843337D1*
X1928933D2*
X2059503D1*
X2202980D2*
X2273014D1*
X2414984D2*
X2448380D1*
X2539610D2*
X2913008D1*
X2974993D2*
X3148373D1*
X3239603D2*
X3298369D1*
X3389598D2*
X4059508D1*
X4179661D2*
X4290028D1*
X435002Y3944361D2*
X978707D1*
X1184946D2*
X1818469D1*
X1904065D2*
X2054228D1*
X2202980D2*
X2273014D1*
X2414984D2*
X2429146D1*
X2558844D2*
X2913008D1*
X2974993D2*
X3129139D1*
X3258836D2*
X3279135D1*
X3408868D2*
X4054233D1*
X4184971D2*
X4290028D1*
X435002Y3919492D2*
X953840D1*
X1039471D2*
X1059196D1*
X1179994D2*
X1793601D1*
X1879197D2*
X2052290D1*
X2202980D2*
X2273014D1*
X2564908D2*
X2913008D1*
X2974993D2*
X3123074D1*
X3414897D2*
X4059185D1*
X4186909D2*
X4290028D1*
X435002Y3894623D2*
X929618D1*
X1014604D2*
X1054208D1*
X1184946D2*
X1351831D1*
X1854329D2*
X2027423D1*
X2202980D2*
X2273014D1*
X2561571D2*
X2913008D1*
X2974993D2*
X3126412D1*
X3261564D2*
X3276408D1*
X3411595D2*
X4054233D1*
X4211777D2*
X4290028D1*
X435002Y3869755D2*
X924450D1*
X989736D2*
X1054208D1*
X1184946D2*
X1326963D1*
X1829462D2*
X2002878D1*
X2202980D2*
X2273014D1*
X2414984D2*
X2440952D1*
X2547038D2*
X2913008D1*
X2974993D2*
X3140981D1*
X3247031D2*
X3290977D1*
X3397026D2*
X4054233D1*
X4235209D2*
X4290028D1*
X435002Y3844886D2*
X924450D1*
X986470D2*
X1054208D1*
X1184946D2*
X1262623D1*
X1387691D2*
X1996993D1*
X2202980D2*
X2913008D1*
X2974993D2*
X4054233D1*
X4238977D2*
X4290028D1*
X435002Y3820017D2*
X772050D1*
X986470D2*
X1054208D1*
X1184946D2*
X1239119D1*
X1362824D2*
X1772035D1*
X1915978D2*
X1996993D1*
X2202980D2*
X2913008D1*
X2974993D2*
X3772040D1*
X3915948D2*
X4054233D1*
X4238977D2*
X4290028D1*
X435002Y3795148D2*
X754575D1*
X986470D2*
X1054208D1*
X1184946D2*
X1233019D1*
X1355001D2*
X1754559D1*
X1933454D2*
X1996993D1*
X2202980D2*
X2636521D1*
X2751506D2*
X2913008D1*
X3016726D2*
X3754564D1*
X3933423D2*
X4054233D1*
X4238977D2*
X4290028D1*
X435002Y3770280D2*
X747649D1*
X986470D2*
X1238042D1*
X1349977D2*
X1747670D1*
X1940344D2*
X1996993D1*
X2059013D2*
X2140960D1*
X2202980D2*
X2636521D1*
X2751506D2*
X2913008D1*
X3044823D2*
X3747675D1*
X3940349D2*
X4176957D1*
X4238977D2*
X4290028D1*
X435002Y3745411D2*
X748618D1*
X986470D2*
X1258927D1*
X1329093D2*
X1748603D1*
X1939411D2*
X1996993D1*
X2059013D2*
X2140960D1*
X2202980D2*
X2636521D1*
X2751506D2*
X2913008D1*
X3051462D2*
X3748608D1*
X3939380D2*
X4176957D1*
X4238977D2*
X4290028D1*
X435002Y3720542D2*
X757697D1*
X986470D2*
X1757681D1*
X1930296D2*
X1996993D1*
X2059013D2*
X2140960D1*
X2202980D2*
X2636521D1*
X2751506D2*
X2913008D1*
X3051498D2*
X3757686D1*
X3930301D2*
X4176957D1*
X4238977D2*
X4290028D1*
X435002Y3695673D2*
X779119D1*
X908889D2*
X924450D1*
X986470D2*
X1779140D1*
X1908873D2*
X1996993D1*
X2059013D2*
X2140960D1*
X2202980D2*
X2636521D1*
X2751506D2*
X2913008D1*
X3051498D2*
X3779109D1*
X3908879D2*
X4176957D1*
X4238977D2*
X4290028D1*
X435002Y3670804D2*
X924450D1*
X986470D2*
X1996993D1*
X2059013D2*
X2140960D1*
X2202980D2*
X2636700D1*
X2751291D2*
X2913008D1*
X3051498D2*
X4176957D1*
X4238977D2*
X4290028D1*
X435002Y3645936D2*
X924450D1*
X986470D2*
X1996993D1*
X2059013D2*
X2140960D1*
X2202980D2*
X2640289D1*
X2747702D2*
X2913008D1*
X3051498D2*
X4176957D1*
X4238977D2*
X4290028D1*
X435002Y3621067D2*
X924450D1*
X986470D2*
X1996993D1*
X2059013D2*
X2140960D1*
X2202980D2*
X2659774D1*
X2728217D2*
X2907446D1*
X3051498D2*
X4176957D1*
X4238977D2*
X4290028D1*
X435002Y3596198D2*
X924450D1*
X986470D2*
X1996993D1*
X2059013D2*
X2140960D1*
X2202980D2*
X2898045D1*
X2989956D2*
X4176957D1*
X4238977D2*
X4290028D1*
X435002Y3571329D2*
X924450D1*
X986470D2*
X1996993D1*
X2059013D2*
X2140960D1*
X2202980D2*
X2301111D1*
X2386887D2*
X2451107D1*
X2536883D2*
X2904360D1*
X2983641D2*
X3151100D1*
X3236875D2*
X3272999D1*
X3415004D2*
X4176957D1*
X4238977D2*
X4290028D1*
X435002Y3546461D2*
X924450D1*
X986470D2*
X1996993D1*
X2059013D2*
X2140960D1*
X2202980D2*
X2280155D1*
X2407843D2*
X2430151D1*
X2557839D2*
X3130144D1*
X3257868D2*
X3272999D1*
X3415004D2*
X4176957D1*
X4238977D2*
X4290028D1*
X435002Y3521592D2*
X924450D1*
X986470D2*
X1996993D1*
X2059013D2*
X2140960D1*
X2202980D2*
X2273229D1*
X2564765D2*
X3123218D1*
X3415004D2*
X4176957D1*
X4238977D2*
X4290028D1*
X435002Y3496723D2*
X924450D1*
X986470D2*
X1996993D1*
X2059013D2*
X2140960D1*
X2202980D2*
X2275777D1*
X2412221D2*
X2425773D1*
X2562217D2*
X3125766D1*
X3415004D2*
X4176957D1*
X4238977D2*
X4290028D1*
X435002Y3471854D2*
X924450D1*
X986470D2*
X1996993D1*
X2059013D2*
X2140960D1*
X2202980D2*
X2289126D1*
X2398872D2*
X2439122D1*
X2548868D2*
X2700108D1*
X3793977D2*
X4176957D1*
X4238977D2*
X4290028D1*
X435002Y3446986D2*
X791212D1*
X896760D2*
X924450D1*
X986470D2*
X1791233D1*
X1896780D2*
X1996993D1*
X2059013D2*
X2140960D1*
X2202980D2*
X2677752D1*
X3896786D2*
X4176957D1*
X4238977D2*
X4290028D1*
X435002Y3422117D2*
X768785D1*
X986470D2*
X1768769D1*
X1919208D2*
X1996993D1*
X2059013D2*
X2129298D1*
X2202980D2*
X2675132D1*
X2919229D2*
X3758117D1*
X3919213D2*
X4176957D1*
X4238977D2*
X4290028D1*
X435002Y3397248D2*
X758953D1*
X986470D2*
X1758973D1*
X1929040D2*
X1996993D1*
X2190062D2*
X2567264D1*
X2620744D2*
X2675132D1*
X2929025D2*
X3067275D1*
X3120718D2*
X3167284D1*
X3220727D2*
X3467276D1*
X3520719D2*
X3758978D1*
X3929045D2*
X4176957D1*
X4238977D2*
X4290028D1*
X435002Y3372379D2*
X757230D1*
X986470D2*
X1757251D1*
X1930763D2*
X1996993D1*
X2165194D2*
X2540351D1*
X2647657D2*
X2675132D1*
X2930747D2*
X3040361D1*
X3281121D2*
X3440362D1*
X3547668D2*
X3757256D1*
X3930768D2*
X4176957D1*
X4238977D2*
X4290028D1*
X435002Y3347510D2*
X763079D1*
X986470D2*
X1763064D1*
X1924914D2*
X1996993D1*
X2154895D2*
X2533103D1*
X2654906D2*
X2675132D1*
X2924934D2*
X3033113D1*
X3315282D2*
X3433114D1*
X3554881D2*
X3763069D1*
X3924919D2*
X4176957D1*
X4238977D2*
X4290028D1*
X435002Y3322642D2*
X778545D1*
X909463D2*
X924450D1*
X986470D2*
X1778530D1*
X1909448D2*
X2002914D1*
X2150948D2*
X2537050D1*
X2650958D2*
X2675132D1*
X2909468D2*
X3037024D1*
X3325007D2*
X3437025D1*
X3550970D2*
X3778535D1*
X3909453D2*
X4176957D1*
X4238977D2*
X4290028D1*
X435002Y3297773D2*
X818269D1*
X869739D2*
X904965D1*
X985394D2*
X1818254D1*
X1869724D2*
X2027423D1*
X2132360D2*
X2368466D1*
X2419541D2*
X2468475D1*
X2519550D2*
X2555638D1*
X2632334D2*
X2675132D1*
X2805547D2*
X2818261D1*
X2869744D2*
X3055648D1*
X3132345D2*
X3155657D1*
X3232354D2*
X3262987D1*
X3325007D2*
X3368451D1*
X3419526D2*
X3455649D1*
X3532346D2*
X3818259D1*
X3869729D2*
X4176957D1*
X4238977D2*
X4290028D1*
X435002Y3272904D2*
X811200D1*
X965693D2*
X1811185D1*
X1876793D2*
X2052290D1*
X2137922D2*
X2340656D1*
X2547361D2*
X2675132D1*
X2780680D2*
X2811205D1*
X2876813D2*
X3240631D1*
X3447372D2*
X3811190D1*
X3876798D2*
X4176957D1*
X4238977D2*
X4290028D1*
X435002Y3248035D2*
X776500D1*
X940826D2*
X1776520D1*
X1911493D2*
X2077158D1*
X2162790D2*
X2333156D1*
X2554861D2*
X2675132D1*
X2911513D2*
X3233131D1*
X3454872D2*
X3776490D1*
X3911498D2*
X4176957D1*
X4238977D2*
X4290028D1*
X435002Y3223167D2*
X762182D1*
X925826D2*
X1762167D1*
X1925847D2*
X2102026D1*
X2187658D2*
X2336852D1*
X2551164D2*
X2675132D1*
X2925831D2*
X3236827D1*
X3451176D2*
X3762172D1*
X3925816D2*
X4176957D1*
X4238977D2*
X4290028D1*
X435002Y3198298D2*
X757087D1*
X930922D2*
X1757071D1*
X1930906D2*
X2126894D1*
X2202873D2*
X2354973D1*
X2533007D2*
X2675132D1*
X3100515D2*
X3254985D1*
X3433018D2*
X3757076D1*
X3930911D2*
X4176957D1*
X4238977D2*
X4290028D1*
X435002Y3173429D2*
X759527D1*
X928482D2*
X1759511D1*
X1928466D2*
X2140960D1*
X2202980D2*
X2340943D1*
X2547074D2*
X2675132D1*
X3125383D2*
X3240954D1*
X3447049D2*
X3759516D1*
X3928471D2*
X4176957D1*
X4238977D2*
X4290028D1*
X435002Y3148560D2*
X770220D1*
X917788D2*
X1770241D1*
X1917773D2*
X2140960D1*
X2202980D2*
X2333192D1*
X2554825D2*
X2675132D1*
X2917757D2*
X3064655D1*
X3454836D2*
X3770246D1*
X3917778D2*
X4176957D1*
X4238977D2*
X4290028D1*
X435002Y3123692D2*
X794586D1*
X893423D2*
X1794570D1*
X1893407D2*
X2140960D1*
X2202980D2*
X2336637D1*
X2551380D2*
X2675132D1*
X2773144D2*
X2794591D1*
X2893428D2*
X3063004D1*
X3451355D2*
X3794575D1*
X3893412D2*
X4176957D1*
X4238977D2*
X4290028D1*
X435002Y3098823D2*
X2071094D1*
X2116930D2*
X2140960D1*
X2202980D2*
X2354328D1*
X2433680D2*
X2454337D1*
X2533653D2*
X2571104D1*
X2616904D2*
X2675132D1*
X2773144D2*
X3063004D1*
X3124988D2*
X3171088D1*
X3216924D2*
X3254339D1*
X3333655D2*
X3354348D1*
X3433664D2*
X3471079D1*
X3516916D2*
X4176957D1*
X4238977D2*
X4290028D1*
X435002Y3073954D2*
X756979D1*
X931029D2*
X1756964D1*
X1931014D2*
X2041238D1*
X2202980D2*
X2462985D1*
X2525005D2*
X2541248D1*
X2646760D2*
X2675132D1*
X2931034D2*
X3041259D1*
X3246743D2*
X3362996D1*
X3425016D2*
X3441260D1*
X3546735D2*
X3756969D1*
X3931019D2*
X4176957D1*
X4238977D2*
X4290028D1*
X435002Y3049085D2*
X756979D1*
X931029D2*
X1756964D1*
X1931014D2*
X2033236D1*
X2202980D2*
X2462985D1*
X2654762D2*
X2675132D1*
X2931034D2*
X3033220D1*
X3254782D2*
X3366082D1*
X3554773D2*
X3756969D1*
X3931019D2*
X4176957D1*
X4238977D2*
X4290028D1*
X435002Y3024217D2*
X568443D1*
X931029D2*
X1756964D1*
X1931014D2*
X2036430D1*
X2202980D2*
X2462985D1*
X2651568D2*
X2675132D1*
X2931034D2*
X3036450D1*
X3251552D2*
X3388976D1*
X3551544D2*
X3756969D1*
X3931019D2*
X4176957D1*
X4238977D2*
X4290028D1*
X435002Y2999348D2*
X548276D1*
X931029D2*
X1756964D1*
X1931014D2*
X2053690D1*
X2202980D2*
X2462985D1*
X2525005D2*
X2553700D1*
X2634308D2*
X2675132D1*
X2931034D2*
X3053710D1*
X3134282D2*
X3153720D1*
X3234292D2*
X3453711D1*
X3534283D2*
X3756969D1*
X3931019D2*
X4176957D1*
X4238977D2*
X4290028D1*
X435002Y2974479D2*
X546985D1*
X609005D2*
X756979D1*
X931029D2*
X1756964D1*
X1931014D2*
X2140960D1*
X2202980D2*
X2462985D1*
X2525005D2*
X2675132D1*
X2931034D2*
X3756969D1*
X3931019D2*
X4176957D1*
X4238977D2*
X4290028D1*
X435002Y2949610D2*
X546985D1*
X609005D2*
X756979D1*
X931029D2*
X1756964D1*
X1931014D2*
X2140960D1*
X2202980D2*
X2462985D1*
X2525005D2*
X2675132D1*
X2946142D2*
X3741861D1*
X3931019D2*
X4176957D1*
X4238977D2*
X4290028D1*
X435002Y2924741D2*
X546985D1*
X609005D2*
X756979D1*
X931029D2*
X1756964D1*
X1931014D2*
X2140960D1*
X2202980D2*
X2462985D1*
X2525005D2*
X2675132D1*
X2971009D2*
X3716958D1*
X3931019D2*
X4176957D1*
X4238977D2*
X4290028D1*
X435002Y2899873D2*
X546985D1*
X609005D2*
X724181D1*
X1463838D2*
X2140960D1*
X2202980D2*
X2457064D1*
X2525005D2*
X2675132D1*
X2993437D2*
X3692090D1*
X3777722D2*
X4176957D1*
X4238977D2*
X4290028D1*
X435002Y2875004D2*
X546985D1*
X609005D2*
X691885D1*
X1496098D2*
X2140960D1*
X2202980D2*
X2298492D1*
X2599536D2*
X2675132D1*
X2996092D2*
X3248490D1*
X3549534D2*
X3678203D1*
X3752854D2*
X4176957D1*
X4238977D2*
X4290028D1*
X435002Y2850135D2*
X546985D1*
X609005D2*
X683309D1*
X1004664D2*
X1112986D1*
X1504674D2*
X2140960D1*
X2202980D2*
X2288839D1*
X2599536D2*
X2675132D1*
X2996092D2*
X3238837D1*
X3549534D2*
X3678203D1*
X3740187D2*
X4176957D1*
X4238977D2*
X4290028D1*
X435002Y2825266D2*
X546985D1*
X609005D2*
X686072D1*
X1001936D2*
X1112986D1*
X1501911D2*
X2140960D1*
X2202980D2*
X2291889D1*
X2599536D2*
X2675132D1*
X2996092D2*
X3241887D1*
X3549534D2*
X3678203D1*
X3740187D2*
X4176957D1*
X4238977D2*
X4290028D1*
X435002Y2800398D2*
X546985D1*
X609005D2*
X625966D1*
X662041D2*
X702507D1*
X785519D2*
X802516D1*
X985501D2*
X1025967D1*
X1062042D2*
X1112986D1*
X1175006D2*
X1202481D1*
X1285493D2*
X1302490D1*
X1385503D2*
X1402500D1*
X1485512D2*
X2140960D1*
X2202980D2*
X2311338D1*
X2376696D2*
X2411312D1*
X2599536D2*
X2675132D1*
X2996092D2*
X3261336D1*
X3326693D2*
X3361310D1*
X3549534D2*
X3678203D1*
X3740187D2*
X4176957D1*
X4238977D2*
X4290028D1*
X435002Y2775529D2*
X546985D1*
X695773D2*
X861007D1*
X922991D2*
X992236D1*
X1095774D2*
X1112986D1*
X1175006D2*
X2140960D1*
X2202980D2*
X2675132D1*
X2996092D2*
X3678203D1*
X3740187D2*
X4176957D1*
X4238977D2*
X4290028D1*
X435002Y2750660D2*
X546985D1*
X922991D2*
X983372D1*
X1175006D2*
X2140960D1*
X2202980D2*
X2675132D1*
X2996092D2*
X3678203D1*
X3740187D2*
X4176957D1*
X4238977D2*
X4290028D1*
X435002Y2725791D2*
X546985D1*
X922991D2*
X985920D1*
X1175006D2*
X2140960D1*
X2202980D2*
X2675132D1*
X2996092D2*
X3678203D1*
X3740187D2*
X4176957D1*
X4238977D2*
X4290028D1*
X435002Y2700923D2*
X546985D1*
X922991D2*
X1001924D1*
X1086085D2*
X1112986D1*
X1175006D2*
X1792776D1*
X1895202D2*
X2140960D1*
X2202980D2*
X2675132D1*
X2996092D2*
X3678203D1*
X3740187D2*
X3792781D1*
X3895207D2*
X4176957D1*
X4238977D2*
X4290028D1*
X435002Y2676054D2*
X546985D1*
X922991D2*
X992559D1*
X1095451D2*
X1112986D1*
X1175006D2*
X1763243D1*
X1924770D2*
X2140960D1*
X2202980D2*
X2675132D1*
X2996092D2*
X3678203D1*
X3740187D2*
X3763248D1*
X3924775D2*
X4176957D1*
X4238977D2*
X4290028D1*
X435002Y2651185D2*
X546985D1*
X922991D2*
X983444D1*
X1175006D2*
X1750720D1*
X1937258D2*
X2140960D1*
X2202980D2*
X2675132D1*
X2996092D2*
X3678203D1*
X3937263D2*
X4176957D1*
X4238977D2*
X4290028D1*
X435002Y2626316D2*
X546985D1*
X922991D2*
X985741D1*
X1940846D2*
X2140960D1*
X2202980D2*
X2675132D1*
X2996092D2*
X3678203D1*
X3940851D2*
X4176957D1*
X4238977D2*
X4290028D1*
X435002Y2601448D2*
X546985D1*
X957548D2*
X1001350D1*
X1086659D2*
X1112986D1*
X1936791D2*
X2095423D1*
X2202980D2*
X2675132D1*
X2996092D2*
X3095444D1*
X3143756D2*
X3678203D1*
X3936796D2*
X4095428D1*
X4143741D2*
X4176957D1*
X4238977D2*
X4290028D1*
X435002Y2576579D2*
X546985D1*
X995083D2*
X1112986D1*
X1923622D2*
X2064312D1*
X2202980D2*
X2675132D1*
X2996092D2*
X3064296D1*
X3221445D2*
X3678203D1*
X3740187D2*
X3764361D1*
X3923627D2*
X4064317D1*
X4238977D2*
X4290028D1*
X435002Y2551710D2*
X546985D1*
X1004484D2*
X1112986D1*
X2202980D2*
X2675132D1*
X2773144D2*
X2795990D1*
X2892028D2*
X2934108D1*
X2996092D2*
X3054895D1*
X3236983D2*
X3678203D1*
X3740187D2*
X3795975D1*
X3892013D2*
X4054915D1*
X4238977D2*
X4290028D1*
X435002Y2526841D2*
X546985D1*
X1002439D2*
X1112986D1*
X2202980D2*
X2675132D1*
X2773144D2*
X2934108D1*
X2996092D2*
X3056186D1*
X3235117D2*
X3678203D1*
X3740187D2*
X4056171D1*
X4238977D2*
X4290028D1*
X435002Y2501972D2*
X546985D1*
X987188D2*
X1112986D1*
X2202980D2*
X2675132D1*
X2773144D2*
X2934108D1*
X3005996D2*
X3068961D1*
X3210500D2*
X3678203D1*
X3740187D2*
X4068946D1*
X4238977D2*
X4290028D1*
X435002Y2477104D2*
X546985D1*
X2202980D2*
X2675132D1*
X2773144D2*
X2945268D1*
X3030864D2*
X3063650D1*
X3175549D2*
X3678203D1*
X3740187D2*
X4063635D1*
X4238977D2*
X4290028D1*
X435002Y2452235D2*
X546985D1*
X2202980D2*
X2675132D1*
X2773144D2*
X2970136D1*
X3184413D2*
X3678203D1*
X3740187D2*
X4054772D1*
X4238977D2*
X4290028D1*
X435002Y2427366D2*
X546985D1*
X2202980D2*
X2675132D1*
X2773144D2*
X2995004D1*
X3182726D2*
X3678203D1*
X3740187D2*
X4056458D1*
X4238977D2*
X4290028D1*
X435002Y2402497D2*
X546985D1*
X2202980D2*
X2675132D1*
X2773144D2*
X3019872D1*
X3184951D2*
X3678203D1*
X3740187D2*
X4054233D1*
X4238977D2*
X4290028D1*
X435002Y2377629D2*
X546985D1*
X2202980D2*
X2675132D1*
X2773144D2*
X3044739D1*
X3184951D2*
X3678203D1*
X3740187D2*
X4054233D1*
X4238977D2*
X4290028D1*
X435002Y2352760D2*
X546985D1*
X2202980D2*
X2675132D1*
X2773144D2*
X3054213D1*
X3184951D2*
X3678203D1*
X3740187D2*
X4054233D1*
X4238977D2*
X4290028D1*
X435002Y2327891D2*
X546985D1*
X2202980D2*
X2675132D1*
X2906597D2*
X3054213D1*
X3184951D2*
X3678203D1*
X3740187D2*
X3781406D1*
X3906582D2*
X4054233D1*
X4238977D2*
X4290028D1*
X435002Y2303022D2*
X546985D1*
X2202980D2*
X2675132D1*
X2929312D2*
X3054213D1*
X3184951D2*
X3678203D1*
X3740187D2*
X3758655D1*
X3929332D2*
X4034246D1*
X4238977D2*
X4290028D1*
X435002Y2278154D2*
X546985D1*
X2202980D2*
X2675132D1*
X2939037D2*
X3678203D1*
X3939057D2*
X4009378D1*
X4238977D2*
X4290028D1*
X435002Y2253285D2*
X546985D1*
X2202944D2*
X2675132D1*
X2940508D2*
X3678203D1*
X3940528D2*
X3984510D1*
X4238977D2*
X4290028D1*
X435002Y2228416D2*
X546985D1*
X2188949D2*
X2675132D1*
X2934192D2*
X3678203D1*
X3740187D2*
X3753811D1*
X3934177D2*
X3959643D1*
X4238977D2*
X4290028D1*
X435002Y2203547D2*
X546985D1*
X1160509D2*
X1527520D1*
X2917650D2*
X3678203D1*
X3740187D2*
X3770353D1*
X3917670D2*
X3934775D1*
X4238977D2*
X4290028D1*
X435002Y2178678D2*
X546985D1*
X1186632D2*
X1201369D1*
X1286606D2*
X1301378D1*
X1386615D2*
X1552388D1*
X2773144D2*
X2822616D1*
X2865402D2*
X3678203D1*
X3740187D2*
X3822601D1*
X3865387D2*
X3909871D1*
X4238977D2*
X4290028D1*
X435002Y2153810D2*
X546985D1*
X1398600D2*
X1577256D1*
X2015988D2*
X2711124D1*
X2773144D2*
X2830008D1*
X3739254D2*
X3885003D1*
X4238977D2*
X4290028D1*
X435002Y2128941D2*
X546985D1*
X1397344D2*
X1602123D1*
X2015988D2*
X2286148D1*
X2646652D2*
X2711124D1*
X2773144D2*
X2813286D1*
X4238977D2*
X4290028D1*
X435002Y2104072D2*
X546985D1*
X981411D2*
X1006589D1*
X1081384D2*
X1106599D1*
X1381412D2*
X1626991D1*
X2015988D2*
X2261280D1*
X2650600D2*
X2714210D1*
X2797796D2*
X2812999D1*
X4238977D2*
X4290028D1*
X435002Y2079203D2*
X546985D1*
X993217D2*
X1013013D1*
X1074997D2*
X1094793D1*
X1493227D2*
X1651859D1*
X2015988D2*
X2094777D1*
X2393238D2*
X2571786D1*
X4238977D2*
X4290028D1*
X435002Y2054335D2*
X546985D1*
X1504064D2*
X1653007D1*
X2015988D2*
X2083904D1*
X2404075D2*
X2583915D1*
X4238977D2*
X4290028D1*
X435002Y2029466D2*
X546985D1*
X1503167D2*
X1653007D1*
X2015988D2*
X2084837D1*
X2403178D2*
X2584848D1*
X4238977D2*
X4290028D1*
X435002Y2004597D2*
X546985D1*
X989736D2*
X1013013D1*
X1074997D2*
X1098273D1*
X1489746D2*
X1653007D1*
X2015988D2*
X2098258D1*
X4238977D2*
X4290028D1*
X435002Y1979728D2*
X546985D1*
X674996D2*
X995178D1*
X1092831D2*
X1265458D1*
X1451063D2*
X1495188D1*
X1592805D2*
X1653007D1*
X2092816D2*
X2165469D1*
X4238977D2*
X4290028D1*
X435002Y1954860D2*
X546985D1*
X775938D2*
X984018D1*
X1103991D2*
X1290326D1*
X1603965D2*
X1653007D1*
X2257955D2*
X2384004D1*
X3164999D2*
X3184006D1*
X3303979D2*
X3804156D1*
X3883867D2*
X4176957D1*
X4238977D2*
X4290028D1*
X435002Y1929991D2*
X546985D1*
X609005D2*
X625858D1*
X800806D2*
X984700D1*
X1103309D2*
X1315193D1*
X1603284D2*
X1653007D1*
X2274713D2*
X2384686D1*
X3303297D2*
X3774050D1*
X3913938D2*
X4176957D1*
X4238977D2*
X4290028D1*
X435002Y1905122D2*
X546985D1*
X609005D2*
X740077D1*
X825673D2*
X997798D1*
X1090212D2*
X1340061D1*
X1590222D2*
X1653007D1*
X2275000D2*
X2397783D1*
X2490197D2*
X2513007D1*
X3290199D2*
X3761095D1*
X3926892D2*
X4176957D1*
X4238977D2*
X4290028D1*
X435002Y1880253D2*
X546985D1*
X609005D2*
X764945D1*
X850541D2*
X995573D1*
X1092400D2*
X1364929D1*
X1592411D2*
X1653007D1*
X2275000D2*
X2395594D1*
X2492422D2*
X2513007D1*
X3292424D2*
X3756969D1*
X3931019D2*
X4176957D1*
X4238977D2*
X4290028D1*
X435002Y1855385D2*
X546985D1*
X609005D2*
X789813D1*
X875409D2*
X984126D1*
X1103883D2*
X1389797D1*
X1603894D2*
X1653007D1*
X2275000D2*
X2384111D1*
X3303871D2*
X3760342D1*
X3927646D2*
X4176957D1*
X4238977D2*
X4290028D1*
X435002Y1830516D2*
X546985D1*
X609005D2*
X814681D1*
X900277D2*
X984592D1*
X1103417D2*
X1414664D1*
X1603427D2*
X1653007D1*
X2275000D2*
X2384578D1*
X3303441D2*
X3772291D1*
X3915697D2*
X4176957D1*
X4238977D2*
X4290028D1*
X435002Y1805647D2*
X547343D1*
X625152D2*
X839548D1*
X925144D2*
X997331D1*
X1225172D2*
X1497341D1*
X1590688D2*
X1653007D1*
X2275000D2*
X2397317D1*
X2490664D2*
X2513007D1*
X3290666D2*
X3362853D1*
X4238618D2*
X4290028D1*
X435002Y1780778D2*
X564424D1*
X991997D2*
X1018252D1*
X1492007D2*
X1653007D1*
X2391982D2*
X2513007D1*
X3222988D2*
X3296000D1*
X4221537D2*
X4290028D1*
X435002Y1755909D2*
X584232D1*
X1503777D2*
X1653007D1*
X2403788D2*
X2513007D1*
X3222988D2*
X3284230D1*
X3904034D2*
X4290028D1*
X435002Y1731041D2*
X584448D1*
X1054148D2*
X1084458D1*
X1503561D2*
X1653007D1*
X2403537D2*
X2513007D1*
X3222988D2*
X3284446D1*
X3922479D2*
X4290028D1*
X435002Y1706172D2*
X596864D1*
X991135D2*
X1096874D1*
X1491110D2*
X1653007D1*
X2391121D2*
X2513007D1*
X3222988D2*
X3296862D1*
X3930158D2*
X4290028D1*
X435002Y1681303D2*
X1160999D1*
X1224095D2*
X1296426D1*
X1491576D2*
X1653007D1*
X2384195D2*
X2403812D1*
X2484205D2*
X2503821D1*
X3284171D2*
X3303823D1*
X3930050D2*
X4290028D1*
X435002Y1656434D2*
X1160999D1*
X1222983D2*
X1284333D1*
X1503669D2*
X1653007D1*
X3598050D2*
X3765796D1*
X3922227D2*
X4290028D1*
X435002Y1631566D2*
X1160999D1*
X1222983D2*
X1284333D1*
X1503669D2*
X1653007D1*
X3598050D2*
X3784528D1*
X3903460D2*
X4290028D1*
X435002Y1606697D2*
X1160999D1*
X1222983D2*
X1296426D1*
X1491576D2*
X1653007D1*
X3484189D2*
X3503806D1*
X3584198D2*
X4290028D1*
X435002Y1581828D2*
X1160999D1*
X1291127D2*
X1339020D1*
X1424616D2*
X1653007D1*
X3123015D2*
X3161004D1*
X3417516D2*
X3756969D1*
X3931019D2*
X4290028D1*
X435002Y1556959D2*
X1160999D1*
X1303543D2*
X1316126D1*
X1399749D2*
X1653007D1*
X3123015D2*
X3161004D1*
X3417516D2*
X3756969D1*
X3931019D2*
X4290028D1*
X435002Y1532091D2*
X1160999D1*
X1374988D2*
X1653007D1*
X3123015D2*
X3161004D1*
X3417516D2*
X3756969D1*
X3931019D2*
X4290028D1*
X435002Y1507222D2*
X1160999D1*
X1291988D2*
X1313004D1*
X1374988D2*
X1653007D1*
X3123015D2*
X3161004D1*
X3417516D2*
X3756969D1*
X3931019D2*
X4290028D1*
X435002Y1482353D2*
X1160999D1*
X1290661D2*
X1313004D1*
X1374988D2*
X1653007D1*
X3123015D2*
X3161004D1*
X3417516D2*
X3756969D1*
X3931019D2*
X4290028D1*
X435002Y1457484D2*
X1160999D1*
X1374988D2*
X1653007D1*
X3123015D2*
X3161004D1*
X3417516D2*
X3756969D1*
X3931019D2*
X4290028D1*
X435002Y1432615D2*
X1160999D1*
X1374988D2*
X1653007D1*
X3123015D2*
X3161004D1*
X3417516D2*
X3756969D1*
X3931019D2*
X4290028D1*
X435002Y1407747D2*
X1160999D1*
X1292419D2*
X1313004D1*
X1374988D2*
X1653007D1*
X3123015D2*
X3161004D1*
X3417516D2*
X4290028D1*
X435002Y1382878D2*
X1160999D1*
X1284991D2*
X1297789D1*
X1490213D2*
X1653007D1*
X3482574D2*
X3505456D1*
X3582548D2*
X4290028D1*
X435002Y1358009D2*
X1160999D1*
X1503310D2*
X1653007D1*
X3597655D2*
X4290028D1*
X435002Y1333140D2*
X1160999D1*
X1503992D2*
X1653007D1*
X3598409D2*
X4290028D1*
X435002Y1308272D2*
X1160999D1*
X1492832D2*
X1653007D1*
X3585670D2*
X4290028D1*
X435002Y1283403D2*
X1160999D1*
X1284991D2*
X1306007D1*
X1481995D2*
X1506025D1*
X1582004D2*
X1653007D1*
X3123015D2*
X3161004D1*
X3575012D2*
X4290028D1*
X435002Y1258534D2*
X1160999D1*
X1597506D2*
X1653007D1*
X3123015D2*
X3161004D1*
X3575012D2*
X4290028D1*
X435002Y1233665D2*
X1160999D1*
X1598511D2*
X1653007D1*
X3123015D2*
X3161004D1*
X3575012D2*
X4290028D1*
X435002Y1208797D2*
X1160999D1*
X1586167D2*
X1653007D1*
X2393238D2*
X2436395D1*
X3123015D2*
X3161004D1*
X3575012D2*
X4290028D1*
X435002Y1183928D2*
X803090D1*
X884918D2*
X1160999D1*
X1526743D2*
X1653007D1*
X2373215D2*
X2398752D1*
X3123015D2*
X3161004D1*
X3575012D2*
X3803080D1*
X3884908D2*
X4290028D1*
X435002Y1159059D2*
X775352D1*
X912621D2*
X1160999D1*
X2203016D2*
X2312989D1*
X3123015D2*
X3161004D1*
X3575012D2*
X3775377D1*
X3912646D2*
X4290028D1*
X435002Y1134190D2*
X768785D1*
X919188D2*
X1160999D1*
X2204164D2*
X2312989D1*
X3123015D2*
X3161004D1*
X3575012D2*
X3768810D1*
X3919213D2*
X4290028D1*
X435002Y1109322D2*
X774132D1*
X913877D2*
X1160999D1*
X2193614D2*
X2312989D1*
X2375009D2*
X2394374D1*
X2493606D2*
X2535866D1*
X3123015D2*
X3161004D1*
X3575012D2*
X3774121D1*
X3913866D2*
X4290028D1*
X435002Y1084453D2*
X797887D1*
X890085D2*
X1160999D1*
X2188770D2*
X2312989D1*
X2375009D2*
X2399255D1*
X2488762D2*
X2560733D1*
X3123015D2*
X3161004D1*
X3575012D2*
X3797913D1*
X3890111D2*
X4290028D1*
X435002Y1059584D2*
X1161107D1*
X2202873D2*
X2312989D1*
X2502900D2*
X2585601D1*
X3123015D2*
X3161004D1*
X3575012D2*
X4290028D1*
X435002Y1034715D2*
X803628D1*
X884380D2*
X1176465D1*
X2204272D2*
X2312989D1*
X2504264D2*
X2610469D1*
X3123015D2*
X3161004D1*
X3573433D2*
X3803618D1*
X3884370D2*
X4290028D1*
X435002Y1009846D2*
X768498D1*
X919475D2*
X1768518D1*
X1919495D2*
X2093988D1*
X2194009D2*
X2312989D1*
X2375009D2*
X2394015D1*
X2494001D2*
X2635337D1*
X3123015D2*
X3161004D1*
X3552656D2*
X3768523D1*
X3919500D2*
X4290028D1*
X435002Y984978D2*
X752135D1*
X935838D2*
X1188486D1*
X1380156D2*
X1407846D1*
X1480165D2*
X1507855D1*
X1580174D2*
X1752155D1*
X1935858D2*
X2199738D1*
X2388250D2*
X2499766D1*
X3123015D2*
X3161004D1*
X3222988D2*
X3261013D1*
X3527788D2*
X3752160D1*
X3935863D2*
X4290028D1*
X435002Y960109D2*
X744527D1*
X943481D2*
X1188486D1*
X1597004D2*
X1744512D1*
X1943466D2*
X2185277D1*
X2402747D2*
X2485269D1*
X3123015D2*
X3161004D1*
X3222988D2*
X3261013D1*
X3502921D2*
X3744517D1*
X3943471D2*
X4290028D1*
X435002Y935240D2*
X743594D1*
X944414D2*
X1188486D1*
X1598798D2*
X1743579D1*
X1944399D2*
X2183662D1*
X2404326D2*
X2483654D1*
X3123015D2*
X3161004D1*
X3222988D2*
X3261013D1*
X3504356D2*
X3743584D1*
X3944404D2*
X4290028D1*
X435002Y910371D2*
X749120D1*
X938888D2*
X1188486D1*
X1487485D2*
X1500499D1*
X1587495D2*
X1749141D1*
X1938873D2*
X2193638D1*
X2420438D2*
X2493630D1*
X3122764D2*
X3161004D1*
X3222988D2*
X3261013D1*
X3494380D2*
X3749110D1*
X3938878D2*
X4290028D1*
X435002Y885503D2*
X762505D1*
X925503D2*
X1100283D1*
X1187745D2*
X1200256D1*
X1487737D2*
X1762490D1*
X1925488D2*
X2359674D1*
X3222988D2*
X3261013D1*
X3417516D2*
X3762495D1*
X3925493D2*
X4290028D1*
X435002Y860634D2*
X789418D1*
X898590D2*
X1085427D1*
X1502593D2*
X1789403D1*
X1898575D2*
X2384578D1*
X3217103D2*
X3251038D1*
X3417516D2*
X3789408D1*
X3898580D2*
X4290028D1*
X435002Y835765D2*
X773234D1*
X914774D2*
X1083597D1*
X1504423D2*
X1773255D1*
X1914758D2*
X2410486D1*
X3191482D2*
X3246229D1*
X3417516D2*
X3773260D1*
X3914764D2*
X4290028D1*
X435002Y810896D2*
X768892D1*
X919116D2*
X1093250D1*
X1494734D2*
X1768877D1*
X1919136D2*
X3257425D1*
X3417516D2*
X3768882D1*
X3919105D2*
X4290028D1*
X435002Y786028D2*
X776464D1*
X911508D2*
X1133655D1*
X1154337D2*
X1233664D1*
X1254346D2*
X1333674D1*
X1354355D2*
X1433647D1*
X1454325D2*
X1500822D1*
X1587208D2*
X1776485D1*
X1911529D2*
X3313009D1*
X3417516D2*
X3776490D1*
X3911534D2*
X4290028D1*
X435002Y761159D2*
X808832D1*
X879177D2*
X1485571D1*
X1602422D2*
X1808816D1*
X1879197D2*
X3313009D1*
X3417516D2*
X3808821D1*
X3879202D2*
X4290028D1*
X435002Y736290D2*
X786368D1*
X901604D2*
X1483526D1*
X1604504D2*
X1786389D1*
X1901625D2*
X3313009D1*
X3417516D2*
X3786394D1*
X3901630D2*
X4290028D1*
X435002Y711421D2*
X771010D1*
X916999D2*
X1492928D1*
X1595102D2*
X1770994D1*
X1916983D2*
X3313009D1*
X3417516D2*
X3770999D1*
X3916988D2*
X4290028D1*
X435002Y686552D2*
X769610D1*
X918398D2*
X1501360D1*
X1586633D2*
X1769595D1*
X1918383D2*
X3313009D1*
X3417516D2*
X3769600D1*
X3918388D2*
X4290028D1*
X435002Y661684D2*
X489929D1*
X568061D2*
X780770D1*
X907202D2*
X1485751D1*
X1602279D2*
X1780791D1*
X1907223D2*
X3313009D1*
X3417516D2*
X3780796D1*
X3907228D2*
X4159912D1*
X4238080D2*
X4290028D1*
X617043Y636815D2*
X1483454D1*
X1604540D2*
X3313009D1*
X3417516D2*
X4110966D1*
X641336Y611946D2*
X1169145D1*
X3417516D2*
X4086673D1*
X656264Y587077D2*
X1101934D1*
X3417516D2*
X4071709D1*
X665056Y562209D2*
X1085893D1*
X3417516D2*
X4062953D1*
X668895Y537340D2*
X1083381D1*
X3417516D2*
X4059113D1*
X668142Y512471D2*
X1092209D1*
X3417516D2*
X4059867D1*
X662759Y487602D2*
X1125940D1*
X1162052D2*
X1225949D1*
X1262025D2*
X1325959D1*
X3416260D2*
X4065250D1*
X652137Y462734D2*
X1382476D1*
X3396058D2*
X4075871D1*
X634626Y437865D2*
X4093383D1*
X1602320Y1839410D2*
X1600884Y1830343D1*
X1598047Y1821613D1*
X1593879Y1813434D1*
X1588484Y1806007D1*
X1581993Y1799516D1*
X1574566Y1794121D1*
X1566387Y1789953D1*
X1557657Y1787116D1*
X1548590Y1785680D1*
X1539410D1*
X1530343Y1787116D1*
X1521613Y1789953D1*
X1513434Y1794121D1*
X1506007Y1799516D1*
X1499516Y1806007D1*
X1494121Y1813434D1*
X1492972Y1815485D1*
X1441764Y1815588D1*
X1437347Y1816287D1*
X1433094Y1817669D1*
X1429109Y1819700D1*
X1425491Y1822328D1*
X1358890Y1888805D1*
X1259957Y1987738D1*
X1253151Y1986220D1*
X1244000Y1985500D1*
X1234849Y1986220D1*
X1225923Y1988363D1*
X1217442Y1991876D1*
X1209615Y1996673D1*
X1202634Y2002634D1*
X1196673Y2009615D1*
X1194007Y2013637D1*
X1188484Y2006007D1*
X1181993Y1999516D1*
X1174566Y1994121D1*
X1166387Y1989953D1*
X1157657Y1987116D1*
X1148590Y1985680D1*
X1139410D1*
X1130343Y1987116D1*
X1121613Y1989953D1*
X1113434Y1994121D1*
X1106007Y1999516D1*
X1099516Y2006007D1*
X1094121Y2013434D1*
X1089953Y2021613D1*
X1087116Y2030343D1*
X1085680Y2039410D1*
Y2048590D1*
X1087116Y2057657D1*
X1089953Y2066387D1*
X1094121Y2074566D1*
X1099516Y2081993D1*
X1106007Y2088484D1*
X1113434Y2093879D1*
X1115485Y2095028D1*
X1115500Y2099298D1*
X1109561Y2103678D1*
X1103678Y2109561D1*
X1098787Y2116293D1*
X1095009Y2123707D1*
X1094024Y2126378D1*
X1091248Y2119926D1*
X1086900Y2112831D1*
X1081496Y2106504D1*
X1075169Y2101100D1*
X1072505Y2099320D1*
X1072500Y1995117D1*
X1078385Y1991327D1*
X1085366Y1985366D1*
X1091327Y1978385D1*
X1096124Y1970558D1*
X1099637Y1962077D1*
X1101780Y1953151D1*
X1102500Y1944000D1*
X1101780Y1934849D1*
X1099637Y1925923D1*
X1096124Y1917442D1*
X1091327Y1909615D1*
X1085366Y1902634D1*
X1078385Y1896673D1*
X1074363Y1894007D1*
X1079779Y1890283D1*
X1085296Y1885435D1*
X1090162Y1879934D1*
X1094301Y1873867D1*
X1097647Y1867329D1*
X1100147Y1860424D1*
X1101763Y1853260D1*
X1102468Y1845949D1*
X1102241Y1838496D1*
X1101092Y1831242D1*
X1099044Y1824190D1*
X1097570Y1820505D1*
X1198236Y1820412D1*
X1202653Y1819713D1*
X1206907Y1818331D1*
X1210891Y1816300D1*
X1214509Y1813672D1*
X1228053Y1800252D1*
X1234849Y1801780D1*
X1244000Y1802500D1*
X1253151Y1801780D1*
X1262077Y1799637D1*
X1270558Y1796124D1*
X1278385Y1791327D1*
X1285366Y1785366D1*
X1291327Y1778385D1*
X1293993Y1774363D1*
X1299516Y1781993D1*
X1306007Y1788484D1*
X1313434Y1793879D1*
X1321613Y1798047D1*
X1330343Y1800884D1*
X1339410Y1802320D1*
X1348590D1*
X1357657Y1800884D1*
X1366387Y1798047D1*
X1374566Y1793879D1*
X1381993Y1788484D1*
X1388484Y1781993D1*
X1393993Y1774363D1*
X1397734Y1779801D1*
X1402585Y1785316D1*
X1408088Y1790180D1*
X1414157Y1794315D1*
X1420696Y1797658D1*
X1427603Y1800155D1*
X1434768Y1801767D1*
X1442079Y1802468D1*
X1449420Y1802248D1*
X1456675Y1801110D1*
X1463731Y1799072D1*
X1470476Y1796166D1*
X1476803Y1792437D1*
X1482614Y1787946D1*
X1487816Y1782761D1*
X1492327Y1776966D1*
X1496077Y1770651D1*
X1499005Y1763916D1*
X1501067Y1756867D1*
X1502230Y1749615D1*
X1502471Y1742163D1*
X1501780Y1734851D1*
X1500179Y1727684D1*
X1497692Y1720774D1*
X1494358Y1714229D1*
X1490231Y1708154D1*
X1485376Y1702644D1*
X1479868Y1697786D1*
X1474364Y1694005D1*
X1481993Y1688484D1*
X1488484Y1681993D1*
X1493879Y1674566D1*
X1498047Y1666387D1*
X1500884Y1657657D1*
X1502320Y1648590D1*
Y1639410D1*
X1500884Y1630343D1*
X1498047Y1621613D1*
X1493879Y1613434D1*
X1488484Y1606007D1*
X1481993Y1599516D1*
X1474566Y1594121D1*
X1466387Y1589953D1*
X1457657Y1587116D1*
X1448590Y1585680D1*
X1439410D1*
X1430343Y1587116D1*
X1428081Y1587754D1*
X1372476Y1532171D1*
X1372500Y1395117D1*
X1378385Y1391327D1*
X1385366Y1385366D1*
X1391327Y1378385D1*
X1393993Y1374363D1*
X1399516Y1381993D1*
X1406007Y1388484D1*
X1413434Y1393879D1*
X1421613Y1398047D1*
X1430343Y1400884D1*
X1439410Y1402320D1*
X1448590D1*
X1457657Y1400884D1*
X1466387Y1398047D1*
X1474566Y1393879D1*
X1481993Y1388484D1*
X1488484Y1381993D1*
X1493879Y1374566D1*
X1498047Y1366387D1*
X1500884Y1357657D1*
X1502320Y1348590D1*
Y1339410D1*
X1500884Y1330343D1*
X1498047Y1321613D1*
X1493879Y1313434D1*
X1488484Y1306007D1*
X1481993Y1299516D1*
X1474566Y1294121D1*
X1472515Y1292972D1*
X1472500Y1288702D1*
X1478439Y1284322D1*
X1484322Y1278439D1*
X1489213Y1271707D1*
X1492991Y1264293D1*
X1493976Y1261622D1*
X1496752Y1268074D1*
X1501100Y1275169D1*
X1506504Y1281496D1*
X1512831Y1286900D1*
X1519926Y1291248D1*
X1527614Y1294432D1*
X1535705Y1296375D1*
X1544000Y1297028D1*
X1552295Y1296375D1*
X1560386Y1294432D1*
X1568074Y1291248D1*
X1575169Y1286900D1*
X1581496Y1281496D1*
X1586900Y1275169D1*
X1591248Y1268074D1*
X1594432Y1260386D1*
X1596375Y1252295D1*
X1597028Y1244000D1*
X1596375Y1235705D1*
X1594432Y1227614D1*
X1591248Y1219926D1*
X1586900Y1212831D1*
X1581496Y1206504D1*
X1575169Y1201100D1*
X1568074Y1196752D1*
X1560386Y1193568D1*
X1552295Y1191625D1*
X1544000Y1190972D1*
X1535705Y1191625D1*
X1532562Y1192250D1*
X1522803Y1182498D1*
X1655511Y1182500D1*
X1655500Y2078029D1*
X1528057Y2205496D1*
X1159932Y2205500D1*
X1151001Y2196553D1*
X1156379Y2195562D1*
X1164293Y2192991D1*
X1171707Y2189213D1*
X1178439Y2184322D1*
X1184322Y2178439D1*
X1189213Y2171707D1*
X1192991Y2164293D1*
X1193976Y2161622D1*
X1196752Y2168074D1*
X1201100Y2175169D1*
X1206504Y2181496D1*
X1212831Y2186900D1*
X1219926Y2191248D1*
X1227614Y2194432D1*
X1235705Y2196375D1*
X1244000Y2197028D1*
X1252295Y2196375D1*
X1260386Y2194432D1*
X1268074Y2191248D1*
X1275169Y2186900D1*
X1281496Y2181496D1*
X1286900Y2175169D1*
X1291248Y2168074D1*
X1293976Y2161622D1*
X1296752Y2168074D1*
X1301100Y2175169D1*
X1306504Y2181496D1*
X1312831Y2186900D1*
X1319926Y2191248D1*
X1327614Y2194432D1*
X1335705Y2196375D1*
X1344000Y2197028D1*
X1352295Y2196375D1*
X1360386Y2194432D1*
X1368074Y2191248D1*
X1375169Y2186900D1*
X1381496Y2181496D1*
X1386900Y2175169D1*
X1391248Y2168074D1*
X1394432Y2160386D1*
X1396375Y2152295D1*
X1397028Y2144000D1*
X1396375Y2135705D1*
X1394432Y2127614D1*
X1391248Y2119926D1*
X1386900Y2112831D1*
X1381496Y2106504D1*
X1375169Y2101100D1*
X1372505Y2099320D1*
X1372500Y2095090D1*
X1378385Y2091327D1*
X1385366Y2085366D1*
X1391327Y2078385D1*
X1393993Y2074363D1*
X1399516Y2081993D1*
X1406007Y2088484D1*
X1413434Y2093879D1*
X1421613Y2098047D1*
X1430343Y2100884D1*
X1439410Y2102320D1*
X1448590D1*
X1457657Y2100884D1*
X1466387Y2098047D1*
X1474566Y2093879D1*
X1481993Y2088484D1*
X1488484Y2081993D1*
X1493879Y2074566D1*
X1498047Y2066387D1*
X1500884Y2057657D1*
X1502320Y2048590D1*
Y2039410D1*
X1500884Y2030343D1*
X1498047Y2021613D1*
X1493879Y2013434D1*
X1488484Y2006007D1*
X1481993Y1999516D1*
X1474566Y1994121D1*
X1466387Y1989953D1*
X1457657Y1987116D1*
X1448590Y1985680D1*
X1442763Y1985549D1*
X1455829Y1972477D1*
X1492910Y1972500D1*
X1496673Y1978385D1*
X1502634Y1985366D1*
X1509615Y1991327D1*
X1517442Y1996124D1*
X1525923Y1999637D1*
X1534849Y2001780D1*
X1544000Y2002500D1*
X1553151Y2001780D1*
X1562077Y1999637D1*
X1570558Y1996124D1*
X1578385Y1991327D1*
X1585366Y1985366D1*
X1591327Y1978385D1*
X1596124Y1970558D1*
X1599637Y1962077D1*
X1601780Y1953151D1*
X1602500Y1944000D1*
X1601780Y1934849D1*
X1599637Y1925923D1*
X1596124Y1917442D1*
X1591327Y1909615D1*
X1585366Y1902634D1*
X1578385Y1896673D1*
X1574363Y1894007D1*
X1581993Y1888484D1*
X1588484Y1881993D1*
X1593879Y1874566D1*
X1598047Y1866387D1*
X1600884Y1857657D1*
X1602320Y1848590D1*
Y1839410D1*
X2202320Y1039410D2*
X2200884Y1030343D1*
X2198047Y1021613D1*
X2193879Y1013434D1*
X2188484Y1006007D1*
X2181993Y999516D1*
X2174566Y994121D1*
X2166387Y989953D1*
X2157657Y987116D1*
X2148590Y985680D1*
X2139410D1*
X2130343Y987116D1*
X2121613Y989953D1*
X2113434Y994121D1*
X2106007Y999516D1*
X2099516Y1006007D1*
X2094121Y1013434D1*
X2092972Y1015485D1*
X1911435Y1015500D1*
X1918750Y1007843D1*
X1923529Y1001781D1*
X1927817Y995363D1*
X1931589Y988629D1*
X1934820Y981619D1*
X1937492Y974377D1*
X1939587Y966948D1*
X1941093Y959378D1*
X1942000Y951713D1*
X1942303Y944000D1*
X1942000Y936287D1*
X1941093Y928622D1*
X1939587Y921052D1*
X1937492Y913623D1*
X1934820Y906381D1*
X1931589Y899371D1*
X1927817Y892637D1*
X1923529Y886219D1*
X1918750Y880157D1*
X1913511Y874489D1*
X1907843Y869250D1*
X1901781Y864471D1*
X1893338Y859048D1*
X1897434Y855898D1*
X1903536Y849796D1*
X1908608Y842814D1*
X1912526Y835125D1*
X1915193Y826917D1*
X1916543Y818394D1*
Y809764D1*
X1915193Y801240D1*
X1912526Y793033D1*
X1908608Y785343D1*
X1903536Y778362D1*
X1897434Y772259D1*
X1890452Y767187D1*
X1882763Y763269D1*
X1874555Y760602D1*
X1866031Y759252D1*
X1843344Y759083D1*
X1821969Y759252D1*
X1813445Y760602D1*
X1805237Y763269D1*
X1797548Y767187D1*
X1790566Y772259D1*
X1784464Y778362D1*
X1779392Y785343D1*
X1775474Y793033D1*
X1772807Y801240D1*
X1771457Y809764D1*
Y818394D1*
X1772807Y826917D1*
X1775474Y835125D1*
X1779392Y842814D1*
X1784464Y849796D1*
X1790566Y855898D1*
X1794617Y859012D1*
X1786219Y864471D1*
X1780157Y869250D1*
X1774489Y874489D1*
X1769250Y880157D1*
X1764471Y886219D1*
X1760183Y892637D1*
X1756411Y899371D1*
X1753180Y906381D1*
X1750508Y913623D1*
X1748413Y921052D1*
X1746907Y928622D1*
X1746000Y936287D1*
X1745697Y944000D1*
X1746000Y951713D1*
X1746907Y959378D1*
X1748413Y966948D1*
X1750508Y974377D1*
X1753180Y981619D1*
X1756411Y988629D1*
X1760183Y995363D1*
X1764471Y1001781D1*
X1769250Y1007843D1*
X1776637Y1015496D1*
X1207764Y1015588D1*
X1203347Y1016287D1*
X1199093Y1017669D1*
X1195109Y1019700D1*
X1191491Y1022328D1*
X1170328Y1043491D1*
X1167700Y1047109D1*
X1165669Y1051093D1*
X1164287Y1055347D1*
X1163588Y1059764D1*
X1163500Y1153864D1*
Y1688857D1*
X1156785Y1686914D1*
X1149532Y1685762D1*
X1142191Y1685528D1*
X1134879Y1686215D1*
X1127711Y1687814D1*
X1120799Y1690297D1*
X1114253Y1693627D1*
X1108176Y1697752D1*
X1102664Y1702604D1*
X1097803Y1708110D1*
X1093670Y1714181D1*
X1090331Y1720722D1*
X1087837Y1727630D1*
X1086229Y1734796D1*
X1085531Y1742107D1*
X1085754Y1749448D1*
X1086896Y1756703D1*
X1088852Y1763506D1*
X1084077Y1763500D1*
X1042797Y1722328D1*
X1039179Y1719700D1*
X1035194Y1717669D1*
X1030941Y1716287D1*
X1026523Y1715588D1*
X995114Y1715500D1*
X991327Y1709615D1*
X985366Y1702634D1*
X978385Y1696673D1*
X970558Y1691876D1*
X962077Y1688363D1*
X953151Y1686220D1*
X944000Y1685500D1*
X934849Y1686220D1*
X925923Y1688363D1*
X917442Y1691876D1*
X909615Y1696673D1*
X902634Y1702634D1*
X896673Y1709615D1*
X894007Y1713637D1*
X888484Y1706007D1*
X881993Y1699516D1*
X874566Y1694121D1*
X866387Y1689953D1*
X857657Y1687116D1*
X848590Y1685680D1*
X839410D1*
X830343Y1687116D1*
X821613Y1689953D1*
X813434Y1694121D1*
X806007Y1699516D1*
X799516Y1706007D1*
X794007Y1713637D1*
X790231Y1708154D1*
X785376Y1702644D1*
X779868Y1697786D1*
X773795Y1693656D1*
X767252Y1690320D1*
X760343Y1687829D1*
X753176Y1686224D1*
X745865Y1685530D1*
X738524Y1685757D1*
X731270Y1686902D1*
X724216Y1688947D1*
X717474Y1691860D1*
X711150Y1695594D1*
X705344Y1700091D1*
X700147Y1705281D1*
X695641Y1711081D1*
X694004Y1713637D1*
X688484Y1706007D1*
X681993Y1699516D1*
X674566Y1694121D1*
X666387Y1689953D1*
X657657Y1687116D1*
X648590Y1685680D1*
X639410D1*
X630343Y1687116D1*
X621613Y1689953D1*
X613434Y1694121D1*
X606007Y1699516D1*
X599516Y1706007D1*
X594121Y1713434D1*
X589953Y1721613D1*
X587116Y1730343D1*
X585680Y1739410D1*
Y1748590D1*
X587116Y1757657D1*
X587754Y1759919D1*
X556328Y1791491D1*
X553700Y1795109D1*
X551669Y1799093D1*
X550287Y1803347D1*
X549588Y1807764D1*
X549500Y1901864D1*
X549588Y2993197D1*
X550287Y2997614D1*
X551669Y3001867D1*
X553700Y3005852D1*
X556328Y3009470D1*
X577491Y3030632D1*
X581109Y3033261D1*
X585093Y3035291D1*
X589347Y3036673D1*
X593764Y3037373D1*
X687864Y3037461D1*
X759452D1*
X759477Y3093484D1*
X928524D1*
Y2924437D1*
X759477D1*
Y2980452D1*
X607774Y2980460D1*
X606500Y2972588D1*
Y2788897D1*
X613434Y2793879D1*
X621613Y2798047D1*
X630343Y2800884D1*
X639410Y2802320D1*
X648590D1*
X657657Y2800884D1*
X666387Y2798047D1*
X674566Y2793879D1*
X681993Y2788484D1*
X688484Y2781993D1*
X693879Y2774566D1*
X695028Y2772515D1*
X828236Y2772412D1*
X832653Y2771713D1*
X836906Y2770331D1*
X840891Y2768300D1*
X844509Y2765672D1*
X863507Y2746798D1*
X863500Y2784177D1*
X857657Y2787116D1*
X848590Y2785680D1*
X839410D1*
X830343Y2787116D1*
X821613Y2789953D1*
X813434Y2794121D1*
X806007Y2799516D1*
X799516Y2806007D1*
X794007Y2813637D1*
X788484Y2806007D1*
X781993Y2799516D1*
X774566Y2794121D1*
X766387Y2789953D1*
X757657Y2787116D1*
X748590Y2785680D1*
X739410D1*
X730343Y2787116D1*
X721613Y2789953D1*
X713434Y2794121D1*
X706007Y2799516D1*
X699516Y2806007D1*
X694121Y2813434D1*
X689953Y2821613D1*
X687116Y2830343D1*
X685680Y2839410D1*
Y2848590D1*
X687116Y2857657D1*
X689953Y2866387D1*
X694121Y2874566D1*
X699516Y2881993D1*
X706007Y2888484D1*
X713434Y2893879D1*
X721613Y2898047D1*
X730343Y2900884D1*
X739410Y2902320D1*
X748590D1*
X757657Y2900884D1*
X759919Y2900246D1*
X773491Y2913672D1*
X777109Y2916300D1*
X781093Y2918331D1*
X785347Y2919713D1*
X789764Y2920412D1*
X883864Y2920500D1*
X1128236Y2920412D1*
X1132653Y2919713D1*
X1136907Y2918331D1*
X1140891Y2916300D1*
X1142759Y2915052D1*
X1145248Y2915057D1*
X1149061Y2917394D1*
X1153193Y2919105D1*
X1157542Y2920149D1*
X1162009Y2920500D1*
X1398236Y2920412D1*
X1402653Y2919713D1*
X1406907Y2918331D1*
X1410891Y2916300D1*
X1414509Y2913672D1*
X1428053Y2900252D1*
X1434849Y2901780D1*
X1444000Y2902500D1*
X1453151Y2901780D1*
X1462077Y2899637D1*
X1470558Y2896124D1*
X1478385Y2891327D1*
X1485366Y2885366D1*
X1491327Y2878385D1*
X1496124Y2870558D1*
X1499637Y2862077D1*
X1501780Y2853151D1*
X1502500Y2844000D1*
X1501780Y2834849D1*
X1499637Y2825923D1*
X1496124Y2817442D1*
X1491327Y2809615D1*
X1485366Y2802634D1*
X1478385Y2796673D1*
X1470558Y2791876D1*
X1462077Y2788363D1*
X1453151Y2786220D1*
X1444000Y2785500D1*
X1434849Y2786220D1*
X1425923Y2788363D1*
X1417442Y2791876D1*
X1409615Y2796673D1*
X1402634Y2802634D1*
X1396673Y2809615D1*
X1394007Y2813637D1*
X1388484Y2806007D1*
X1381993Y2799516D1*
X1374566Y2794121D1*
X1366387Y2789953D1*
X1357657Y2787116D1*
X1348590Y2785680D1*
X1339410D1*
X1330343Y2787116D1*
X1321613Y2789953D1*
X1313434Y2794121D1*
X1306007Y2799516D1*
X1299516Y2806007D1*
X1294007Y2813637D1*
X1290231Y2808154D1*
X1285376Y2802644D1*
X1279868Y2797786D1*
X1273795Y2793656D1*
X1267252Y2790320D1*
X1260343Y2787829D1*
X1253176Y2786224D1*
X1245865Y2785530D1*
X1238524Y2785757D1*
X1231270Y2786902D1*
X1224216Y2788947D1*
X1217474Y2791860D1*
X1211150Y2795594D1*
X1205344Y2800091D1*
X1200147Y2805281D1*
X1195641Y2811081D1*
X1191898Y2817399D1*
X1188975Y2824137D1*
X1186920Y2831188D1*
X1185765Y2838440D1*
X1185527Y2845781D1*
X1186211Y2853093D1*
X1187806Y2860262D1*
X1188852Y2863506D1*
X1173841Y2863500D1*
X1172500Y2855627D1*
Y2618253D1*
X1186018Y2631672D1*
X1189636Y2634300D1*
X1193621Y2636331D1*
X1197874Y2637713D1*
X1202291Y2638412D1*
X1296391Y2638500D1*
X1710583Y2638412D1*
X1715000Y2637713D1*
X1719253Y2636331D1*
X1723238Y2634300D1*
X1726856Y2631672D1*
X1752274Y2606377D1*
X1750650Y2614156D1*
X1749888Y2620594D1*
X1749634Y2627071D1*
X1749888Y2633548D1*
X1750650Y2639985D1*
X1751915Y2646343D1*
X1753674Y2652582D1*
X1755918Y2658663D1*
X1758632Y2664550D1*
X1761799Y2670206D1*
X1765400Y2675596D1*
X1769414Y2680686D1*
X1773814Y2685446D1*
X1778574Y2689846D1*
X1783664Y2693859D1*
X1789054Y2697461D1*
X1794710Y2700628D1*
X1800597Y2703342D1*
X1806678Y2705585D1*
X1812917Y2707345D1*
X1819275Y2708610D1*
X1825712Y2709371D1*
X1841376Y2709626D1*
X1862288Y2709371D1*
X1868725Y2708610D1*
X1875083Y2707345D1*
X1881322Y2705585D1*
X1887403Y2703342D1*
X1893290Y2700628D1*
X1898946Y2697461D1*
X1904336Y2693859D1*
X1909426Y2689846D1*
X1914186Y2685446D1*
X1918586Y2680686D1*
X1922600Y2675596D1*
X1926201Y2670206D1*
X1929368Y2664550D1*
X1932082Y2658663D1*
X1934326Y2652582D1*
X1936085Y2646343D1*
X1937350Y2639985D1*
X1938112Y2633548D1*
X1938366Y2627071D1*
X1938112Y2620594D1*
X1937350Y2614156D1*
X1936085Y2607799D1*
X1934326Y2601560D1*
X1932082Y2595478D1*
X1929368Y2589592D1*
X1926201Y2583936D1*
X1922600Y2578546D1*
X1916232Y2570908D1*
X2063573Y2570968D1*
X2068728Y2579379D1*
X2075135Y2586881D1*
X2082636Y2593288D1*
X2091048Y2598443D1*
X2100163Y2602218D1*
X2109756Y2604521D1*
X2119591Y2605295D1*
X2129426Y2604521D1*
X2139018Y2602218D1*
X2143451Y2600583D1*
X2143465Y3012785D1*
X2138484Y3006007D1*
X2131993Y2999516D1*
X2124566Y2994121D1*
X2116387Y2989953D1*
X2107657Y2987116D1*
X2098590Y2985680D1*
X2089410D1*
X2080343Y2987116D1*
X2071613Y2989953D1*
X2063434Y2994121D1*
X2056007Y2999516D1*
X2049516Y3006007D1*
X2044121Y3013434D1*
X2039953Y3021613D1*
X2037116Y3030343D1*
X2035680Y3039410D1*
Y3048590D1*
X2037116Y3057657D1*
X2039953Y3066387D1*
X2044121Y3074566D1*
X2049516Y3081993D1*
X2056007Y3088484D1*
X2063434Y3093879D1*
X2071613Y3098047D1*
X2080343Y3100884D1*
X2089410Y3102320D1*
X2098590D1*
X2107657Y3100884D1*
X2116387Y3098047D1*
X2124566Y3093879D1*
X2131993Y3088484D1*
X2138484Y3081993D1*
X2143471Y3075178D1*
X2143465Y3184240D1*
X2006328Y3321495D1*
X2003700Y3325113D1*
X2001669Y3329097D1*
X2000287Y3333351D1*
X1999588Y3337768D1*
X1999500Y3431867D1*
X1999588Y3854646D1*
X2000287Y3859063D1*
X2001669Y3863316D1*
X2003700Y3867301D1*
X2006328Y3870919D1*
X2059788Y3924502D1*
X2057495Y3934165D1*
X2056720Y3944000D1*
X2057495Y3953835D1*
X2059798Y3963428D1*
X2063573Y3972542D1*
X2068728Y3980954D1*
X2075135Y3988456D1*
X2080501Y3993180D1*
X2075135Y3997969D1*
X2068728Y4005471D1*
X2063573Y4013883D1*
X2059798Y4022997D1*
X2057495Y4032590D1*
X2056720Y4042425D1*
X2057495Y4052260D1*
X2059798Y4061853D1*
X2063573Y4070968D1*
X2068728Y4079379D1*
X2075135Y4086881D1*
X2082636Y4093288D1*
X2091048Y4098443D1*
X2100163Y4102218D1*
X2109756Y4104521D1*
X2119591Y4105295D1*
X2129426Y4104521D1*
X2139018Y4102218D1*
X2148133Y4098443D1*
X2156545Y4093288D1*
X2164046Y4086881D1*
X2170454Y4079379D1*
X2175608Y4070968D1*
X2179384Y4061853D1*
X2181687Y4052260D1*
X2182461Y4042425D1*
X2181687Y4032590D1*
X2179364Y4022943D1*
X2193636Y4008561D1*
X2196265Y4004942D1*
X2198295Y4000958D1*
X2199677Y3996704D1*
X2200377Y3992287D1*
X2200465Y3898188D1*
X2200377Y3419728D1*
X2199677Y3415311D1*
X2198295Y3411058D1*
X2196265Y3407073D1*
X2193636Y3403455D1*
X2150276Y3359970D1*
X2151780Y3353151D1*
X2152500Y3344000D1*
X2151780Y3334849D1*
X2149637Y3325923D1*
X2146124Y3317442D1*
X2141327Y3309615D1*
X2135366Y3302634D1*
X2128385Y3296673D1*
X2120558Y3291876D1*
X2117739Y3290577D1*
X2193636Y3214549D1*
X2196265Y3210931D1*
X2198295Y3206946D1*
X2199677Y3202693D1*
X2200377Y3198275D1*
X2200465Y3104176D1*
X2200377Y2251994D1*
X2199677Y2247576D1*
X2198295Y2243323D1*
X2196265Y2239338D1*
X2193636Y2235720D1*
X2185139Y2227099D1*
X2676296D1*
X2677634Y2234971D1*
X2677722Y3437299D1*
X2678421Y3441716D1*
X2679803Y3445970D1*
X2681833Y3449954D1*
X2684462Y3453572D1*
X2705624Y3474735D1*
X2709243Y3477363D1*
X2713227Y3479394D1*
X2717481Y3480776D1*
X2721898Y3481475D1*
X2815997Y3481563D1*
X3134757D1*
X3130714Y3489786D1*
X3127393Y3500009D1*
X3125711Y3510626D1*
Y3521374D1*
X3127393Y3531991D1*
X3130714Y3542214D1*
X3135594Y3551791D1*
X3141912Y3560487D1*
X3149513Y3568088D1*
X3158209Y3574406D1*
X3167786Y3579286D1*
X3178009Y3582607D1*
X3188626Y3584289D1*
X3199374D1*
X3209991Y3582607D1*
X3220214Y3579286D1*
X3229791Y3574406D1*
X3238487Y3568088D1*
X3246088Y3560487D1*
X3252406Y3551791D1*
X3257286Y3542214D1*
X3260607Y3531991D1*
X3262289Y3521374D1*
Y3510626D1*
X3260607Y3500009D1*
X3257286Y3489786D1*
X3253155Y3481547D1*
X3275494Y3481563D1*
X3275500Y3584500D1*
X3412500D1*
Y3481548D1*
X3772212Y3481475D1*
X3776630Y3480776D1*
X3780883Y3479394D1*
X3784868Y3477363D1*
X3788486Y3474735D1*
X3807865Y3455479D1*
X3817881Y3459426D1*
X3824268Y3461228D1*
X3830778Y3462522D1*
X3837368Y3463302D1*
X3844000Y3463563D1*
X3850632Y3463302D1*
X3857222Y3462522D1*
X3863732Y3461228D1*
X3870119Y3459426D1*
X3876346Y3457129D1*
X3882373Y3454350D1*
X3888163Y3451108D1*
X3893682Y3447420D1*
X3898894Y3443312D1*
X3903767Y3438807D1*
X3908272Y3433933D1*
X3912381Y3428721D1*
X3916068Y3423203D1*
X3919311Y3417412D1*
X3922090Y3411385D1*
X3924387Y3405159D1*
X3926188Y3398771D1*
X3927483Y3392262D1*
X3928263Y3385671D1*
X3928524Y3379039D1*
X3928263Y3372408D1*
X3927483Y3365817D1*
X3926188Y3359308D1*
X3924387Y3352920D1*
X3922090Y3346694D1*
X3919311Y3340666D1*
X3916068Y3334876D1*
X3912381Y3329358D1*
X3908272Y3324146D1*
X3903767Y3319272D1*
X3898894Y3314767D1*
X3893682Y3310658D1*
X3888163Y3306971D1*
X3882373Y3303728D1*
X3876346Y3300950D1*
X3870119Y3298653D1*
X3863732Y3296851D1*
X3857222Y3295556D1*
X3850632Y3294776D1*
X3844000Y3294516D1*
X3837368Y3294776D1*
X3830778Y3295556D1*
X3824268Y3296851D1*
X3817881Y3298653D1*
X3811654Y3300950D1*
X3805627Y3303728D1*
X3799837Y3306971D1*
X3794318Y3310658D1*
X3789106Y3314767D1*
X3784233Y3319272D1*
X3779728Y3324146D1*
X3775619Y3329358D1*
X3771932Y3334876D1*
X3768689Y3340666D1*
X3765910Y3346694D1*
X3763613Y3352920D1*
X3761812Y3359308D1*
X3760517Y3365817D1*
X3759737Y3372408D1*
X3759476Y3379039D1*
X3759737Y3385671D1*
X3760517Y3392262D1*
X3761812Y3398771D1*
X3763613Y3405159D1*
X3767636Y3415129D1*
X3758154Y3424580D1*
X2915251Y3424563D1*
X2919311Y3417412D1*
X2922090Y3411385D1*
X2924387Y3405159D1*
X2926188Y3398771D1*
X2927483Y3392262D1*
X2928263Y3385671D1*
X2928524Y3379039D1*
X2928263Y3372408D1*
X2927483Y3365817D1*
X2926188Y3359308D1*
X2924387Y3352920D1*
X2922090Y3346694D1*
X2919311Y3340666D1*
X2916068Y3334876D1*
X2912381Y3329358D1*
X2908272Y3324146D1*
X2903767Y3319272D1*
X2898894Y3314767D1*
X2893682Y3310658D1*
X2888163Y3306971D1*
X2882373Y3303728D1*
X2876346Y3300950D1*
X2870119Y3298653D1*
X2863732Y3296851D1*
X2857222Y3295556D1*
X2850632Y3294776D1*
X2844000Y3294516D1*
X2837368Y3294776D1*
X2830778Y3295556D1*
X2824268Y3296851D1*
X2817881Y3298653D1*
X2807911Y3302675D1*
X2770650Y3265384D1*
X2770634Y3235942D1*
X2775619Y3243682D1*
X2779728Y3248894D1*
X2784233Y3253767D1*
X2789106Y3258272D1*
X2794318Y3262381D1*
X2799837Y3266068D1*
X2805627Y3269311D1*
X2811654Y3272090D1*
X2817881Y3274387D1*
X2824268Y3276188D1*
X2830778Y3277483D1*
X2837368Y3278263D1*
X2844000Y3278524D1*
X2850632Y3278263D1*
X2857222Y3277483D1*
X2863732Y3276188D1*
X2870119Y3274387D1*
X2876346Y3272090D1*
X2882373Y3269311D1*
X2888163Y3266068D1*
X2893682Y3262381D1*
X2898894Y3258272D1*
X2903767Y3253767D1*
X2908272Y3248894D1*
X2912381Y3243682D1*
X2916068Y3238163D1*
X2919311Y3232373D1*
X2923516Y3222479D1*
X3064240Y3222412D1*
X3068657Y3221713D1*
X3072910Y3220331D1*
X3076895Y3218300D1*
X3080513Y3215672D1*
X3123795Y3172514D1*
X3242945Y3172500D1*
X3246673Y3178385D1*
X3252634Y3185366D1*
X3259615Y3191327D1*
X3263637Y3193993D1*
X3256007Y3199516D1*
X3249516Y3206007D1*
X3244121Y3213434D1*
X3239953Y3221613D1*
X3237116Y3230343D1*
X3235680Y3239410D1*
Y3248590D1*
X3237116Y3257657D1*
X3239953Y3266387D1*
X3244121Y3274566D1*
X3249516Y3281993D1*
X3256007Y3288484D1*
X3263434Y3293879D1*
X3265485Y3295028D1*
X3265500Y3314225D1*
X3257627Y3315500D1*
X3245104D1*
X3241327Y3309615D1*
X3235366Y3302634D1*
X3228385Y3296673D1*
X3220558Y3291876D1*
X3212077Y3288363D1*
X3203151Y3286220D1*
X3194000Y3285500D1*
X3184849Y3286220D1*
X3175923Y3288363D1*
X3167442Y3291876D1*
X3159615Y3296673D1*
X3152634Y3302634D1*
X3146673Y3309615D1*
X3144007Y3313637D1*
X3138484Y3306007D1*
X3131993Y3299516D1*
X3124566Y3294121D1*
X3116387Y3289953D1*
X3107657Y3287116D1*
X3098590Y3285680D1*
X3089410D1*
X3080343Y3287116D1*
X3071613Y3289953D1*
X3063434Y3294121D1*
X3056007Y3299516D1*
X3049516Y3306007D1*
X3044121Y3313434D1*
X3039953Y3321613D1*
X3037116Y3330343D1*
X3035680Y3339410D1*
Y3348590D1*
X3037116Y3357657D1*
X3039953Y3366387D1*
X3044121Y3374566D1*
X3049516Y3381993D1*
X3056007Y3388484D1*
X3063434Y3393879D1*
X3071613Y3398047D1*
X3080343Y3400884D1*
X3089410Y3402320D1*
X3098590D1*
X3107657Y3400884D1*
X3116387Y3398047D1*
X3124566Y3393879D1*
X3131993Y3388484D1*
X3138484Y3381993D1*
X3143993Y3374363D1*
X3149516Y3381993D1*
X3156007Y3388484D1*
X3163434Y3393879D1*
X3171613Y3398047D1*
X3180343Y3400884D1*
X3189410Y3402320D1*
X3198590D1*
X3207657Y3400884D1*
X3216387Y3398047D1*
X3224566Y3393879D1*
X3231993Y3388484D1*
X3238484Y3381993D1*
X3243879Y3374566D1*
X3245028Y3372515D1*
X3278236Y3372412D1*
X3282653Y3371713D1*
X3286907Y3370331D1*
X3290891Y3368300D1*
X3294509Y3365672D1*
X3315672Y3344509D1*
X3318300Y3340891D1*
X3320331Y3336907D1*
X3321713Y3332653D1*
X3322412Y3328236D1*
X3322500Y3295104D1*
X3328385Y3291327D1*
X3335366Y3285366D1*
X3341327Y3278385D1*
X3343993Y3274363D1*
X3349516Y3281993D1*
X3356007Y3288484D1*
X3363434Y3293879D1*
X3371613Y3298047D1*
X3380343Y3300884D1*
X3389410Y3302320D1*
X3398590D1*
X3407657Y3300884D1*
X3416387Y3298047D1*
X3424566Y3293879D1*
X3431993Y3288484D1*
X3438484Y3281993D1*
X3443879Y3274566D1*
X3448047Y3266387D1*
X3450884Y3257657D1*
X3452320Y3248590D1*
Y3239410D1*
X3450884Y3230343D1*
X3448047Y3221613D1*
X3443879Y3213434D1*
X3438484Y3206007D1*
X3431993Y3199516D1*
X3424363Y3194007D1*
X3431993Y3188484D1*
X3438484Y3181993D1*
X3443879Y3174566D1*
X3448047Y3166387D1*
X3450884Y3157657D1*
X3452320Y3148590D1*
Y3139410D1*
X3450884Y3130343D1*
X3448047Y3121613D1*
X3443879Y3113434D1*
X3438484Y3106007D1*
X3431993Y3099516D1*
X3424566Y3094121D1*
X3422515Y3092972D1*
X3422500Y3073775D1*
X3430373Y3072500D1*
X3442896D1*
X3446673Y3078385D1*
X3452634Y3085366D1*
X3459615Y3091327D1*
X3467442Y3096124D1*
X3475923Y3099637D1*
X3484849Y3101780D1*
X3494000Y3102500D1*
X3503151Y3101780D1*
X3512077Y3099637D1*
X3520558Y3096124D1*
X3528385Y3091327D1*
X3535366Y3085366D1*
X3541327Y3078385D1*
X3546124Y3070558D1*
X3549637Y3062077D1*
X3551780Y3053151D1*
X3552500Y3044000D1*
X3551780Y3034849D1*
X3549637Y3025923D1*
X3546124Y3017442D1*
X3541327Y3009615D1*
X3535366Y3002634D1*
X3528385Y2996673D1*
X3520558Y2991876D1*
X3512077Y2988363D1*
X3503151Y2986220D1*
X3494000Y2985500D1*
X3484849Y2986220D1*
X3475923Y2988363D1*
X3467442Y2991876D1*
X3459615Y2996673D1*
X3452634Y3002634D1*
X3446673Y3009615D1*
X3442972Y3015485D1*
X3409764Y3015588D1*
X3405347Y3016287D1*
X3401093Y3017669D1*
X3397109Y3019700D1*
X3393491Y3022328D1*
X3372328Y3043491D1*
X3369700Y3047109D1*
X3367669Y3051093D1*
X3366287Y3055347D1*
X3365588Y3059764D1*
X3365500Y3092896D1*
X3359615Y3096673D1*
X3352634Y3102634D1*
X3346673Y3109615D1*
X3344007Y3113637D1*
X3338484Y3106007D1*
X3331993Y3099516D1*
X3324566Y3094121D1*
X3316387Y3089953D1*
X3307657Y3087116D1*
X3298590Y3085680D1*
X3289410D1*
X3280343Y3087116D1*
X3271613Y3089953D1*
X3263434Y3094121D1*
X3256007Y3099516D1*
X3249516Y3106007D1*
X3244121Y3113434D1*
X3242972Y3115485D1*
X3123801Y3115500D1*
X3122500Y3107623D1*
Y3095100D1*
X3128385Y3091327D1*
X3135366Y3085366D1*
X3141327Y3078385D1*
X3143993Y3074363D1*
X3147734Y3079801D1*
X3152585Y3085316D1*
X3158088Y3090180D1*
X3164157Y3094315D1*
X3170696Y3097658D1*
X3177603Y3100155D1*
X3184768Y3101767D1*
X3192079Y3102468D1*
X3199420Y3102248D1*
X3206675Y3101110D1*
X3213731Y3099072D1*
X3220476Y3096166D1*
X3226803Y3092437D1*
X3232614Y3087946D1*
X3237816Y3082761D1*
X3242327Y3076966D1*
X3246077Y3070651D1*
X3249005Y3063916D1*
X3251067Y3056867D1*
X3252230Y3049615D1*
X3252471Y3042163D1*
X3251780Y3034851D1*
X3250179Y3027684D1*
X3247692Y3020774D1*
X3244358Y3014229D1*
X3240231Y3008154D1*
X3235376Y3002644D1*
X3229868Y2997786D1*
X3223795Y2993656D1*
X3217252Y2990320D1*
X3210343Y2987829D1*
X3203176Y2986224D1*
X3195865Y2985530D1*
X3188524Y2985757D1*
X3181270Y2986902D1*
X3174216Y2988947D1*
X3167474Y2991860D1*
X3161150Y2995594D1*
X3155344Y3000091D1*
X3150147Y3005281D1*
X3145641Y3011081D1*
X3144004Y3013637D1*
X3138484Y3006007D1*
X3131993Y2999516D1*
X3124566Y2994121D1*
X3116387Y2989953D1*
X3107657Y2987116D1*
X3098590Y2985680D1*
X3089410D1*
X3080343Y2987116D1*
X3071613Y2989953D1*
X3063434Y2994121D1*
X3056007Y2999516D1*
X3049516Y3006007D1*
X3044121Y3013434D1*
X3039953Y3021613D1*
X3037116Y3030343D1*
X3035680Y3039410D1*
Y3048590D1*
X3037116Y3057657D1*
X3039953Y3066387D1*
X3044121Y3074566D1*
X3049516Y3081993D1*
X3056007Y3088484D1*
X3063434Y3093879D1*
X3065485Y3095028D1*
X3065588Y3128232D1*
X3066287Y3132649D1*
X3067669Y3136903D1*
X3069700Y3140887D1*
X3070948Y3142755D1*
X3065868Y3149830D1*
X3050213Y3165486D1*
X2923599Y3165500D1*
X2919311Y3155627D1*
X2916068Y3149837D1*
X2912381Y3144318D1*
X2908272Y3139106D1*
X2903767Y3134233D1*
X2898894Y3129728D1*
X2893682Y3125619D1*
X2888163Y3121932D1*
X2882373Y3118689D1*
X2876346Y3115910D1*
X2870119Y3113613D1*
X2863732Y3111812D1*
X2857222Y3110517D1*
X2850632Y3109737D1*
X2844000Y3109476D1*
X2837368Y3109737D1*
X2830778Y3110517D1*
X2824268Y3111812D1*
X2817881Y3113613D1*
X2811654Y3115910D1*
X2805627Y3118689D1*
X2799837Y3121932D1*
X2794318Y3125619D1*
X2789106Y3129728D1*
X2784233Y3134233D1*
X2779728Y3139106D1*
X2775619Y3144318D1*
X2770627Y3152166D1*
X2770634Y3093482D1*
X2928524Y3093484D1*
Y2964768D1*
X2986777Y2906365D1*
X2989405Y2902747D1*
X2991436Y2898762D1*
X2992818Y2894509D1*
X2993517Y2890092D1*
X2993605Y2795992D1*
Y2511897D1*
X3056888Y2448582D1*
X3058458Y2458677D1*
X3061506Y2468059D1*
X3065985Y2476850D1*
X3071784Y2484831D1*
X3078760Y2491807D1*
X3080501Y2493180D1*
X3075135Y2497969D1*
X3068728Y2505471D1*
X3063573Y2513883D1*
X3059798Y2522997D1*
X3057495Y2532590D1*
X3056720Y2542425D1*
X3057495Y2552260D1*
X3059798Y2561853D1*
X3063573Y2570968D1*
X3068728Y2579379D1*
X3075135Y2586881D1*
X3082636Y2593288D1*
X3091048Y2598443D1*
X3100163Y2602218D1*
X3109756Y2604521D1*
X3119591Y2605295D1*
X3129426Y2604521D1*
X3139018Y2602218D1*
X3148133Y2598443D1*
X3156545Y2593288D1*
X3164046Y2586881D1*
X3170012Y2579940D1*
X3175353Y2582614D1*
X3181845Y2584723D1*
X3188587Y2585791D1*
X3195413D1*
X3202155Y2584723D1*
X3208647Y2582614D1*
X3214729Y2579515D1*
X3220251Y2575503D1*
X3225078Y2570676D1*
X3229090Y2565154D1*
X3232189Y2559072D1*
X3234298Y2552580D1*
X3235366Y2545838D1*
Y2539012D1*
X3234298Y2532270D1*
X3232189Y2525778D1*
X3229090Y2519697D1*
X3225078Y2514174D1*
X3220251Y2509348D1*
X3214729Y2505335D1*
X3208647Y2502236D1*
X3202155Y2500127D1*
X3195413Y2499059D1*
X3188587D1*
X3181845Y2500127D1*
X3175353Y2502236D1*
X3170028Y2504912D1*
X3164046Y2497969D1*
X3158680Y2493246D1*
X3164046Y2488456D1*
X3170454Y2480954D1*
X3175608Y2472542D1*
X3179384Y2463428D1*
X3181687Y2453835D1*
X3182461Y2444000D1*
X3181687Y2434165D1*
X3179384Y2424572D1*
X3175608Y2415458D1*
X3171386Y2408441D1*
X3182461Y2408445D1*
Y2282705D1*
X3056721D1*
Y2368145D1*
X2943433Y2481551D1*
X2940805Y2485169D1*
X2938774Y2489154D1*
X2937392Y2493407D1*
X2936693Y2497824D1*
X2936605Y2591924D1*
Y2610117D1*
X2934326Y2601560D1*
X2932082Y2595478D1*
X2929368Y2589592D1*
X2926201Y2583936D1*
X2922600Y2578546D1*
X2918586Y2573456D1*
X2914186Y2568696D1*
X2909426Y2564295D1*
X2904336Y2560282D1*
X2898946Y2556681D1*
X2893290Y2553514D1*
X2887403Y2550800D1*
X2881322Y2548556D1*
X2875083Y2546797D1*
X2868725Y2545532D1*
X2862288Y2544770D1*
X2846625Y2544516D1*
X2832189D1*
X2825712Y2544770D1*
X2819275Y2545532D1*
X2812917Y2546797D1*
X2806678Y2548556D1*
X2800597Y2550800D1*
X2794710Y2553514D1*
X2789054Y2556681D1*
X2783664Y2560282D1*
X2778574Y2564295D1*
X2770634Y2572135D1*
Y2315944D1*
X2778574Y2323705D1*
X2783664Y2327718D1*
X2789054Y2331319D1*
X2794710Y2334486D1*
X2800597Y2337200D1*
X2806678Y2339444D1*
X2812917Y2341203D1*
X2819275Y2342468D1*
X2825712Y2343230D1*
X2841375Y2343484D1*
X2862288Y2343230D1*
X2868725Y2342468D1*
X2875083Y2341203D1*
X2881322Y2339444D1*
X2887403Y2337200D1*
X2893290Y2334486D1*
X2898946Y2331319D1*
X2904336Y2327718D1*
X2909426Y2323705D1*
X2914186Y2319304D1*
X2918586Y2314544D1*
X2922600Y2309454D1*
X2926201Y2304064D1*
X2929368Y2298408D1*
X2932082Y2292522D1*
X2934326Y2286440D1*
X2936085Y2280201D1*
X2937350Y2273844D1*
X2938112Y2267406D1*
X2938366Y2260929D1*
X2938112Y2254452D1*
X2937350Y2248015D1*
X2936085Y2241657D1*
X2934326Y2235418D1*
X2932082Y2229337D1*
X2929368Y2223450D1*
X2926201Y2217794D1*
X2922600Y2212404D1*
X2918586Y2207314D1*
X2914186Y2202554D1*
X2909426Y2198154D1*
X2904336Y2194141D1*
X2898946Y2190539D1*
X2893290Y2187372D1*
X2887403Y2184658D1*
X2881322Y2182415D1*
X2875083Y2180655D1*
X2868725Y2179390D1*
X2862288Y2178629D1*
X2846625Y2178374D1*
X2832189D1*
X2825712Y2178629D1*
X2819275Y2179390D1*
X2812917Y2180655D1*
X2806678Y2182415D1*
X2800597Y2184658D1*
X2794710Y2187372D1*
X2789054Y2190539D1*
X2783664Y2194141D1*
X2778574Y2198154D1*
X2770634Y2205994D1*
Y2128772D1*
X2808701Y2090671D1*
X2815485Y2095028D1*
X2815588Y2127236D1*
X2816287Y2131653D1*
X2817669Y2135906D1*
X2819700Y2139891D1*
X2822328Y2143509D1*
X2843491Y2164672D1*
X2847109Y2167300D1*
X2851094Y2169331D1*
X2855347Y2170713D1*
X2859764Y2171412D1*
X2953864Y2171500D1*
X3679406D1*
X3680690Y2179373D1*
X3680778Y2876387D1*
X3681478Y2880804D1*
X3682860Y2885057D1*
X3684890Y2889042D1*
X3687519Y2892660D1*
X3753995Y2959261D1*
X3759501Y2964767D1*
X3759477Y3093484D1*
X3928524D1*
Y2924437D1*
X3799807D1*
X3737714Y2862370D1*
X3737603Y2158764D1*
X3736903Y2154347D1*
X3735521Y2150093D1*
X3733491Y2146109D1*
X3730862Y2142491D1*
X3729337Y2140841D1*
X3729003Y2138500D1*
X3872216D1*
X4056731Y2323020D1*
X4056721Y2408445D1*
X4067737D1*
X4063573Y2415458D1*
X4059798Y2424572D1*
X4057495Y2434165D1*
X4056720Y2444000D1*
X4057495Y2453835D1*
X4059798Y2463428D1*
X4063573Y2472542D1*
X4068728Y2480954D1*
X4075135Y2488456D1*
X4080501Y2493180D1*
X4075135Y2497969D1*
X4068728Y2505471D1*
X4063573Y2513883D1*
X4059798Y2522997D1*
X4057495Y2532590D1*
X4056720Y2542425D1*
X4057495Y2552260D1*
X4059798Y2561853D1*
X4063573Y2570968D1*
X4068728Y2579379D1*
X4075135Y2586881D1*
X4082636Y2593288D1*
X4091048Y2598443D1*
X4100163Y2602218D1*
X4109756Y2604521D1*
X4119591Y2605295D1*
X4129426Y2604521D1*
X4139018Y2602218D1*
X4148133Y2598443D1*
X4156545Y2593288D1*
X4164046Y2586881D1*
X4170454Y2579379D1*
X4175608Y2570968D1*
X4179462Y2561575D1*
X4179464Y3782733D1*
X4056720Y3782705D1*
Y3908445D1*
X4067737D1*
X4063573Y3915458D1*
X4059798Y3924572D1*
X4057495Y3934165D1*
X4056720Y3944000D1*
X4057495Y3953835D1*
X4059798Y3963428D1*
X4063573Y3972542D1*
X4068728Y3980954D1*
X4075135Y3988456D1*
X4080501Y3993180D1*
X4075135Y3997969D1*
X4068728Y4005471D1*
X4063573Y4013883D1*
X4059798Y4022997D1*
X4057495Y4032590D1*
X4056720Y4042425D1*
X4057495Y4052260D1*
X4059798Y4061853D1*
X4063573Y4070968D1*
X4068728Y4079379D1*
X4075135Y4086881D1*
X4082636Y4093288D1*
X4091048Y4098443D1*
X4100163Y4102218D1*
X4100924Y4102433D1*
X4091292Y4113319D1*
X4085817Y4120693D1*
X4080846Y4128417D1*
X4076401Y4136454D1*
X4072503Y4144771D1*
X4069168Y4153328D1*
X4066411Y4162089D1*
X4064244Y4171015D1*
X4062678Y4180065D1*
X4061718Y4189199D1*
X4061370Y4198377D1*
X4061635Y4207558D1*
X4062512Y4216701D1*
X4063996Y4225765D1*
X4066082Y4234709D1*
X4068760Y4243495D1*
X4072017Y4252083D1*
X4075840Y4260434D1*
X4080212Y4268511D1*
X4085113Y4276279D1*
X4090521Y4283703D1*
X4098123Y4292539D1*
X629945Y4292523D1*
X636320Y4285168D1*
X641828Y4277818D1*
X646833Y4270117D1*
X651314Y4262100D1*
X655250Y4253801D1*
X658624Y4245259D1*
X661421Y4236510D1*
X663628Y4227595D1*
X665235Y4218552D1*
X666236Y4209422D1*
X666631Y4199000D1*
X666325Y4189820D1*
X665407Y4180682D1*
X663881Y4171625D1*
X661755Y4162690D1*
X659038Y4153916D1*
X655741Y4145343D1*
X651880Y4137010D1*
X647472Y4128952D1*
X642536Y4121206D1*
X637095Y4113807D1*
X631172Y4106787D1*
X624794Y4100178D1*
X617990Y4094009D1*
X610789Y4088307D1*
X603224Y4083099D1*
X595329Y4078406D1*
X587138Y4074251D1*
X578688Y4070651D1*
X570017Y4067623D1*
X561163Y4065180D1*
X552166Y4063332D1*
X543066Y4062089D1*
X533904Y4061456D1*
X524719Y4061435D1*
X515553Y4062027D1*
X506448Y4063229D1*
X497442Y4065036D1*
X488578Y4067439D1*
X479893Y4070428D1*
X471427Y4073989D1*
X463217Y4078107D1*
X455301Y4082764D1*
X447712Y4087938D1*
X440486Y4093607D1*
X432477Y4100954D1*
X432484Y627146D1*
X439536Y633587D1*
X446711Y639321D1*
X454252Y644564D1*
X462126Y649292D1*
X470298Y653485D1*
X478732Y657123D1*
X487389Y660190D1*
X496231Y662673D1*
X505220Y664561D1*
X514314Y665845D1*
X523474Y666520D1*
X532659Y666583D1*
X541827Y666032D1*
X550938Y664872D1*
X559951Y663106D1*
X568827Y660743D1*
X577525Y657793D1*
X586007Y654270D1*
X594235Y650189D1*
X602173Y645568D1*
X609784Y640428D1*
X617036Y634792D1*
X623896Y628685D1*
X630334Y622134D1*
X636320Y615168D1*
X641828Y607818D1*
X646833Y600117D1*
X651314Y592100D1*
X655250Y583801D1*
X658624Y575259D1*
X661421Y566510D1*
X663628Y557595D1*
X665235Y548552D1*
X666236Y539422D1*
X666631Y529000D1*
X666325Y519820D1*
X665407Y510682D1*
X663881Y501625D1*
X661755Y492690D1*
X659038Y483916D1*
X655741Y475343D1*
X651880Y467010D1*
X647472Y458952D1*
X642536Y451206D1*
X637095Y443807D1*
X631172Y436787D1*
X627012Y432476D1*
X4100876Y432484D1*
X4091292Y443319D1*
X4085817Y450693D1*
X4080846Y458417D1*
X4076401Y466454D1*
X4072503Y474771D1*
X4069168Y483328D1*
X4066411Y492089D1*
X4064244Y501015D1*
X4062678Y510065D1*
X4061718Y519199D1*
X4061370Y528377D1*
X4061635Y537558D1*
X4062512Y546701D1*
X4063996Y555765D1*
X4066082Y564709D1*
X4068760Y573495D1*
X4072017Y582083D1*
X4075840Y590434D1*
X4080212Y598511D1*
X4085113Y606279D1*
X4090521Y613703D1*
X4096412Y620750D1*
X4102759Y627388D1*
X4109536Y633587D1*
X4116711Y639321D1*
X4124252Y644564D1*
X4132126Y649292D1*
X4140298Y653485D1*
X4148732Y657123D1*
X4157389Y660190D1*
X4166231Y662673D1*
X4175220Y664561D1*
X4184314Y665845D1*
X4193474Y666520D1*
X4202659Y666583D1*
X4211827Y666032D1*
X4220938Y664872D1*
X4229951Y663106D1*
X4238827Y660743D1*
X4247525Y657793D1*
X4256007Y654270D1*
X4264235Y650189D1*
X4272173Y645568D1*
X4279784Y640428D1*
X4287036Y634792D1*
X4292530Y629902D1*
X4292524Y4098006D1*
X4280789Y4088307D1*
X4273224Y4083099D1*
X4265329Y4078406D1*
X4257138Y4074251D1*
X4248688Y4070651D1*
X4240017Y4067623D1*
X4231163Y4065180D1*
X4222166Y4063332D1*
X4213066Y4062089D1*
X4203904Y4061456D1*
X4194719Y4061435D1*
X4185553Y4062027D1*
X4179044Y4062886D1*
X4180724Y4057102D1*
X4182267Y4047358D1*
Y4037492D1*
X4180724Y4027748D1*
X4177675Y4018366D1*
X4173196Y4009576D1*
X4167397Y4001594D1*
X4160421Y3994618D1*
X4158680Y3993246D1*
X4164046Y3988456D1*
X4170454Y3980954D1*
X4175608Y3972542D1*
X4179384Y3963428D1*
X4181687Y3953835D1*
X4182461Y3944000D1*
X4181687Y3934165D1*
X4179364Y3924518D1*
X4229636Y3874135D1*
X4232265Y3870517D1*
X4234295Y3866532D1*
X4235677Y3862279D1*
X4236377Y3857862D1*
X4236465Y3763762D1*
X4236377Y1807764D1*
X4235677Y1803347D1*
X4234295Y1799093D1*
X4232265Y1795109D1*
X4229636Y1791491D1*
X4208474Y1770328D1*
X4204856Y1767700D1*
X4200871Y1765669D1*
X4196618Y1764287D1*
X4192201Y1763588D1*
X4098101Y1763500D1*
X3892090D1*
X3898894Y1758272D1*
X3903767Y1753767D1*
X3908272Y1748894D1*
X3912381Y1743682D1*
X3916068Y1738163D1*
X3919311Y1732373D1*
X3922090Y1726346D1*
X3924387Y1720119D1*
X3926188Y1713732D1*
X3927483Y1707222D1*
X3928263Y1700632D1*
X3928524Y1694000D1*
X3928263Y1687368D1*
X3927483Y1680778D1*
X3926188Y1674268D1*
X3924387Y1667881D1*
X3922090Y1661654D1*
X3919311Y1655627D1*
X3916068Y1649837D1*
X3912381Y1644318D1*
X3908272Y1639106D1*
X3903767Y1634233D1*
X3898894Y1629728D1*
X3893682Y1625619D1*
X3888163Y1621932D1*
X3882373Y1618689D1*
X3876346Y1615910D1*
X3870119Y1613613D1*
X3863732Y1611812D1*
X3857222Y1610517D1*
X3850632Y1609737D1*
X3844000Y1609476D1*
X3837368Y1609737D1*
X3830778Y1610517D1*
X3824268Y1611812D1*
X3817881Y1613613D1*
X3811654Y1615910D1*
X3805627Y1618689D1*
X3799837Y1621932D1*
X3794318Y1625619D1*
X3789106Y1629728D1*
X3784233Y1634233D1*
X3779728Y1639106D1*
X3775619Y1644318D1*
X3771932Y1649837D1*
X3768689Y1655627D1*
X3764484Y1665521D1*
X3592488Y1665500D1*
X3594432Y1660386D1*
X3596375Y1652295D1*
X3597028Y1644000D1*
X3596375Y1635705D1*
X3594432Y1627614D1*
X3591248Y1619926D1*
X3586900Y1612831D1*
X3581496Y1606504D1*
X3575169Y1601100D1*
X3568074Y1596752D1*
X3560386Y1593568D1*
X3552295Y1591625D1*
X3544000Y1590972D1*
X3535705Y1591625D1*
X3527614Y1593568D1*
X3519926Y1596752D1*
X3512831Y1601100D1*
X3506504Y1606504D1*
X3501100Y1612831D1*
X3496752Y1619926D1*
X3494024Y1626378D1*
X3491248Y1619926D1*
X3486900Y1612831D1*
X3481496Y1606504D1*
X3475169Y1601100D1*
X3468074Y1596752D1*
X3460386Y1593568D1*
X3452295Y1591625D1*
X3444000Y1590972D1*
X3435705Y1591625D1*
X3427614Y1593568D1*
X3419926Y1596752D1*
X3415035Y1599627D1*
X3415028Y1388428D1*
X3419926Y1391248D1*
X3427614Y1394432D1*
X3435705Y1396375D1*
X3444000Y1397028D1*
X3452295Y1396375D1*
X3460386Y1394432D1*
X3468074Y1391248D1*
X3475169Y1386900D1*
X3481496Y1381496D1*
X3486900Y1375169D1*
X3491248Y1368074D1*
X3493976Y1361622D1*
X3496752Y1368074D1*
X3501100Y1375169D1*
X3506504Y1381496D1*
X3512831Y1386900D1*
X3519926Y1391248D1*
X3527614Y1394432D1*
X3535705Y1396375D1*
X3544000Y1397028D1*
X3552295Y1396375D1*
X3560386Y1394432D1*
X3568074Y1391248D1*
X3575169Y1386900D1*
X3581496Y1381496D1*
X3586900Y1375169D1*
X3591248Y1368074D1*
X3594432Y1360386D1*
X3596375Y1352295D1*
X3597028Y1344000D1*
X3596375Y1335705D1*
X3594432Y1327614D1*
X3591248Y1319926D1*
X3586900Y1312831D1*
X3581496Y1306504D1*
X3575169Y1301100D1*
X3572505Y1299320D1*
X3572412Y1041764D1*
X3571713Y1037347D1*
X3570331Y1033093D1*
X3568300Y1029109D1*
X3565672Y1025491D1*
X3500286Y959981D1*
X3501780Y953151D1*
X3502500Y944000D1*
X3501780Y934849D1*
X3499637Y925923D1*
X3496124Y917442D1*
X3491327Y909615D1*
X3485366Y902634D1*
X3478385Y896673D1*
X3470558Y891876D1*
X3462077Y888363D1*
X3453151Y886220D1*
X3444000Y885500D1*
X3434849Y886220D1*
X3425923Y888363D1*
X3417442Y891876D1*
X3415015Y893235D1*
X3414940Y493764D1*
X3414240Y489347D1*
X3412858Y485093D1*
X3410828Y481109D1*
X3408199Y477491D1*
X3387037Y456328D1*
X3383419Y453700D1*
X3379434Y451669D1*
X3375181Y450287D1*
X3370764Y449588D1*
X3276664Y449500D1*
X1407764Y449588D1*
X1403347Y450287D1*
X1399093Y451669D1*
X1395109Y453700D1*
X1391491Y456328D1*
X1359982Y487713D1*
X1353151Y486220D1*
X1344000Y485500D1*
X1334849Y486220D1*
X1325923Y488363D1*
X1317442Y491876D1*
X1309615Y496673D1*
X1302634Y502634D1*
X1296673Y509615D1*
X1294007Y513637D1*
X1288484Y506007D1*
X1281993Y499516D1*
X1274566Y494121D1*
X1266387Y489953D1*
X1257657Y487116D1*
X1248590Y485680D1*
X1239410D1*
X1230343Y487116D1*
X1221613Y489953D1*
X1213434Y494121D1*
X1206007Y499516D1*
X1199516Y506007D1*
X1194007Y513637D1*
X1188484Y506007D1*
X1181993Y499516D1*
X1174566Y494121D1*
X1166387Y489953D1*
X1157657Y487116D1*
X1148590Y485680D1*
X1139410D1*
X1130343Y487116D1*
X1121613Y489953D1*
X1113434Y494121D1*
X1106007Y499516D1*
X1099516Y506007D1*
X1094121Y513434D1*
X1089953Y521613D1*
X1087116Y530343D1*
X1085680Y539410D1*
Y548590D1*
X1087116Y557657D1*
X1089953Y566387D1*
X1094121Y574566D1*
X1099516Y581993D1*
X1106007Y588484D1*
X1113434Y593879D1*
X1121613Y598047D1*
X1130343Y600884D1*
X1139410Y602320D1*
X1148590D1*
X1157657Y600884D1*
X1159919Y600246D1*
X1173491Y613672D1*
X1177109Y616300D1*
X1181093Y618331D1*
X1185347Y619713D1*
X1189764Y620412D1*
X1283864Y620500D1*
X1490331Y620722D1*
X1487837Y627630D1*
X1486229Y634796D1*
X1485531Y642107D1*
X1485754Y649448D1*
X1486896Y656703D1*
X1488937Y663758D1*
X1491847Y670501D1*
X1495578Y676827D1*
X1500073Y682635D1*
X1505260Y687834D1*
X1511057Y692343D1*
X1513637Y693996D1*
X1506007Y699516D1*
X1499516Y706007D1*
X1494121Y713434D1*
X1489953Y721613D1*
X1487116Y730343D1*
X1485680Y739410D1*
Y748590D1*
X1487116Y757657D1*
X1489953Y766387D1*
X1494121Y774566D1*
X1499516Y781993D1*
X1506007Y788484D1*
X1513434Y793879D1*
X1521613Y798047D1*
X1530343Y800884D1*
X1539410Y802320D1*
X1548590D1*
X1557657Y800884D1*
X1566387Y798047D1*
X1574566Y793879D1*
X1581993Y788484D1*
X1588484Y781993D1*
X1593879Y774566D1*
X1598047Y766387D1*
X1600884Y757657D1*
X1602320Y748590D1*
Y739410D1*
X1600884Y730343D1*
X1598047Y721613D1*
X1593879Y713434D1*
X1588484Y706007D1*
X1581993Y699516D1*
X1574363Y694007D1*
X1579779Y690283D1*
X1585296Y685435D1*
X1590162Y679934D1*
X1594301Y673867D1*
X1597647Y667329D1*
X1600147Y660424D1*
X1601763Y653260D1*
X1602468Y645949D1*
X1602241Y638496D1*
X1601092Y631242D1*
X1599044Y624190D1*
X1597570Y620505D1*
X3314227Y620500D1*
X3315500Y628373D1*
Y803667D1*
X3308647Y800103D1*
X3302155Y797993D1*
X3295413Y796925D1*
X3288587D1*
X3281845Y797993D1*
X3275353Y800103D1*
X3269271Y803201D1*
X3263749Y807214D1*
X3258922Y812040D1*
X3254910Y817563D1*
X3251811Y823645D1*
X3249702Y830136D1*
X3248634Y836878D1*
Y843704D1*
X3249702Y850446D1*
X3251811Y856938D1*
X3254910Y863020D1*
X3258922Y868542D1*
X3263504Y873143D1*
X3263500Y988816D1*
X3254986Y986541D1*
X3247700Y985617D1*
X3240356Y985614D1*
X3233069Y986530D1*
X3225955Y988353D1*
X3220505Y990430D1*
X3220412Y875764D1*
X3219713Y871347D1*
X3218331Y867094D1*
X3216300Y863109D1*
X3213672Y859491D1*
X3192509Y838328D1*
X3188891Y835700D1*
X3184906Y833669D1*
X3180653Y832287D1*
X3176236Y831588D1*
X3082136Y831500D1*
X2425764Y831588D1*
X2421347Y832287D1*
X2417093Y833669D1*
X2413109Y835700D1*
X2409491Y838328D1*
X2359967Y887728D1*
X2353151Y886220D1*
X2344000Y885500D1*
X2334849Y886220D1*
X2325923Y888363D1*
X2317442Y891876D1*
X2309615Y896673D1*
X2302634Y902634D1*
X2296673Y909615D1*
X2294007Y913637D1*
X2290231Y908154D1*
X2285376Y902644D1*
X2279868Y897786D1*
X2273795Y893656D1*
X2267252Y890320D1*
X2260343Y887829D1*
X2253176Y886224D1*
X2245865Y885530D1*
X2238524Y885757D1*
X2231270Y886902D1*
X2224216Y888947D1*
X2217474Y891860D1*
X2211150Y895594D1*
X2205344Y900091D1*
X2200147Y905281D1*
X2195641Y911081D1*
X2191898Y917399D1*
X2188975Y924137D1*
X2186920Y931188D1*
X2185765Y938440D1*
X2185527Y945781D1*
X2186211Y953093D1*
X2187806Y960262D1*
X2190286Y967175D1*
X2193613Y973722D1*
X2197734Y979801D1*
X2202585Y985316D1*
X2208088Y990180D1*
X2214157Y994315D1*
X2220696Y997658D1*
X2227603Y1000155D1*
X2234768Y1001767D1*
X2242079Y1002468D1*
X2249420Y1002248D1*
X2256675Y1001110D1*
X2263731Y999072D1*
X2270476Y996166D1*
X2276803Y992437D1*
X2282614Y987946D1*
X2287816Y982761D1*
X2292327Y976966D1*
X2293996Y974362D1*
X2299516Y981993D1*
X2306007Y988484D1*
X2313434Y993879D1*
X2315485Y995028D1*
X2315500Y1162212D1*
X2307627Y1163500D1*
X2199149D1*
X2200884Y1157657D1*
X2202320Y1148590D1*
Y1139410D1*
X2200884Y1130343D1*
X2198047Y1121613D1*
X2193879Y1113434D1*
X2188484Y1106007D1*
X2181993Y1099516D1*
X2174363Y1094007D1*
X2181993Y1088484D1*
X2188484Y1081993D1*
X2193879Y1074566D1*
X2198047Y1066387D1*
X2200884Y1057657D1*
X2202320Y1048590D1*
Y1039410D1*
X2013512Y1993923D2*
X2021613Y1998047D1*
X2030343Y2000884D1*
X2039410Y2002320D1*
X2048590D1*
X2057657Y2000884D1*
X2066387Y1998047D1*
X2074566Y1993879D1*
X2081993Y1988484D1*
X2088484Y1981993D1*
X2093879Y1974566D1*
X2095028Y1972515D1*
X2175874Y1972500D1*
X2171847Y1975847D1*
X2159947Y1987748D1*
X2153151Y1986220D1*
X2144000Y1985500D1*
X2134849Y1986220D1*
X2125923Y1988363D1*
X2117442Y1991876D1*
X2109615Y1996673D1*
X2102634Y2002634D1*
X2096673Y2009615D1*
X2091876Y2017442D1*
X2088363Y2025923D1*
X2086220Y2034849D1*
X2085500Y2044000D1*
X2086220Y2053151D1*
X2088363Y2062077D1*
X2091876Y2070558D1*
X2096673Y2078385D1*
X2102634Y2085366D1*
X2109615Y2091327D1*
X2117442Y2096124D1*
X2125923Y2099637D1*
X2134849Y2101780D1*
X2144000Y2102500D1*
X2153151Y2101780D1*
X2162077Y2099637D1*
X2170558Y2096124D1*
X2178385Y2091327D1*
X2185366Y2085366D1*
X2191327Y2078385D1*
X2193993Y2074363D1*
X2199516Y2081993D1*
X2206007Y2088484D1*
X2213434Y2093879D1*
X2221613Y2098047D1*
X2230343Y2100884D1*
X2239410Y2102320D1*
X2248590D1*
X2257657Y2100884D1*
X2259919Y2100246D1*
X2291491Y2131672D1*
X2295109Y2134300D1*
X2299094Y2136331D1*
X2303347Y2137713D1*
X2307764Y2138412D1*
X2401864Y2138500D1*
X2572134D1*
X2576749Y2143078D1*
X2582271Y2147090D1*
X2588353Y2150189D1*
X2594845Y2152298D1*
X2601587Y2153366D1*
X2608413D1*
X2615155Y2152298D1*
X2621647Y2150189D1*
X2627729Y2147090D1*
X2633251Y2143078D1*
X2638078Y2138251D1*
X2642090Y2132729D1*
X2645189Y2126647D1*
X2647298Y2120155D1*
X2648366Y2113413D1*
Y2106587D1*
X2647800Y2102371D1*
X2654876Y2101480D1*
X2661992Y2099664D1*
X2668825Y2096972D1*
X2675266Y2093444D1*
X2681215Y2089137D1*
X2686577Y2084118D1*
X2691268Y2078467D1*
X2693996Y2074362D1*
X2699516Y2081993D1*
X2706007Y2088484D1*
X2713434Y2093879D1*
X2721043Y2097784D1*
X2717834Y2102042D1*
X2715803Y2106027D1*
X2714421Y2110280D1*
X2713722Y2114697D1*
X2713634Y2183785D1*
X2706643Y2176927D1*
X2703025Y2174298D1*
X2699040Y2172268D1*
X2694787Y2170886D1*
X2690370Y2170186D1*
X2596270Y2170098D1*
X2014839D1*
X2013500Y2162224D1*
Y1993892D1*
X2552320Y3239410D2*
X2550884Y3230343D1*
X2548047Y3221613D1*
X2543879Y3213434D1*
X2538484Y3206007D1*
X2531993Y3199516D1*
X2524363Y3194007D1*
X2531993Y3188484D1*
X2538484Y3181993D1*
X2543879Y3174566D1*
X2548047Y3166387D1*
X2550884Y3157657D1*
X2552320Y3148590D1*
Y3139410D1*
X2550884Y3130343D1*
X2548047Y3121613D1*
X2543879Y3113434D1*
X2538484Y3106007D1*
X2531993Y3099516D1*
X2524566Y3094121D1*
X2522515Y3092972D1*
X2522500Y3073775D1*
X2530373Y3072500D1*
X2542896D1*
X2546673Y3078385D1*
X2552634Y3085366D1*
X2559615Y3091327D1*
X2567442Y3096124D1*
X2575923Y3099637D1*
X2584849Y3101780D1*
X2594000Y3102500D1*
X2603151Y3101780D1*
X2612077Y3099637D1*
X2620558Y3096124D1*
X2628385Y3091327D1*
X2635366Y3085366D1*
X2641327Y3078385D1*
X2646124Y3070558D1*
X2649637Y3062077D1*
X2651780Y3053151D1*
X2652500Y3044000D1*
X2651780Y3034849D1*
X2649637Y3025923D1*
X2646124Y3017442D1*
X2641327Y3009615D1*
X2635366Y3002634D1*
X2628385Y2996673D1*
X2620558Y2991876D1*
X2612077Y2988363D1*
X2603151Y2986220D1*
X2594000Y2985500D1*
X2584849Y2986220D1*
X2575923Y2988363D1*
X2567442Y2991876D1*
X2559615Y2996673D1*
X2552634Y3002634D1*
X2546673Y3009615D1*
X2542972Y3015485D1*
X2522483Y3015500D1*
X2522500Y2897040D1*
X2597028Y2897027D1*
Y2790972D1*
X2490973D1*
Y2819400D1*
X2486900Y2812831D1*
X2481496Y2806504D1*
X2475169Y2801100D1*
X2468074Y2796752D1*
X2460386Y2793568D1*
X2452295Y2791625D1*
X2444000Y2790972D1*
X2435705Y2791625D1*
X2427614Y2793568D1*
X2419926Y2796752D1*
X2412831Y2801100D1*
X2406504Y2806504D1*
X2401100Y2812831D1*
X2396752Y2819926D1*
X2394024Y2826378D1*
X2391248Y2819926D1*
X2386900Y2812831D1*
X2381496Y2806504D1*
X2375169Y2801100D1*
X2368074Y2796752D1*
X2360386Y2793568D1*
X2352295Y2791625D1*
X2344000Y2790972D1*
X2335705Y2791625D1*
X2327614Y2793568D1*
X2319926Y2796752D1*
X2312831Y2801100D1*
X2306504Y2806504D1*
X2301100Y2812831D1*
X2296752Y2819926D1*
X2293568Y2827614D1*
X2291625Y2835705D1*
X2290972Y2844000D1*
X2291625Y2852295D1*
X2293568Y2860386D1*
X2296752Y2868074D1*
X2301100Y2875169D1*
X2306504Y2881496D1*
X2312831Y2886900D1*
X2319926Y2891248D1*
X2327614Y2894432D1*
X2335705Y2896375D1*
X2344000Y2897028D1*
X2352295Y2896375D1*
X2360386Y2894432D1*
X2368074Y2891248D1*
X2375169Y2886900D1*
X2381496Y2881496D1*
X2386900Y2875169D1*
X2391248Y2868074D1*
X2393976Y2861622D1*
X2396752Y2868074D1*
X2401100Y2875169D1*
X2406504Y2881496D1*
X2412831Y2886900D1*
X2419926Y2891248D1*
X2427614Y2894432D1*
X2435705Y2896375D1*
X2444000Y2897028D1*
X2452295Y2896375D1*
X2455438Y2895750D1*
X2465486Y2905791D1*
X2465500Y3092896D1*
X2459615Y3096673D1*
X2452634Y3102634D1*
X2446673Y3109615D1*
X2444007Y3113637D1*
X2440231Y3108154D1*
X2435376Y3102644D1*
X2429868Y3097786D1*
X2423795Y3093656D1*
X2417252Y3090320D1*
X2410343Y3087829D1*
X2403176Y3086224D1*
X2395865Y3085530D1*
X2388524Y3085757D1*
X2381270Y3086902D1*
X2374216Y3088947D1*
X2367474Y3091860D1*
X2361150Y3095594D1*
X2355344Y3100091D1*
X2350147Y3105281D1*
X2345641Y3111081D1*
X2341898Y3117399D1*
X2338975Y3124137D1*
X2336920Y3131188D1*
X2335765Y3138440D1*
X2335527Y3145781D1*
X2336211Y3153093D1*
X2337806Y3160262D1*
X2340286Y3167175D1*
X2343613Y3173722D1*
X2347734Y3179801D1*
X2352585Y3185316D1*
X2358088Y3190180D1*
X2363637Y3193996D1*
X2356007Y3199516D1*
X2349516Y3206007D1*
X2344121Y3213434D1*
X2339953Y3221613D1*
X2337116Y3230343D1*
X2335680Y3239410D1*
Y3248590D1*
X2337116Y3257657D1*
X2339953Y3266387D1*
X2344121Y3274566D1*
X2349516Y3281993D1*
X2356007Y3288484D1*
X2363434Y3293879D1*
X2371613Y3298047D1*
X2380343Y3300884D1*
X2389410Y3302320D1*
X2398590D1*
X2407657Y3300884D1*
X2416387Y3298047D1*
X2424566Y3293879D1*
X2431993Y3288484D1*
X2438484Y3281993D1*
X2443993Y3274363D1*
X2449516Y3281993D1*
X2456007Y3288484D1*
X2463434Y3293879D1*
X2471613Y3298047D1*
X2480343Y3300884D1*
X2489410Y3302320D1*
X2498590D1*
X2507657Y3300884D1*
X2516387Y3298047D1*
X2524566Y3293879D1*
X2531993Y3288484D1*
X2538484Y3281993D1*
X2543879Y3274566D1*
X2548047Y3266387D1*
X2550884Y3257657D1*
X2552320Y3248590D1*
Y3239410D1*
X1102471Y2742163D2*
X1101780Y2734851D1*
X1100179Y2727684D1*
X1097692Y2720774D1*
X1094358Y2714229D1*
X1090231Y2708154D1*
X1085376Y2702644D1*
X1079868Y2697786D1*
X1074364Y2694005D1*
X1081993Y2688484D1*
X1088484Y2681993D1*
X1093879Y2674566D1*
X1098047Y2666387D1*
X1100884Y2657657D1*
X1102320Y2648590D1*
Y2639410D1*
X1100884Y2630343D1*
X1098047Y2621613D1*
X1093879Y2613434D1*
X1088484Y2606007D1*
X1081993Y2599516D1*
X1074566Y2594121D1*
X1066387Y2589953D1*
X1057657Y2587116D1*
X1048590Y2585680D1*
X1039410D1*
X1030343Y2587116D1*
X1021613Y2589953D1*
X1013434Y2594121D1*
X1006007Y2599516D1*
X999516Y2606007D1*
X994121Y2613434D1*
X989953Y2621613D1*
X987116Y2630343D1*
X985680Y2639410D1*
Y2648590D1*
X987116Y2657657D1*
X989953Y2666387D1*
X994121Y2674566D1*
X999516Y2681993D1*
X1006007Y2688484D1*
X1013637Y2693993D1*
X1008176Y2697752D1*
X1002664Y2702604D1*
X997803Y2708110D1*
X993670Y2714181D1*
X990331Y2720722D1*
X987837Y2727630D1*
X986229Y2734796D1*
X985531Y2742107D1*
X985754Y2749448D1*
X986896Y2756703D1*
X988937Y2763758D1*
X991847Y2770501D1*
X995578Y2776827D1*
X1000073Y2782635D1*
X1005260Y2787834D1*
X1011057Y2792343D1*
X1017374Y2796089D1*
X1024110Y2799015D1*
X1031160Y2801074D1*
X1038413Y2802233D1*
X1045753Y2802474D1*
X1053065Y2801793D1*
X1060235Y2800202D1*
X1067149Y2797725D1*
X1073698Y2794401D1*
X1079779Y2790283D1*
X1085296Y2785435D1*
X1090162Y2779934D1*
X1094301Y2773867D1*
X1097647Y2767329D1*
X1100147Y2760424D1*
X1101763Y2753260D1*
X1102468Y2745949D1*
X1102471Y2742163D1*
X1013637Y1894007D2*
X1006007Y1899516D1*
X999516Y1906007D1*
X994121Y1913434D1*
X989953Y1921613D1*
X987116Y1930343D1*
X985680Y1939410D1*
Y1948590D1*
X987116Y1957657D1*
X989953Y1966387D1*
X994121Y1974566D1*
X999516Y1981993D1*
X1006007Y1988484D1*
X1013434Y1993879D1*
X1015485Y1995028D1*
X1015500Y2099271D1*
X1009561Y2103678D1*
X1003678Y2109561D1*
X998787Y2116293D1*
X995009Y2123707D1*
X994024Y2126378D1*
X991248Y2119926D1*
X986900Y2112831D1*
X981496Y2106504D1*
X975169Y2101100D1*
X968627Y2097062D1*
X974566Y2093879D1*
X981993Y2088484D1*
X988484Y2081993D1*
X993879Y2074566D1*
X998047Y2066387D1*
X1000884Y2057657D1*
X1002320Y2048590D1*
Y2039410D1*
X1000884Y2030343D1*
X998047Y2021613D1*
X993879Y2013434D1*
X988484Y2006007D1*
X981993Y1999516D1*
X974566Y1994121D1*
X966387Y1989953D1*
X957657Y1987116D1*
X948590Y1985680D1*
X939410D1*
X930343Y1987116D1*
X921613Y1989953D1*
X913434Y1994121D1*
X906007Y1999516D1*
X899516Y2006007D1*
X894007Y2013637D1*
X888484Y2006007D1*
X881993Y1999516D1*
X874566Y1994121D1*
X866387Y1989953D1*
X857657Y1987116D1*
X848590Y1985680D1*
X839410D1*
X830343Y1987116D1*
X821613Y1989953D1*
X813434Y1994121D1*
X806007Y1999516D1*
X799516Y2006007D1*
X794007Y2013637D1*
X788484Y2006007D1*
X781993Y1999516D1*
X774566Y1994121D1*
X766387Y1989953D1*
X757657Y1987116D1*
X748590Y1985680D1*
X739410D1*
X730343Y1987116D1*
X721613Y1989953D1*
X713434Y1994121D1*
X706007Y1999516D1*
X699516Y2006007D1*
X694007Y2013637D1*
X688484Y2006007D1*
X681993Y1999516D1*
X674566Y1994121D1*
X672515Y1992972D1*
X672500Y1966454D1*
X680373Y1965158D1*
X753579Y1965070D1*
X757996Y1964370D1*
X762249Y1962988D1*
X766234Y1960958D1*
X769852Y1958329D1*
X836452Y1891853D1*
X928027Y1800278D1*
X934849Y1801780D1*
X944000Y1802500D1*
X953151Y1801780D1*
X962077Y1799637D1*
X970558Y1796124D1*
X978385Y1791327D1*
X985366Y1785366D1*
X991327Y1778385D1*
X995028Y1772515D1*
X1012503Y1772500D1*
X1027711Y1787814D1*
X1020799Y1790297D1*
X1014253Y1793627D1*
X1008176Y1797752D1*
X1002664Y1802604D1*
X997803Y1808110D1*
X993670Y1814181D1*
X990331Y1820722D1*
X987837Y1827630D1*
X986229Y1834796D1*
X985531Y1842107D1*
X985754Y1849448D1*
X986896Y1856703D1*
X988937Y1863758D1*
X991847Y1870501D1*
X995578Y1876827D1*
X1000073Y1882635D1*
X1005260Y1887834D1*
X1011057Y1892343D1*
X1013637Y1893996D1*
X1302320Y1439410D2*
X1300884Y1430343D1*
X1298047Y1421613D1*
X1293879Y1413434D1*
X1288484Y1406007D1*
X1282507Y1399991D1*
X1282500Y1280476D1*
X1286900Y1275169D1*
X1291248Y1268074D1*
X1293976Y1261622D1*
X1296752Y1268074D1*
X1301100Y1275169D1*
X1306504Y1281496D1*
X1312831Y1286900D1*
X1315495Y1288680D1*
X1315500Y1292910D1*
X1309615Y1296673D1*
X1302634Y1302634D1*
X1296673Y1309615D1*
X1291876Y1317442D1*
X1288363Y1325923D1*
X1286220Y1334849D1*
X1285500Y1344000D1*
X1286220Y1353151D1*
X1288363Y1362077D1*
X1291876Y1370558D1*
X1296673Y1378385D1*
X1302634Y1385366D1*
X1309615Y1391327D1*
X1315485Y1395028D1*
X1315588Y1546236D1*
X1316287Y1550653D1*
X1317669Y1554906D1*
X1319700Y1558891D1*
X1322328Y1562509D1*
X1345187Y1585492D1*
X1339410Y1585680D1*
X1330343Y1587116D1*
X1321613Y1589953D1*
X1313434Y1594121D1*
X1306007Y1599516D1*
X1299516Y1606007D1*
X1294121Y1613434D1*
X1289953Y1621613D1*
X1287116Y1630343D1*
X1285680Y1639410D1*
Y1648590D1*
X1287116Y1657657D1*
X1289953Y1666387D1*
X1294121Y1674566D1*
X1299516Y1681993D1*
X1306007Y1688484D1*
X1313637Y1693993D1*
X1306007Y1699516D1*
X1299516Y1706007D1*
X1294007Y1713637D1*
X1288484Y1706007D1*
X1281993Y1699516D1*
X1274566Y1694121D1*
X1266387Y1689953D1*
X1257657Y1687116D1*
X1248590Y1685680D1*
X1239410D1*
X1230343Y1687116D1*
X1228081Y1687754D1*
X1220484Y1680179D1*
X1220696Y1597658D1*
X1227603Y1600155D1*
X1234768Y1601767D1*
X1242079Y1602468D1*
X1249420Y1602248D1*
X1256675Y1601110D1*
X1263731Y1599072D1*
X1270476Y1596166D1*
X1276803Y1592437D1*
X1282614Y1587946D1*
X1287816Y1582761D1*
X1292327Y1576966D1*
X1296077Y1570651D1*
X1299005Y1563916D1*
X1301067Y1556867D1*
X1302230Y1549615D1*
X1302471Y1542163D1*
X1301780Y1534851D1*
X1300179Y1527684D1*
X1297692Y1520774D1*
X1294358Y1514229D1*
X1290231Y1508154D1*
X1285376Y1502644D1*
X1279868Y1497786D1*
X1274364Y1494005D1*
X1281993Y1488484D1*
X1288484Y1481993D1*
X1293879Y1474566D1*
X1298047Y1466387D1*
X1300884Y1457657D1*
X1302320Y1448590D1*
Y1439410D1*
X3185916Y1937078D2*
X3185500Y1943944D1*
X3185954Y1951274D1*
X3187323Y1958490D1*
X3188852Y1963506D1*
X3163798Y1963500D1*
X3162500Y1955627D1*
Y1925951D1*
X3166431Y1929192D1*
X3172251Y1932759D1*
X3178558Y1935371D1*
X3185924Y1937051D1*
X3299148Y1963502D2*
X3301067Y1956867D1*
X3302230Y1949615D1*
X3302471Y1942163D1*
X3301780Y1934851D1*
X3300179Y1927684D1*
X3297692Y1920774D1*
X3294358Y1914229D1*
X3290231Y1908154D1*
X3285376Y1902644D1*
X3279868Y1897786D1*
X3274364Y1894005D1*
X3281993Y1888484D1*
X3288484Y1881993D1*
X3293879Y1874566D1*
X3298047Y1866387D1*
X3300884Y1857657D1*
X3302320Y1848590D1*
Y1839410D1*
X3300884Y1830343D1*
X3298047Y1821613D1*
X3293879Y1813434D1*
X3288484Y1806007D1*
X3281993Y1799516D1*
X3274566Y1794121D1*
X3266387Y1789953D1*
X3257657Y1787116D1*
X3248590Y1785680D1*
X3239410D1*
X3230343Y1787116D1*
X3221613Y1789953D1*
X3220489Y1790471D1*
X3220500Y1691506D1*
X3227614Y1694432D1*
X3235705Y1696375D1*
X3244000Y1697028D1*
X3252295Y1696375D1*
X3260386Y1694432D1*
X3268074Y1691248D1*
X3275169Y1686900D1*
X3281496Y1681496D1*
X3286900Y1675169D1*
X3291248Y1668074D1*
X3293976Y1661622D1*
X3296752Y1668074D1*
X3301100Y1675169D1*
X3306504Y1681496D1*
X3312831Y1686900D1*
X3319373Y1690938D1*
X3313434Y1694121D1*
X3306007Y1699516D1*
X3299516Y1706007D1*
X3294121Y1713434D1*
X3289953Y1721613D1*
X3287116Y1730343D1*
X3285680Y1739410D1*
Y1748590D1*
X3287116Y1757657D1*
X3289953Y1766387D1*
X3294121Y1774566D1*
X3299516Y1781993D1*
X3306007Y1788484D1*
X3313434Y1793879D1*
X3321613Y1798047D1*
X3330343Y1800884D1*
X3339410Y1802320D1*
X3348590D1*
X3357657Y1800884D1*
X3359919Y1800246D1*
X3373491Y1813672D1*
X3377109Y1816300D1*
X3381093Y1818331D1*
X3385347Y1819713D1*
X3389764Y1820412D1*
X3483864Y1820500D1*
X3783030D1*
X3775619Y1829358D1*
X3771932Y1834876D1*
X3768689Y1840666D1*
X3765910Y1846694D1*
X3763613Y1852920D1*
X3761812Y1859308D1*
X3760517Y1865817D1*
X3759737Y1872408D1*
X3759476Y1879039D1*
X3759737Y1885671D1*
X3760517Y1892262D1*
X3761812Y1898771D1*
X3763613Y1905159D1*
X3765910Y1911385D1*
X3768689Y1917412D1*
X3771932Y1923203D1*
X3775619Y1928721D1*
X3779728Y1933933D1*
X3784233Y1938807D1*
X3789106Y1943312D1*
X3794318Y1947420D1*
X3799837Y1951108D1*
X3805627Y1954350D1*
X3811654Y1957129D1*
X3817881Y1959426D1*
X3824268Y1961228D1*
X3830778Y1962522D1*
X3842420Y1963501D1*
X3850632Y1963302D1*
X3857222Y1962522D1*
X3863732Y1961228D1*
X3870119Y1959426D1*
X3876346Y1957129D1*
X3882373Y1954350D1*
X3888163Y1951108D1*
X3893682Y1947420D1*
X3898894Y1943312D1*
X3903767Y1938807D1*
X3908272Y1933933D1*
X3912381Y1928721D1*
X3916068Y1923203D1*
X3919311Y1917412D1*
X3922090Y1911385D1*
X3924387Y1905159D1*
X3926188Y1898771D1*
X3927483Y1892262D1*
X3928263Y1885671D1*
X3928524Y1879039D1*
X3928263Y1872408D1*
X3927483Y1865817D1*
X3926188Y1859308D1*
X3924387Y1852920D1*
X3922090Y1846694D1*
X3919311Y1840666D1*
X3916068Y1834876D1*
X3912381Y1829358D1*
X3904911Y1820510D1*
X4178187Y1820500D1*
X4179464Y1828373D1*
Y1964481D1*
X4174201Y1963588D1*
X4080101Y1963500D1*
X3299154D1*
X2502320Y1139410D2*
X2500884Y1130343D1*
X2498047Y1121613D1*
X2493879Y1113434D1*
X2488484Y1106007D1*
X2481993Y1099516D1*
X2474363Y1094007D1*
X2479779Y1090283D1*
X2485296Y1085435D1*
X2490162Y1079934D1*
X2494301Y1073867D1*
X2497647Y1067329D1*
X2500147Y1060424D1*
X2501763Y1053260D1*
X2502468Y1045949D1*
X2502241Y1038496D1*
X2501092Y1031242D1*
X2499044Y1024190D1*
X2496128Y1017449D1*
X2492390Y1011127D1*
X2487890Y1005323D1*
X2482698Y1000129D1*
X2476896Y995626D1*
X2470576Y991885D1*
X2463837Y988966D1*
X2456785Y986914D1*
X2449532Y985762D1*
X2442191Y985528D1*
X2434879Y986215D1*
X2427711Y987814D1*
X2420799Y990297D1*
X2414253Y993627D1*
X2408176Y997752D1*
X2402664Y1002604D1*
X2397803Y1008110D1*
X2393670Y1014181D1*
X2390331Y1020722D1*
X2387837Y1027630D1*
X2386229Y1034796D1*
X2385531Y1042107D1*
X2385754Y1049448D1*
X2386896Y1056703D1*
X2388937Y1063758D1*
X2391847Y1070501D1*
X2395578Y1076827D1*
X2400073Y1082635D1*
X2405260Y1087834D1*
X2411057Y1092343D1*
X2413637Y1093996D1*
X2406007Y1099516D1*
X2399516Y1106007D1*
X2394121Y1113434D1*
X2389953Y1121613D1*
X2387116Y1130343D1*
X2385680Y1139410D1*
Y1148590D1*
X2387116Y1157657D1*
X2389953Y1166387D1*
X2394121Y1174566D1*
X2399516Y1181993D1*
X2406007Y1188484D1*
X2413434Y1193879D1*
X2421613Y1198047D1*
X2430343Y1200884D1*
X2439410Y1202320D1*
X2445237Y1202451D1*
X2432174Y1215521D1*
X2395090Y1215500D1*
X2391327Y1209615D1*
X2385366Y1202634D1*
X2378385Y1196673D1*
X2370558Y1191876D1*
X2367316Y1190381D1*
X2369394Y1186939D1*
X2371105Y1182807D1*
X2372149Y1178458D1*
X2372500Y1173991D1*
Y995117D1*
X2378385Y991327D1*
X2385366Y985366D1*
X2391327Y978385D1*
X2396124Y970558D1*
X2399637Y962077D1*
X2401780Y953151D1*
X2402500Y944000D1*
X2401780Y934849D1*
X2400246Y928081D1*
X2439792Y888513D1*
X2525497Y888500D1*
X2519124Y891052D1*
X2512686Y894586D1*
X2506742Y898899D1*
X2501385Y903923D1*
X2496699Y909578D1*
X2492759Y915776D1*
X2489626Y922419D1*
X2487351Y929402D1*
X2485968Y936615D1*
X2485500Y943944D1*
X2485954Y951274D1*
X2487323Y958490D1*
X2489585Y965477D1*
X2492705Y972126D1*
X2496633Y978331D1*
X2501308Y983995D1*
X2506655Y989029D1*
X2512592Y993353D1*
X2519023Y996900D1*
X2525848Y999612D1*
X2532959Y1001449D1*
X2540244Y1002379D1*
X2547588Y1002390D1*
X2554876Y1001480D1*
X2561992Y999664D1*
X2568825Y996972D1*
X2575266Y993444D1*
X2581215Y989137D1*
X2586577Y984118D1*
X2591268Y978467D1*
X2593996Y974362D1*
X2599516Y981993D1*
X2606007Y988484D1*
X2613434Y993879D1*
X2621613Y998047D1*
X2630343Y1000884D1*
X2639410Y1002320D1*
X2645237Y1002451D1*
X2502510Y1145184D1*
X2502320Y1139410D1*
X2502471Y1942163D2*
X2501780Y1934851D1*
X2500179Y1927684D1*
X2497692Y1920774D1*
X2494358Y1914229D1*
X2490231Y1908154D1*
X2485376Y1902644D1*
X2479868Y1897786D1*
X2474364Y1894005D1*
X2481993Y1888484D1*
X2488484Y1881993D1*
X2493879Y1874566D1*
X2498047Y1866387D1*
X2500884Y1857657D1*
X2502320Y1848590D1*
Y1839410D1*
X2500884Y1830343D1*
X2498047Y1821613D1*
X2493879Y1813434D1*
X2488484Y1806007D1*
X2481993Y1799516D1*
X2474566Y1794121D1*
X2466387Y1789953D1*
X2457657Y1787116D1*
X2448590Y1785680D1*
X2439410D1*
X2430343Y1787116D1*
X2421613Y1789953D1*
X2413434Y1794121D1*
X2406007Y1799516D1*
X2399516Y1806007D1*
X2394121Y1813434D1*
X2389953Y1821613D1*
X2387116Y1830343D1*
X2385680Y1839410D1*
Y1848590D1*
X2387116Y1857657D1*
X2389953Y1866387D1*
X2394121Y1874566D1*
X2399516Y1881993D1*
X2406007Y1888484D1*
X2413637Y1893993D1*
X2408176Y1897752D1*
X2402664Y1902604D1*
X2397803Y1908110D1*
X2393670Y1914181D1*
X2390331Y1920722D1*
X2387837Y1927630D1*
X2386229Y1934796D1*
X2385531Y1942107D1*
X2385754Y1949448D1*
X2386896Y1956703D1*
X2388937Y1963758D1*
X2390431Y1967496D1*
X2242120Y1967500D1*
X2246158Y1964146D1*
X2265672Y1944509D1*
X2268300Y1940891D1*
X2270331Y1936906D1*
X2271713Y1932653D1*
X2272412Y1928236D1*
X2272500Y1834136D1*
Y1795059D1*
X2278385Y1791327D1*
X2285366Y1785366D1*
X2291327Y1778385D1*
X2293993Y1774363D1*
X2299516Y1781993D1*
X2306007Y1788484D1*
X2313434Y1793879D1*
X2321613Y1798047D1*
X2330343Y1800884D1*
X2339410Y1802320D1*
X2348590D1*
X2357657Y1800884D1*
X2366387Y1798047D1*
X2374566Y1793879D1*
X2381993Y1788484D1*
X2388484Y1781993D1*
X2393879Y1774566D1*
X2398047Y1766387D1*
X2400884Y1757657D1*
X2402320Y1748590D1*
Y1739410D1*
X2400884Y1730343D1*
X2398047Y1721613D1*
X2393879Y1713434D1*
X2388484Y1706007D1*
X2381993Y1699516D1*
X2374566Y1694121D1*
X2372515Y1692972D1*
X2372500Y1688702D1*
X2378439Y1684322D1*
X2384322Y1678439D1*
X2389213Y1671707D1*
X2392991Y1664293D1*
X2393976Y1661622D1*
X2396752Y1668074D1*
X2401100Y1675169D1*
X2406504Y1681496D1*
X2412831Y1686900D1*
X2419926Y1691248D1*
X2427614Y1694432D1*
X2435705Y1696375D1*
X2444000Y1697028D1*
X2452295Y1696375D1*
X2460386Y1694432D1*
X2468074Y1691248D1*
X2475169Y1686900D1*
X2481496Y1681496D1*
X2486900Y1675169D1*
X2491248Y1668074D1*
X2493976Y1661622D1*
X2496752Y1668074D1*
X2501100Y1675169D1*
X2506504Y1681496D1*
X2512831Y1686900D1*
X2515495Y1688680D1*
X2515500Y1966204D1*
X2507627Y1967500D1*
X2497647Y1967329D1*
X2500147Y1960424D1*
X2501763Y1953260D1*
X2502468Y1945949D1*
X2502471Y1942163D1*
X3043931Y3720996D2*
X3048996D1*
Y3611004D1*
X2984010D1*
X2986298Y3604155D1*
X2987366Y3597413D1*
Y3590587D1*
X2986298Y3583845D1*
X2984189Y3577353D1*
X2981090Y3571271D1*
X2977078Y3565749D1*
X2972251Y3560922D1*
X2966729Y3556910D1*
X2960647Y3553811D1*
X2954155Y3551702D1*
X2947413Y3550634D1*
X2940587D1*
X2933845Y3551702D1*
X2927353Y3553811D1*
X2921271Y3556910D1*
X2915749Y3560922D1*
X2910922Y3565749D1*
X2906910Y3571271D1*
X2903811Y3577353D1*
X2901702Y3583845D1*
X2900634Y3590587D1*
Y3597413D1*
X2901702Y3604155D1*
X2903811Y3610647D1*
X2906910Y3616729D1*
X2910922Y3622251D1*
X2915504Y3626851D1*
X2915500Y4039574D1*
X2907657Y4037116D1*
X2898590Y4035680D1*
X2889410D1*
X2880343Y4037116D1*
X2871613Y4039953D1*
X2863434Y4044121D1*
X2856007Y4049516D1*
X2849516Y4056007D1*
X2844007Y4063637D1*
X2840231Y4058154D1*
X2835376Y4052644D1*
X2829868Y4047786D1*
X2823795Y4043656D1*
X2817252Y4040320D1*
X2810343Y4037829D1*
X2803176Y4036224D1*
X2795865Y4035530D1*
X2788524Y4035757D1*
X2781270Y4036902D1*
X2774216Y4038947D1*
X2767474Y4041860D1*
X2761150Y4045594D1*
X2755344Y4050091D1*
X2750147Y4055281D1*
X2745641Y4061081D1*
X2744004Y4063637D1*
X2740231Y4058154D1*
X2735376Y4052644D1*
X2729868Y4047786D1*
X2723795Y4043656D1*
X2717252Y4040320D1*
X2710343Y4037829D1*
X2703176Y4036224D1*
X2695865Y4035530D1*
X2688524Y4035757D1*
X2681270Y4036902D1*
X2674216Y4038947D1*
X2667474Y4041860D1*
X2661150Y4045594D1*
X2655344Y4050091D1*
X2650147Y4055281D1*
X2645641Y4061081D1*
X2644004Y4063637D1*
X2640231Y4058154D1*
X2635376Y4052644D1*
X2629868Y4047786D1*
X2623795Y4043656D1*
X2617252Y4040320D1*
X2610343Y4037829D1*
X2603176Y4036224D1*
X2595865Y4035530D1*
X2588524Y4035757D1*
X2581270Y4036902D1*
X2574216Y4038947D1*
X2567474Y4041860D1*
X2561150Y4045594D1*
X2555344Y4050091D1*
X2550147Y4055281D1*
X2545641Y4061081D1*
X2544004Y4063637D1*
X2538484Y4056007D1*
X2531993Y4049516D1*
X2524566Y4044121D1*
X2516387Y4039953D1*
X2507657Y4037116D1*
X2498590Y4035680D1*
X2489410D1*
X2480343Y4037116D1*
X2471613Y4039953D1*
X2463434Y4044121D1*
X2456007Y4049516D1*
X2449516Y4056007D1*
X2444121Y4063434D1*
X2439953Y4071613D1*
X2437116Y4080343D1*
X2435680Y4089410D1*
Y4098590D1*
X2437116Y4107657D1*
X2438891Y4113508D1*
X2070710Y4113500D1*
X1815352Y3858269D1*
X1811734Y3855641D1*
X1807749Y3853610D1*
X1803496Y3852228D1*
X1799079Y3851529D1*
X1704979Y3851441D1*
X1391746D1*
X1350284Y3809979D1*
X1351780Y3803151D1*
X1352500Y3794000D1*
X1351780Y3784849D1*
X1349637Y3775923D1*
X1346124Y3767442D1*
X1341327Y3759615D1*
X1335366Y3752634D1*
X1328385Y3746673D1*
X1320558Y3741876D1*
X1312077Y3738363D1*
X1303151Y3736220D1*
X1294000Y3735500D1*
X1284849Y3736220D1*
X1275923Y3738363D1*
X1267442Y3741876D1*
X1259615Y3746673D1*
X1252634Y3752634D1*
X1246673Y3759615D1*
X1241876Y3767442D1*
X1238363Y3775923D1*
X1236220Y3784849D1*
X1235500Y3794000D1*
X1236220Y3803151D1*
X1238363Y3812077D1*
X1241876Y3820558D1*
X1246673Y3828385D1*
X1252634Y3835366D1*
X1259615Y3841327D1*
X1267442Y3846124D1*
X1275923Y3849637D1*
X1284849Y3851780D1*
X1294000Y3852500D1*
X1303151Y3851780D1*
X1309919Y3850246D1*
X1361432Y3901613D1*
X1365050Y3904241D1*
X1369034Y3906272D1*
X1373288Y3907654D1*
X1377705Y3908353D1*
X1471804Y3908441D1*
X1785038D1*
X2040392Y4163672D1*
X2044010Y4166300D1*
X2047995Y4168331D1*
X2052248Y4169713D1*
X2056665Y4170412D1*
X2150765Y4170500D1*
X2435506D1*
X2435500Y4252500D1*
X2552500D1*
X2552585Y4235316D1*
X2558088Y4240180D1*
X2564157Y4244315D1*
X2570696Y4247658D1*
X2577603Y4250155D1*
X2584768Y4251767D1*
X2592079Y4252468D1*
X2599420Y4252248D1*
X2606675Y4251110D1*
X2613731Y4249072D1*
X2620476Y4246166D1*
X2626803Y4242437D1*
X2632614Y4237946D1*
X2637816Y4232761D1*
X2642327Y4226966D1*
X2643996Y4224362D1*
X2647734Y4229801D1*
X2652585Y4235316D1*
X2658088Y4240180D1*
X2664157Y4244315D1*
X2670696Y4247658D1*
X2677603Y4250155D1*
X2684768Y4251767D1*
X2692079Y4252468D1*
X2699420Y4252248D1*
X2706675Y4251110D1*
X2713731Y4249072D1*
X2720476Y4246166D1*
X2726803Y4242437D1*
X2732614Y4237946D1*
X2737816Y4232761D1*
X2742327Y4226966D1*
X2743996Y4224362D1*
X2747734Y4229801D1*
X2752585Y4235316D1*
X2758088Y4240180D1*
X2764157Y4244315D1*
X2770696Y4247658D1*
X2777603Y4250155D1*
X2784768Y4251767D1*
X2792079Y4252468D1*
X2799420Y4252248D1*
X2806675Y4251110D1*
X2813731Y4249072D1*
X2820476Y4246166D1*
X2826803Y4242437D1*
X2832614Y4237946D1*
X2837816Y4232761D1*
X2842327Y4226966D1*
X2843996Y4224362D1*
X2849516Y4231993D1*
X2856007Y4238484D1*
X2863434Y4243879D1*
X2871613Y4248047D1*
X2880343Y4250884D1*
X2889410Y4252320D1*
X2898590D1*
X2907657Y4250884D1*
X2916387Y4248047D1*
X2924566Y4243879D1*
X2931993Y4238484D1*
X2938484Y4231993D1*
X2943993Y4224363D1*
X2949516Y4231993D1*
X2956007Y4238484D1*
X2963434Y4243879D1*
X2971613Y4248047D1*
X2980343Y4250884D1*
X2989410Y4252320D1*
X2998590D1*
X3007657Y4250884D1*
X3016387Y4248047D1*
X3024566Y4243879D1*
X3031993Y4238484D1*
X3038484Y4231993D1*
X3043993Y4224363D1*
X3049516Y4231993D1*
X3056007Y4238484D1*
X3063434Y4243879D1*
X3071613Y4248047D1*
X3080343Y4250884D1*
X3089410Y4252320D1*
X3098590D1*
X3107657Y4250884D1*
X3116387Y4248047D1*
X3124566Y4243879D1*
X3131993Y4238484D1*
X3138484Y4231993D1*
X3143993Y4224363D1*
X3149516Y4231993D1*
X3156007Y4238484D1*
X3163434Y4243879D1*
X3171613Y4248047D1*
X3180343Y4250884D1*
X3189410Y4252320D1*
X3198590D1*
X3207657Y4250884D1*
X3216387Y4248047D1*
X3224566Y4243879D1*
X3231993Y4238484D1*
X3238484Y4231993D1*
X3243879Y4224566D1*
X3248047Y4216387D1*
X3250884Y4207657D1*
X3252320Y4198590D1*
Y4189410D1*
X3250884Y4180343D1*
X3248047Y4171613D1*
X3243879Y4163434D1*
X3238484Y4156007D1*
X3231993Y4149516D1*
X3224363Y4144007D1*
X3231993Y4138484D1*
X3238484Y4131993D1*
X3243879Y4124566D1*
X3248047Y4116387D1*
X3250884Y4107657D1*
X3252320Y4098590D1*
Y4089410D1*
X3250884Y4080343D1*
X3248047Y4071613D1*
X3243879Y4063434D1*
X3238484Y4056007D1*
X3231993Y4049516D1*
X3224566Y4044121D1*
X3216387Y4039953D1*
X3207657Y4037116D1*
X3198590Y4035680D1*
X3189410D1*
X3180343Y4037116D1*
X3171613Y4039953D1*
X3163434Y4044121D1*
X3156007Y4049516D1*
X3149516Y4056007D1*
X3144007Y4063637D1*
X3138484Y4056007D1*
X3131993Y4049516D1*
X3124566Y4044121D1*
X3116387Y4039953D1*
X3107657Y4037116D1*
X3098590Y4035680D1*
X3089410D1*
X3080343Y4037116D1*
X3071613Y4039953D1*
X3063434Y4044121D1*
X3056007Y4049516D1*
X3049516Y4056007D1*
X3044007Y4063637D1*
X3038484Y4056007D1*
X3031993Y4049516D1*
X3024566Y4044121D1*
X3016387Y4039953D1*
X3007657Y4037116D1*
X2998590Y4035680D1*
X2989410D1*
X2980343Y4037116D1*
X2972505Y4039624D1*
X2972500Y3794629D1*
X2979372Y3797015D1*
X2986566Y3798491D1*
X2993892Y3798996D1*
X3001220Y3798520D1*
X3008420Y3797072D1*
X3015362Y3794678D1*
X3021924Y3791380D1*
X3027987Y3787237D1*
X3033445Y3782323D1*
X3038199Y3776726D1*
X3042165Y3770546D1*
X3045273Y3763892D1*
X3047466Y3756884D1*
X3048706Y3749645D1*
X3048965Y3742163D1*
X3048231Y3734856D1*
X3046529Y3727713D1*
X3043952Y3720997D1*
X2640841Y3798996D2*
X2748996D1*
Y3689004D1*
X2743951D1*
X2746304Y3682995D1*
X2748319Y3674603D1*
X2748996Y3666000D1*
X2748319Y3657397D1*
X2746304Y3649005D1*
X2743002Y3641032D1*
X2738493Y3633674D1*
X2732888Y3627112D1*
X2726326Y3621507D1*
X2718968Y3616998D1*
X2710995Y3613696D1*
X2702603Y3611681D1*
X2694000Y3611004D1*
X2685397Y3611681D1*
X2677005Y3613696D1*
X2669032Y3616998D1*
X2661674Y3621507D1*
X2655112Y3627112D1*
X2649507Y3633674D1*
X2644998Y3641032D1*
X2641696Y3649005D1*
X2639681Y3657397D1*
X2639004Y3666000D1*
X2639681Y3674603D1*
X2641696Y3682995D1*
X2644087Y3688992D1*
X2639004Y3689004D1*
Y3798996D1*
X2640841D1*
X3412289Y3910626D2*
X3410607Y3900009D1*
X3407286Y3889786D1*
X3402406Y3880209D1*
X3396088Y3871513D1*
X3388487Y3863912D1*
X3379791Y3857594D1*
X3370214Y3852714D1*
X3359991Y3849393D1*
X3349374Y3847711D1*
X3338626D1*
X3328009Y3849393D1*
X3317786Y3852714D1*
X3308209Y3857594D1*
X3299513Y3863912D1*
X3291912Y3871513D1*
X3285594Y3880209D1*
X3280714Y3889786D1*
X3277393Y3900009D1*
X3275711Y3910626D1*
Y3921374D1*
X3277393Y3931991D1*
X3280714Y3942214D1*
X3285594Y3951791D1*
X3291912Y3960487D1*
X3299513Y3968088D1*
X3308209Y3974406D1*
X3317786Y3979286D1*
X3328009Y3982607D1*
X3338626Y3984289D1*
X3349374D1*
X3359991Y3982607D1*
X3370214Y3979286D1*
X3379791Y3974406D1*
X3388487Y3968088D1*
X3396088Y3960487D1*
X3402406Y3951791D1*
X3407286Y3942214D1*
X3410607Y3931991D1*
X3412289Y3921374D1*
Y3910626D1*
X2284686Y3984500D2*
X2412500D1*
Y3847500D1*
X2275500D1*
Y3984500D1*
X2284686D1*
X2412289Y3510626D2*
X2410607Y3500009D1*
X2407286Y3489786D1*
X2402406Y3480209D1*
X2396088Y3471513D1*
X2388487Y3463912D1*
X2379791Y3457594D1*
X2370214Y3452714D1*
X2359991Y3449393D1*
X2349374Y3447711D1*
X2338626D1*
X2328009Y3449393D1*
X2317786Y3452714D1*
X2308209Y3457594D1*
X2299513Y3463912D1*
X2291912Y3471513D1*
X2285594Y3480209D1*
X2280714Y3489786D1*
X2277393Y3500009D1*
X2275711Y3510626D1*
Y3521374D1*
X2277393Y3531991D1*
X2280714Y3542214D1*
X2285594Y3551791D1*
X2291912Y3560487D1*
X2299513Y3568088D1*
X2308209Y3574406D1*
X2317786Y3579286D1*
X2328009Y3582607D1*
X2338626Y3584289D1*
X2349374D1*
X2359991Y3582607D1*
X2370214Y3579286D1*
X2379791Y3574406D1*
X2388487Y3568088D1*
X2396088Y3560487D1*
X2402406Y3551791D1*
X2407286Y3542214D1*
X2410607Y3531991D1*
X2412289Y3521374D1*
Y3510626D1*
X3262289Y3910626D2*
X3260607Y3900009D1*
X3257286Y3889786D1*
X3252406Y3880209D1*
X3246088Y3871513D1*
X3238487Y3863912D1*
X3229791Y3857594D1*
X3220214Y3852714D1*
X3209991Y3849393D1*
X3199374Y3847711D1*
X3188626D1*
X3178009Y3849393D1*
X3167786Y3852714D1*
X3158209Y3857594D1*
X3149513Y3863912D1*
X3141912Y3871513D1*
X3135594Y3880209D1*
X3130714Y3889786D1*
X3127393Y3900009D1*
X3125711Y3910626D1*
Y3921374D1*
X3127393Y3931991D1*
X3130714Y3942214D1*
X3135594Y3951791D1*
X3141912Y3960487D1*
X3149513Y3968088D1*
X3158209Y3974406D1*
X3167786Y3979286D1*
X3178009Y3982607D1*
X3188626Y3984289D1*
X3199374D1*
X3209991Y3982607D1*
X3220214Y3979286D1*
X3229791Y3974406D1*
X3238487Y3968088D1*
X3246088Y3960487D1*
X3252406Y3951791D1*
X3257286Y3942214D1*
X3260607Y3931991D1*
X3262289Y3921374D1*
Y3910626D1*
X2562289Y3510626D2*
X2560607Y3500009D1*
X2557286Y3489786D1*
X2552406Y3480209D1*
X2546088Y3471513D1*
X2538487Y3463912D1*
X2529791Y3457594D1*
X2520214Y3452714D1*
X2509991Y3449393D1*
X2499374Y3447711D1*
X2488626D1*
X2478009Y3449393D1*
X2467786Y3452714D1*
X2458209Y3457594D1*
X2449513Y3463912D1*
X2441912Y3471513D1*
X2435594Y3480209D1*
X2430714Y3489786D1*
X2427393Y3500009D1*
X2425711Y3510626D1*
Y3521374D1*
X2427393Y3531991D1*
X2430714Y3542214D1*
X2435594Y3551791D1*
X2441912Y3560487D1*
X2449513Y3568088D1*
X2458209Y3574406D1*
X2467786Y3579286D1*
X2478009Y3582607D1*
X2488626Y3584289D1*
X2499374D1*
X2509991Y3582607D1*
X2520214Y3579286D1*
X2529791Y3574406D1*
X2538487Y3568088D1*
X2546088Y3560487D1*
X2552406Y3551791D1*
X2557286Y3542214D1*
X2560607Y3531991D1*
X2562289Y3521374D1*
Y3510626D1*
Y3910626D2*
X2560607Y3900009D1*
X2557286Y3889786D1*
X2552406Y3880209D1*
X2546088Y3871513D1*
X2538487Y3863912D1*
X2529791Y3857594D1*
X2520214Y3852714D1*
X2509991Y3849393D1*
X2499374Y3847711D1*
X2488626D1*
X2478009Y3849393D1*
X2467786Y3852714D1*
X2458209Y3857594D1*
X2449513Y3863912D1*
X2441912Y3871513D1*
X2435594Y3880209D1*
X2430714Y3889786D1*
X2427393Y3900009D1*
X2425711Y3910626D1*
Y3921374D1*
X2427393Y3931991D1*
X2430714Y3942214D1*
X2435594Y3951791D1*
X2441912Y3960487D1*
X2449513Y3968088D1*
X2458209Y3974406D1*
X2467786Y3979286D1*
X2478009Y3982607D1*
X2488626Y3984289D1*
X2499374D1*
X2509991Y3982607D1*
X2520214Y3979286D1*
X2529791Y3974406D1*
X2538487Y3968088D1*
X2546088Y3960487D1*
X2552406Y3951791D1*
X2557286Y3942214D1*
X2560607Y3931991D1*
X2562289Y3921374D1*
Y3910626D1*
X1826283Y640973D2*
X1818992Y641458D1*
X1811794Y642915D1*
X1804855Y645319D1*
X1798298Y648625D1*
X1792240Y652776D1*
X1786789Y657697D1*
X1782042Y663300D1*
X1778084Y669485D1*
X1774985Y676143D1*
X1772801Y683155D1*
X1771571Y690394D1*
X1771316Y697734D1*
X1772041Y705041D1*
X1773733Y712187D1*
X1776363Y719044D1*
X1779882Y725489D1*
X1784229Y731408D1*
X1789326Y736695D1*
X1795081Y741256D1*
X1801393Y745010D1*
X1808149Y747889D1*
X1815228Y749842D1*
X1822504Y750835D1*
X1842819Y750964D1*
X1865281Y750849D1*
X1872561Y749885D1*
X1879648Y747959D1*
X1886415Y745107D1*
X1892741Y741378D1*
X1898515Y736840D1*
X1903632Y731573D1*
X1908002Y725671D1*
X1911547Y719239D1*
X1914203Y712393D1*
X1915923Y705254D1*
X1916677Y697949D1*
X1916437Y690466D1*
X1915216Y683225D1*
X1913041Y676210D1*
X1909951Y669548D1*
X1906001Y663358D1*
X1901261Y657748D1*
X1895817Y652820D1*
X1889764Y648662D1*
X1883211Y645347D1*
X1876275Y642934D1*
X1869079Y641468D1*
X1861717Y640972D1*
X1826284Y640979D1*
X3826300Y1077981D2*
X3817680Y1078657D1*
X3809289Y1080672D1*
X3801316Y1083975D1*
X3793958Y1088484D1*
X3787395Y1094088D1*
X3781791Y1100651D1*
X3777282Y1108009D1*
X3773979Y1115982D1*
X3771964Y1124373D1*
X3771287Y1132976D1*
X3771964Y1141580D1*
X3773979Y1149971D1*
X3777282Y1157944D1*
X3781791Y1165302D1*
X3787395Y1171864D1*
X3793958Y1177469D1*
X3801316Y1181978D1*
X3809289Y1185281D1*
X3817680Y1187295D1*
X3826300Y1187972D1*
X3866031Y1187803D1*
X3874555Y1186453D1*
X3882763Y1183786D1*
X3890452Y1179868D1*
X3897434Y1174796D1*
X3903536Y1168693D1*
X3908608Y1161712D1*
X3912526Y1154022D1*
X3915193Y1145815D1*
X3916543Y1137291D1*
Y1128661D1*
X3915193Y1120138D1*
X3912526Y1111930D1*
X3908608Y1104241D1*
X3903536Y1097259D1*
X3897434Y1091157D1*
X3890452Y1086085D1*
X3882763Y1082167D1*
X3874555Y1079500D1*
X3866031Y1078150D1*
X3843344Y1077980D1*
X3826284Y1078016D1*
X3826300Y759083D2*
X3817680Y759760D1*
X3809289Y761774D1*
X3801316Y765077D1*
X3793958Y769586D1*
X3787395Y775191D1*
X3781791Y781753D1*
X3777282Y789111D1*
X3773979Y797084D1*
X3771964Y805475D1*
X3771287Y814079D1*
X3771964Y822682D1*
X3773979Y831073D1*
X3777282Y839046D1*
X3781791Y846405D1*
X3787395Y852967D1*
X3793958Y858571D1*
X3794617Y859012D1*
X3786219Y864471D1*
X3780157Y869250D1*
X3774489Y874489D1*
X3769250Y880157D1*
X3764471Y886219D1*
X3760183Y892637D1*
X3756411Y899371D1*
X3753180Y906381D1*
X3750508Y913623D1*
X3748413Y921052D1*
X3746907Y928622D1*
X3746000Y936287D1*
X3745697Y944000D1*
X3746000Y951713D1*
X3746907Y959378D1*
X3748413Y966948D1*
X3750508Y974377D1*
X3753180Y981619D1*
X3756411Y988629D1*
X3760183Y995363D1*
X3764471Y1001781D1*
X3769250Y1007843D1*
X3774489Y1013511D1*
X3780157Y1018750D1*
X3786219Y1023529D1*
X3792637Y1027817D1*
X3799371Y1031589D1*
X3806381Y1034820D1*
X3813623Y1037492D1*
X3821052Y1039587D1*
X3828622Y1041093D1*
X3836287Y1042000D1*
X3844000Y1042303D1*
X3851713Y1042000D1*
X3859378Y1041093D1*
X3866948Y1039587D1*
X3874377Y1037492D1*
X3881619Y1034820D1*
X3888629Y1031589D1*
X3895363Y1027817D1*
X3901781Y1023529D1*
X3907843Y1018750D1*
X3913511Y1013511D1*
X3918750Y1007843D1*
X3923529Y1001781D1*
X3927817Y995363D1*
X3931589Y988629D1*
X3934820Y981619D1*
X3937492Y974377D1*
X3939587Y966948D1*
X3941093Y959378D1*
X3942000Y951713D1*
X3942303Y944000D1*
X3942000Y936287D1*
X3941093Y928622D1*
X3939587Y921052D1*
X3937492Y913623D1*
X3934820Y906381D1*
X3931589Y899371D1*
X3927817Y892637D1*
X3923529Y886219D1*
X3918750Y880157D1*
X3913511Y874489D1*
X3907843Y869250D1*
X3901781Y864471D1*
X3893338Y859048D1*
X3897434Y855898D1*
X3903536Y849796D1*
X3908608Y842814D1*
X3912526Y835125D1*
X3915193Y826917D1*
X3916543Y818394D1*
Y809764D1*
X3915193Y801240D1*
X3912526Y793033D1*
X3908608Y785343D1*
X3903536Y778362D1*
X3897434Y772259D1*
X3890452Y767187D1*
X3882763Y763269D1*
X3874555Y760602D1*
X3866031Y759252D1*
X3843344Y759082D1*
X3826284Y759118D1*
X3815228Y749842D1*
X3822504Y750835D1*
X3842819Y750964D1*
X3865281Y750849D1*
X3872561Y749885D1*
X3879648Y747959D1*
X3886415Y745107D1*
X3892741Y741378D1*
X3898515Y736840D1*
X3903632Y731573D1*
X3908002Y725671D1*
X3911547Y719239D1*
X3914203Y712393D1*
X3915923Y705254D1*
X3916677Y697949D1*
X3916437Y690466D1*
X3915216Y683225D1*
X3913041Y676210D1*
X3909951Y669548D1*
X3906001Y663358D1*
X3901261Y657748D1*
X3895817Y652820D1*
X3889764Y648662D1*
X3883211Y645347D1*
X3876275Y642934D1*
X3869079Y641468D1*
X3861717Y640972D1*
X3822647Y641093D1*
X3815369Y642066D1*
X3808285Y644001D1*
X3801521Y646862D1*
X3795200Y650599D1*
X3789432Y655145D1*
X3784322Y660419D1*
X3779959Y666327D1*
X3776423Y672763D1*
X3773776Y679613D1*
X3772065Y686754D1*
X3771321Y694060D1*
X3771556Y701400D1*
X3772768Y708643D1*
X3774933Y715660D1*
X3778015Y722326D1*
X3781957Y728522D1*
X3786689Y734137D1*
X3792127Y739072D1*
X3798174Y743238D1*
X3804723Y746562D1*
X3811656Y748984D1*
X3815228Y749842D1*
X826300Y1077981D2*
X817680Y1078657D1*
X809289Y1080672D1*
X801316Y1083975D1*
X793958Y1088484D1*
X787395Y1094088D1*
X781791Y1100651D1*
X777282Y1108009D1*
X773979Y1115982D1*
X771964Y1124373D1*
X771287Y1132976D1*
X771964Y1141580D1*
X773979Y1149971D1*
X777282Y1157944D1*
X781791Y1165302D1*
X787395Y1171864D1*
X793958Y1177469D1*
X801316Y1181978D1*
X809289Y1185281D1*
X817680Y1187295D1*
X826300Y1187972D1*
X866031Y1187803D1*
X874555Y1186453D1*
X882763Y1183786D1*
X890452Y1179868D1*
X897434Y1174796D1*
X903536Y1168693D1*
X908608Y1161712D1*
X912526Y1154022D1*
X915193Y1145815D1*
X916543Y1137291D1*
Y1128661D1*
X915193Y1120138D1*
X912526Y1111930D1*
X908608Y1104241D1*
X903536Y1097259D1*
X897434Y1091157D1*
X890452Y1086085D1*
X882763Y1082167D1*
X874555Y1079500D1*
X866031Y1078150D1*
X843344Y1077980D1*
X826284Y1078016D1*
X826300Y759083D2*
X817680Y759760D1*
X809289Y761774D1*
X801316Y765077D1*
X793958Y769586D1*
X787395Y775191D1*
X781791Y781753D1*
X777282Y789111D1*
X773979Y797084D1*
X771964Y805475D1*
X771287Y814079D1*
X771964Y822682D1*
X773979Y831073D1*
X777282Y839046D1*
X781791Y846405D1*
X787395Y852967D1*
X793958Y858571D1*
X794617Y859012D1*
X786219Y864471D1*
X780157Y869250D1*
X774489Y874489D1*
X769250Y880157D1*
X764471Y886219D1*
X760183Y892637D1*
X756411Y899371D1*
X753180Y906381D1*
X750508Y913623D1*
X748413Y921052D1*
X746907Y928622D1*
X746000Y936287D1*
X745697Y944000D1*
X746000Y951713D1*
X746907Y959378D1*
X748413Y966948D1*
X750508Y974377D1*
X753180Y981619D1*
X756411Y988629D1*
X760183Y995363D1*
X764471Y1001781D1*
X769250Y1007843D1*
X774489Y1013511D1*
X780157Y1018750D1*
X786219Y1023529D1*
X792637Y1027817D1*
X799371Y1031589D1*
X806381Y1034820D1*
X813623Y1037492D1*
X821052Y1039587D1*
X828622Y1041093D1*
X836287Y1042000D1*
X844000Y1042303D1*
X851713Y1042000D1*
X859378Y1041093D1*
X866948Y1039587D1*
X874377Y1037492D1*
X881619Y1034820D1*
X888629Y1031589D1*
X895363Y1027817D1*
X901781Y1023529D1*
X907843Y1018750D1*
X913511Y1013511D1*
X918750Y1007843D1*
X923529Y1001781D1*
X927817Y995363D1*
X931589Y988629D1*
X934820Y981619D1*
X937492Y974377D1*
X939587Y966948D1*
X941093Y959378D1*
X942000Y951713D1*
X942303Y944000D1*
X942000Y936287D1*
X941093Y928622D1*
X939587Y921052D1*
X937492Y913623D1*
X934820Y906381D1*
X931589Y899371D1*
X927817Y892637D1*
X923529Y886219D1*
X918750Y880157D1*
X913511Y874489D1*
X907843Y869250D1*
X901781Y864471D1*
X893338Y859048D1*
X897434Y855898D1*
X903536Y849796D1*
X908608Y842814D1*
X912526Y835125D1*
X915193Y826917D1*
X916543Y818394D1*
Y809764D1*
X915193Y801240D1*
X912526Y793033D1*
X908608Y785343D1*
X903536Y778362D1*
X897434Y772259D1*
X890452Y767187D1*
X882763Y763269D1*
X874555Y760602D1*
X866031Y759252D1*
X843344Y759083D1*
X826283Y759119D1*
X815228Y749842D1*
X822504Y750835D1*
X842819Y750964D1*
X865281Y750849D1*
X872561Y749885D1*
X879648Y747959D1*
X886415Y745107D1*
X892741Y741378D1*
X898515Y736840D1*
X903632Y731573D1*
X908002Y725671D1*
X911547Y719239D1*
X914203Y712393D1*
X915923Y705254D1*
X916677Y697949D1*
X916437Y690466D1*
X915216Y683225D1*
X913041Y676210D1*
X909951Y669548D1*
X906001Y663358D1*
X901261Y657748D1*
X895817Y652820D1*
X889764Y648662D1*
X883211Y645347D1*
X876275Y642934D1*
X869079Y641468D1*
X861717Y640972D1*
X822647Y641093D1*
X815369Y642066D1*
X808285Y644001D1*
X801521Y646862D1*
X795200Y650599D1*
X789432Y655145D1*
X784322Y660419D1*
X779959Y666327D1*
X776423Y672763D1*
X773776Y679613D1*
X772065Y686754D1*
X771321Y694060D1*
X771556Y701400D1*
X772768Y708643D1*
X774933Y715660D1*
X778015Y722326D1*
X781957Y728522D1*
X786689Y734137D1*
X792127Y739072D1*
X798174Y743238D1*
X804723Y746562D1*
X811656Y748984D1*
X815228Y749842D1*
X3442810Y2897027D2*
X3547028D1*
Y2790972D1*
X3440973D1*
Y2819400D1*
X3436900Y2812831D1*
X3431496Y2806504D1*
X3425169Y2801100D1*
X3418074Y2796752D1*
X3410386Y2793568D1*
X3402295Y2791625D1*
X3394000Y2790972D1*
X3385705Y2791625D1*
X3377614Y2793568D1*
X3369926Y2796752D1*
X3362831Y2801100D1*
X3356504Y2806504D1*
X3351100Y2812831D1*
X3346752Y2819926D1*
X3344024Y2826378D1*
X3341248Y2819926D1*
X3336900Y2812831D1*
X3331496Y2806504D1*
X3325169Y2801100D1*
X3318074Y2796752D1*
X3310386Y2793568D1*
X3302295Y2791625D1*
X3294000Y2790972D1*
X3285705Y2791625D1*
X3277614Y2793568D1*
X3269926Y2796752D1*
X3262831Y2801100D1*
X3256504Y2806504D1*
X3251100Y2812831D1*
X3246752Y2819926D1*
X3243568Y2827614D1*
X3241625Y2835705D1*
X3240972Y2844000D1*
X3241625Y2852295D1*
X3243568Y2860386D1*
X3246752Y2868074D1*
X3251100Y2875169D1*
X3256504Y2881496D1*
X3262831Y2886900D1*
X3269926Y2891248D1*
X3277614Y2894432D1*
X3285705Y2896375D1*
X3294000Y2897028D1*
X3302295Y2896375D1*
X3310386Y2894432D1*
X3318074Y2891248D1*
X3325169Y2886900D1*
X3331496Y2881496D1*
X3336900Y2875169D1*
X3341248Y2868074D1*
X3343976Y2861622D1*
X3346752Y2868074D1*
X3351100Y2875169D1*
X3356504Y2881496D1*
X3362831Y2886900D1*
X3369926Y2891248D1*
X3377614Y2894432D1*
X3385705Y2896375D1*
X3394000Y2897028D1*
X3402295Y2896375D1*
X3410386Y2894432D1*
X3418074Y2891248D1*
X3425169Y2886900D1*
X3431496Y2881496D1*
X3436900Y2875169D1*
X3440970Y2868571D1*
X3440973Y2897027D1*
X3442810D1*
X794007Y1774363D2*
X799516Y1781993D1*
X806007Y1788484D1*
X813434Y1793879D1*
X821613Y1798047D1*
X830343Y1800884D1*
X839410Y1802320D1*
X845237Y1802451D1*
X739556Y1908138D1*
X659764Y1908245D1*
X655347Y1908945D1*
X651093Y1910327D1*
X647109Y1912357D1*
X643491Y1914986D1*
X622328Y1936148D1*
X619700Y1939766D1*
X617669Y1943751D1*
X616287Y1948004D1*
X615588Y1952421D1*
X615500Y1992946D1*
X609615Y1996673D1*
X606500Y1999127D1*
Y1821818D1*
X628018Y1800287D1*
X634849Y1801780D1*
X644000Y1802500D1*
X653151Y1801780D1*
X662077Y1799637D1*
X670558Y1796124D1*
X678385Y1791327D1*
X685366Y1785366D1*
X691327Y1778385D1*
X693993Y1774363D1*
X697734Y1779801D1*
X702585Y1785316D1*
X708088Y1790180D1*
X714157Y1794315D1*
X720696Y1797658D1*
X727603Y1800155D1*
X734768Y1801767D1*
X742079Y1802468D1*
X749420Y1802248D1*
X756675Y1801110D1*
X763731Y1799072D1*
X770476Y1796166D1*
X776803Y1792437D1*
X782614Y1787946D1*
X787816Y1782761D1*
X792327Y1776966D1*
X793996Y1774362D1*
X1002320Y2539410D2*
X1000884Y2530343D1*
X998047Y2521613D1*
X993879Y2513434D1*
X988484Y2506007D1*
X981993Y2499516D1*
X974566Y2494121D1*
X972515Y2492972D1*
X972500Y2488702D1*
X978439Y2484322D1*
X984322Y2478439D1*
X989213Y2471707D1*
X992991Y2464293D1*
X993976Y2461622D1*
X996752Y2468074D1*
X1001100Y2475169D1*
X1006504Y2481496D1*
X1012831Y2486900D1*
X1019926Y2491248D1*
X1027614Y2494432D1*
X1035705Y2496375D1*
X1044000Y2497028D1*
X1052295Y2496375D1*
X1060386Y2494432D1*
X1068074Y2491248D1*
X1075169Y2486900D1*
X1081496Y2481496D1*
X1086900Y2475169D1*
X1091248Y2468074D1*
X1093976Y2461622D1*
X1096752Y2468074D1*
X1101100Y2475169D1*
X1106504Y2481496D1*
X1112831Y2486900D1*
X1115495Y2488680D1*
X1115500Y2862230D1*
X1107627Y2863500D1*
X999149D1*
X1001067Y2856867D1*
X1002230Y2849615D1*
X1002471Y2842163D1*
X1001780Y2834851D1*
X1000179Y2827684D1*
X997692Y2820774D1*
X994358Y2814229D1*
X990231Y2808154D1*
X985376Y2802644D1*
X979868Y2797786D1*
X973795Y2793656D1*
X967252Y2790320D1*
X960343Y2787829D1*
X953176Y2786224D1*
X945865Y2785530D1*
X938524Y2785757D1*
X931270Y2786902D1*
X924216Y2788947D1*
X920505Y2790430D1*
X920500Y2597596D1*
X925923Y2599637D1*
X934849Y2601780D1*
X944000Y2602500D1*
X953151Y2601780D1*
X962077Y2599637D1*
X970558Y2596124D1*
X978385Y2591327D1*
X985366Y2585366D1*
X991327Y2578385D1*
X996124Y2570558D1*
X999637Y2562077D1*
X1001780Y2553151D1*
X1002500Y2544000D1*
X1002320Y2539410D1*
X2056500Y3388873D2*
X2063434Y3393879D1*
X2071613Y3398047D1*
X2080343Y3400884D1*
X2089410Y3402320D1*
X2098590D1*
X2107657Y3400884D1*
X2109919Y3400246D1*
X2143448Y3433753D1*
X2143464Y3782708D1*
X2056720Y3782705D1*
Y3840830D1*
X2056500Y3815664D1*
Y3388893D1*
X2599107Y2006497D2*
X2594631Y2012615D1*
X2591088Y2019048D1*
X2588379Y2025874D1*
X2586546Y2032986D1*
X2585619Y2040272D1*
X2585612Y2047616D1*
X2586525Y2054903D1*
X2588344Y2062019D1*
X2591020Y2068804D1*
X2585251Y2071241D1*
X2579431Y2074808D1*
X2574241Y2079241D1*
X2572149Y2081504D1*
X2389011Y2081366D1*
X2393338Y2075432D1*
X2396888Y2069003D1*
X2399604Y2062179D1*
X2401443Y2055069D1*
X2402377Y2047784D1*
X2402385Y2040328D1*
X2401464Y2033042D1*
X2399639Y2025928D1*
X2399148Y2024495D1*
X2528236Y2024412D1*
X2532653Y2023713D1*
X2536906Y2022331D1*
X2540891Y2020300D1*
X2544509Y2017672D1*
X2555820Y2006485D1*
X2599082Y2006500D1*
X1293993Y813637D2*
X1288484Y806007D1*
X1281993Y799516D1*
X1274566Y794121D1*
X1266387Y789953D1*
X1257657Y787116D1*
X1248590Y785680D1*
X1239410D1*
X1230343Y787116D1*
X1221613Y789953D1*
X1213434Y794121D1*
X1206007Y799516D1*
X1199516Y806007D1*
X1194007Y813637D1*
X1188484Y806007D1*
X1181993Y799516D1*
X1174566Y794121D1*
X1166387Y789953D1*
X1157657Y787116D1*
X1148590Y785680D1*
X1139410D1*
X1130343Y787116D1*
X1121613Y789953D1*
X1113434Y794121D1*
X1106007Y799516D1*
X1099516Y806007D1*
X1094121Y813434D1*
X1089953Y821613D1*
X1087116Y830343D1*
X1085680Y839410D1*
Y848590D1*
X1087116Y857657D1*
X1089953Y866387D1*
X1094121Y874566D1*
X1099516Y881993D1*
X1106007Y888484D1*
X1113434Y893879D1*
X1121613Y898047D1*
X1130343Y900884D1*
X1139410Y902320D1*
X1148590D1*
X1157657Y900884D1*
X1166387Y898047D1*
X1174566Y893879D1*
X1181993Y888484D1*
X1188484Y881993D1*
X1193993Y874363D1*
X1199516Y881993D1*
X1206007Y888484D1*
X1209178Y890983D1*
X1190973Y890972D1*
Y997027D1*
X1297028D1*
Y968643D1*
X1301100Y975169D1*
X1306504Y981496D1*
X1312831Y986900D1*
X1319926Y991248D1*
X1327614Y994432D1*
X1335705Y996375D1*
X1344000Y997028D1*
X1352295Y996375D1*
X1360386Y994432D1*
X1368074Y991248D1*
X1375169Y986900D1*
X1381496Y981496D1*
X1386900Y975169D1*
X1391248Y968074D1*
X1393976Y961622D1*
X1396752Y968074D1*
X1401100Y975169D1*
X1406504Y981496D1*
X1412831Y986900D1*
X1419926Y991248D1*
X1427614Y994432D1*
X1435705Y996375D1*
X1444000Y997028D1*
X1452295Y996375D1*
X1460386Y994432D1*
X1468074Y991248D1*
X1475169Y986900D1*
X1481496Y981496D1*
X1486900Y975169D1*
X1491248Y968074D1*
X1493976Y961622D1*
X1496752Y968074D1*
X1501100Y975169D1*
X1506504Y981496D1*
X1512831Y986900D1*
X1519926Y991248D1*
X1527614Y994432D1*
X1535705Y996375D1*
X1544000Y997028D1*
X1552295Y996375D1*
X1560386Y994432D1*
X1568074Y991248D1*
X1575169Y986900D1*
X1581496Y981496D1*
X1586900Y975169D1*
X1591248Y968074D1*
X1594432Y960386D1*
X1596375Y952295D1*
X1597028Y944000D1*
X1596375Y935705D1*
X1594432Y927614D1*
X1591248Y919926D1*
X1586900Y912831D1*
X1581496Y906504D1*
X1575169Y901100D1*
X1568074Y896752D1*
X1560386Y893568D1*
X1552295Y891625D1*
X1544000Y890972D1*
X1535705Y891625D1*
X1527614Y893568D1*
X1519926Y896752D1*
X1512831Y901100D1*
X1506504Y906504D1*
X1501100Y912831D1*
X1496752Y919926D1*
X1494024Y926378D1*
X1491248Y919926D1*
X1486900Y912831D1*
X1481496Y906504D1*
X1475169Y901100D1*
X1468627Y897062D1*
X1474566Y893879D1*
X1481993Y888484D1*
X1488484Y881993D1*
X1493879Y874566D1*
X1498047Y866387D1*
X1500884Y857657D1*
X1502320Y848590D1*
Y839410D1*
X1500884Y830343D1*
X1498047Y821613D1*
X1493879Y813434D1*
X1488484Y806007D1*
X1481993Y799516D1*
X1474566Y794121D1*
X1466387Y789953D1*
X1457657Y787116D1*
X1448590Y785680D1*
X1439410D1*
X1430343Y787116D1*
X1421613Y789953D1*
X1413434Y794121D1*
X1406007Y799516D1*
X1399516Y806007D1*
X1394007Y813637D1*
X1388484Y806007D1*
X1381993Y799516D1*
X1374566Y794121D1*
X1366387Y789953D1*
X1357657Y787116D1*
X1348590Y785680D1*
X1339410D1*
X1330343Y787116D1*
X1321613Y789953D1*
X1313434Y794121D1*
X1306007Y799516D1*
X1299516Y806007D1*
X1294007Y813637D1*
X3552471Y3342163D2*
X3551780Y3334851D1*
X3550179Y3327684D1*
X3547692Y3320774D1*
X3544358Y3314229D1*
X3540231Y3308154D1*
X3535376Y3302644D1*
X3529868Y3297786D1*
X3523795Y3293656D1*
X3517252Y3290320D1*
X3510343Y3287829D1*
X3503176Y3286224D1*
X3495865Y3285530D1*
X3488524Y3285757D1*
X3481270Y3286902D1*
X3474216Y3288947D1*
X3467474Y3291860D1*
X3461150Y3295594D1*
X3455344Y3300091D1*
X3450147Y3305281D1*
X3445641Y3311081D1*
X3441898Y3317399D1*
X3438975Y3324137D1*
X3436920Y3331188D1*
X3435765Y3338440D1*
X3435527Y3345781D1*
X3436211Y3353093D1*
X3437806Y3360262D1*
X3440286Y3367175D1*
X3443613Y3373722D1*
X3447734Y3379801D1*
X3452585Y3385316D1*
X3458088Y3390180D1*
X3464157Y3394315D1*
X3470696Y3397658D1*
X3477603Y3400155D1*
X3484768Y3401767D1*
X3492079Y3402468D1*
X3499420Y3402248D1*
X3506675Y3401110D1*
X3513731Y3399072D1*
X3520476Y3396166D1*
X3526803Y3392437D1*
X3532614Y3387946D1*
X3537816Y3382761D1*
X3542327Y3376966D1*
X3546077Y3370651D1*
X3549005Y3363916D1*
X3551067Y3356867D1*
X3552230Y3349615D1*
X3552471Y3342163D1*
X2652471D2*
X2651780Y3334851D1*
X2650179Y3327684D1*
X2647692Y3320774D1*
X2644358Y3314229D1*
X2640231Y3308154D1*
X2635376Y3302644D1*
X2629868Y3297786D1*
X2623795Y3293656D1*
X2617252Y3290320D1*
X2610343Y3287829D1*
X2603176Y3286224D1*
X2595865Y3285530D1*
X2588524Y3285757D1*
X2581270Y3286902D1*
X2574216Y3288947D1*
X2567474Y3291860D1*
X2561150Y3295594D1*
X2555344Y3300091D1*
X2550147Y3305281D1*
X2545641Y3311081D1*
X2541898Y3317399D1*
X2538975Y3324137D1*
X2536920Y3331188D1*
X2535765Y3338440D1*
X2535527Y3345781D1*
X2536211Y3353093D1*
X2537806Y3360262D1*
X2540286Y3367175D1*
X2543613Y3373722D1*
X2547734Y3379801D1*
X2552585Y3385316D1*
X2558088Y3390180D1*
X2564157Y3394315D1*
X2570696Y3397658D1*
X2577603Y3400155D1*
X2584768Y3401767D1*
X2592079Y3402468D1*
X2599420Y3402248D1*
X2606675Y3401110D1*
X2613731Y3399072D1*
X2620476Y3396166D1*
X2626803Y3392437D1*
X2632614Y3387946D1*
X2637816Y3382761D1*
X2642327Y3376966D1*
X2646077Y3370651D1*
X2649005Y3363916D1*
X2651067Y3356867D1*
X2652230Y3349615D1*
X2652471Y3342163D1*
X1352320Y4089410D2*
X1350884Y4080343D1*
X1348047Y4071613D1*
X1343879Y4063434D1*
X1338484Y4056007D1*
X1331993Y4049516D1*
X1324566Y4044121D1*
X1316387Y4039953D1*
X1307657Y4037116D1*
X1298590Y4035680D1*
X1289410D1*
X1280343Y4037116D1*
X1271613Y4039953D1*
X1263434Y4044121D1*
X1256007Y4049516D1*
X1249516Y4056007D1*
X1244121Y4063434D1*
X1239953Y4071613D1*
X1237116Y4080343D1*
X1235680Y4089410D1*
Y4098590D1*
X1237116Y4107657D1*
X1239953Y4116387D1*
X1244121Y4124566D1*
X1249516Y4131993D1*
X1256007Y4138484D1*
X1263434Y4143879D1*
X1271613Y4148047D1*
X1280343Y4150884D1*
X1289410Y4152320D1*
X1298590D1*
X1307657Y4150884D1*
X1316387Y4148047D1*
X1324566Y4143879D1*
X1331993Y4138484D1*
X1338484Y4131993D1*
X1343879Y4124566D1*
X1348047Y4116387D1*
X1350884Y4107657D1*
X1352320Y4098590D1*
Y4089410D1*
X1182267Y4037492D2*
X1180724Y4027748D1*
X1177675Y4018366D1*
X1173196Y4009576D1*
X1167397Y4001594D1*
X1160421Y3994618D1*
X1158680Y3993246D1*
X1164046Y3988456D1*
X1170454Y3980954D1*
X1175608Y3972542D1*
X1179384Y3963428D1*
X1181687Y3953835D1*
X1182461Y3944000D1*
X1181687Y3934165D1*
X1179384Y3924572D1*
X1175608Y3915458D1*
X1171386Y3908441D1*
X1182461Y3908445D1*
Y3782705D1*
X1056721D1*
Y3908445D1*
X1067737D1*
X1063573Y3915458D1*
X1059798Y3924572D1*
X1057495Y3934165D1*
X1056900Y3939433D1*
X983972Y3866502D1*
X983870Y3303222D1*
X983171Y3298805D1*
X981789Y3294552D1*
X979758Y3290567D1*
X977130Y3286949D1*
X920422Y3230117D1*
X924387Y3220119D1*
X926188Y3213732D1*
X927483Y3207222D1*
X928263Y3200632D1*
X928524Y3194000D1*
X928263Y3187368D1*
X927483Y3180778D1*
X926188Y3174268D1*
X924387Y3167881D1*
X922090Y3161654D1*
X919311Y3155627D1*
X916068Y3149837D1*
X912381Y3144318D1*
X908272Y3139106D1*
X903767Y3134233D1*
X898894Y3129728D1*
X893682Y3125619D1*
X888163Y3121932D1*
X882373Y3118689D1*
X876346Y3115910D1*
X870119Y3113613D1*
X863732Y3111812D1*
X857222Y3110517D1*
X850632Y3109737D1*
X844000Y3109476D1*
X837368Y3109737D1*
X830778Y3110517D1*
X824268Y3111812D1*
X817881Y3113613D1*
X811654Y3115910D1*
X805627Y3118689D1*
X799837Y3121932D1*
X794318Y3125619D1*
X789106Y3129728D1*
X784233Y3134233D1*
X779728Y3139106D1*
X775619Y3144318D1*
X771932Y3149837D1*
X768689Y3155627D1*
X765910Y3161654D1*
X763613Y3167881D1*
X761812Y3174268D1*
X760517Y3180778D1*
X759737Y3187368D1*
X759476Y3194000D1*
X759737Y3200632D1*
X760517Y3207222D1*
X761812Y3213732D1*
X763613Y3220119D1*
X765910Y3226346D1*
X768689Y3232373D1*
X771932Y3238163D1*
X775619Y3243682D1*
X779728Y3248894D1*
X784233Y3253767D1*
X789106Y3258272D1*
X794318Y3262381D1*
X799837Y3266068D1*
X805627Y3269311D1*
X811654Y3272090D1*
X817881Y3274387D1*
X824268Y3276188D1*
X830778Y3277483D1*
X837368Y3278263D1*
X844000Y3278524D1*
X850632Y3278263D1*
X857222Y3277483D1*
X863732Y3276188D1*
X870119Y3274387D1*
X880089Y3270364D1*
X926942Y3317247D1*
X926958Y3362837D1*
X924387Y3352920D1*
X922090Y3346694D1*
X919311Y3340666D1*
X916068Y3334876D1*
X912381Y3329358D1*
X908272Y3324146D1*
X903767Y3319272D1*
X898894Y3314767D1*
X893682Y3310658D1*
X888163Y3306971D1*
X882373Y3303728D1*
X876346Y3300950D1*
X870119Y3298653D1*
X863732Y3296851D1*
X857222Y3295556D1*
X850632Y3294776D1*
X844000Y3294516D1*
X837368Y3294776D1*
X830778Y3295556D1*
X824268Y3296851D1*
X817881Y3298653D1*
X811654Y3300950D1*
X805627Y3303728D1*
X799837Y3306971D1*
X794318Y3310658D1*
X789106Y3314767D1*
X784233Y3319272D1*
X779728Y3324146D1*
X775619Y3329358D1*
X771932Y3334876D1*
X768689Y3340666D1*
X765910Y3346694D1*
X763613Y3352920D1*
X761812Y3359308D1*
X760517Y3365817D1*
X759737Y3372408D1*
X759476Y3379039D1*
X759737Y3385671D1*
X760517Y3392262D1*
X761812Y3398771D1*
X763613Y3405159D1*
X765910Y3411385D1*
X768689Y3417412D1*
X771932Y3423203D1*
X775619Y3428721D1*
X779728Y3433933D1*
X784233Y3438807D1*
X789106Y3443312D1*
X794318Y3447420D1*
X799837Y3451108D1*
X805627Y3454350D1*
X811654Y3457129D1*
X817881Y3459426D1*
X824268Y3461228D1*
X830778Y3462522D1*
X837368Y3463302D1*
X844000Y3463563D1*
X850632Y3463302D1*
X857222Y3462522D1*
X863732Y3461228D1*
X870119Y3459426D1*
X876346Y3457129D1*
X882373Y3454350D1*
X888163Y3451108D1*
X893682Y3447420D1*
X898894Y3443312D1*
X903767Y3438807D1*
X908272Y3433933D1*
X912381Y3428721D1*
X916068Y3423203D1*
X919311Y3417412D1*
X922090Y3411385D1*
X924387Y3405159D1*
X926962Y3394881D1*
X926958Y3719023D1*
X922600Y3712404D1*
X918586Y3707314D1*
X914186Y3702554D1*
X909426Y3698154D1*
X904336Y3694141D1*
X898946Y3690539D1*
X893290Y3687372D1*
X887403Y3684658D1*
X881322Y3682415D1*
X875083Y3680655D1*
X868725Y3679390D1*
X862288Y3678629D1*
X846625Y3678374D1*
X832189D1*
X825712Y3678629D1*
X819275Y3679390D1*
X812917Y3680655D1*
X806678Y3682415D1*
X800597Y3684658D1*
X794710Y3687372D1*
X789054Y3690539D1*
X783664Y3694141D1*
X778574Y3698154D1*
X773814Y3702554D1*
X769414Y3707314D1*
X765400Y3712404D1*
X761799Y3717794D1*
X758632Y3723450D1*
X755918Y3729337D1*
X753674Y3735418D1*
X751915Y3741657D1*
X750650Y3748015D1*
X749888Y3754452D1*
X749634Y3760929D1*
X749888Y3767406D1*
X750650Y3773844D1*
X751915Y3780201D1*
X753674Y3786440D1*
X755918Y3792522D1*
X758632Y3798408D1*
X761799Y3804064D1*
X765400Y3809454D1*
X769414Y3814544D1*
X773814Y3819304D1*
X778574Y3823705D1*
X783664Y3827718D1*
X789054Y3831319D1*
X794710Y3834486D1*
X800597Y3837200D1*
X806678Y3839444D1*
X812917Y3841203D1*
X819275Y3842468D1*
X825712Y3843230D1*
X841375Y3843484D1*
X862288Y3843230D1*
X868725Y3842468D1*
X875083Y3841203D1*
X881322Y3839444D1*
X887403Y3837200D1*
X893290Y3834486D1*
X898946Y3831319D1*
X904336Y3827718D1*
X909426Y3823705D1*
X914186Y3819304D1*
X918586Y3814544D1*
X922600Y3809454D1*
X926956Y3802716D1*
X927046Y3880529D1*
X927745Y3884946D1*
X929127Y3889199D1*
X931158Y3893184D1*
X933786Y3896802D1*
X1000263Y3963403D1*
X1059798Y4022997D1*
X1057495Y4032590D1*
X1056720Y4042425D1*
X1057495Y4052260D1*
X1059798Y4061853D1*
X1063573Y4070968D1*
X1068728Y4079379D1*
X1075135Y4086881D1*
X1082636Y4093288D1*
X1091048Y4098443D1*
X1100163Y4102218D1*
X1109756Y4104521D1*
X1119591Y4105295D1*
X1129426Y4104521D1*
X1139018Y4102218D1*
X1148133Y4098443D1*
X1156545Y4093288D1*
X1164046Y4086881D1*
X1170454Y4079379D1*
X1175608Y4070968D1*
X1179384Y4061853D1*
X1181687Y4052260D1*
X1182461Y4042425D1*
X1182267Y4037492D1*
X832214Y4044517D2*
X825712Y4044770D1*
X819275Y4045532D1*
X812917Y4046797D1*
X806678Y4048556D1*
X800597Y4050800D1*
X794710Y4053514D1*
X789054Y4056681D1*
X783664Y4060282D1*
X778574Y4064295D1*
X773814Y4068696D1*
X769414Y4073456D1*
X765400Y4078546D1*
X761799Y4083936D1*
X758632Y4089592D1*
X755918Y4095478D1*
X753674Y4101560D1*
X751915Y4107799D1*
X750650Y4114156D1*
X749888Y4120594D1*
X749634Y4127071D1*
X749888Y4133548D1*
X750650Y4139985D1*
X751915Y4146343D1*
X753674Y4152582D1*
X755918Y4158663D1*
X758632Y4164550D1*
X761799Y4170206D1*
X765400Y4175596D1*
X769414Y4180686D1*
X773814Y4185446D1*
X778574Y4189846D1*
X783664Y4193859D1*
X789054Y4197461D1*
X794710Y4200628D1*
X800597Y4203342D1*
X806678Y4205585D1*
X812917Y4207345D1*
X819275Y4208610D1*
X825712Y4209371D1*
X841376Y4209626D1*
X862288Y4209371D1*
X868725Y4208610D1*
X875083Y4207345D1*
X881322Y4205585D1*
X887403Y4203342D1*
X893290Y4200628D1*
X898946Y4197461D1*
X904336Y4193859D1*
X909426Y4189846D1*
X914186Y4185446D1*
X918586Y4180686D1*
X922600Y4175596D1*
X926201Y4170206D1*
X929368Y4164550D1*
X932082Y4158663D1*
X934326Y4152582D1*
X936085Y4146343D1*
X937350Y4139985D1*
X938112Y4133548D1*
X938366Y4127071D1*
X938112Y4120594D1*
X937350Y4114156D1*
X936085Y4107799D1*
X934326Y4101560D1*
X932082Y4095478D1*
X929368Y4089592D1*
X926201Y4083936D1*
X922600Y4078546D1*
X918586Y4073456D1*
X914186Y4068696D1*
X909426Y4064295D1*
X904336Y4060282D1*
X898946Y4056681D1*
X893290Y4053514D1*
X887403Y4050800D1*
X881322Y4048556D1*
X875083Y4046797D1*
X868725Y4045532D1*
X862288Y4044770D1*
X846625Y4044516D1*
X832189Y4044551D1*
X1832214Y3678375D2*
X1825712Y3678629D1*
X1819275Y3679390D1*
X1812917Y3680655D1*
X1806678Y3682415D1*
X1800597Y3684658D1*
X1794710Y3687372D1*
X1789054Y3690539D1*
X1783664Y3694141D1*
X1778574Y3698154D1*
X1773814Y3702554D1*
X1769414Y3707314D1*
X1765400Y3712404D1*
X1761799Y3717794D1*
X1758632Y3723450D1*
X1755918Y3729337D1*
X1753674Y3735418D1*
X1751915Y3741657D1*
X1750650Y3748015D1*
X1749888Y3754452D1*
X1749634Y3760929D1*
X1749888Y3767406D1*
X1750650Y3773844D1*
X1751915Y3780201D1*
X1753674Y3786440D1*
X1755918Y3792522D1*
X1758632Y3798408D1*
X1761799Y3804064D1*
X1765400Y3809454D1*
X1769414Y3814544D1*
X1773814Y3819304D1*
X1778574Y3823705D1*
X1783664Y3827718D1*
X1789054Y3831319D1*
X1794710Y3834486D1*
X1800597Y3837200D1*
X1806678Y3839444D1*
X1812917Y3841203D1*
X1819275Y3842468D1*
X1825712Y3843230D1*
X1841375Y3843484D1*
X1862288Y3843230D1*
X1868725Y3842468D1*
X1875083Y3841203D1*
X1881322Y3839444D1*
X1887403Y3837200D1*
X1893290Y3834486D1*
X1898946Y3831319D1*
X1904336Y3827718D1*
X1909426Y3823705D1*
X1914186Y3819304D1*
X1918586Y3814544D1*
X1922600Y3809454D1*
X1926201Y3804064D1*
X1929368Y3798408D1*
X1932082Y3792522D1*
X1934326Y3786440D1*
X1936085Y3780201D1*
X1937350Y3773844D1*
X1938112Y3767406D1*
X1938366Y3760929D1*
X1938112Y3754452D1*
X1937350Y3748015D1*
X1936085Y3741657D1*
X1934326Y3735418D1*
X1932082Y3729337D1*
X1929368Y3723450D1*
X1926201Y3717794D1*
X1922600Y3712404D1*
X1918586Y3707314D1*
X1914186Y3702554D1*
X1909426Y3698154D1*
X1904336Y3694141D1*
X1898946Y3690539D1*
X1893290Y3687372D1*
X1887403Y3684658D1*
X1881322Y3682415D1*
X1875083Y3680655D1*
X1868725Y3679390D1*
X1862288Y3678629D1*
X1846625Y3678374D1*
X1832189Y3678410D1*
X1832214Y4044517D2*
X1825712Y4044770D1*
X1819275Y4045532D1*
X1812917Y4046797D1*
X1806678Y4048556D1*
X1800597Y4050800D1*
X1794710Y4053514D1*
X1789054Y4056681D1*
X1783664Y4060282D1*
X1778574Y4064295D1*
X1773814Y4068696D1*
X1769414Y4073456D1*
X1765400Y4078546D1*
X1761799Y4083936D1*
X1758632Y4089592D1*
X1755918Y4095478D1*
X1753674Y4101560D1*
X1751915Y4107799D1*
X1750650Y4114156D1*
X1749888Y4120594D1*
X1749634Y4127071D1*
X1749888Y4133548D1*
X1750650Y4139985D1*
X1751915Y4146343D1*
X1753674Y4152582D1*
X1755918Y4158663D1*
X1758632Y4164550D1*
X1761799Y4170206D1*
X1765400Y4175596D1*
X1769414Y4180686D1*
X1773814Y4185446D1*
X1778574Y4189846D1*
X1783664Y4193859D1*
X1789054Y4197461D1*
X1794710Y4200628D1*
X1800597Y4203342D1*
X1806678Y4205585D1*
X1812917Y4207345D1*
X1819275Y4208610D1*
X1825712Y4209371D1*
X1841375Y4209626D1*
X1862288Y4209371D1*
X1868725Y4208610D1*
X1875083Y4207345D1*
X1881322Y4205585D1*
X1887403Y4203342D1*
X1893290Y4200628D1*
X1898946Y4197461D1*
X1904336Y4193859D1*
X1909426Y4189846D1*
X1914186Y4185446D1*
X1918586Y4180686D1*
X1922600Y4175596D1*
X1926201Y4170206D1*
X1929368Y4164550D1*
X1932082Y4158663D1*
X1934326Y4152582D1*
X1936085Y4146343D1*
X1937350Y4139985D1*
X1938112Y4133548D1*
X1938366Y4127071D1*
X1938112Y4120594D1*
X1937350Y4114156D1*
X1936085Y4107799D1*
X1934326Y4101560D1*
X1932082Y4095478D1*
X1929368Y4089592D1*
X1926201Y4083936D1*
X1922600Y4078546D1*
X1918586Y4073456D1*
X1914186Y4068696D1*
X1909426Y4064295D1*
X1904336Y4060282D1*
X1898946Y4056681D1*
X1893290Y4053514D1*
X1887403Y4050800D1*
X1881322Y4048556D1*
X1875083Y4046797D1*
X1868725Y4045532D1*
X1862288Y4044770D1*
X1846625Y4044516D1*
X1832189Y4044552D1*
X3832214Y2178375D2*
X3825712Y2178629D1*
X3819275Y2179390D1*
X3812917Y2180655D1*
X3806678Y2182415D1*
X3800597Y2184658D1*
X3794710Y2187372D1*
X3789054Y2190539D1*
X3783664Y2194141D1*
X3778574Y2198154D1*
X3773814Y2202554D1*
X3769414Y2207314D1*
X3765400Y2212404D1*
X3761799Y2217794D1*
X3758632Y2223450D1*
X3755918Y2229337D1*
X3753674Y2235418D1*
X3751915Y2241657D1*
X3750650Y2248015D1*
X3749888Y2254452D1*
X3749634Y2260929D1*
X3749888Y2267406D1*
X3750650Y2273844D1*
X3751915Y2280201D1*
X3753674Y2286440D1*
X3755918Y2292522D1*
X3758632Y2298408D1*
X3761799Y2304064D1*
X3765400Y2309454D1*
X3769414Y2314544D1*
X3773814Y2319304D1*
X3778574Y2323705D1*
X3783664Y2327718D1*
X3789054Y2331319D1*
X3794710Y2334486D1*
X3800597Y2337200D1*
X3806678Y2339444D1*
X3812917Y2341203D1*
X3819275Y2342468D1*
X3825712Y2343230D1*
X3841376Y2343484D1*
X3862288Y2343230D1*
X3868725Y2342468D1*
X3875083Y2341203D1*
X3881322Y2339444D1*
X3887403Y2337200D1*
X3893290Y2334486D1*
X3898946Y2331319D1*
X3904336Y2327718D1*
X3909426Y2323705D1*
X3914186Y2319304D1*
X3918586Y2314544D1*
X3922600Y2309454D1*
X3926201Y2304064D1*
X3929368Y2298408D1*
X3932082Y2292522D1*
X3934326Y2286440D1*
X3936085Y2280201D1*
X3937350Y2273844D1*
X3938112Y2267406D1*
X3938366Y2260929D1*
X3938112Y2254452D1*
X3937350Y2248015D1*
X3936085Y2241657D1*
X3934326Y2235418D1*
X3932082Y2229337D1*
X3929368Y2223450D1*
X3926201Y2217794D1*
X3922600Y2212404D1*
X3918586Y2207314D1*
X3914186Y2202554D1*
X3909426Y2198154D1*
X3904336Y2194141D1*
X3898946Y2190539D1*
X3893290Y2187372D1*
X3887403Y2184658D1*
X3881322Y2182415D1*
X3875083Y2180655D1*
X3868725Y2179390D1*
X3862288Y2178629D1*
X3846625Y2178374D1*
X3832189Y2178410D1*
X3832214Y2544517D2*
X3825712Y2544770D1*
X3819275Y2545532D1*
X3812917Y2546797D1*
X3806678Y2548556D1*
X3800597Y2550800D1*
X3794710Y2553514D1*
X3789054Y2556681D1*
X3783664Y2560282D1*
X3778574Y2564295D1*
X3773814Y2568696D1*
X3769414Y2573456D1*
X3765400Y2578546D1*
X3761799Y2583936D1*
X3758632Y2589592D1*
X3755918Y2595478D1*
X3753674Y2601560D1*
X3751915Y2607799D1*
X3750650Y2614156D1*
X3749888Y2620594D1*
X3749634Y2627071D1*
X3749888Y2633548D1*
X3750650Y2639985D1*
X3751915Y2646343D1*
X3753674Y2652582D1*
X3755918Y2658663D1*
X3758632Y2664550D1*
X3761799Y2670206D1*
X3765400Y2675596D1*
X3769414Y2680686D1*
X3773814Y2685446D1*
X3778574Y2689846D1*
X3783664Y2693859D1*
X3789054Y2697461D1*
X3794710Y2700628D1*
X3800597Y2703342D1*
X3806678Y2705585D1*
X3812917Y2707345D1*
X3819275Y2708610D1*
X3825712Y2709371D1*
X3841376Y2709626D1*
X3862288Y2709371D1*
X3868725Y2708610D1*
X3875083Y2707345D1*
X3881322Y2705585D1*
X3887403Y2703342D1*
X3893290Y2700628D1*
X3898946Y2697461D1*
X3904336Y2693859D1*
X3909426Y2689846D1*
X3914186Y2685446D1*
X3918586Y2680686D1*
X3922600Y2675596D1*
X3926201Y2670206D1*
X3929368Y2664550D1*
X3932082Y2658663D1*
X3934326Y2652582D1*
X3936085Y2646343D1*
X3937350Y2639985D1*
X3938112Y2633548D1*
X3938366Y2627071D1*
X3938112Y2620594D1*
X3937350Y2614156D1*
X3936085Y2607799D1*
X3934326Y2601560D1*
X3932082Y2595478D1*
X3929368Y2589592D1*
X3926201Y2583936D1*
X3922600Y2578546D1*
X3918586Y2573456D1*
X3914186Y2568696D1*
X3909426Y2564295D1*
X3904336Y2560282D1*
X3898946Y2556681D1*
X3893290Y2553514D1*
X3887403Y2550800D1*
X3881322Y2548556D1*
X3875083Y2546797D1*
X3868725Y2545532D1*
X3862288Y2544770D1*
X3846625Y2544515D1*
X3832189Y2544551D1*
X3832214Y3678375D2*
X3825712Y3678629D1*
X3819275Y3679390D1*
X3812917Y3680655D1*
X3806678Y3682415D1*
X3800597Y3684658D1*
X3794710Y3687372D1*
X3789054Y3690539D1*
X3783664Y3694141D1*
X3778574Y3698154D1*
X3773814Y3702554D1*
X3769414Y3707314D1*
X3765400Y3712404D1*
X3761799Y3717794D1*
X3758632Y3723450D1*
X3755918Y3729337D1*
X3753674Y3735418D1*
X3751915Y3741657D1*
X3750650Y3748015D1*
X3749888Y3754452D1*
X3749634Y3760929D1*
X3749888Y3767406D1*
X3750650Y3773844D1*
X3751915Y3780201D1*
X3753674Y3786440D1*
X3755918Y3792522D1*
X3758632Y3798408D1*
X3761799Y3804064D1*
X3765400Y3809454D1*
X3769414Y3814544D1*
X3773814Y3819304D1*
X3778574Y3823705D1*
X3783664Y3827718D1*
X3789054Y3831319D1*
X3794710Y3834486D1*
X3800597Y3837200D1*
X3806678Y3839444D1*
X3812917Y3841203D1*
X3819275Y3842468D1*
X3825712Y3843230D1*
X3841375Y3843484D1*
X3862288Y3843230D1*
X3868725Y3842468D1*
X3875083Y3841203D1*
X3881322Y3839444D1*
X3887403Y3837200D1*
X3893290Y3834486D1*
X3898946Y3831319D1*
X3904336Y3827718D1*
X3909426Y3823705D1*
X3914186Y3819304D1*
X3918586Y3814544D1*
X3922600Y3809454D1*
X3926201Y3804064D1*
X3929368Y3798408D1*
X3932082Y3792522D1*
X3934326Y3786440D1*
X3936085Y3780201D1*
X3937350Y3773844D1*
X3938112Y3767406D1*
X3938366Y3760929D1*
X3938112Y3754452D1*
X3937350Y3748015D1*
X3936085Y3741657D1*
X3934326Y3735418D1*
X3932082Y3729337D1*
X3929368Y3723450D1*
X3926201Y3717794D1*
X3922600Y3712404D1*
X3918586Y3707314D1*
X3914186Y3702554D1*
X3909426Y3698154D1*
X3904336Y3694141D1*
X3898946Y3690539D1*
X3893290Y3687372D1*
X3887403Y3684658D1*
X3881322Y3682415D1*
X3875083Y3680655D1*
X3868725Y3679390D1*
X3862288Y3678629D1*
X3846625Y3678374D1*
X3832189Y3678410D1*
X3832214Y4044517D2*
X3825712Y4044770D1*
X3819275Y4045532D1*
X3812917Y4046797D1*
X3806678Y4048556D1*
X3800597Y4050800D1*
X3794710Y4053514D1*
X3789054Y4056681D1*
X3783664Y4060282D1*
X3778574Y4064295D1*
X3773814Y4068696D1*
X3769414Y4073456D1*
X3765400Y4078546D1*
X3761799Y4083936D1*
X3758632Y4089592D1*
X3755918Y4095478D1*
X3753674Y4101560D1*
X3751915Y4107799D1*
X3750650Y4114156D1*
X3749888Y4120594D1*
X3749634Y4127071D1*
X3749888Y4133548D1*
X3750650Y4139985D1*
X3751915Y4146343D1*
X3753674Y4152582D1*
X3755918Y4158663D1*
X3758632Y4164550D1*
X3761799Y4170206D1*
X3765400Y4175596D1*
X3769414Y4180686D1*
X3773814Y4185446D1*
X3778574Y4189846D1*
X3783664Y4193859D1*
X3789054Y4197461D1*
X3794710Y4200628D1*
X3800597Y4203342D1*
X3806678Y4205585D1*
X3812917Y4207345D1*
X3819275Y4208610D1*
X3825712Y4209371D1*
X3841375Y4209626D1*
X3862288Y4209371D1*
X3868725Y4208610D1*
X3875083Y4207345D1*
X3881322Y4205585D1*
X3887403Y4203342D1*
X3893290Y4200628D1*
X3898946Y4197461D1*
X3904336Y4193859D1*
X3909426Y4189846D1*
X3914186Y4185446D1*
X3918586Y4180686D1*
X3922600Y4175596D1*
X3926201Y4170206D1*
X3929368Y4164550D1*
X3932082Y4158663D1*
X3934326Y4152582D1*
X3936085Y4146343D1*
X3937350Y4139985D1*
X3938112Y4133548D1*
X3938366Y4127071D1*
X3938112Y4120594D1*
X3937350Y4114156D1*
X3936085Y4107799D1*
X3934326Y4101560D1*
X3932082Y4095478D1*
X3929368Y4089592D1*
X3926201Y4083936D1*
X3922600Y4078546D1*
X3918586Y4073456D1*
X3914186Y4068696D1*
X3909426Y4064295D1*
X3904336Y4060282D1*
X3898946Y4056681D1*
X3893290Y4053514D1*
X3887403Y4050800D1*
X3881322Y4048556D1*
X3875083Y4046797D1*
X3868725Y4045532D1*
X3862288Y4044770D1*
X3846625Y4044516D1*
X3832189Y4044552D1*
X1768663Y3093484D2*
X1928524D1*
Y2924437D1*
X1759477D1*
Y3093484D1*
X1768663D1*
X1928263Y3187368D2*
X1927483Y3180778D1*
X1926188Y3174268D1*
X1924387Y3167881D1*
X1922090Y3161654D1*
X1919311Y3155627D1*
X1916068Y3149837D1*
X1912381Y3144318D1*
X1908272Y3139106D1*
X1903767Y3134233D1*
X1898894Y3129728D1*
X1893682Y3125619D1*
X1888163Y3121932D1*
X1882373Y3118689D1*
X1876346Y3115910D1*
X1870119Y3113613D1*
X1863732Y3111812D1*
X1857222Y3110517D1*
X1850632Y3109737D1*
X1844000Y3109476D1*
X1837368Y3109737D1*
X1830778Y3110517D1*
X1824268Y3111812D1*
X1817881Y3113613D1*
X1811654Y3115910D1*
X1805627Y3118689D1*
X1799837Y3121932D1*
X1794318Y3125619D1*
X1789106Y3129728D1*
X1784233Y3134233D1*
X1779728Y3139106D1*
X1775619Y3144318D1*
X1771932Y3149837D1*
X1768689Y3155627D1*
X1765910Y3161654D1*
X1763613Y3167881D1*
X1761812Y3174268D1*
X1760517Y3180778D1*
X1759737Y3187368D1*
X1759476Y3194000D1*
X1759737Y3200632D1*
X1760517Y3207222D1*
X1761812Y3213732D1*
X1763613Y3220119D1*
X1765910Y3226346D1*
X1768689Y3232373D1*
X1771932Y3238163D1*
X1775619Y3243682D1*
X1779728Y3248894D1*
X1784233Y3253767D1*
X1789106Y3258272D1*
X1794318Y3262381D1*
X1799837Y3266068D1*
X1805627Y3269311D1*
X1811654Y3272090D1*
X1817881Y3274387D1*
X1824268Y3276188D1*
X1830778Y3277483D1*
X1837368Y3278263D1*
X1844000Y3278524D1*
X1850632Y3278263D1*
X1857222Y3277483D1*
X1863732Y3276188D1*
X1870119Y3274387D1*
X1876346Y3272090D1*
X1882373Y3269311D1*
X1888163Y3266068D1*
X1893682Y3262381D1*
X1898894Y3258272D1*
X1903767Y3253767D1*
X1908272Y3248894D1*
X1912381Y3243682D1*
X1916068Y3238163D1*
X1919311Y3232373D1*
X1922090Y3226346D1*
X1924387Y3220119D1*
X1926188Y3213732D1*
X1927483Y3207222D1*
X1928263Y3200632D1*
X1928524Y3194000D1*
X1928263Y3187368D1*
Y3372408D2*
X1927483Y3365817D1*
X1926188Y3359308D1*
X1924387Y3352920D1*
X1922090Y3346694D1*
X1919311Y3340666D1*
X1916068Y3334876D1*
X1912381Y3329358D1*
X1908272Y3324146D1*
X1903767Y3319272D1*
X1898894Y3314767D1*
X1893682Y3310658D1*
X1888163Y3306971D1*
X1882373Y3303728D1*
X1876346Y3300950D1*
X1870119Y3298653D1*
X1863732Y3296851D1*
X1857222Y3295556D1*
X1850632Y3294776D1*
X1844000Y3294516D1*
X1837368Y3294776D1*
X1830778Y3295556D1*
X1824268Y3296851D1*
X1817881Y3298653D1*
X1811654Y3300950D1*
X1805627Y3303728D1*
X1799837Y3306971D1*
X1794318Y3310658D1*
X1789106Y3314767D1*
X1784233Y3319272D1*
X1779728Y3324146D1*
X1775619Y3329358D1*
X1771932Y3334876D1*
X1768689Y3340666D1*
X1765910Y3346694D1*
X1763613Y3352920D1*
X1761812Y3359308D1*
X1760517Y3365817D1*
X1759737Y3372408D1*
X1759476Y3379039D1*
X1759737Y3385671D1*
X1760517Y3392262D1*
X1761812Y3398771D1*
X1763613Y3405159D1*
X1765910Y3411385D1*
X1768689Y3417412D1*
X1771932Y3423203D1*
X1775619Y3428721D1*
X1779728Y3433933D1*
X1784233Y3438807D1*
X1789106Y3443312D1*
X1794318Y3447420D1*
X1799837Y3451108D1*
X1805627Y3454350D1*
X1811654Y3457129D1*
X1817881Y3459426D1*
X1824268Y3461228D1*
X1830778Y3462522D1*
X1837368Y3463302D1*
X1844000Y3463563D1*
X1850632Y3463302D1*
X1857222Y3462522D1*
X1863732Y3461228D1*
X1870119Y3459426D1*
X1876346Y3457129D1*
X1882373Y3454350D1*
X1888163Y3451108D1*
X1893682Y3447420D1*
X1898894Y3443312D1*
X1903767Y3438807D1*
X1908272Y3433933D1*
X1912381Y3428721D1*
X1916068Y3423203D1*
X1919311Y3417412D1*
X1922090Y3411385D1*
X1924387Y3405159D1*
X1926188Y3398771D1*
X1927483Y3392262D1*
X1928263Y3385671D1*
X1928524Y3379039D1*
X1928263Y3372408D1*
X3928263Y3187368D2*
X3927483Y3180778D1*
X3926188Y3174268D1*
X3924387Y3167881D1*
X3922090Y3161654D1*
X3919311Y3155627D1*
X3916068Y3149837D1*
X3912381Y3144318D1*
X3908272Y3139106D1*
X3903767Y3134233D1*
X3898894Y3129728D1*
X3893682Y3125619D1*
X3888163Y3121932D1*
X3882373Y3118689D1*
X3876346Y3115910D1*
X3870119Y3113613D1*
X3863732Y3111812D1*
X3857222Y3110517D1*
X3850632Y3109737D1*
X3844000Y3109476D1*
X3837368Y3109737D1*
X3830778Y3110517D1*
X3824268Y3111812D1*
X3817881Y3113613D1*
X3811654Y3115910D1*
X3805627Y3118689D1*
X3799837Y3121932D1*
X3794318Y3125619D1*
X3789106Y3129728D1*
X3784233Y3134233D1*
X3779728Y3139106D1*
X3775619Y3144318D1*
X3771932Y3149837D1*
X3768689Y3155627D1*
X3765910Y3161654D1*
X3763613Y3167881D1*
X3761812Y3174268D1*
X3760517Y3180778D1*
X3759737Y3187368D1*
X3759476Y3194000D1*
X3759737Y3200632D1*
X3760517Y3207222D1*
X3761812Y3213732D1*
X3763613Y3220119D1*
X3765910Y3226346D1*
X3768689Y3232373D1*
X3771932Y3238163D1*
X3775619Y3243682D1*
X3779728Y3248894D1*
X3784233Y3253767D1*
X3789106Y3258272D1*
X3794318Y3262381D1*
X3799837Y3266068D1*
X3805627Y3269311D1*
X3811654Y3272090D1*
X3817881Y3274387D1*
X3824268Y3276188D1*
X3830778Y3277483D1*
X3837368Y3278263D1*
X3844000Y3278524D1*
X3850632Y3278263D1*
X3857222Y3277483D1*
X3863732Y3276188D1*
X3870119Y3274387D1*
X3876346Y3272090D1*
X3882373Y3269311D1*
X3888163Y3266068D1*
X3893682Y3262381D1*
X3898894Y3258272D1*
X3903767Y3253767D1*
X3908272Y3248894D1*
X3912381Y3243682D1*
X3916068Y3238163D1*
X3919311Y3232373D1*
X3922090Y3226346D1*
X3924387Y3220119D1*
X3926188Y3213732D1*
X3927483Y3207222D1*
X3928263Y3200632D1*
X3928524Y3194000D1*
X3928263Y3187368D1*
X3768663Y1593484D2*
X3928524D1*
Y1424437D1*
X3759477D1*
Y1593484D1*
X3768663D1*
X3163502Y1294697D2*
X3157335Y1292676D1*
X3150116Y1291326D1*
X3142781Y1290986D1*
X3135469Y1291663D1*
X3128321Y1293343D1*
X3121473Y1295995D1*
X3120500Y1296472D1*
X3120412Y911764D1*
X3119713Y907347D1*
X3118331Y903093D1*
X3116300Y899109D1*
X3113672Y895491D1*
X3106799Y888493D1*
X3162226Y888500D1*
X3163500Y896373D1*
Y1294723D1*
X3120495Y1391527D2*
X3125976Y1393870D1*
X3133038Y1395882D1*
X3140311Y1396899D1*
X3147654Y1396902D1*
X3154927Y1395890D1*
X3161991Y1393882D1*
X3163500Y1393308D1*
Y1594715D1*
X3157335Y1592676D1*
X3150116Y1591326D1*
X3142781Y1590986D1*
X3135469Y1591663D1*
X3128321Y1593343D1*
X3121473Y1595995D1*
X3120500Y1596472D1*
Y1391505D1*
X1044000Y2802464D2*
D17*
Y2744000D1*
X985536D2*
X1102464D1*
X2394000Y3144000D2*
Y3085536D1*
X2335536Y3144000D2*
X2394000D1*
X985536Y1844000D2*
X1102464D1*
X1485536Y644000D2*
X1602464D1*
X1244000Y1602464D2*
Y1544000D1*
X1302464D1*
X3185536Y1944000D2*
X3302464D1*
X2444000Y1044000D2*
Y985536D1*
X2385536Y1044000D2*
X2502464D1*
X2385536Y1944000D2*
X2502464D1*
X3244000Y1044000D2*
Y985536D1*
X2994000Y3798960D2*
Y3744000D1*
X3048960D1*
X2694000Y3798960D2*
Y3744000D1*
X2639040D2*
X2748960D1*
X2594000Y4252464D2*
Y4194000D1*
X2694000Y4252464D2*
Y4194000D1*
X2794000Y4252464D2*
Y4194000D1*
Y4094000D2*
Y4035536D1*
X2694000Y4094000D2*
Y4035536D1*
X2594000Y4094000D2*
Y4035536D1*
X1844000Y750929D2*
Y641008D1*
X1771323Y695969D2*
X1916677D1*
X3844000Y750929D2*
Y641008D1*
X3771323Y695969D2*
X3916677D1*
X844000Y750929D2*
Y641008D1*
X771323Y695969D2*
X916677D1*
X3494000Y2896992D2*
Y2791008D1*
Y2844000D2*
X3546992D1*
X2544000Y2896992D2*
Y2791008D1*
Y2844000D2*
X2596992D1*
X744000Y1802464D2*
Y1685536D1*
X1444000Y1802464D2*
Y1744000D1*
X1502464D1*
X2244000Y1002464D2*
Y885536D1*
X2185536Y944000D2*
X2244000D1*
X1144000Y1744000D2*
Y1685536D1*
X1085536Y1744000D2*
X1144000D1*
X944000Y2844000D2*
Y2785536D1*
Y2844000D2*
X1002464D1*
X2644000Y2102464D2*
Y2044000D1*
X2585536D2*
X2644000D1*
X1244000Y2844000D2*
Y2785536D1*
X1185536Y2844000D2*
X1244000D1*
X2544000Y1002464D2*
Y944000D1*
X2485536D2*
X2544000D1*
X3194000Y3102464D2*
Y2985536D1*
Y3044000D2*
X3252464D1*
X2344000Y2044000D2*
X2402464D1*
X3494000Y3402464D2*
Y3285536D1*
X3435536Y3344000D2*
X3552464D1*
X2594000Y3402464D2*
Y3285536D1*
X2535536Y3344000D2*
X2652464D1*
X1119591Y3845575D2*
Y3782740D1*
X1056756Y3845575D2*
X1182425D1*
X2119591D2*
Y3782741D1*
X2056756Y3845575D2*
X2119591D1*
X4119591D2*
Y3782741D1*
X4056756Y3845575D2*
X4119591D1*
X3144000Y1396992D2*
Y1291008D1*
Y1644000D2*
Y1591008D1*
D19*
X1544000Y1844000D3*
Y1944000D3*
X2144000Y1044000D3*
Y1144000D3*
X644000Y2744000D3*
Y2644000D3*
X2844000Y1044000D3*
Y1144000D3*
X2044000Y1944000D3*
Y1844000D3*
X3394000Y3244000D3*
Y3144000D3*
X2494000Y3244000D3*
Y3144000D3*
X1044000Y2744000D3*
Y2644000D3*
X3294000Y3144000D3*
Y3244000D3*
X2394000Y3144000D3*
Y3244000D3*
X1044000Y1944000D3*
Y1844000D3*
X1544000Y644000D3*
Y744000D3*
X1244000Y1444000D3*
Y1544000D3*
X3244000Y1944000D3*
Y1844000D3*
X2444000Y1144000D3*
Y1044000D3*
Y1944000D3*
Y1844000D3*
X3244000Y1144000D3*
Y1044000D3*
D20*
X2994000Y3666000D3*
D21*
Y3744000D3*
D20*
X2694000D3*
D21*
Y3666000D3*
D22*
X3344000Y3516000D3*
D23*
Y3916000D3*
D22*
X2344000D3*
D23*
Y3516000D3*
D24*
X3194000D3*
Y3916000D3*
X2494000Y3516000D3*
Y3916000D3*
D19*
X2594000Y4194000D3*
X2694000D3*
X2794000D3*
X2894000D3*
X2994000D3*
X3094000D3*
X3194000D3*
Y4094000D3*
X3094000D3*
X2994000D3*
X2894000D3*
X2794000D3*
X2694000D3*
X2594000D3*
X2494000D3*
D25*
Y4194000D3*
D26*
X1844000Y1132976D3*
Y814079D3*
Y695969D3*
X3844000Y1132976D3*
Y814079D3*
Y695969D3*
X844000Y1132976D3*
Y814079D3*
Y695969D3*
D27*
X3494000Y2844000D3*
D28*
X3394000D3*
X3294000D3*
D27*
X2544000D3*
D28*
X2444000D3*
X2344000D3*
D19*
X844000Y2044000D3*
Y1744000D3*
X944000D3*
Y2044000D3*
X744000D3*
Y1744000D3*
X1344000Y2044000D3*
Y1744000D3*
X1444000Y2044000D3*
Y1744000D3*
X2244000Y1244000D3*
Y944000D3*
X644000Y2044000D3*
Y1744000D3*
X1244000D3*
Y2044000D3*
X1144000D3*
Y1744000D3*
X1444000Y1344000D3*
Y1644000D3*
X744000Y2844000D3*
Y2544000D3*
X1444000D3*
Y2844000D3*
X1344000D3*
Y2544000D3*
Y1344000D3*
Y1644000D3*
X844000Y2544000D3*
Y2844000D3*
X944000Y2544000D3*
Y2844000D3*
X2094000Y3044000D3*
Y3344000D3*
X2644000Y1744000D3*
Y2044000D3*
X2744000Y944000D3*
Y1244000D3*
X2344000Y944000D3*
Y1244000D3*
X1244000Y2544000D3*
Y2844000D3*
X2644000Y1244000D3*
Y944000D3*
X2544000Y1244000D3*
Y944000D3*
X3194000Y3344000D3*
Y3044000D3*
X3094000D3*
Y3344000D3*
X2144000Y2044000D3*
Y1744000D3*
X2744000D3*
Y2044000D3*
X2844000D3*
Y1744000D3*
X2244000D3*
Y2044000D3*
X2344000Y1744000D3*
Y2044000D3*
X1244000Y844000D3*
Y544000D3*
X1144000Y844000D3*
Y544000D3*
X3444000Y1244000D3*
Y944000D3*
X3494000Y3344000D3*
Y3044000D3*
X1444000Y844000D3*
Y544000D3*
X1344000Y844000D3*
Y544000D3*
X3544000Y2044000D3*
Y1744000D3*
X2594000Y3344000D3*
Y3044000D3*
X3044000Y944000D3*
Y1244000D3*
X1294000Y3794000D3*
Y4094000D3*
X2944000Y1244000D3*
Y944000D3*
X3444000Y1744000D3*
Y2044000D3*
X3344000D3*
Y1744000D3*
X3144000D3*
Y2044000D3*
D29*
X1119591Y4042425D3*
Y3944000D3*
D30*
Y3845575D3*
D31*
X844000Y3760929D3*
Y4127071D3*
D29*
X2119591Y2542425D3*
Y2444000D3*
D30*
Y2345575D3*
D31*
X1844000Y2260929D3*
Y2627071D3*
D29*
X2119591Y4042425D3*
Y3944000D3*
D30*
Y3845575D3*
D31*
X1844000Y3760929D3*
Y4127071D3*
D29*
X3119591Y2542425D3*
Y2444000D3*
D30*
Y2345575D3*
D31*
X2844000Y2260929D3*
Y2627071D3*
D29*
X4119591Y2542425D3*
Y2444000D3*
D30*
Y2345575D3*
D31*
X3844000Y2260929D3*
Y2627071D3*
D29*
X4119591Y4042425D3*
Y3944000D3*
D30*
Y3845575D3*
D31*
X3844000Y3760929D3*
Y4127071D3*
D32*
X844000Y3008961D3*
D33*
Y3194000D3*
Y3379039D3*
D32*
X1844000Y3008961D3*
D33*
Y3194000D3*
Y3379039D3*
D32*
X2844000Y3008961D3*
D33*
Y3194000D3*
Y3379039D3*
D32*
X3844000Y3008961D3*
D33*
Y3194000D3*
Y3379039D3*
D32*
X1844000Y1508961D3*
D33*
Y1694000D3*
Y1879039D3*
D32*
X3844000Y1508961D3*
D33*
Y1694000D3*
Y1879039D3*
D27*
X744000Y2144000D3*
D28*
X844000D3*
X944000D3*
X1044000D3*
X1144000D3*
X1244000D3*
X1344000D3*
Y2444000D3*
X1244000D3*
X1144000D3*
X1044000D3*
X944000D3*
X844000D3*
X744000D3*
D27*
X2144000Y1344000D3*
D28*
X2244000D3*
X2344000D3*
X2444000D3*
X2544000D3*
X2644000D3*
X2744000D3*
Y1644000D3*
X2644000D3*
X2544000D3*
X2444000D3*
X2344000D3*
X2244000D3*
X2144000D3*
D27*
X2944000Y1344000D3*
D28*
X3044000D3*
X3144000D3*
X3244000D3*
X3344000D3*
X3444000D3*
X3544000D3*
Y1644000D3*
X3444000D3*
X3344000D3*
X3244000D3*
X3144000D3*
X3044000D3*
X2944000D3*
D27*
X1244000Y944000D3*
D28*
X1344000D3*
X1444000D3*
X1544000D3*
Y1244000D3*
X1444000D3*
X1344000D3*
X1244000D3*
M02*
