G04 DipTrace 3.2.0.1*
G04 Top.gbr*
%MOIN*%
G04 #@! TF.FileFunction,Copper,L1,Top*
G04 #@! TF.Part,Single*
G04 #@! TA.AperFunction,Conductor*
%ADD14C,0.01*%
%ADD15C,0.03*%
G04 #@! TA.AperFunction,CopperBalancing*
%ADD16C,0.025*%
%ADD17C,0.012992*%
G04 #@! TA.AperFunction,ComponentPad*
%ADD19C,0.07*%
%ADD20R,0.062992X0.062992*%
%ADD21C,0.062992*%
%ADD22R,0.09X0.09*%
%ADD23C,0.09*%
%ADD24C,0.09*%
%ADD25R,0.07X0.07*%
%ADD26O,0.098425X0.062992*%
%ADD27R,0.059055X0.059055*%
%ADD28C,0.059055*%
%ADD29C,0.07874*%
%ADD30R,0.07874X0.07874*%
%ADD31O,0.141732X0.11811*%
%ADD32R,0.122047X0.122047*%
%ADD33C,0.122047*%
G04 #@! TA.AperFunction,ViaPad*
%ADD34C,0.04*%
%FSLAX26Y26*%
G04*
G70*
G90*
G75*
G01*
G04 Top*
%LPD*%
X1344000Y2044000D2*
D14*
X1192000Y1892000D1*
X862000D1*
X844000Y1874000D1*
X596000D1*
X578000Y1892000D1*
Y3113039D1*
X844000Y3379039D1*
Y1874000D2*
Y1744000D1*
X644000Y2644000D2*
X974000D1*
X992000Y2662000D1*
Y3361039D1*
X1010000Y3379039D1*
X1844000D1*
X2744000Y1344000D2*
Y1244000D1*
Y1162000D1*
X2762000Y1144000D1*
X2844000D1*
X2494000Y3244000D2*
X2542000Y3292000D1*
X3042000D1*
X3094000Y3344000D1*
X2494000Y4094000D2*
D15*
Y4066000D1*
X2344000Y3916000D1*
X2494000Y4094000D2*
Y4194000D1*
X1844000Y3008961D2*
D14*
X1508961D1*
X1344000Y2844000D1*
X944000Y2044000D2*
Y2144000D1*
X2644000Y1344000D2*
Y1244000D1*
Y1062000D1*
X2662000Y1044000D1*
X2844000D1*
X1444000Y2044000D2*
X1392000Y1992000D1*
Y1792000D1*
X1344000Y1744000D1*
X2468524Y1487000D2*
X3292000D1*
X1344000Y1744000D2*
X1392000Y1696000D1*
Y1526961D1*
X1410000Y1508961D1*
X1844000D1*
X3292000Y840291D2*
X3362713Y769579D1*
X3931803D1*
X3949803Y787579D1*
Y1403157D1*
X3844000Y1508961D1*
X744000Y2044000D2*
X844000Y2144000D1*
X2144000Y1144000D2*
X2226000D1*
X2244000Y1162000D1*
Y1244000D1*
X1401476Y1077000D2*
Y1200000D1*
X2494000Y3516000D2*
D15*
X2544000D1*
X2694000Y3666000D1*
X2494000Y3516000D2*
Y3494000D1*
X2244000Y3244000D1*
Y2644000D1*
Y2394000D1*
X2544000Y2094000D1*
Y1944000D1*
X2444000Y1844000D1*
Y1644000D1*
X3244000Y1844000D2*
Y1644000D1*
Y1844000D2*
X2444000D1*
Y1644000D2*
X2344000Y1544000D1*
X2144000D1*
X1544000Y944000D1*
Y744000D1*
X1044000Y2444000D2*
Y2644000D1*
Y2444000D2*
Y2394000D1*
X1094000Y2344000D1*
X1744000D1*
X2044000Y2644000D1*
X2244000D1*
X1572945Y2398476D2*
D14*
Y2544000D1*
X3444000Y1244000D2*
Y1010000D1*
X3426000Y992000D1*
X3010000D1*
X2992000Y974000D1*
Y496000D1*
X2974000Y478000D1*
X1310000D1*
X1244000Y544000D1*
X2094000Y3044000D2*
X1944000Y3194000D1*
X1844000D1*
X3119591Y2542425D2*
X3059000Y2481835D1*
Y1976224D1*
X3092000Y1943224D1*
X3119591Y2345575D2*
X3192000Y2273165D1*
Y1894000D1*
X3119591Y2345575D2*
Y2444000D1*
X3194000Y3516000D2*
D15*
X3144000D1*
X2994000Y3666000D1*
X3194000Y3516000D2*
Y3494000D1*
X3244000Y3444000D1*
X3544000D1*
X3694000Y3294000D1*
Y1544000D1*
X3594000Y1444000D1*
X3344000D1*
X3244000Y1344000D1*
Y1144000D1*
X2444000Y1344000D2*
X2537097Y1437097D1*
X2544000Y1444000D1*
X3332377D1*
X3244000Y1344000D1*
X2444000Y1144000D2*
Y1344000D1*
X3444000Y944000D2*
D14*
X3044000D1*
X3544000Y2044000D2*
X3492000Y1992000D1*
Y1692000D1*
X3444000Y1644000D1*
Y1544000D1*
X3426000Y1526000D1*
X2410000D1*
X2392000Y1508000D1*
Y562000D1*
X2374000Y544000D1*
X1444000D1*
X3344000Y1644000D2*
X3292000Y1696000D1*
Y2699126D1*
X3274000Y2717126D1*
X2470874D1*
X2344000Y2844000D1*
X3544000Y1744000D2*
Y1644000D1*
X4119591Y4042425D2*
X4061004Y3983839D1*
Y3411004D1*
X3844000Y3194000D1*
X1952000Y2236232D2*
Y1452000D1*
X1444000Y944000D1*
X2344000Y3516000D2*
D15*
Y3766000D1*
X2494000Y3916000D1*
X3344000Y3516000D2*
Y3766000D1*
X3194000Y3916000D1*
X3344000Y1487000D2*
D14*
X3574000D1*
X3592000Y1505000D1*
Y2546000D1*
X3294000Y2844000D1*
X3344000Y3916000D2*
D15*
Y3944000D1*
X3294000Y3994000D1*
X2994000D1*
X2894000Y4094000D1*
Y4194000D1*
X3394000Y3144000D2*
D14*
Y2844000D1*
X2944000Y3594000D2*
X3142000Y3396000D1*
Y3110000D1*
X3124000Y3092000D1*
X2308000D1*
X2290000Y3074000D1*
Y2717126D1*
X2308000Y2699126D1*
X2968528D1*
X2986528Y2681126D1*
Y1973000D1*
X3044000Y1244000D2*
Y1186602D1*
X2944000Y1086602D1*
Y944000D1*
X1294000Y4094000D2*
Y3962000D1*
X1276000Y3944000D1*
X1119591D1*
X2944000Y1644000D2*
X3044000Y1744000D1*
X3144000D1*
X2886472Y1386528D2*
X3074000D1*
X3092000Y1368528D1*
Y1110004D1*
X3110000Y1092004D1*
X3295315D1*
X3313318Y1110007D1*
Y1274000D1*
X3331318Y1292000D1*
X3826000D1*
X3844000Y1274000D1*
Y1132976D1*
X1344000Y1644000D2*
X862000D1*
X844000Y1626000D1*
Y1132976D1*
X3392000Y1694000D2*
Y1601472D1*
X3374000Y1583472D1*
X2704528D1*
X2644000Y1644000D1*
Y1744000D1*
X2605000Y2110000D2*
X2674000D1*
X2692000Y2092000D1*
Y1905000D1*
X2710000Y1887000D1*
X3134000D1*
D34*
X2537097Y1437097D3*
X2444000Y944000D3*
X3144000Y1044000D3*
X2444000Y694000D3*
X3192000Y1894000D3*
Y2542425D3*
X3092000Y1943224D3*
X3292000Y1487000D3*
X2468524D3*
X1401476Y1200000D3*
Y1077000D3*
X2605000Y2110000D3*
X1952000Y2236232D3*
X3344000Y1487000D3*
X2986528Y1973000D3*
X2944000Y3594000D3*
X2886472Y1386528D3*
X3392000Y1694000D3*
X1572945Y2398476D3*
Y2544000D3*
X3292000Y840291D3*
X4044000Y1894000D3*
X3134000Y1887000D3*
X650774Y4267655D2*
D16*
X4077199D1*
X661970Y4242786D2*
X2432986D1*
X2628782D2*
X2659200D1*
X2728791D2*
X2759209D1*
X2828800D2*
X2859218D1*
X2928774D2*
X2959227D1*
X3028783D2*
X3059201D1*
X3128792D2*
X3159210D1*
X3228766D2*
X4066003D1*
X667819Y4217917D2*
X2432986D1*
X3249901D2*
X4060190D1*
X669003Y4193049D2*
X780052D1*
X907920D2*
X1780073D1*
X1907940D2*
X2432986D1*
X3254997D2*
X3780078D1*
X3907946D2*
X4059006D1*
X665630Y4168180D2*
X758091D1*
X929917D2*
X1758112D1*
X1929902D2*
X2432986D1*
X3249004D2*
X3758081D1*
X3929907D2*
X4062379D1*
X657376Y4143311D2*
X748761D1*
X939247D2*
X1260039D1*
X1327980D2*
X1748746D1*
X1939267D2*
X2432986D1*
X3227976D2*
X3748751D1*
X3939237D2*
X4070632D1*
X643095Y4118442D2*
X747577D1*
X940431D2*
X1238365D1*
X1349654D2*
X1747598D1*
X1940416D2*
X2438368D1*
X3249650D2*
X3747603D1*
X3940421D2*
X4084914D1*
X619985Y4093573D2*
X754252D1*
X933757D2*
X1080547D1*
X1158643D2*
X1233019D1*
X1355001D2*
X1754236D1*
X1933777D2*
X2080531D1*
X2158663D2*
X2432986D1*
X3254997D2*
X3754241D1*
X3933782D2*
X4080536D1*
X435002Y4068705D2*
X482178D1*
X575848D2*
X771297D1*
X916712D2*
X1059985D1*
X1179204D2*
X1238760D1*
X1349259D2*
X1771317D1*
X1916696D2*
X2059970D1*
X2179189D2*
X2438763D1*
X3249255D2*
X3771322D1*
X3916701D2*
X4059975D1*
X4245831D2*
X4290028D1*
X435002Y4043836D2*
X1054243D1*
X1184946D2*
X1261403D1*
X1326581D2*
X2054228D1*
X2184930D2*
X2414900D1*
X2527983D2*
X2561415D1*
X2626593D2*
X2661389D1*
X2726602D2*
X2761398D1*
X2826611D2*
X2861407D1*
X3026594D2*
X3061390D1*
X3126603D2*
X3161399D1*
X3226612D2*
X4054233D1*
X4184936D2*
X4290028D1*
X435002Y4018967D2*
X1058765D1*
X1180424D2*
X1263018D1*
X1325002D2*
X2058750D1*
X2180409D2*
X2390032D1*
X2503905D2*
X2912075D1*
X3325976D2*
X4053336D1*
X4180414D2*
X4290028D1*
X435002Y3994098D2*
X1076886D1*
X1162303D2*
X1263018D1*
X1325002D2*
X2076871D1*
X2162288D2*
X2365165D1*
X2479037D2*
X2936943D1*
X3350844D2*
X4031913D1*
X4162293D2*
X4290028D1*
X435002Y3969230D2*
X1059518D1*
X1325002D2*
X2059503D1*
X2179691D2*
X2273014D1*
X2539610D2*
X2961811D1*
X3389598D2*
X4030011D1*
X4179661D2*
X4290028D1*
X435002Y3944361D2*
X1054208D1*
X1318901D2*
X2054228D1*
X2184966D2*
X2273014D1*
X2558844D2*
X3129139D1*
X3258836D2*
X3279135D1*
X3408868D2*
X4030011D1*
X4184971D2*
X4290028D1*
X435002Y3919492D2*
X1059196D1*
X1293065D2*
X2059180D1*
X2179978D2*
X2273014D1*
X2564908D2*
X3123074D1*
X3414897D2*
X4030011D1*
X4179984D2*
X4290028D1*
X435002Y3894623D2*
X1054208D1*
X1184946D2*
X2054228D1*
X2184966D2*
X2273014D1*
X2561571D2*
X3126412D1*
X3411595D2*
X4030011D1*
X4184971D2*
X4290028D1*
X435002Y3869755D2*
X1054208D1*
X1184946D2*
X2054228D1*
X2184966D2*
X2273014D1*
X2547038D2*
X3140981D1*
X3397026D2*
X4030011D1*
X4184971D2*
X4290028D1*
X435002Y3844886D2*
X1054208D1*
X1184946D2*
X1262623D1*
X1325361D2*
X2054228D1*
X2184966D2*
X2365954D1*
X2479827D2*
X3208156D1*
X3322064D2*
X4030011D1*
X4184971D2*
X4290028D1*
X435002Y3820017D2*
X772050D1*
X915958D2*
X1054208D1*
X1184946D2*
X1239119D1*
X1348901D2*
X1772035D1*
X1915978D2*
X2054228D1*
X2184966D2*
X2341086D1*
X2454959D2*
X3233024D1*
X3346932D2*
X3772040D1*
X3915948D2*
X4030011D1*
X4184971D2*
X4290028D1*
X435002Y3795148D2*
X754575D1*
X933434D2*
X1054208D1*
X1184946D2*
X1233019D1*
X1355001D2*
X1754559D1*
X1933454D2*
X2054228D1*
X2184966D2*
X2316219D1*
X2430091D2*
X2636521D1*
X2751506D2*
X2971284D1*
X3016726D2*
X3257891D1*
X3371800D2*
X3754564D1*
X3933423D2*
X4030011D1*
X4184971D2*
X4290028D1*
X435002Y3770280D2*
X747649D1*
X940323D2*
X1238042D1*
X1349977D2*
X1747670D1*
X1940344D2*
X2303228D1*
X2405223D2*
X2636521D1*
X2751506D2*
X2943187D1*
X3044823D2*
X3282759D1*
X3384754D2*
X3747675D1*
X3940349D2*
X4030011D1*
X4091996D2*
X4290028D1*
X435002Y3745411D2*
X748618D1*
X939390D2*
X1258927D1*
X1329093D2*
X1748603D1*
X1939411D2*
X2303013D1*
X2384985D2*
X2636521D1*
X2751506D2*
X2936513D1*
X3051462D2*
X3302998D1*
X3385005D2*
X3748608D1*
X3939380D2*
X4030011D1*
X4091996D2*
X4290028D1*
X435002Y3720542D2*
X757697D1*
X930312D2*
X1757681D1*
X1930296D2*
X2303013D1*
X2384985D2*
X2636521D1*
X2751506D2*
X2936513D1*
X3051498D2*
X3302998D1*
X3385005D2*
X3757686D1*
X3930301D2*
X4030011D1*
X4091996D2*
X4290028D1*
X435002Y3695673D2*
X779119D1*
X908889D2*
X1779140D1*
X1908873D2*
X2303013D1*
X2384985D2*
X2636521D1*
X2751506D2*
X2936513D1*
X3051498D2*
X3302998D1*
X3385005D2*
X3779109D1*
X3908879D2*
X4030011D1*
X4091996D2*
X4290028D1*
X435002Y3670804D2*
X2303013D1*
X2384985D2*
X2636700D1*
X2751291D2*
X2936513D1*
X3051498D2*
X3302998D1*
X3385005D2*
X4030011D1*
X4091996D2*
X4290028D1*
X435002Y3645936D2*
X2303013D1*
X2384985D2*
X2617000D1*
X2747702D2*
X2936513D1*
X3071019D2*
X3302998D1*
X3385005D2*
X4030011D1*
X4091996D2*
X4290028D1*
X435002Y3621067D2*
X2303013D1*
X2384985D2*
X2592132D1*
X2728217D2*
X2907446D1*
X3095886D2*
X3302998D1*
X3385005D2*
X4030011D1*
X4091996D2*
X4290028D1*
X435002Y3596198D2*
X2303013D1*
X2384985D2*
X2567264D1*
X2681137D2*
X2898045D1*
X2989956D2*
X3006846D1*
X3120754D2*
X3302998D1*
X3385005D2*
X4030011D1*
X4091996D2*
X4290028D1*
X435002Y3571329D2*
X2301111D1*
X2386887D2*
X2451107D1*
X2656269D2*
X2904360D1*
X3009477D2*
X3031713D1*
X3236875D2*
X3272999D1*
X3415004D2*
X4030011D1*
X4091996D2*
X4290028D1*
X435002Y3546461D2*
X2280155D1*
X2407843D2*
X2430151D1*
X2631401D2*
X2948749D1*
X3034345D2*
X3056581D1*
X3257868D2*
X3272999D1*
X3415004D2*
X4030011D1*
X4091996D2*
X4290028D1*
X435002Y3521592D2*
X2273229D1*
X2606534D2*
X2973617D1*
X3059213D2*
X3081449D1*
X3415004D2*
X4030011D1*
X4091996D2*
X4290028D1*
X435002Y3496723D2*
X2275777D1*
X2412221D2*
X2425773D1*
X2581666D2*
X2998485D1*
X3084080D2*
X3106317D1*
X3415004D2*
X4030011D1*
X4091996D2*
X4290028D1*
X435002Y3471854D2*
X2289126D1*
X2398872D2*
X2414900D1*
X2548868D2*
X3023352D1*
X3108948D2*
X3139115D1*
X3573074D2*
X4030011D1*
X4091996D2*
X4290028D1*
X435002Y3446986D2*
X791212D1*
X896760D2*
X1791233D1*
X1896780D2*
X2390032D1*
X2503941D2*
X2791218D1*
X2896765D2*
X3048220D1*
X3133816D2*
X3184078D1*
X3597978D2*
X3791238D1*
X3896786D2*
X4030011D1*
X4091996D2*
X4290028D1*
X435002Y3422117D2*
X768785D1*
X919223D2*
X1768769D1*
X1919208D2*
X2365165D1*
X2479073D2*
X2768790D1*
X2919229D2*
X3073088D1*
X3158684D2*
X3208945D1*
X3622846D2*
X3768775D1*
X3919213D2*
X4029294D1*
X4091996D2*
X4290028D1*
X435002Y3397248D2*
X758953D1*
X929056D2*
X985418D1*
X1929040D2*
X2067290D1*
X2120734D2*
X2340297D1*
X2454205D2*
X2567264D1*
X2620744D2*
X2758958D1*
X2929025D2*
X3067275D1*
X3220727D2*
X3467276D1*
X3520719D2*
X3533805D1*
X3647713D2*
X3758978D1*
X3929045D2*
X4004426D1*
X4088479D2*
X4290028D1*
X435002Y3372379D2*
X757230D1*
X930778D2*
X963349D1*
X1930763D2*
X2040341D1*
X2147647D2*
X2315429D1*
X2429338D2*
X2540351D1*
X2647657D2*
X2757235D1*
X2930747D2*
X3040361D1*
X3247641D2*
X3440362D1*
X3672581D2*
X3757256D1*
X3930768D2*
X3979558D1*
X4065190D2*
X4290028D1*
X435002Y3347510D2*
X763079D1*
X924929D2*
X961016D1*
X1023000D2*
X1763064D1*
X1924914D2*
X2033092D1*
X2154895D2*
X2290561D1*
X2404470D2*
X2533103D1*
X2654906D2*
X2763084D1*
X2924934D2*
X3033113D1*
X3254889D2*
X3433114D1*
X3554881D2*
X3583540D1*
X3697449D2*
X3763069D1*
X3924919D2*
X3954691D1*
X4040322D2*
X4290028D1*
X435002Y3322642D2*
X744814D1*
X909463D2*
X961016D1*
X1023000D2*
X1778530D1*
X1909448D2*
X2037040D1*
X2150948D2*
X2265694D1*
X2379602D2*
X2537050D1*
X2650958D2*
X2778550D1*
X2909468D2*
X3029847D1*
X3250978D2*
X3437025D1*
X3550970D2*
X3608408D1*
X3722317D2*
X3778535D1*
X3909453D2*
X3929823D1*
X4015455D2*
X4290028D1*
X435002Y3297773D2*
X719946D1*
X805542D2*
X818269D1*
X869739D2*
X961016D1*
X1023000D2*
X1818254D1*
X1869724D2*
X2055663D1*
X2132360D2*
X2240826D1*
X2354734D2*
X2368466D1*
X2419541D2*
X2468475D1*
X3232354D2*
X3268477D1*
X3319553D2*
X3368451D1*
X3419526D2*
X3455649D1*
X3532346D2*
X3633276D1*
X3734804D2*
X3818259D1*
X3869729D2*
X3904955D1*
X3990587D2*
X4290028D1*
X435002Y3272904D2*
X695043D1*
X780675D2*
X811200D1*
X876808D2*
X961016D1*
X1023000D2*
X1811185D1*
X1876793D2*
X2215958D1*
X3173001D2*
X3240631D1*
X3447372D2*
X3653012D1*
X3734984D2*
X3811190D1*
X3965719D2*
X4290028D1*
X435002Y3248035D2*
X670175D1*
X755807D2*
X776500D1*
X911508D2*
X961016D1*
X1023000D2*
X1776520D1*
X1911493D2*
X2203219D1*
X2304999D2*
X2333156D1*
X3173001D2*
X3233131D1*
X3454872D2*
X3653012D1*
X3734984D2*
X3776490D1*
X3940851D2*
X4290028D1*
X435002Y3223167D2*
X645307D1*
X730939D2*
X762182D1*
X925826D2*
X961016D1*
X1023000D2*
X1762167D1*
X1925847D2*
X2203004D1*
X2285011D2*
X2336852D1*
X3173001D2*
X3236827D1*
X3451176D2*
X3653012D1*
X3734984D2*
X3762172D1*
X3925816D2*
X4290028D1*
X435002Y3198298D2*
X620440D1*
X706071D2*
X757087D1*
X930922D2*
X961016D1*
X1023000D2*
X1757071D1*
X1982508D2*
X2203004D1*
X2285011D2*
X2354973D1*
X3173001D2*
X3254985D1*
X3433018D2*
X3653012D1*
X3734984D2*
X3757076D1*
X3930911D2*
X4290028D1*
X435002Y3173429D2*
X595572D1*
X681204D2*
X759527D1*
X928482D2*
X961016D1*
X1023000D2*
X1759511D1*
X2007375D2*
X2203004D1*
X2285011D2*
X2340943D1*
X3173001D2*
X3240954D1*
X3447049D2*
X3653012D1*
X3734984D2*
X3759516D1*
X3928471D2*
X4290028D1*
X435002Y3148560D2*
X570704D1*
X656336D2*
X770220D1*
X917788D2*
X961016D1*
X1023000D2*
X1770241D1*
X1917773D2*
X1946647D1*
X2032243D2*
X2203004D1*
X2285011D2*
X2333192D1*
X3173001D2*
X3233167D1*
X3454836D2*
X3653012D1*
X3734984D2*
X3770246D1*
X3917778D2*
X4290028D1*
X435002Y3123692D2*
X549066D1*
X631468D2*
X794586D1*
X893423D2*
X961016D1*
X1023000D2*
X1794570D1*
X1893407D2*
X1971515D1*
X2057111D2*
X2203004D1*
X2285011D2*
X2336637D1*
X3173001D2*
X3236648D1*
X3451355D2*
X3653012D1*
X3734984D2*
X3794575D1*
X3893412D2*
X4290028D1*
X435002Y3098823D2*
X546985D1*
X609005D2*
X961016D1*
X1023000D2*
X1996383D1*
X2116930D2*
X2203004D1*
X3216924D2*
X3254339D1*
X3333655D2*
X3354348D1*
X3433664D2*
X3471079D1*
X3516916D2*
X3653012D1*
X3734984D2*
X4290028D1*
X435002Y3073954D2*
X546985D1*
X609005D2*
X756979D1*
X931029D2*
X961016D1*
X1023000D2*
X1756964D1*
X1931014D2*
X2021251D1*
X2146750D2*
X2203004D1*
X3246743D2*
X3362996D1*
X3425016D2*
X3441260D1*
X3546735D2*
X3653012D1*
X3734984D2*
X3756969D1*
X3931019D2*
X4290028D1*
X435002Y3049085D2*
X546985D1*
X609005D2*
X756979D1*
X931029D2*
X961016D1*
X1023000D2*
X1756964D1*
X1931014D2*
X2033236D1*
X2154788D2*
X2203004D1*
X2321003D2*
X2533210D1*
X2654762D2*
X2756984D1*
X2931034D2*
X3033220D1*
X3254782D2*
X3362996D1*
X3554773D2*
X3653012D1*
X3734984D2*
X3756969D1*
X3931019D2*
X4290028D1*
X435002Y3024217D2*
X546985D1*
X609005D2*
X756979D1*
X931029D2*
X961016D1*
X1023000D2*
X1481409D1*
X1931014D2*
X2036430D1*
X2151558D2*
X2203004D1*
X2321003D2*
X2536440D1*
X2651568D2*
X2756984D1*
X2931034D2*
X3036450D1*
X3251552D2*
X3362996D1*
X3551544D2*
X3653012D1*
X3734984D2*
X3756969D1*
X3931019D2*
X4290028D1*
X435002Y2999348D2*
X546985D1*
X609005D2*
X756979D1*
X931029D2*
X961016D1*
X1023000D2*
X1456541D1*
X1931014D2*
X2053690D1*
X2134298D2*
X2203004D1*
X2321003D2*
X2553700D1*
X2634308D2*
X2756984D1*
X2931034D2*
X3053710D1*
X3134282D2*
X3153720D1*
X3234292D2*
X3362996D1*
X3425016D2*
X3453711D1*
X3534283D2*
X3653012D1*
X3734984D2*
X3756969D1*
X3931019D2*
X4290028D1*
X435002Y2974479D2*
X546985D1*
X609005D2*
X756979D1*
X931029D2*
X961016D1*
X1023000D2*
X1431673D1*
X1517269D2*
X1756964D1*
X1931014D2*
X2203004D1*
X2321003D2*
X2756984D1*
X2931034D2*
X3362996D1*
X3425016D2*
X3653012D1*
X3734984D2*
X3756969D1*
X3931019D2*
X4290028D1*
X435002Y2949610D2*
X546985D1*
X609005D2*
X756979D1*
X931029D2*
X961016D1*
X1023000D2*
X1406806D1*
X1492402D2*
X1756964D1*
X1931014D2*
X2203004D1*
X2321003D2*
X2756984D1*
X2931034D2*
X3362996D1*
X3425016D2*
X3653012D1*
X3734984D2*
X3756969D1*
X3931019D2*
X4290028D1*
X435002Y2924741D2*
X546985D1*
X609005D2*
X756979D1*
X931029D2*
X961016D1*
X1023000D2*
X1381938D1*
X1467534D2*
X1756964D1*
X1931014D2*
X2203004D1*
X2321003D2*
X2756984D1*
X2931034D2*
X3362996D1*
X3425016D2*
X3653012D1*
X3734984D2*
X3756969D1*
X3931019D2*
X4290028D1*
X435002Y2899873D2*
X546985D1*
X609005D2*
X724181D1*
X763845D2*
X824154D1*
X863818D2*
X924163D1*
X1023000D2*
X1224155D1*
X1263819D2*
X1324164D1*
X1463838D2*
X2203004D1*
X2321003D2*
X3362996D1*
X3425016D2*
X3653012D1*
X3734984D2*
X4290028D1*
X435002Y2875004D2*
X546985D1*
X609005D2*
X691885D1*
X1023000D2*
X1191895D1*
X1496098D2*
X2203004D1*
X2599536D2*
X3248490D1*
X3549534D2*
X3653012D1*
X3734984D2*
X4290028D1*
X435002Y2850135D2*
X546985D1*
X609005D2*
X683309D1*
X1023000D2*
X1183319D1*
X1504674D2*
X2203004D1*
X2599536D2*
X3238837D1*
X3549534D2*
X3653012D1*
X3734984D2*
X4290028D1*
X435002Y2825266D2*
X546985D1*
X609005D2*
X686072D1*
X1023000D2*
X1186082D1*
X1501911D2*
X2203004D1*
X2599536D2*
X3241887D1*
X3549534D2*
X3653012D1*
X3734984D2*
X4290028D1*
X435002Y2800398D2*
X546985D1*
X609005D2*
X625966D1*
X662041D2*
X702507D1*
X785519D2*
X802516D1*
X885492D2*
X902489D1*
X1062042D2*
X1202481D1*
X1285493D2*
X1302490D1*
X1385503D2*
X1402500D1*
X1485512D2*
X2203004D1*
X2599536D2*
X3261336D1*
X3549534D2*
X3653012D1*
X3734984D2*
X4290028D1*
X435002Y2775529D2*
X546985D1*
X695773D2*
X961016D1*
X1095774D2*
X2203004D1*
X2455282D2*
X3319684D1*
X3405280D2*
X3653012D1*
X3734984D2*
X4290028D1*
X435002Y2750660D2*
X546985D1*
X704636D2*
X961016D1*
X1104637D2*
X2203004D1*
X2480150D2*
X3344552D1*
X3430148D2*
X3653012D1*
X3734984D2*
X4290028D1*
X435002Y2725791D2*
X546985D1*
X702088D2*
X961016D1*
X1102089D2*
X2203004D1*
X3308141D2*
X3369419D1*
X3455015D2*
X3653012D1*
X3734984D2*
X4290028D1*
X435002Y2700923D2*
X546985D1*
X686084D2*
X961016D1*
X1086085D2*
X1792776D1*
X1895202D2*
X2203004D1*
X3322926D2*
X3394287D1*
X3479883D2*
X3653012D1*
X3734984D2*
X3792781D1*
X3895207D2*
X4290028D1*
X435002Y2676054D2*
X546985D1*
X695450D2*
X961016D1*
X1095451D2*
X1763243D1*
X1924770D2*
X2020174D1*
X3017515D2*
X3261013D1*
X3322997D2*
X3419155D1*
X3504751D2*
X3653012D1*
X3734984D2*
X3763248D1*
X3924775D2*
X4290028D1*
X435002Y2651185D2*
X546985D1*
X1104565D2*
X1750720D1*
X1937258D2*
X1994230D1*
X2285011D2*
X2750740D1*
X2937278D2*
X2955531D1*
X3017515D2*
X3261013D1*
X3322997D2*
X3444023D1*
X3529619D2*
X3653012D1*
X3734984D2*
X3750725D1*
X3937263D2*
X4290028D1*
X435002Y2626316D2*
X546985D1*
X1102269D2*
X1747131D1*
X1940846D2*
X1969362D1*
X2285011D2*
X2747152D1*
X2940867D2*
X2955531D1*
X3017515D2*
X3261013D1*
X3322997D2*
X3468890D1*
X3554486D2*
X3653012D1*
X3940851D2*
X4290028D1*
X435002Y2601448D2*
X546985D1*
X686658D2*
X730460D1*
X757529D2*
X830470D1*
X857538D2*
X930443D1*
X957548D2*
X1001350D1*
X1086659D2*
X1230471D1*
X1257540D2*
X1330444D1*
X1357549D2*
X1430453D1*
X1457558D2*
X1751222D1*
X2058403D2*
X2095423D1*
X2143735D2*
X2203004D1*
X2285011D2*
X2751207D1*
X2936776D2*
X2955531D1*
X3017515D2*
X3095444D1*
X3143756D2*
X3261013D1*
X3322997D2*
X3493758D1*
X3579354D2*
X3653012D1*
X3734984D2*
X3751227D1*
X3936796D2*
X4095428D1*
X4143741D2*
X4290028D1*
X435002Y2576579D2*
X546985D1*
X609005D2*
X692926D1*
X1085008D2*
X1192900D1*
X1495093D2*
X1541623D1*
X1604253D2*
X1764392D1*
X2033535D2*
X2064312D1*
X2174883D2*
X2203004D1*
X2285011D2*
X2764376D1*
X2923642D2*
X2955531D1*
X3017515D2*
X3064296D1*
X3221445D2*
X3261013D1*
X3322997D2*
X3518626D1*
X3604222D2*
X3653012D1*
X3734984D2*
X3764361D1*
X3923627D2*
X4064317D1*
X4174888D2*
X4290028D1*
X435002Y2551710D2*
X546985D1*
X609005D2*
X683524D1*
X1085008D2*
X1183498D1*
X1504494D2*
X1527628D1*
X1618247D2*
X1795970D1*
X2008667D2*
X2054910D1*
X2184285D2*
X2203004D1*
X2285011D2*
X2795990D1*
X2892028D2*
X2955531D1*
X3017515D2*
X3054895D1*
X3236983D2*
X3261013D1*
X3322997D2*
X3543494D1*
X3622415D2*
X3653012D1*
X3734984D2*
X3795975D1*
X3892013D2*
X4054915D1*
X4184254D2*
X4290028D1*
X435002Y2526841D2*
X546985D1*
X609005D2*
X685569D1*
X1085008D2*
X1185580D1*
X1502413D2*
X1530463D1*
X1615413D2*
X1869891D1*
X1983800D2*
X2056166D1*
X2182993D2*
X2203004D1*
X2285011D2*
X2955531D1*
X3017515D2*
X3056186D1*
X3235117D2*
X3261013D1*
X3322997D2*
X3561005D1*
X3622989D2*
X3653012D1*
X3734984D2*
X4056171D1*
X4182998D2*
X4290028D1*
X435002Y2501972D2*
X546985D1*
X609005D2*
X700820D1*
X987188D2*
X1003001D1*
X1085008D2*
X1200795D1*
X1387189D2*
X1400813D1*
X1487198D2*
X1541945D1*
X1603930D2*
X1845023D1*
X1958932D2*
X2068977D1*
X2170218D2*
X2203004D1*
X2285011D2*
X2955531D1*
X3017515D2*
X3036342D1*
X3210500D2*
X3261013D1*
X3322997D2*
X3561005D1*
X3622989D2*
X3653012D1*
X3734984D2*
X4068946D1*
X4170223D2*
X4290028D1*
X435002Y2477104D2*
X546985D1*
X609005D2*
X700067D1*
X1387943D2*
X1541945D1*
X1603930D2*
X1820156D1*
X1934064D2*
X2063630D1*
X2175529D2*
X2203004D1*
X2285011D2*
X2955531D1*
X3175549D2*
X3261013D1*
X3322997D2*
X3561005D1*
X3622989D2*
X3653012D1*
X3734984D2*
X4063635D1*
X4175534D2*
X4290028D1*
X435002Y2452235D2*
X546985D1*
X609005D2*
X689122D1*
X1398887D2*
X1541945D1*
X1603930D2*
X1795288D1*
X1909196D2*
X2054766D1*
X2184428D2*
X2203004D1*
X2285011D2*
X2955531D1*
X3184413D2*
X3261013D1*
X3322997D2*
X3561005D1*
X3622989D2*
X3653012D1*
X3734984D2*
X4054772D1*
X4184433D2*
X4290028D1*
X435002Y2427366D2*
X546985D1*
X609005D2*
X691131D1*
X1396842D2*
X1537926D1*
X1607949D2*
X1770420D1*
X1884329D2*
X2056453D1*
X2182706D2*
X2203004D1*
X2285011D2*
X2955531D1*
X3182726D2*
X3261013D1*
X3322997D2*
X3561005D1*
X3622989D2*
X3653012D1*
X3734984D2*
X4056458D1*
X4182711D2*
X4290028D1*
X435002Y2402497D2*
X546985D1*
X609005D2*
X708499D1*
X779490D2*
X808509D1*
X879500D2*
X908482D1*
X979509D2*
X1003001D1*
X1092436D2*
X1108500D1*
X1179491D2*
X1208510D1*
X1279501D2*
X1308483D1*
X1379510D2*
X1527125D1*
X1618750D2*
X1745552D1*
X1859461D2*
X2054228D1*
X2184966D2*
X2203004D1*
X2292439D2*
X2955531D1*
X3184951D2*
X3261013D1*
X3322997D2*
X3561005D1*
X3622989D2*
X3653012D1*
X3734984D2*
X4054233D1*
X4184971D2*
X4290028D1*
X435002Y2377629D2*
X546985D1*
X609005D2*
X1006661D1*
X1834593D2*
X2054228D1*
X2184966D2*
X2206664D1*
X2317307D2*
X2955531D1*
X3184951D2*
X3261013D1*
X3322997D2*
X3561005D1*
X3622989D2*
X3653012D1*
X3734984D2*
X4054233D1*
X4184971D2*
X4290028D1*
X435002Y2352760D2*
X546985D1*
X609005D2*
X1028299D1*
X1809689D2*
X2054228D1*
X2184966D2*
X2228302D1*
X2342175D2*
X2955531D1*
X3184951D2*
X3261013D1*
X3322997D2*
X3561005D1*
X3622989D2*
X3653012D1*
X3734984D2*
X4054233D1*
X4184971D2*
X4290028D1*
X435002Y2327891D2*
X546985D1*
X609005D2*
X1053167D1*
X1906613D2*
X2054228D1*
X2184966D2*
X2253170D1*
X2367043D2*
X2781421D1*
X2906597D2*
X2955531D1*
X3184951D2*
X3261013D1*
X3322997D2*
X3561005D1*
X3622989D2*
X3653012D1*
X3734984D2*
X3781406D1*
X3906582D2*
X4054233D1*
X4184971D2*
X4290028D1*
X435002Y2303022D2*
X546985D1*
X609005D2*
X1758686D1*
X1929327D2*
X2054228D1*
X2184966D2*
X2278038D1*
X2391910D2*
X2758671D1*
X2929312D2*
X2955531D1*
X3204938D2*
X3261013D1*
X3322997D2*
X3561005D1*
X3622989D2*
X3653012D1*
X3734984D2*
X3758655D1*
X3929332D2*
X4054233D1*
X4184971D2*
X4290028D1*
X435002Y2278154D2*
X546985D1*
X609005D2*
X1748961D1*
X1966109D2*
X2302906D1*
X2416778D2*
X2748946D1*
X2939037D2*
X2955531D1*
X3222558D2*
X3261013D1*
X3322997D2*
X3561005D1*
X3622989D2*
X3653012D1*
X3734984D2*
X3748966D1*
X3939057D2*
X4290028D1*
X435002Y2253285D2*
X546985D1*
X609005D2*
X1747490D1*
X1994529D2*
X2327773D1*
X2441646D2*
X2747475D1*
X2940508D2*
X2955531D1*
X3222988D2*
X3261013D1*
X3322997D2*
X3561005D1*
X3622989D2*
X3653012D1*
X3734984D2*
X3747495D1*
X3940528D2*
X4290028D1*
X435002Y2228416D2*
X546985D1*
X609005D2*
X1753806D1*
X1997292D2*
X2352641D1*
X2466514D2*
X2753790D1*
X2934192D2*
X2955531D1*
X3222988D2*
X3261013D1*
X3322997D2*
X3561005D1*
X3622989D2*
X3653012D1*
X3734984D2*
X3753811D1*
X3934177D2*
X4290028D1*
X435002Y2203547D2*
X546985D1*
X609005D2*
X1770348D1*
X1983190D2*
X2377509D1*
X2491417D2*
X2770333D1*
X2917650D2*
X2955531D1*
X3222988D2*
X3261013D1*
X3322997D2*
X3561005D1*
X3622989D2*
X3653012D1*
X3734984D2*
X3770353D1*
X3917670D2*
X4290028D1*
X435002Y2178678D2*
X546985D1*
X609005D2*
X688476D1*
X886605D2*
X901377D1*
X986614D2*
X1001386D1*
X1086623D2*
X1101395D1*
X1186632D2*
X1201369D1*
X1286606D2*
X1301378D1*
X1386615D2*
X1822596D1*
X1865382D2*
X1920990D1*
X1983010D2*
X2402376D1*
X2516285D2*
X2822616D1*
X2865402D2*
X2955531D1*
X3222988D2*
X3261013D1*
X3322997D2*
X3561005D1*
X3622989D2*
X3653012D1*
X3734984D2*
X3822601D1*
X3865387D2*
X4290028D1*
X435002Y2153810D2*
X546985D1*
X609005D2*
X688476D1*
X1398600D2*
X1920990D1*
X1983010D2*
X2427244D1*
X2541153D2*
X2955531D1*
X3222988D2*
X3261013D1*
X3322997D2*
X3561005D1*
X3622989D2*
X3653012D1*
X3734984D2*
X4290028D1*
X435002Y2128941D2*
X546985D1*
X609005D2*
X688476D1*
X1397344D2*
X1920990D1*
X1983010D2*
X2452112D1*
X2697859D2*
X2955531D1*
X3222988D2*
X3261013D1*
X3322997D2*
X3561005D1*
X3622989D2*
X3653012D1*
X3734984D2*
X4290028D1*
X435002Y2104072D2*
X546985D1*
X609005D2*
X688476D1*
X1381412D2*
X1920990D1*
X1983010D2*
X2476980D1*
X2720322D2*
X2955531D1*
X3222988D2*
X3261013D1*
X3322997D2*
X3561005D1*
X3622989D2*
X3653012D1*
X3734984D2*
X4290028D1*
X435002Y2079203D2*
X546985D1*
X1493227D2*
X1920990D1*
X1983010D2*
X2094777D1*
X2393238D2*
X2501847D1*
X2893212D2*
X2955531D1*
X3222988D2*
X3261013D1*
X3622989D2*
X3653012D1*
X3734984D2*
X4290028D1*
X435002Y2054335D2*
X546985D1*
X1504064D2*
X1920990D1*
X1983010D2*
X2083904D1*
X2404075D2*
X2502996D1*
X2904085D2*
X2955531D1*
X3222988D2*
X3261013D1*
X3622989D2*
X3653012D1*
X3734984D2*
X4290028D1*
X435002Y2029466D2*
X546985D1*
X1503167D2*
X1920990D1*
X1983010D2*
X2084837D1*
X2403178D2*
X2502996D1*
X2903152D2*
X2955531D1*
X3222988D2*
X3261013D1*
X3622989D2*
X3653012D1*
X3734984D2*
X4290028D1*
X435002Y2004597D2*
X546985D1*
X1489746D2*
X1920990D1*
X1983010D2*
X2098258D1*
X2389757D2*
X2502996D1*
X2585003D2*
X2598268D1*
X2889732D2*
X2954132D1*
X3222988D2*
X3261013D1*
X3622989D2*
X3653012D1*
X3734984D2*
X4290028D1*
X435002Y1979728D2*
X546985D1*
X1322526D2*
X1361017D1*
X1423001D2*
X1495188D1*
X1592805D2*
X1920990D1*
X2092816D2*
X2395164D1*
X2585003D2*
X2660994D1*
X2723014D2*
X2941034D1*
X3622989D2*
X3653012D1*
X3734984D2*
X4290028D1*
X435002Y1954860D2*
X546985D1*
X1297658D2*
X1361017D1*
X1423001D2*
X1484028D1*
X1603965D2*
X1804151D1*
X1883862D2*
X1920990D1*
X2103976D2*
X2384004D1*
X2585003D2*
X2660994D1*
X2723014D2*
X2944479D1*
X3622989D2*
X3653012D1*
X3734984D2*
X3804156D1*
X3883867D2*
X4290028D1*
X435002Y1929991D2*
X546985D1*
X1272790D2*
X1361017D1*
X1423001D2*
X1484710D1*
X1603284D2*
X1774044D1*
X2103294D2*
X2384686D1*
X2582348D2*
X2660994D1*
X2723014D2*
X2977528D1*
X2995532D2*
X3048077D1*
X3622989D2*
X3653012D1*
X3734984D2*
X3774050D1*
X3913938D2*
X4290028D1*
X435002Y1905122D2*
X546985D1*
X1247923D2*
X1361017D1*
X1423001D2*
X1497772D1*
X1590222D2*
X1761090D1*
X1983010D2*
X1997782D1*
X2090196D2*
X2397783D1*
X2562073D2*
X2660994D1*
X3622989D2*
X3653012D1*
X3734984D2*
X3761095D1*
X3926892D2*
X4290028D1*
X435002Y1880253D2*
X549532D1*
X1223055D2*
X1361017D1*
X1423001D2*
X1495583D1*
X1592411D2*
X1756999D1*
X1983010D2*
X1995593D1*
X2092421D2*
X2395594D1*
X3622989D2*
X3653012D1*
X3734984D2*
X3756969D1*
X3931019D2*
X4290028D1*
X435002Y1855385D2*
X571816D1*
X875014D2*
X984126D1*
X1103883D2*
X1361017D1*
X1423001D2*
X1484136D1*
X1603894D2*
X1760337D1*
X2103868D2*
X2384111D1*
X3622989D2*
X3653012D1*
X3734984D2*
X3760342D1*
X3927646D2*
X4290028D1*
X435002Y1830516D2*
X812994D1*
X875014D2*
X984592D1*
X1103417D2*
X1361017D1*
X1423001D2*
X1484567D1*
X1603427D2*
X1772286D1*
X2103437D2*
X2384578D1*
X3622989D2*
X3653012D1*
X3734984D2*
X3772291D1*
X3915697D2*
X4290028D1*
X435002Y1805647D2*
X812994D1*
X875014D2*
X997331D1*
X1090678D2*
X1361017D1*
X1423001D2*
X1497341D1*
X1590688D2*
X1799558D1*
X1888419D2*
X1920990D1*
X1983010D2*
X1997316D1*
X2090663D2*
X2397317D1*
X3622989D2*
X3653012D1*
X3734984D2*
X3799563D1*
X3888425D2*
X4290028D1*
X435002Y1780778D2*
X596002D1*
X991997D2*
X1096013D1*
X1492007D2*
X1920990D1*
X1983010D2*
X2095997D1*
X3622989D2*
X3653012D1*
X3734984D2*
X4290028D1*
X435002Y1755909D2*
X584232D1*
X1003767D2*
X1084243D1*
X1503777D2*
X1783948D1*
X1904029D2*
X1920990D1*
X1983010D2*
X2084227D1*
X3622989D2*
X3653012D1*
X3734984D2*
X3783954D1*
X3904034D2*
X4290028D1*
X435002Y1731041D2*
X584448D1*
X1003551D2*
X1084458D1*
X1503561D2*
X1765540D1*
X1983010D2*
X2084443D1*
X3622989D2*
X3653012D1*
X3734984D2*
X3765509D1*
X3922479D2*
X4290028D1*
X435002Y1706172D2*
X596864D1*
X991135D2*
X1096874D1*
X1491110D2*
X1757861D1*
X1983010D2*
X2096859D1*
X3622989D2*
X3653012D1*
X3734984D2*
X3757866D1*
X3930158D2*
X4290028D1*
X435002Y1681303D2*
X1296426D1*
X1491576D2*
X1757932D1*
X1983010D2*
X2103820D1*
X2384195D2*
X2402987D1*
X3622989D2*
X3653012D1*
X3734984D2*
X3757938D1*
X3930050D2*
X4290028D1*
X435002Y1656434D2*
X831618D1*
X1503669D2*
X1765791D1*
X1983010D2*
X2089969D1*
X3622989D2*
X3653012D1*
X3734984D2*
X3765796D1*
X3922227D2*
X4290028D1*
X435002Y1631566D2*
X813532D1*
X1503669D2*
X1784523D1*
X1903491D2*
X1920990D1*
X1983010D2*
X2089969D1*
X3622989D2*
X3653012D1*
X3734984D2*
X3784528D1*
X3903460D2*
X4290028D1*
X435002Y1606697D2*
X812994D1*
X875014D2*
X1296426D1*
X1491576D2*
X1920990D1*
X1983010D2*
X2103820D1*
X2184177D2*
X2203829D1*
X2284186D2*
X2303803D1*
X3622989D2*
X3653012D1*
X3734984D2*
X4290028D1*
X435002Y1581828D2*
X812994D1*
X875014D2*
X1196883D1*
X1291127D2*
X1361017D1*
X1423001D2*
X1756964D1*
X1983010D2*
X2134322D1*
X3622989D2*
X3653012D1*
X3734984D2*
X3756969D1*
X3931019D2*
X4290028D1*
X435002Y1556959D2*
X812994D1*
X875014D2*
X1184467D1*
X1303543D2*
X1361017D1*
X1423001D2*
X1756964D1*
X1983010D2*
X2100016D1*
X3622989D2*
X3649998D1*
X3734984D2*
X3756969D1*
X3931019D2*
X4290028D1*
X435002Y1532091D2*
X812994D1*
X875014D2*
X1184216D1*
X1303758D2*
X1361017D1*
X1983010D2*
X2075149D1*
X3733118D2*
X3756969D1*
X3931019D2*
X4290028D1*
X435002Y1507222D2*
X812994D1*
X875014D2*
X1196022D1*
X1291988D2*
X1368948D1*
X1983010D2*
X2050281D1*
X3714171D2*
X3756969D1*
X3931019D2*
X4290028D1*
X435002Y1482353D2*
X812994D1*
X875014D2*
X1197314D1*
X1290661D2*
X1397296D1*
X1983010D2*
X2025413D1*
X2139286D2*
X2361002D1*
X3689303D2*
X3756969D1*
X3931019D2*
X4290028D1*
X435002Y1457484D2*
X812994D1*
X875014D2*
X1184575D1*
X1303435D2*
X1756964D1*
X1983010D2*
X2000545D1*
X2114418D2*
X2361002D1*
X3664435D2*
X3756969D1*
X3938268D2*
X4290028D1*
X435002Y1432615D2*
X812994D1*
X875014D2*
X1184108D1*
X1303866D2*
X1756964D1*
X2089550D2*
X2361002D1*
X3639568D2*
X3756969D1*
X3963135D2*
X4290028D1*
X435002Y1407747D2*
X812994D1*
X875014D2*
X1195591D1*
X1292419D2*
X1864939D1*
X2064683D2*
X2361002D1*
X3609461D2*
X3902407D1*
X3980432D2*
X4290028D1*
X435002Y1382878D2*
X812994D1*
X875014D2*
X1297789D1*
X1490213D2*
X1840071D1*
X2039815D2*
X2088462D1*
X2282571D2*
X2305453D1*
X2582563D2*
X2605445D1*
X2682572D2*
X2705454D1*
X2782546D2*
X2840630D1*
X3182547D2*
X3205429D1*
X3382565D2*
X3405447D1*
X3482574D2*
X3505456D1*
X3582548D2*
X3918806D1*
X3980790D2*
X4290028D1*
X435002Y1358009D2*
X812994D1*
X875014D2*
X1284692D1*
X1503310D2*
X1815204D1*
X2014947D2*
X2088462D1*
X2797653D2*
X2851108D1*
X3597655D2*
X3918806D1*
X3980790D2*
X4290028D1*
X435002Y1333140D2*
X812994D1*
X875014D2*
X1284010D1*
X1503992D2*
X1790336D1*
X1990079D2*
X2088462D1*
X2798406D2*
X2888464D1*
X3598409D2*
X3918806D1*
X3980790D2*
X4290028D1*
X435002Y1308272D2*
X812994D1*
X875014D2*
X1295170D1*
X1492832D2*
X1765468D1*
X1965212D2*
X2088462D1*
X2485676D2*
X2502314D1*
X2785668D2*
X2888464D1*
X3185669D2*
X3202307D1*
X3852540D2*
X3918806D1*
X3980790D2*
X4290028D1*
X435002Y1283403D2*
X812994D1*
X875014D2*
X1205998D1*
X1281977D2*
X1306007D1*
X1481995D2*
X1506025D1*
X1582004D2*
X1740600D1*
X1940344D2*
X2198267D1*
X2484994D2*
X2498259D1*
X2789723D2*
X2898260D1*
X3123015D2*
X3202989D1*
X3873389D2*
X3918806D1*
X3980790D2*
X4290028D1*
X435002Y1258534D2*
X812994D1*
X875014D2*
X1190496D1*
X1597506D2*
X1715733D1*
X1915476D2*
X2184847D1*
X2803179D2*
X2884839D1*
X3123015D2*
X3202989D1*
X3344313D2*
X3384850D1*
X3503172D2*
X3812984D1*
X3875004D2*
X3918806D1*
X3980790D2*
X4290028D1*
X435002Y1233665D2*
X812994D1*
X875014D2*
X1189491D1*
X1598511D2*
X1690865D1*
X1890608D2*
X2183914D1*
X2804076D2*
X2883906D1*
X3123015D2*
X3202989D1*
X3344313D2*
X3383917D1*
X3504069D2*
X3812984D1*
X3875004D2*
X3918806D1*
X3980790D2*
X4290028D1*
X435002Y1208797D2*
X812994D1*
X875014D2*
X1201835D1*
X1286139D2*
X1301844D1*
X1486158D2*
X1501827D1*
X1586167D2*
X1665997D1*
X1865741D2*
X2194786D1*
X2793239D2*
X2894779D1*
X3123015D2*
X3202989D1*
X3344313D2*
X3394790D1*
X3493232D2*
X3812984D1*
X3875004D2*
X3918806D1*
X3980790D2*
X4290028D1*
X435002Y1183928D2*
X803090D1*
X884918D2*
X1358541D1*
X1444388D2*
X1641129D1*
X1884903D2*
X2098760D1*
X2189272D2*
X2213016D1*
X2275000D2*
X2361002D1*
X2489264D2*
X2613017D1*
X2775010D2*
X2798753D1*
X2889265D2*
X2998520D1*
X3123015D2*
X3198754D1*
X3344313D2*
X3412983D1*
X3475003D2*
X3803080D1*
X3884908D2*
X3918806D1*
X3980790D2*
X4290028D1*
X435002Y1159059D2*
X775352D1*
X912621D2*
X1370491D1*
X1432475D2*
X1616262D1*
X1912641D2*
X2084981D1*
X2274856D2*
X2361002D1*
X2503044D2*
X2613017D1*
X2903045D2*
X2973653D1*
X3123015D2*
X3184975D1*
X3344313D2*
X3412983D1*
X3475003D2*
X3775377D1*
X3980790D2*
X4290028D1*
X435002Y1134190D2*
X768785D1*
X919188D2*
X1370491D1*
X1432475D2*
X1591394D1*
X1919208D2*
X2083833D1*
X2258995D2*
X2361002D1*
X2504156D2*
X2613017D1*
X2904157D2*
X2948785D1*
X3034381D2*
X3060995D1*
X3123015D2*
X3183826D1*
X3344313D2*
X3412983D1*
X3475003D2*
X3768810D1*
X3980790D2*
X4290028D1*
X435002Y1109322D2*
X774132D1*
X913877D2*
X1369881D1*
X1433085D2*
X1566526D1*
X1913861D2*
X2094383D1*
X2193614D2*
X2361002D1*
X2493606D2*
X2613017D1*
X2893607D2*
X2923917D1*
X3009513D2*
X3060995D1*
X3344313D2*
X3412983D1*
X3475003D2*
X3774121D1*
X3980790D2*
X4290028D1*
X435002Y1084453D2*
X797887D1*
X890085D2*
X1356137D1*
X1446829D2*
X1541658D1*
X1741402D2*
X1797907D1*
X1890106D2*
X2099227D1*
X2188770D2*
X2361002D1*
X2488762D2*
X2613017D1*
X2888763D2*
X2913008D1*
X2984645D2*
X3074738D1*
X3330569D2*
X3412983D1*
X3475003D2*
X3797913D1*
X3890111D2*
X3918806D1*
X3980790D2*
X4290028D1*
X435002Y1059584D2*
X1359116D1*
X1443850D2*
X1516791D1*
X1716534D2*
X2085124D1*
X2202873D2*
X2361002D1*
X2502900D2*
X2613088D1*
X2974993D2*
X3185118D1*
X3302902D2*
X3412983D1*
X3475003D2*
X3918806D1*
X3980790D2*
X4290028D1*
X435002Y1034715D2*
X803628D1*
X884380D2*
X1388756D1*
X1414174D2*
X1491923D1*
X1691666D2*
X1803613D1*
X1884364D2*
X2083725D1*
X2204272D2*
X2361002D1*
X2504264D2*
X2628483D1*
X2974993D2*
X3183755D1*
X3304266D2*
X3412983D1*
X3475003D2*
X3803618D1*
X3884370D2*
X3918806D1*
X3980790D2*
X4290028D1*
X435002Y1009846D2*
X768498D1*
X919475D2*
X1467055D1*
X1666799D2*
X1768518D1*
X1919495D2*
X2093988D1*
X2194009D2*
X2361002D1*
X2494001D2*
X2794017D1*
X2894002D2*
X2913008D1*
X3475003D2*
X3768523D1*
X3980790D2*
X4290028D1*
X435002Y984978D2*
X752135D1*
X935838D2*
X1188486D1*
X1380156D2*
X1407846D1*
X1641931D2*
X1752155D1*
X1935858D2*
X2199738D1*
X2422986D2*
X2499766D1*
X2788251D2*
X2899767D1*
X3488244D2*
X3752160D1*
X3980790D2*
X4290028D1*
X435002Y960109D2*
X744527D1*
X943481D2*
X1188486D1*
X1617063D2*
X1744512D1*
X1943466D2*
X2185277D1*
X2422986D2*
X2485269D1*
X2802748D2*
X2885270D1*
X3502741D2*
X3744517D1*
X3980790D2*
X4290028D1*
X435002Y935240D2*
X743594D1*
X944414D2*
X1188486D1*
X1598798D2*
X1743579D1*
X1944399D2*
X2183662D1*
X2422986D2*
X2483654D1*
X2804327D2*
X2883655D1*
X3504356D2*
X3743584D1*
X3980790D2*
X4290028D1*
X435002Y910371D2*
X749120D1*
X938888D2*
X1188486D1*
X1487485D2*
X1500499D1*
X1587495D2*
X1749141D1*
X1938873D2*
X2193638D1*
X2422986D2*
X2493630D1*
X2794352D2*
X2893631D1*
X3094379D2*
X3393641D1*
X3494380D2*
X3749110D1*
X3980790D2*
X4290028D1*
X435002Y885503D2*
X762505D1*
X925503D2*
X1100283D1*
X1187745D2*
X1200256D1*
X1487737D2*
X1503011D1*
X1584983D2*
X1762490D1*
X1925488D2*
X2361002D1*
X2422986D2*
X2960986D1*
X3023006D2*
X3762495D1*
X3980790D2*
X4290028D1*
X435002Y860634D2*
X789418D1*
X898590D2*
X1085427D1*
X1584983D2*
X1789403D1*
X1898575D2*
X2361002D1*
X2422986D2*
X2960986D1*
X3023006D2*
X3251038D1*
X3332937D2*
X3789408D1*
X3980790D2*
X4290028D1*
X435002Y835765D2*
X773234D1*
X914774D2*
X1083597D1*
X1584983D2*
X1773255D1*
X1914758D2*
X2361002D1*
X2422986D2*
X2960986D1*
X3023006D2*
X3246229D1*
X3339325D2*
X3773260D1*
X3980790D2*
X4290028D1*
X435002Y810896D2*
X768892D1*
X919116D2*
X1093250D1*
X1584983D2*
X1768877D1*
X1919136D2*
X2361002D1*
X2422986D2*
X2960986D1*
X3023006D2*
X3257425D1*
X3364192D2*
X3768882D1*
X3980790D2*
X4290028D1*
X435002Y786028D2*
X776464D1*
X911508D2*
X1133655D1*
X1154337D2*
X1233664D1*
X1254346D2*
X1333674D1*
X1354355D2*
X1433647D1*
X1454325D2*
X1500822D1*
X1587208D2*
X1776485D1*
X1911529D2*
X2361002D1*
X2422986D2*
X2960986D1*
X3023006D2*
X3303464D1*
X3980755D2*
X4290028D1*
X435002Y761159D2*
X808832D1*
X879177D2*
X1485571D1*
X1602422D2*
X1808816D1*
X1879197D2*
X2361002D1*
X2422986D2*
X2960986D1*
X3023006D2*
X3328332D1*
X3966186D2*
X4290028D1*
X435002Y736290D2*
X786368D1*
X901604D2*
X1483526D1*
X1604504D2*
X1786389D1*
X1901625D2*
X2361002D1*
X2422986D2*
X2960986D1*
X3023006D2*
X3786394D1*
X3901630D2*
X4290028D1*
X435002Y711421D2*
X771010D1*
X916999D2*
X1492928D1*
X1595102D2*
X1770994D1*
X1916983D2*
X2361002D1*
X2422986D2*
X2960986D1*
X3023006D2*
X3770999D1*
X3916988D2*
X4290028D1*
X435002Y686552D2*
X769610D1*
X918398D2*
X1501360D1*
X1586633D2*
X1769595D1*
X1918383D2*
X2361002D1*
X2422986D2*
X2960986D1*
X3023006D2*
X3769600D1*
X3918388D2*
X4290028D1*
X435002Y661684D2*
X489929D1*
X568061D2*
X780770D1*
X907202D2*
X1485751D1*
X1602279D2*
X1780791D1*
X1907223D2*
X2361002D1*
X2422986D2*
X2960986D1*
X3023006D2*
X3780796D1*
X3907228D2*
X4159912D1*
X4238080D2*
X4290028D1*
X617043Y636815D2*
X1483454D1*
X1604540D2*
X2361002D1*
X2422986D2*
X2960986D1*
X3023006D2*
X4110966D1*
X641336Y611946D2*
X1492569D1*
X1595425D2*
X2361002D1*
X2422986D2*
X2960986D1*
X3023006D2*
X4086673D1*
X656264Y587077D2*
X1101934D1*
X1186094D2*
X1201907D1*
X1286067D2*
X1301916D1*
X1386077D2*
X1401925D1*
X1486086D2*
X1528022D1*
X1560007D2*
X2361002D1*
X2422986D2*
X2960986D1*
X3023006D2*
X4071709D1*
X665056Y562209D2*
X1085893D1*
X2422986D2*
X2960986D1*
X3023006D2*
X4062953D1*
X668895Y537340D2*
X1083381D1*
X2410140D2*
X2960986D1*
X3023006D2*
X4059113D1*
X668142Y512471D2*
X1092209D1*
X1495775D2*
X2960986D1*
X3023006D2*
X4059867D1*
X662759Y487602D2*
X1125940D1*
X1162052D2*
X1225949D1*
X3021750D2*
X4065250D1*
X652137Y462734D2*
X1282467D1*
X3001547D2*
X4075871D1*
X634626Y437865D2*
X4093383D1*
X1602320Y1839410D2*
X1600884Y1830343D1*
X1598047Y1821613D1*
X1593879Y1813434D1*
X1588484Y1806007D1*
X1581993Y1799516D1*
X1574566Y1794121D1*
X1566387Y1789953D1*
X1557657Y1787116D1*
X1548590Y1785680D1*
X1539410D1*
X1530343Y1787116D1*
X1521613Y1789953D1*
X1513434Y1794121D1*
X1506007Y1799516D1*
X1499516Y1806007D1*
X1494121Y1813434D1*
X1489953Y1821613D1*
X1487116Y1830343D1*
X1485680Y1839410D1*
Y1848590D1*
X1487116Y1857657D1*
X1489953Y1866387D1*
X1494121Y1874566D1*
X1499516Y1881993D1*
X1506007Y1888484D1*
X1513637Y1893993D1*
X1506007Y1899516D1*
X1499516Y1906007D1*
X1494121Y1913434D1*
X1489953Y1921613D1*
X1487116Y1930343D1*
X1485680Y1939410D1*
Y1948590D1*
X1487116Y1957657D1*
X1489953Y1966387D1*
X1494121Y1974566D1*
X1499516Y1981993D1*
X1506007Y1988484D1*
X1513434Y1993879D1*
X1521613Y1998047D1*
X1530343Y2000884D1*
X1539410Y2002320D1*
X1548590D1*
X1557657Y2000884D1*
X1566387Y1998047D1*
X1574566Y1993879D1*
X1581993Y1988484D1*
X1588484Y1981993D1*
X1593879Y1974566D1*
X1598047Y1966387D1*
X1600884Y1957657D1*
X1602320Y1948590D1*
Y1939410D1*
X1600884Y1930343D1*
X1598047Y1921613D1*
X1593879Y1913434D1*
X1588484Y1906007D1*
X1581993Y1899516D1*
X1574363Y1894007D1*
X1581993Y1888484D1*
X1588484Y1881993D1*
X1593879Y1874566D1*
X1598047Y1866387D1*
X1600884Y1857657D1*
X1602320Y1848590D1*
Y1839410D1*
X2202320Y1039410D2*
X2200884Y1030343D1*
X2198047Y1021613D1*
X2193879Y1013434D1*
X2188484Y1006007D1*
X2181993Y999516D1*
X2174566Y994121D1*
X2166387Y989953D1*
X2157657Y987116D1*
X2148590Y985680D1*
X2139410D1*
X2130343Y987116D1*
X2121613Y989953D1*
X2113434Y994121D1*
X2106007Y999516D1*
X2099516Y1006007D1*
X2094121Y1013434D1*
X2089953Y1021613D1*
X2087116Y1030343D1*
X2085680Y1039410D1*
Y1048590D1*
X2087116Y1057657D1*
X2089953Y1066387D1*
X2094121Y1074566D1*
X2099516Y1081993D1*
X2106007Y1088484D1*
X2113637Y1093993D1*
X2106007Y1099516D1*
X2099516Y1106007D1*
X2094121Y1113434D1*
X2089953Y1121613D1*
X2087116Y1130343D1*
X2085680Y1139410D1*
Y1148590D1*
X2087116Y1157657D1*
X2089953Y1166387D1*
X2094121Y1174566D1*
X2099516Y1181993D1*
X2106007Y1188484D1*
X2113434Y1193879D1*
X2121613Y1198047D1*
X2130343Y1200884D1*
X2139410Y1202320D1*
X2148590D1*
X2157657Y1200884D1*
X2166387Y1198047D1*
X2174566Y1193879D1*
X2181993Y1188484D1*
X2188484Y1181993D1*
X2193879Y1174566D1*
X2195028Y1172515D1*
X2214225Y1172500D1*
X2215500Y1180373D1*
Y1192896D1*
X2209615Y1196673D1*
X2202634Y1202634D1*
X2196673Y1209615D1*
X2191876Y1217442D1*
X2188363Y1225923D1*
X2186220Y1234849D1*
X2185500Y1244000D1*
X2186220Y1253151D1*
X2188363Y1262077D1*
X2191876Y1270558D1*
X2196673Y1278385D1*
X2202634Y1285366D1*
X2209615Y1291327D1*
X2217442Y1296124D1*
X2219413Y1297033D1*
X2212831Y1301100D1*
X2206504Y1306504D1*
X2201100Y1312831D1*
X2197030Y1319429D1*
X2197028Y1290972D1*
X2090973D1*
Y1397027D1*
X2197028D1*
Y1368643D1*
X2201100Y1375169D1*
X2206504Y1381496D1*
X2212831Y1386900D1*
X2219926Y1391248D1*
X2227614Y1394432D1*
X2235705Y1396375D1*
X2244000Y1397028D1*
X2252295Y1396375D1*
X2260386Y1394432D1*
X2268074Y1391248D1*
X2275169Y1386900D1*
X2281496Y1381496D1*
X2286900Y1375169D1*
X2291248Y1368074D1*
X2293976Y1361622D1*
X2296752Y1368074D1*
X2301100Y1375169D1*
X2306504Y1381496D1*
X2312831Y1386900D1*
X2319926Y1391248D1*
X2327614Y1394432D1*
X2335705Y1396375D1*
X2344000Y1397028D1*
X2352295Y1396375D1*
X2360386Y1394432D1*
X2363515Y1393278D1*
X2363589Y1510245D1*
X2358733Y1508431D1*
X2352988Y1506564D1*
X2347021Y1505619D1*
X2298068Y1505500D1*
X2159950D1*
X1842403Y1187955D1*
X1866031Y1187803D1*
X1874555Y1186453D1*
X1882763Y1183786D1*
X1890452Y1179868D1*
X1897434Y1174796D1*
X1903536Y1168693D1*
X1908608Y1161712D1*
X1912526Y1154022D1*
X1915193Y1145815D1*
X1916543Y1137291D1*
Y1128661D1*
X1915193Y1120138D1*
X1912526Y1111930D1*
X1908608Y1104241D1*
X1903536Y1097259D1*
X1897434Y1091157D1*
X1890452Y1086085D1*
X1882763Y1082167D1*
X1874555Y1079500D1*
X1866031Y1078150D1*
X1843344Y1077980D1*
X1821969Y1078150D1*
X1813445Y1079500D1*
X1805237Y1082167D1*
X1797548Y1086085D1*
X1790566Y1091157D1*
X1784464Y1097259D1*
X1779392Y1104241D1*
X1775474Y1111930D1*
X1773196Y1118758D1*
X1596986Y942538D1*
X1596375Y935705D1*
X1594432Y927614D1*
X1591248Y919926D1*
X1586900Y912831D1*
X1582501Y907591D1*
X1582500Y788011D1*
X1588484Y781993D1*
X1593879Y774566D1*
X1598047Y766387D1*
X1600884Y757657D1*
X1602320Y748590D1*
Y739410D1*
X1600884Y730343D1*
X1598047Y721613D1*
X1593879Y713434D1*
X1588484Y706007D1*
X1581993Y699516D1*
X1574363Y694007D1*
X1579779Y690283D1*
X1585296Y685435D1*
X1590162Y679934D1*
X1594301Y673867D1*
X1597647Y667329D1*
X1600147Y660424D1*
X1601763Y653260D1*
X1602468Y645949D1*
X1602241Y638496D1*
X1601092Y631242D1*
X1599044Y624190D1*
X1596128Y617449D1*
X1592390Y611127D1*
X1587890Y605323D1*
X1582698Y600129D1*
X1576896Y595626D1*
X1570576Y591885D1*
X1563837Y588966D1*
X1556785Y586914D1*
X1549532Y585762D1*
X1542191Y585528D1*
X1534879Y586215D1*
X1527711Y587814D1*
X1520799Y590297D1*
X1514253Y593627D1*
X1508176Y597752D1*
X1502664Y602604D1*
X1497803Y608110D1*
X1493670Y614181D1*
X1490331Y620722D1*
X1487837Y627630D1*
X1486229Y634796D1*
X1485531Y642107D1*
X1485754Y649448D1*
X1486896Y656703D1*
X1488937Y663758D1*
X1491847Y670501D1*
X1495578Y676827D1*
X1500073Y682635D1*
X1505260Y687834D1*
X1511057Y692343D1*
X1513637Y693996D1*
X1506007Y699516D1*
X1499516Y706007D1*
X1494121Y713434D1*
X1489953Y721613D1*
X1487116Y730343D1*
X1485680Y739410D1*
Y748590D1*
X1487116Y757657D1*
X1489953Y766387D1*
X1494121Y774566D1*
X1499516Y781993D1*
X1505493Y788009D1*
X1505500Y907524D1*
X1501100Y912831D1*
X1496752Y919926D1*
X1494024Y926378D1*
X1491248Y919926D1*
X1486900Y912831D1*
X1481496Y906504D1*
X1475169Y901100D1*
X1468627Y897062D1*
X1474566Y893879D1*
X1481993Y888484D1*
X1488484Y881993D1*
X1493879Y874566D1*
X1498047Y866387D1*
X1500884Y857657D1*
X1502320Y848590D1*
Y839410D1*
X1500884Y830343D1*
X1498047Y821613D1*
X1493879Y813434D1*
X1488484Y806007D1*
X1481993Y799516D1*
X1474566Y794121D1*
X1466387Y789953D1*
X1457657Y787116D1*
X1448590Y785680D1*
X1439410D1*
X1430343Y787116D1*
X1421613Y789953D1*
X1413434Y794121D1*
X1406007Y799516D1*
X1399516Y806007D1*
X1394007Y813637D1*
X1388484Y806007D1*
X1381993Y799516D1*
X1374566Y794121D1*
X1366387Y789953D1*
X1357657Y787116D1*
X1348590Y785680D1*
X1339410D1*
X1330343Y787116D1*
X1321613Y789953D1*
X1313434Y794121D1*
X1306007Y799516D1*
X1299516Y806007D1*
X1294007Y813637D1*
X1288484Y806007D1*
X1281993Y799516D1*
X1274566Y794121D1*
X1266387Y789953D1*
X1257657Y787116D1*
X1248590Y785680D1*
X1239410D1*
X1230343Y787116D1*
X1221613Y789953D1*
X1213434Y794121D1*
X1206007Y799516D1*
X1199516Y806007D1*
X1194007Y813637D1*
X1188484Y806007D1*
X1181993Y799516D1*
X1174566Y794121D1*
X1166387Y789953D1*
X1157657Y787116D1*
X1148590Y785680D1*
X1139410D1*
X1130343Y787116D1*
X1121613Y789953D1*
X1113434Y794121D1*
X1106007Y799516D1*
X1099516Y806007D1*
X1094121Y813434D1*
X1089953Y821613D1*
X1087116Y830343D1*
X1085680Y839410D1*
Y848590D1*
X1087116Y857657D1*
X1089953Y866387D1*
X1094121Y874566D1*
X1099516Y881993D1*
X1106007Y888484D1*
X1113434Y893879D1*
X1121613Y898047D1*
X1130343Y900884D1*
X1139410Y902320D1*
X1148590D1*
X1157657Y900884D1*
X1166387Y898047D1*
X1174566Y893879D1*
X1181993Y888484D1*
X1188484Y881993D1*
X1193993Y874363D1*
X1199516Y881993D1*
X1206007Y888484D1*
X1209178Y890983D1*
X1190973Y890972D1*
Y997027D1*
X1297028D1*
Y968643D1*
X1301100Y975169D1*
X1306504Y981496D1*
X1312831Y986900D1*
X1319926Y991248D1*
X1327614Y994432D1*
X1335705Y996375D1*
X1344000Y997028D1*
X1352295Y996375D1*
X1360386Y994432D1*
X1368074Y991248D1*
X1375169Y986900D1*
X1381496Y981496D1*
X1386900Y975169D1*
X1391248Y968074D1*
X1393976Y961622D1*
X1396752Y968074D1*
X1401100Y975169D1*
X1406504Y981496D1*
X1412831Y986900D1*
X1419926Y991248D1*
X1427614Y994432D1*
X1435705Y996375D1*
X1444000Y997028D1*
X1452295Y996375D1*
X1455438Y995750D1*
X1884156Y1424461D1*
X1759477Y1424437D1*
Y1480452D1*
X1407764Y1480548D1*
X1403347Y1481248D1*
X1399093Y1482630D1*
X1395109Y1484660D1*
X1391491Y1487289D1*
X1370328Y1508451D1*
X1367700Y1512069D1*
X1365669Y1516054D1*
X1364287Y1520307D1*
X1363588Y1524725D1*
X1363500Y1588861D1*
X1357657Y1587116D1*
X1348590Y1585680D1*
X1339410D1*
X1330343Y1587116D1*
X1321613Y1589953D1*
X1313434Y1594121D1*
X1306007Y1599516D1*
X1299516Y1606007D1*
X1294121Y1613434D1*
X1292972Y1615485D1*
X873810Y1615500D1*
X872500Y1607627D1*
Y1186885D1*
X878711Y1185281D1*
X886684Y1181978D1*
X894042Y1177469D1*
X900605Y1171864D1*
X906209Y1165302D1*
X910718Y1157944D1*
X914021Y1149971D1*
X916036Y1141580D1*
X916713Y1132976D1*
X916036Y1124373D1*
X914021Y1115982D1*
X910718Y1108009D1*
X906209Y1100651D1*
X900605Y1094088D1*
X894042Y1088484D1*
X886684Y1083975D1*
X878711Y1080672D1*
X870320Y1078657D1*
X861717Y1077980D1*
X821969Y1078150D1*
X813445Y1079500D1*
X805237Y1082167D1*
X797548Y1086085D1*
X790566Y1091157D1*
X784464Y1097259D1*
X779392Y1104241D1*
X775474Y1111930D1*
X772807Y1120138D1*
X771457Y1128661D1*
Y1137291D1*
X772807Y1145815D1*
X775474Y1154022D1*
X779392Y1161712D1*
X784464Y1168693D1*
X790566Y1174796D1*
X797548Y1179868D1*
X805237Y1183786D1*
X813445Y1186453D1*
X815513Y1186864D1*
X815588Y1628236D1*
X816287Y1632653D1*
X817669Y1636907D1*
X819700Y1640891D1*
X822328Y1644509D1*
X843491Y1665672D1*
X847109Y1668300D1*
X851093Y1670331D1*
X855347Y1671713D1*
X859764Y1672412D1*
X953864Y1672500D1*
X1292933D1*
X1296673Y1678385D1*
X1302634Y1685366D1*
X1309615Y1691327D1*
X1313637Y1693993D1*
X1306007Y1699516D1*
X1299516Y1706007D1*
X1294007Y1713637D1*
X1288484Y1706007D1*
X1281993Y1699516D1*
X1274566Y1694121D1*
X1266387Y1689953D1*
X1257657Y1687116D1*
X1248590Y1685680D1*
X1239410D1*
X1230343Y1687116D1*
X1221613Y1689953D1*
X1213434Y1694121D1*
X1206007Y1699516D1*
X1199516Y1706007D1*
X1194007Y1713637D1*
X1190231Y1708154D1*
X1185376Y1702644D1*
X1179868Y1697786D1*
X1173795Y1693656D1*
X1167252Y1690320D1*
X1160343Y1687829D1*
X1153176Y1686224D1*
X1145865Y1685530D1*
X1138524Y1685757D1*
X1131270Y1686902D1*
X1124216Y1688947D1*
X1117474Y1691860D1*
X1111150Y1695594D1*
X1105344Y1700091D1*
X1100147Y1705281D1*
X1095641Y1711081D1*
X1091898Y1717399D1*
X1088975Y1724137D1*
X1086920Y1731188D1*
X1085765Y1738440D1*
X1085527Y1745781D1*
X1086211Y1753093D1*
X1087806Y1760262D1*
X1090286Y1767175D1*
X1093613Y1773722D1*
X1097734Y1779801D1*
X1102585Y1785316D1*
X1108088Y1790180D1*
X1114157Y1794315D1*
X1120696Y1797658D1*
X1127603Y1800155D1*
X1134768Y1801767D1*
X1142079Y1802468D1*
X1149420Y1802248D1*
X1156675Y1801110D1*
X1163731Y1799072D1*
X1170476Y1796166D1*
X1176803Y1792437D1*
X1182614Y1787946D1*
X1187816Y1782761D1*
X1192327Y1776966D1*
X1193996Y1774362D1*
X1199516Y1781993D1*
X1206007Y1788484D1*
X1213434Y1793879D1*
X1221613Y1798047D1*
X1230343Y1800884D1*
X1239410Y1802320D1*
X1248590D1*
X1257657Y1800884D1*
X1266387Y1798047D1*
X1274566Y1793879D1*
X1281993Y1788484D1*
X1288484Y1781993D1*
X1293993Y1774363D1*
X1299516Y1781993D1*
X1306007Y1788484D1*
X1313434Y1793879D1*
X1321613Y1798047D1*
X1330343Y1800884D1*
X1339410Y1802320D1*
X1348590D1*
X1357657Y1800884D1*
X1359919Y1800246D1*
X1363507Y1803812D1*
X1363500Y1988872D1*
X1357657Y1987116D1*
X1348590Y1985680D1*
X1339410D1*
X1330343Y1987116D1*
X1328081Y1987754D1*
X1210509Y1870328D1*
X1206891Y1867700D1*
X1202907Y1865669D1*
X1198653Y1864287D1*
X1194236Y1863588D1*
X1100136Y1863500D1*
X1099168D1*
X1101067Y1856867D1*
X1102230Y1849615D1*
X1102471Y1842163D1*
X1101780Y1834851D1*
X1100179Y1827684D1*
X1097692Y1820774D1*
X1094358Y1814229D1*
X1090231Y1808154D1*
X1085376Y1802644D1*
X1079868Y1797786D1*
X1073795Y1793656D1*
X1067252Y1790320D1*
X1060343Y1787829D1*
X1053176Y1786224D1*
X1045865Y1785530D1*
X1038524Y1785757D1*
X1031270Y1786902D1*
X1024216Y1788947D1*
X1017474Y1791860D1*
X1011150Y1795594D1*
X1005344Y1800091D1*
X1000147Y1805281D1*
X995641Y1811081D1*
X991898Y1817399D1*
X988975Y1824137D1*
X986920Y1831188D1*
X985765Y1838440D1*
X985527Y1845781D1*
X986211Y1853093D1*
X987806Y1860262D1*
X988852Y1863506D1*
X873815Y1863500D1*
X872500Y1855627D1*
Y1795091D1*
X878385Y1791327D1*
X885366Y1785366D1*
X891327Y1778385D1*
X893993Y1774363D1*
X899516Y1781993D1*
X906007Y1788484D1*
X913434Y1793879D1*
X921613Y1798047D1*
X930343Y1800884D1*
X939410Y1802320D1*
X948590D1*
X957657Y1800884D1*
X966387Y1798047D1*
X974566Y1793879D1*
X981993Y1788484D1*
X988484Y1781993D1*
X993879Y1774566D1*
X998047Y1766387D1*
X1000884Y1757657D1*
X1002320Y1748590D1*
Y1739410D1*
X1000884Y1730343D1*
X998047Y1721613D1*
X993879Y1713434D1*
X988484Y1706007D1*
X981993Y1699516D1*
X974566Y1694121D1*
X966387Y1689953D1*
X957657Y1687116D1*
X948590Y1685680D1*
X939410D1*
X930343Y1687116D1*
X921613Y1689953D1*
X913434Y1694121D1*
X906007Y1699516D1*
X899516Y1706007D1*
X894007Y1713637D1*
X888484Y1706007D1*
X881993Y1699516D1*
X874566Y1694121D1*
X866387Y1689953D1*
X857657Y1687116D1*
X848590Y1685680D1*
X839410D1*
X830343Y1687116D1*
X821613Y1689953D1*
X813434Y1694121D1*
X806007Y1699516D1*
X799516Y1706007D1*
X794007Y1713637D1*
X790231Y1708154D1*
X785376Y1702644D1*
X779868Y1697786D1*
X773795Y1693656D1*
X767252Y1690320D1*
X760343Y1687829D1*
X753176Y1686224D1*
X745865Y1685530D1*
X738524Y1685757D1*
X731270Y1686902D1*
X724216Y1688947D1*
X717474Y1691860D1*
X711150Y1695594D1*
X705344Y1700091D1*
X700147Y1705281D1*
X695641Y1711081D1*
X694004Y1713637D1*
X688484Y1706007D1*
X681993Y1699516D1*
X674566Y1694121D1*
X666387Y1689953D1*
X657657Y1687116D1*
X648590Y1685680D1*
X639410D1*
X630343Y1687116D1*
X621613Y1689953D1*
X613434Y1694121D1*
X606007Y1699516D1*
X599516Y1706007D1*
X594121Y1713434D1*
X589953Y1721613D1*
X587116Y1730343D1*
X585680Y1739410D1*
Y1748590D1*
X587116Y1757657D1*
X589953Y1766387D1*
X594121Y1774566D1*
X599516Y1781993D1*
X606007Y1788484D1*
X613434Y1793879D1*
X621613Y1798047D1*
X630343Y1800884D1*
X639410Y1802320D1*
X648590D1*
X657657Y1800884D1*
X666387Y1798047D1*
X674566Y1793879D1*
X681993Y1788484D1*
X688484Y1781993D1*
X693993Y1774363D1*
X697734Y1779801D1*
X702585Y1785316D1*
X708088Y1790180D1*
X714157Y1794315D1*
X720696Y1797658D1*
X727603Y1800155D1*
X734768Y1801767D1*
X742079Y1802468D1*
X749420Y1802248D1*
X756675Y1801110D1*
X763731Y1799072D1*
X770476Y1796166D1*
X776803Y1792437D1*
X782614Y1787946D1*
X787816Y1782761D1*
X792327Y1776966D1*
X793996Y1774362D1*
X799516Y1781993D1*
X806007Y1788484D1*
X813434Y1793879D1*
X815485Y1795028D1*
X815500Y1845516D1*
X593764Y1845588D1*
X589347Y1846287D1*
X585094Y1847669D1*
X581109Y1849700D1*
X577491Y1852328D1*
X556328Y1873491D1*
X553700Y1877109D1*
X551669Y1881094D1*
X550287Y1885347D1*
X549588Y1889764D1*
X549500Y1983864D1*
X549588Y3115275D1*
X550287Y3119693D1*
X551669Y3123946D1*
X553700Y3127931D1*
X556328Y3131549D1*
X622805Y3198149D1*
X767563Y3342908D1*
X763613Y3352920D1*
X761812Y3359308D1*
X760517Y3365817D1*
X759737Y3372408D1*
X759476Y3379039D1*
X759737Y3385671D1*
X760517Y3392262D1*
X761812Y3398771D1*
X763613Y3405159D1*
X765910Y3411385D1*
X768689Y3417412D1*
X771932Y3423203D1*
X775619Y3428721D1*
X779728Y3433933D1*
X784233Y3438807D1*
X789106Y3443312D1*
X794318Y3447420D1*
X799837Y3451108D1*
X805627Y3454350D1*
X811654Y3457129D1*
X817881Y3459426D1*
X824268Y3461228D1*
X830778Y3462522D1*
X837368Y3463302D1*
X844000Y3463563D1*
X850632Y3463302D1*
X857222Y3462522D1*
X863732Y3461228D1*
X870119Y3459426D1*
X876346Y3457129D1*
X882373Y3454350D1*
X888163Y3451108D1*
X893682Y3447420D1*
X898894Y3443312D1*
X903767Y3438807D1*
X908272Y3433933D1*
X912381Y3428721D1*
X916068Y3423203D1*
X919311Y3417412D1*
X922090Y3411385D1*
X924387Y3405159D1*
X926188Y3398771D1*
X927483Y3392262D1*
X928263Y3385671D1*
X928524Y3379039D1*
X928263Y3372408D1*
X927483Y3365817D1*
X926188Y3359308D1*
X924387Y3352920D1*
X922090Y3346694D1*
X919311Y3340666D1*
X916068Y3334876D1*
X912381Y3329358D1*
X908272Y3324146D1*
X903767Y3319272D1*
X898894Y3314767D1*
X893682Y3310658D1*
X888163Y3306971D1*
X882373Y3303728D1*
X876346Y3300950D1*
X870119Y3298653D1*
X863732Y3296851D1*
X857222Y3295556D1*
X850632Y3294776D1*
X844000Y3294516D1*
X837368Y3294776D1*
X830778Y3295556D1*
X824268Y3296851D1*
X817881Y3298653D1*
X807911Y3302675D1*
X606480Y3101214D1*
X606500Y2788898D1*
X613434Y2793879D1*
X621613Y2798047D1*
X630343Y2800884D1*
X639410Y2802320D1*
X648590D1*
X657657Y2800884D1*
X666387Y2798047D1*
X674566Y2793879D1*
X681993Y2788484D1*
X688484Y2781993D1*
X693879Y2774566D1*
X698047Y2766387D1*
X700884Y2757657D1*
X702320Y2748590D1*
Y2739410D1*
X700884Y2730343D1*
X698047Y2721613D1*
X693879Y2713434D1*
X688484Y2706007D1*
X681993Y2699516D1*
X674363Y2694007D1*
X681993Y2688484D1*
X688484Y2681993D1*
X693879Y2674566D1*
X695028Y2672515D1*
X962185Y2672500D1*
X963500Y2680373D1*
Y2788851D1*
X956785Y2786914D1*
X949532Y2785762D1*
X942191Y2785528D1*
X934879Y2786215D1*
X927711Y2787814D1*
X920799Y2790297D1*
X914253Y2793627D1*
X908176Y2797752D1*
X902664Y2802604D1*
X897803Y2808110D1*
X894004Y2813637D1*
X888484Y2806007D1*
X881993Y2799516D1*
X874566Y2794121D1*
X866387Y2789953D1*
X857657Y2787116D1*
X848590Y2785680D1*
X839410D1*
X830343Y2787116D1*
X821613Y2789953D1*
X813434Y2794121D1*
X806007Y2799516D1*
X799516Y2806007D1*
X794007Y2813637D1*
X788484Y2806007D1*
X781993Y2799516D1*
X774566Y2794121D1*
X766387Y2789953D1*
X757657Y2787116D1*
X748590Y2785680D1*
X739410D1*
X730343Y2787116D1*
X721613Y2789953D1*
X713434Y2794121D1*
X706007Y2799516D1*
X699516Y2806007D1*
X694121Y2813434D1*
X689953Y2821613D1*
X687116Y2830343D1*
X685680Y2839410D1*
Y2848590D1*
X687116Y2857657D1*
X689953Y2866387D1*
X694121Y2874566D1*
X699516Y2881993D1*
X706007Y2888484D1*
X713434Y2893879D1*
X721613Y2898047D1*
X730343Y2900884D1*
X739410Y2902320D1*
X748590D1*
X757657Y2900884D1*
X766387Y2898047D1*
X774566Y2893879D1*
X781993Y2888484D1*
X788484Y2881993D1*
X793993Y2874363D1*
X799516Y2881993D1*
X806007Y2888484D1*
X813434Y2893879D1*
X821613Y2898047D1*
X830343Y2900884D1*
X839410Y2902320D1*
X848590D1*
X857657Y2900884D1*
X866387Y2898047D1*
X874566Y2893879D1*
X881993Y2888484D1*
X888484Y2881993D1*
X893993Y2874363D1*
X897734Y2879801D1*
X902585Y2885316D1*
X908088Y2890180D1*
X914157Y2894315D1*
X920696Y2897658D1*
X927603Y2900155D1*
X934768Y2901767D1*
X942079Y2902468D1*
X949420Y2902248D1*
X956675Y2901110D1*
X963493Y2899153D1*
X963588Y3363275D1*
X964287Y3367693D1*
X965669Y3371946D1*
X967700Y3375931D1*
X970328Y3379549D1*
X991491Y3400711D1*
X995109Y3403340D1*
X999093Y3405370D1*
X1003347Y3406752D1*
X1007764Y3407452D1*
X1101864Y3407539D1*
X1764393D1*
X1768689Y3417412D1*
X1771932Y3423203D1*
X1775619Y3428721D1*
X1779728Y3433933D1*
X1784233Y3438807D1*
X1789106Y3443312D1*
X1794318Y3447420D1*
X1799837Y3451108D1*
X1805627Y3454350D1*
X1811654Y3457129D1*
X1817881Y3459426D1*
X1824268Y3461228D1*
X1830778Y3462522D1*
X1837368Y3463302D1*
X1844000Y3463563D1*
X1850632Y3463302D1*
X1857222Y3462522D1*
X1863732Y3461228D1*
X1870119Y3459426D1*
X1876346Y3457129D1*
X1882373Y3454350D1*
X1888163Y3451108D1*
X1893682Y3447420D1*
X1898894Y3443312D1*
X1903767Y3438807D1*
X1908272Y3433933D1*
X1912381Y3428721D1*
X1916068Y3423203D1*
X1919311Y3417412D1*
X1922090Y3411385D1*
X1924387Y3405159D1*
X1926188Y3398771D1*
X1927483Y3392262D1*
X1928263Y3385671D1*
X1928524Y3379039D1*
X1928263Y3372408D1*
X1927483Y3365817D1*
X1926188Y3359308D1*
X1924387Y3352920D1*
X1922090Y3346694D1*
X1919311Y3340666D1*
X1916068Y3334876D1*
X1912381Y3329358D1*
X1908272Y3324146D1*
X1903767Y3319272D1*
X1898894Y3314767D1*
X1893682Y3310658D1*
X1888163Y3306971D1*
X1882373Y3303728D1*
X1876346Y3300950D1*
X1870119Y3298653D1*
X1863732Y3296851D1*
X1857222Y3295556D1*
X1850632Y3294776D1*
X1844000Y3294516D1*
X1837368Y3294776D1*
X1830778Y3295556D1*
X1824268Y3296851D1*
X1817881Y3298653D1*
X1811654Y3300950D1*
X1805627Y3303728D1*
X1799837Y3306971D1*
X1794318Y3310658D1*
X1789106Y3314767D1*
X1784233Y3319272D1*
X1779728Y3324146D1*
X1775619Y3329358D1*
X1771932Y3334876D1*
X1768689Y3340666D1*
X1764484Y3350561D1*
X1021786Y3350539D1*
X1020500Y3342667D1*
X1020696Y2797658D1*
X1027603Y2800155D1*
X1034768Y2801767D1*
X1042079Y2802468D1*
X1049420Y2802248D1*
X1056675Y2801110D1*
X1063731Y2799072D1*
X1070476Y2796166D1*
X1076803Y2792437D1*
X1082614Y2787946D1*
X1087816Y2782761D1*
X1092327Y2776966D1*
X1096077Y2770651D1*
X1099005Y2763916D1*
X1101067Y2756867D1*
X1102230Y2749615D1*
X1102471Y2742163D1*
X1101780Y2734851D1*
X1100179Y2727684D1*
X1097692Y2720774D1*
X1094358Y2714229D1*
X1090231Y2708154D1*
X1085376Y2702644D1*
X1079868Y2697786D1*
X1074364Y2694005D1*
X1081993Y2688484D1*
X1088484Y2681993D1*
X1093879Y2674566D1*
X1098047Y2666387D1*
X1100884Y2657657D1*
X1102320Y2648590D1*
Y2639410D1*
X1100884Y2630343D1*
X1098047Y2621613D1*
X1093879Y2613434D1*
X1088484Y2606007D1*
X1082507Y2599991D1*
X1082500Y2480476D1*
X1086900Y2475169D1*
X1091248Y2468074D1*
X1093976Y2461622D1*
X1096752Y2468074D1*
X1101100Y2475169D1*
X1106504Y2481496D1*
X1112831Y2486900D1*
X1119926Y2491248D1*
X1127614Y2494432D1*
X1135705Y2496375D1*
X1144000Y2497028D1*
X1152295Y2496375D1*
X1160386Y2494432D1*
X1168074Y2491248D1*
X1175169Y2486900D1*
X1181496Y2481496D1*
X1186900Y2475169D1*
X1191248Y2468074D1*
X1193976Y2461622D1*
X1196752Y2468074D1*
X1201100Y2475169D1*
X1206504Y2481496D1*
X1212831Y2486900D1*
X1219373Y2490938D1*
X1213434Y2494121D1*
X1206007Y2499516D1*
X1199516Y2506007D1*
X1194121Y2513434D1*
X1189953Y2521613D1*
X1187116Y2530343D1*
X1185680Y2539410D1*
Y2548590D1*
X1187116Y2557657D1*
X1189953Y2566387D1*
X1194121Y2574566D1*
X1199516Y2581993D1*
X1206007Y2588484D1*
X1213434Y2593879D1*
X1221613Y2598047D1*
X1230343Y2600884D1*
X1239410Y2602320D1*
X1248590D1*
X1257657Y2600884D1*
X1266387Y2598047D1*
X1274566Y2593879D1*
X1281993Y2588484D1*
X1288484Y2581993D1*
X1293993Y2574363D1*
X1299516Y2581993D1*
X1306007Y2588484D1*
X1313434Y2593879D1*
X1321613Y2598047D1*
X1330343Y2600884D1*
X1339410Y2602320D1*
X1348590D1*
X1357657Y2600884D1*
X1366387Y2598047D1*
X1374566Y2593879D1*
X1381993Y2588484D1*
X1388484Y2581993D1*
X1393993Y2574363D1*
X1399516Y2581993D1*
X1406007Y2588484D1*
X1413434Y2593879D1*
X1421613Y2598047D1*
X1430343Y2600884D1*
X1439410Y2602320D1*
X1448590D1*
X1457657Y2600884D1*
X1466387Y2598047D1*
X1474566Y2593879D1*
X1481993Y2588484D1*
X1488484Y2581993D1*
X1493879Y2574566D1*
X1498047Y2566387D1*
X1500884Y2557657D1*
X1502320Y2548590D1*
Y2539410D1*
X1500884Y2530343D1*
X1498047Y2521613D1*
X1493879Y2513434D1*
X1488484Y2506007D1*
X1481993Y2499516D1*
X1474566Y2494121D1*
X1466387Y2489953D1*
X1457657Y2487116D1*
X1448590Y2485680D1*
X1439410D1*
X1430343Y2487116D1*
X1421613Y2489953D1*
X1413434Y2494121D1*
X1406007Y2499516D1*
X1399516Y2506007D1*
X1394007Y2513637D1*
X1388484Y2506007D1*
X1381993Y2499516D1*
X1374566Y2494121D1*
X1368587Y2490967D1*
X1375169Y2486900D1*
X1381496Y2481496D1*
X1386900Y2475169D1*
X1391248Y2468074D1*
X1394432Y2460386D1*
X1396375Y2452295D1*
X1397028Y2444000D1*
X1396375Y2435705D1*
X1394432Y2427614D1*
X1391248Y2419926D1*
X1386900Y2412831D1*
X1381496Y2406504D1*
X1375169Y2401100D1*
X1368074Y2396752D1*
X1360386Y2393568D1*
X1352295Y2391625D1*
X1344000Y2390972D1*
X1335705Y2391625D1*
X1327614Y2393568D1*
X1319926Y2396752D1*
X1312831Y2401100D1*
X1306504Y2406504D1*
X1301100Y2412831D1*
X1296752Y2419926D1*
X1294024Y2426378D1*
X1291248Y2419926D1*
X1286900Y2412831D1*
X1281496Y2406504D1*
X1275169Y2401100D1*
X1268074Y2396752D1*
X1260386Y2393568D1*
X1252295Y2391625D1*
X1244000Y2390972D1*
X1235705Y2391625D1*
X1227614Y2393568D1*
X1219926Y2396752D1*
X1212831Y2401100D1*
X1206504Y2406504D1*
X1201100Y2412831D1*
X1196752Y2419926D1*
X1194024Y2426378D1*
X1191248Y2419926D1*
X1186900Y2412831D1*
X1181496Y2406504D1*
X1175169Y2401100D1*
X1168074Y2396752D1*
X1160386Y2393568D1*
X1152295Y2391625D1*
X1144000Y2390972D1*
X1135705Y2391625D1*
X1127614Y2393568D1*
X1119926Y2396752D1*
X1112831Y2401100D1*
X1106504Y2406504D1*
X1101100Y2412831D1*
X1096752Y2419926D1*
X1094024Y2426378D1*
X1091248Y2419926D1*
X1086900Y2412831D1*
X1083627Y2408809D1*
X1109970Y2382478D1*
X1532469Y2382500D1*
X1530647Y2388322D1*
X1529579Y2395063D1*
Y2401889D1*
X1530647Y2408631D1*
X1532756Y2415123D1*
X1535855Y2421205D1*
X1539867Y2426727D1*
X1544449Y2431328D1*
X1544445Y2511117D1*
X1539867Y2515749D1*
X1535855Y2521271D1*
X1532756Y2527353D1*
X1530647Y2533845D1*
X1529579Y2540587D1*
Y2547413D1*
X1530647Y2554155D1*
X1532756Y2560647D1*
X1535855Y2566729D1*
X1539867Y2572251D1*
X1544694Y2577078D1*
X1550216Y2581090D1*
X1556298Y2584189D1*
X1562790Y2586298D1*
X1569532Y2587366D1*
X1576358D1*
X1583100Y2586298D1*
X1589592Y2584189D1*
X1595674Y2581090D1*
X1601196Y2577078D1*
X1606023Y2572251D1*
X1610035Y2566729D1*
X1613134Y2560647D1*
X1615243Y2554155D1*
X1616311Y2547413D1*
Y2540587D1*
X1615243Y2533845D1*
X1613134Y2527353D1*
X1610035Y2521271D1*
X1606023Y2515749D1*
X1601441Y2511149D1*
X1601445Y2431360D1*
X1606023Y2426727D1*
X1610035Y2421205D1*
X1613134Y2415123D1*
X1615243Y2408631D1*
X1616311Y2401889D1*
Y2395063D1*
X1615243Y2388322D1*
X1613378Y2382493D1*
X1728038Y2382500D1*
X2018996Y2673276D1*
X2023884Y2676827D1*
X2029267Y2679569D1*
X2035012Y2681436D1*
X2040979Y2682381D1*
X2089932Y2682500D1*
X2205515D1*
X2205619Y3247021D1*
X2206564Y3252988D1*
X2208431Y3258733D1*
X2211173Y3264116D1*
X2214724Y3269004D1*
X2249255Y3303702D1*
X2432125Y3486572D1*
X2428853Y3494832D1*
X2426343Y3505284D1*
X2425500Y3516000D1*
X2426343Y3526716D1*
X2428853Y3537168D1*
X2432966Y3547098D1*
X2438582Y3556263D1*
X2445563Y3564437D1*
X2453737Y3571418D1*
X2462902Y3577034D1*
X2472832Y3581147D1*
X2483284Y3583657D1*
X2494000Y3584500D1*
X2504716Y3583657D1*
X2515168Y3581147D1*
X2525098Y3577034D1*
X2534263Y3571418D1*
X2540138Y3566562D1*
X2639003Y3665450D1*
X2639681Y3674603D1*
X2641696Y3682995D1*
X2644087Y3688992D1*
X2639004Y3689004D1*
Y3798996D1*
X2748996D1*
Y3689004D1*
X2743951D1*
X2746304Y3682995D1*
X2748319Y3674603D1*
X2748996Y3666000D1*
X2748319Y3657397D1*
X2746304Y3649005D1*
X2743002Y3641032D1*
X2738493Y3633674D1*
X2732888Y3627112D1*
X2726326Y3621507D1*
X2718968Y3616998D1*
X2710995Y3613696D1*
X2702603Y3611681D1*
X2693477Y3611024D1*
X2569004Y3486724D1*
X2564116Y3483173D1*
X2558733Y3480431D1*
X2552976Y3478561D1*
X2549418Y3475737D1*
X2542437Y3467563D1*
X2534263Y3460582D1*
X2525098Y3454966D1*
X2515168Y3450853D1*
X2504716Y3448343D1*
X2502525Y3448084D1*
X2282480Y3228033D1*
X2282500Y3106815D1*
X2289491Y3113672D1*
X2293109Y3116300D1*
X2297093Y3118331D1*
X2301347Y3119713D1*
X2305764Y3120412D1*
X2340403Y3120500D1*
X2337837Y3127630D1*
X2336229Y3134796D1*
X2335531Y3142107D1*
X2335754Y3149448D1*
X2336896Y3156703D1*
X2338937Y3163758D1*
X2341847Y3170501D1*
X2345578Y3176827D1*
X2350073Y3182635D1*
X2355260Y3187834D1*
X2361057Y3192343D1*
X2363637Y3193996D1*
X2356007Y3199516D1*
X2349516Y3206007D1*
X2344121Y3213434D1*
X2339953Y3221613D1*
X2337116Y3230343D1*
X2335680Y3239410D1*
Y3248590D1*
X2337116Y3257657D1*
X2339953Y3266387D1*
X2344121Y3274566D1*
X2349516Y3281993D1*
X2356007Y3288484D1*
X2363434Y3293879D1*
X2371613Y3298047D1*
X2380343Y3300884D1*
X2389410Y3302320D1*
X2398590D1*
X2407657Y3300884D1*
X2416387Y3298047D1*
X2424566Y3293879D1*
X2431993Y3288484D1*
X2438484Y3281993D1*
X2443993Y3274363D1*
X2449516Y3281993D1*
X2456007Y3288484D1*
X2463434Y3293879D1*
X2471613Y3298047D1*
X2480343Y3300884D1*
X2489410Y3302320D1*
X2498590D1*
X2507657Y3300884D1*
X2509919Y3300246D1*
X2523491Y3313672D1*
X2527109Y3316300D1*
X2531093Y3318331D1*
X2535347Y3319713D1*
X2539773Y3320413D1*
X2540331Y3320722D1*
X2537837Y3327630D1*
X2536229Y3334796D1*
X2535531Y3342107D1*
X2535754Y3349448D1*
X2536896Y3356703D1*
X2538937Y3363758D1*
X2541847Y3370501D1*
X2545578Y3376827D1*
X2550073Y3382635D1*
X2555260Y3387834D1*
X2561057Y3392343D1*
X2567374Y3396089D1*
X2574110Y3399015D1*
X2581160Y3401074D1*
X2588413Y3402233D1*
X2595753Y3402474D1*
X2603065Y3401793D1*
X2610235Y3400202D1*
X2617149Y3397725D1*
X2623698Y3394401D1*
X2629779Y3390283D1*
X2635296Y3385435D1*
X2640162Y3379934D1*
X2644301Y3373867D1*
X2647647Y3367329D1*
X2650147Y3360424D1*
X2651763Y3353260D1*
X2652468Y3345949D1*
X2652241Y3338496D1*
X2651092Y3331242D1*
X2649044Y3324190D1*
X2647570Y3320505D1*
X2783034Y3320500D1*
X2775619Y3329358D1*
X2771932Y3334876D1*
X2768689Y3340666D1*
X2765910Y3346694D1*
X2763613Y3352920D1*
X2761812Y3359308D1*
X2760517Y3365817D1*
X2759737Y3372408D1*
X2759476Y3379039D1*
X2759737Y3385671D1*
X2760517Y3392262D1*
X2761812Y3398771D1*
X2763613Y3405159D1*
X2765910Y3411385D1*
X2768689Y3417412D1*
X2771932Y3423203D1*
X2775619Y3428721D1*
X2779728Y3433933D1*
X2784233Y3438807D1*
X2789106Y3443312D1*
X2794318Y3447420D1*
X2799837Y3451108D1*
X2805627Y3454350D1*
X2811654Y3457129D1*
X2817881Y3459426D1*
X2824268Y3461228D1*
X2830778Y3462522D1*
X2837368Y3463302D1*
X2844000Y3463563D1*
X2850632Y3463302D1*
X2857222Y3462522D1*
X2863732Y3461228D1*
X2870119Y3459426D1*
X2876346Y3457129D1*
X2882373Y3454350D1*
X2888163Y3451108D1*
X2893682Y3447420D1*
X2898894Y3443312D1*
X2903767Y3438807D1*
X2908272Y3433933D1*
X2912381Y3428721D1*
X2916068Y3423203D1*
X2919311Y3417412D1*
X2922090Y3411385D1*
X2924387Y3405159D1*
X2926188Y3398771D1*
X2927483Y3392262D1*
X2928263Y3385671D1*
X2928524Y3379039D1*
X2928263Y3372408D1*
X2927483Y3365817D1*
X2926188Y3359308D1*
X2924387Y3352920D1*
X2922090Y3346694D1*
X2919311Y3340666D1*
X2916068Y3334876D1*
X2912381Y3329358D1*
X2904911Y3320510D1*
X3030204Y3320500D1*
X3037706Y3328011D1*
X3036220Y3334849D1*
X3035500Y3344000D1*
X3036220Y3353151D1*
X3038363Y3362077D1*
X3041876Y3370558D1*
X3046673Y3378385D1*
X3052634Y3385366D1*
X3059615Y3391327D1*
X3067442Y3396124D1*
X3075923Y3399637D1*
X3084849Y3401780D1*
X3094000Y3402500D1*
X3095237Y3402451D1*
X2947097Y3550598D1*
X2940587Y3550634D1*
X2933845Y3551702D1*
X2927353Y3553811D1*
X2921271Y3556910D1*
X2915749Y3560922D1*
X2910922Y3565749D1*
X2906910Y3571271D1*
X2903811Y3577353D1*
X2901702Y3583845D1*
X2900634Y3590587D1*
Y3597413D1*
X2901702Y3604155D1*
X2903811Y3610647D1*
X2906910Y3616729D1*
X2910922Y3622251D1*
X2915749Y3627078D1*
X2921271Y3631090D1*
X2927353Y3634189D1*
X2933845Y3636298D1*
X2939010Y3637179D1*
X2939004Y3720996D1*
X2944064D1*
X2941492Y3727644D1*
X2939781Y3734785D1*
X2939037Y3742091D1*
X2939273Y3749431D1*
X2940484Y3756674D1*
X2942650Y3763691D1*
X2945731Y3770357D1*
X2949673Y3776553D1*
X2954405Y3782169D1*
X2959844Y3787104D1*
X2965891Y3791270D1*
X2972439Y3794594D1*
X2979372Y3797015D1*
X2986566Y3798491D1*
X2993892Y3798996D1*
X3001220Y3798520D1*
X3008420Y3797072D1*
X3015362Y3794678D1*
X3021924Y3791380D1*
X3027987Y3787237D1*
X3033445Y3782323D1*
X3038199Y3776726D1*
X3042165Y3770546D1*
X3045273Y3763892D1*
X3047466Y3756884D1*
X3048706Y3749645D1*
X3048965Y3742163D1*
X3048231Y3734856D1*
X3046529Y3727713D1*
X3043952Y3720997D1*
X3048996Y3720996D1*
Y3665483D1*
X3147814Y3566633D1*
X3153737Y3571418D1*
X3162902Y3577034D1*
X3172832Y3581147D1*
X3183284Y3583657D1*
X3194000Y3584500D1*
X3204716Y3583657D1*
X3215168Y3581147D1*
X3225098Y3577034D1*
X3234263Y3571418D1*
X3242437Y3564437D1*
X3249418Y3556263D1*
X3255034Y3547098D1*
X3259147Y3537168D1*
X3261657Y3526716D1*
X3262500Y3516000D1*
X3261657Y3505284D1*
X3259147Y3494832D1*
X3255834Y3486638D1*
X3262373Y3482500D1*
X3275470D1*
X3275500Y3584500D1*
X3305535D1*
X3305500Y3750073D1*
X3206831Y3848722D1*
X3199374Y3847711D1*
X3188626D1*
X3178009Y3849393D1*
X3167786Y3852714D1*
X3158209Y3857594D1*
X3149513Y3863912D1*
X3141912Y3871513D1*
X3135594Y3880209D1*
X3130714Y3889786D1*
X3127393Y3900009D1*
X3125711Y3910626D1*
Y3921374D1*
X3127393Y3931991D1*
X3130714Y3942214D1*
X3135594Y3951791D1*
X3137832Y3955500D1*
X2990979Y3955619D1*
X2985012Y3956564D1*
X2979267Y3958431D1*
X2973884Y3961173D1*
X2968996Y3964724D1*
X2934298Y3999255D1*
X2897937Y4035616D1*
X2889410Y4035680D1*
X2880343Y4037116D1*
X2871613Y4039953D1*
X2863434Y4044121D1*
X2856007Y4049516D1*
X2849516Y4056007D1*
X2844007Y4063637D1*
X2840231Y4058154D1*
X2835376Y4052644D1*
X2829868Y4047786D1*
X2823795Y4043656D1*
X2817252Y4040320D1*
X2810343Y4037829D1*
X2803176Y4036224D1*
X2795865Y4035530D1*
X2788524Y4035757D1*
X2781270Y4036902D1*
X2774216Y4038947D1*
X2767474Y4041860D1*
X2761150Y4045594D1*
X2755344Y4050091D1*
X2750147Y4055281D1*
X2745641Y4061081D1*
X2744004Y4063637D1*
X2740231Y4058154D1*
X2735376Y4052644D1*
X2729868Y4047786D1*
X2723795Y4043656D1*
X2717252Y4040320D1*
X2710343Y4037829D1*
X2703176Y4036224D1*
X2695865Y4035530D1*
X2688524Y4035757D1*
X2681270Y4036902D1*
X2674216Y4038947D1*
X2667474Y4041860D1*
X2661150Y4045594D1*
X2655344Y4050091D1*
X2650147Y4055281D1*
X2645641Y4061081D1*
X2644004Y4063637D1*
X2640231Y4058154D1*
X2635376Y4052644D1*
X2629868Y4047786D1*
X2623795Y4043656D1*
X2617252Y4040320D1*
X2610343Y4037829D1*
X2603176Y4036224D1*
X2595865Y4035530D1*
X2588524Y4035757D1*
X2581270Y4036902D1*
X2574216Y4038947D1*
X2567474Y4041860D1*
X2561150Y4045594D1*
X2555344Y4050091D1*
X2550147Y4055281D1*
X2545641Y4061081D1*
X2544004Y4063637D1*
X2538484Y4056007D1*
X2531993Y4049516D1*
X2526550Y4045446D1*
X2523276Y4040996D1*
X2488745Y4006298D1*
X2454211Y3971764D1*
X2462902Y3977034D1*
X2472832Y3981147D1*
X2483284Y3983657D1*
X2494000Y3984500D1*
X2504716Y3983657D1*
X2515168Y3981147D1*
X2525098Y3977034D1*
X2534263Y3971418D1*
X2542437Y3964437D1*
X2549418Y3956263D1*
X2555034Y3947098D1*
X2559147Y3937168D1*
X2561657Y3926716D1*
X2562500Y3916000D1*
X2561657Y3905284D1*
X2559147Y3894832D1*
X2555034Y3884902D1*
X2549418Y3875737D1*
X2542437Y3867563D1*
X2534263Y3860582D1*
X2525098Y3854966D1*
X2515168Y3850853D1*
X2504716Y3848343D1*
X2494000Y3847500D1*
X2483284Y3848343D1*
X2481203Y3848757D1*
X2382504Y3750057D1*
X2382500Y3572692D1*
X2388487Y3568088D1*
X2396088Y3560487D1*
X2402406Y3551791D1*
X2407286Y3542214D1*
X2410607Y3531991D1*
X2412289Y3521374D1*
Y3510626D1*
X2410607Y3500009D1*
X2407286Y3489786D1*
X2402406Y3480209D1*
X2396088Y3471513D1*
X2388487Y3463912D1*
X2379791Y3457594D1*
X2370214Y3452714D1*
X2359991Y3449393D1*
X2349374Y3447711D1*
X2338626D1*
X2328009Y3449393D1*
X2317786Y3452714D1*
X2308209Y3457594D1*
X2299513Y3463912D1*
X2291912Y3471513D1*
X2285594Y3480209D1*
X2280714Y3489786D1*
X2277393Y3500009D1*
X2275711Y3510626D1*
Y3521374D1*
X2277393Y3531991D1*
X2280714Y3542214D1*
X2285594Y3551791D1*
X2291912Y3560487D1*
X2299513Y3568088D1*
X2305501Y3572597D1*
X2305619Y3769021D1*
X2306564Y3774988D1*
X2308431Y3780733D1*
X2311173Y3786116D1*
X2314724Y3791004D1*
X2349255Y3825702D1*
X2371051Y3847499D1*
X2275500Y3847500D1*
Y3984500D1*
X2358070D1*
X2441591Y4068038D1*
X2438363Y4075923D1*
X2436220Y4084849D1*
X2435500Y4094000D1*
X2436220Y4103151D1*
X2438363Y4112077D1*
X2441876Y4120558D1*
X2446673Y4128385D1*
X2452779Y4135500D1*
X2435500D1*
Y4252500D1*
X2552500D1*
X2552585Y4235316D1*
X2558088Y4240180D1*
X2564157Y4244315D1*
X2570696Y4247658D1*
X2577603Y4250155D1*
X2584768Y4251767D1*
X2592079Y4252468D1*
X2599420Y4252248D1*
X2606675Y4251110D1*
X2613731Y4249072D1*
X2620476Y4246166D1*
X2626803Y4242437D1*
X2632614Y4237946D1*
X2637816Y4232761D1*
X2642327Y4226966D1*
X2643996Y4224362D1*
X2647734Y4229801D1*
X2652585Y4235316D1*
X2658088Y4240180D1*
X2664157Y4244315D1*
X2670696Y4247658D1*
X2677603Y4250155D1*
X2684768Y4251767D1*
X2692079Y4252468D1*
X2699420Y4252248D1*
X2706675Y4251110D1*
X2713731Y4249072D1*
X2720476Y4246166D1*
X2726803Y4242437D1*
X2732614Y4237946D1*
X2737816Y4232761D1*
X2742327Y4226966D1*
X2743996Y4224362D1*
X2747734Y4229801D1*
X2752585Y4235316D1*
X2758088Y4240180D1*
X2764157Y4244315D1*
X2770696Y4247658D1*
X2777603Y4250155D1*
X2784768Y4251767D1*
X2792079Y4252468D1*
X2799420Y4252248D1*
X2806675Y4251110D1*
X2813731Y4249072D1*
X2820476Y4246166D1*
X2826803Y4242437D1*
X2832614Y4237946D1*
X2837816Y4232761D1*
X2842327Y4226966D1*
X2843996Y4224362D1*
X2849516Y4231993D1*
X2856007Y4238484D1*
X2863434Y4243879D1*
X2871613Y4248047D1*
X2880343Y4250884D1*
X2889410Y4252320D1*
X2898590D1*
X2907657Y4250884D1*
X2916387Y4248047D1*
X2924566Y4243879D1*
X2931993Y4238484D1*
X2938484Y4231993D1*
X2943993Y4224363D1*
X2949516Y4231993D1*
X2956007Y4238484D1*
X2963434Y4243879D1*
X2971613Y4248047D1*
X2980343Y4250884D1*
X2989410Y4252320D1*
X2998590D1*
X3007657Y4250884D1*
X3016387Y4248047D1*
X3024566Y4243879D1*
X3031993Y4238484D1*
X3038484Y4231993D1*
X3043993Y4224363D1*
X3049516Y4231993D1*
X3056007Y4238484D1*
X3063434Y4243879D1*
X3071613Y4248047D1*
X3080343Y4250884D1*
X3089410Y4252320D1*
X3098590D1*
X3107657Y4250884D1*
X3116387Y4248047D1*
X3124566Y4243879D1*
X3131993Y4238484D1*
X3138484Y4231993D1*
X3143993Y4224363D1*
X3149516Y4231993D1*
X3156007Y4238484D1*
X3163434Y4243879D1*
X3171613Y4248047D1*
X3180343Y4250884D1*
X3189410Y4252320D1*
X3198590D1*
X3207657Y4250884D1*
X3216387Y4248047D1*
X3224566Y4243879D1*
X3231993Y4238484D1*
X3238484Y4231993D1*
X3243879Y4224566D1*
X3248047Y4216387D1*
X3250884Y4207657D1*
X3252320Y4198590D1*
Y4189410D1*
X3250884Y4180343D1*
X3248047Y4171613D1*
X3243879Y4163434D1*
X3238484Y4156007D1*
X3231993Y4149516D1*
X3224363Y4144007D1*
X3231993Y4138484D1*
X3238484Y4131993D1*
X3243879Y4124566D1*
X3248047Y4116387D1*
X3250884Y4107657D1*
X3252320Y4098590D1*
Y4089410D1*
X3250884Y4080343D1*
X3248047Y4071613D1*
X3243879Y4063434D1*
X3238484Y4056007D1*
X3231993Y4049516D1*
X3224566Y4044121D1*
X3216387Y4039953D1*
X3207657Y4037116D1*
X3198590Y4035680D1*
X3189410D1*
X3180343Y4037116D1*
X3171613Y4039953D1*
X3163434Y4044121D1*
X3156007Y4049516D1*
X3149516Y4056007D1*
X3144007Y4063637D1*
X3138484Y4056007D1*
X3131993Y4049516D1*
X3124566Y4044121D1*
X3116387Y4039953D1*
X3107657Y4037116D1*
X3098590Y4035680D1*
X3089410D1*
X3080343Y4037116D1*
X3071613Y4039953D1*
X3063434Y4044121D1*
X3056007Y4049516D1*
X3049516Y4056007D1*
X3044007Y4063637D1*
X3038484Y4056007D1*
X3031993Y4049516D1*
X3024566Y4044121D1*
X3016387Y4039953D1*
X3007657Y4037116D1*
X3005703Y4036728D1*
X3012373Y4032500D1*
X3297021Y4032381D1*
X3302988Y4031436D1*
X3308733Y4029569D1*
X3314116Y4026827D1*
X3319004Y4023276D1*
X3353702Y3988745D1*
X3359991Y3982607D1*
X3370214Y3979286D1*
X3379791Y3974406D1*
X3388487Y3968088D1*
X3396088Y3960487D1*
X3402406Y3951791D1*
X3407286Y3942214D1*
X3410607Y3931991D1*
X3412289Y3921374D1*
Y3910626D1*
X3410607Y3900009D1*
X3407286Y3889786D1*
X3402406Y3880209D1*
X3396088Y3871513D1*
X3388487Y3863912D1*
X3379791Y3857594D1*
X3370214Y3852714D1*
X3359991Y3849393D1*
X3349374Y3847711D1*
X3338626D1*
X3328009Y3849393D1*
X3317786Y3852714D1*
X3308209Y3857594D1*
X3304139Y3860314D1*
X3373276Y3791004D1*
X3376827Y3786116D1*
X3379570Y3780733D1*
X3381436Y3774988D1*
X3382381Y3769021D1*
X3382500Y3720068D1*
Y3584534D1*
X3412500Y3584500D1*
Y3482481D1*
X3547021Y3482381D1*
X3552988Y3481436D1*
X3558733Y3479569D1*
X3564116Y3476827D1*
X3569004Y3473276D1*
X3603702Y3438745D1*
X3723276Y3319004D1*
X3726827Y3314116D1*
X3729569Y3308733D1*
X3731436Y3302988D1*
X3732381Y3297021D1*
X3732500Y3248068D1*
X3732381Y1540979D1*
X3731436Y1535012D1*
X3729569Y1529267D1*
X3726827Y1523884D1*
X3723276Y1518996D1*
X3688745Y1484298D1*
X3619004Y1414724D1*
X3614116Y1411173D1*
X3608733Y1408431D1*
X3602988Y1406564D1*
X3597021Y1405619D1*
X3548068Y1405500D1*
X3359927D1*
X3351001Y1396553D1*
X3356379Y1395562D1*
X3364293Y1392991D1*
X3371707Y1389213D1*
X3378439Y1384322D1*
X3384322Y1378439D1*
X3389213Y1371707D1*
X3392991Y1364293D1*
X3393976Y1361622D1*
X3396752Y1368074D1*
X3401100Y1375169D1*
X3406504Y1381496D1*
X3412831Y1386900D1*
X3419926Y1391248D1*
X3427614Y1394432D1*
X3435705Y1396375D1*
X3444000Y1397028D1*
X3452295Y1396375D1*
X3460386Y1394432D1*
X3468074Y1391248D1*
X3475169Y1386900D1*
X3481496Y1381496D1*
X3486900Y1375169D1*
X3491248Y1368074D1*
X3493976Y1361622D1*
X3496752Y1368074D1*
X3501100Y1375169D1*
X3506504Y1381496D1*
X3512831Y1386900D1*
X3519926Y1391248D1*
X3527614Y1394432D1*
X3535705Y1396375D1*
X3544000Y1397028D1*
X3552295Y1396375D1*
X3560386Y1394432D1*
X3568074Y1391248D1*
X3575169Y1386900D1*
X3581496Y1381496D1*
X3586900Y1375169D1*
X3591248Y1368074D1*
X3594432Y1360386D1*
X3596375Y1352295D1*
X3597028Y1344000D1*
X3596375Y1335705D1*
X3594432Y1327614D1*
X3591513Y1320502D1*
X3828236Y1320412D1*
X3832653Y1319713D1*
X3836907Y1318331D1*
X3840891Y1316300D1*
X3844509Y1313672D1*
X3865672Y1292509D1*
X3868300Y1288891D1*
X3870331Y1284907D1*
X3871713Y1280653D1*
X3872412Y1276236D1*
X3872500Y1186909D1*
X3878711Y1185281D1*
X3886684Y1181978D1*
X3894042Y1177469D1*
X3900605Y1171864D1*
X3906209Y1165302D1*
X3910718Y1157944D1*
X3914021Y1149971D1*
X3916036Y1141580D1*
X3916713Y1132976D1*
X3916036Y1124373D1*
X3914021Y1115982D1*
X3910718Y1108009D1*
X3906209Y1100651D1*
X3900605Y1094088D1*
X3894042Y1088484D1*
X3886684Y1083975D1*
X3878711Y1080672D1*
X3870320Y1078657D1*
X3861717Y1077980D1*
X3821969Y1078150D1*
X3813445Y1079500D1*
X3805237Y1082167D1*
X3797548Y1086085D1*
X3790566Y1091157D1*
X3784464Y1097259D1*
X3779392Y1104241D1*
X3775474Y1111930D1*
X3772807Y1120138D1*
X3771457Y1128661D1*
Y1137291D1*
X3772807Y1145815D1*
X3775474Y1154022D1*
X3779392Y1161712D1*
X3784464Y1168693D1*
X3790566Y1174796D1*
X3797548Y1179868D1*
X3805237Y1183786D1*
X3813445Y1186453D1*
X3815513Y1186864D1*
X3815500Y1262195D1*
X3807627Y1263500D1*
X3499131D1*
X3500884Y1257657D1*
X3502320Y1248590D1*
Y1239410D1*
X3500884Y1230343D1*
X3498047Y1221613D1*
X3493879Y1213434D1*
X3488484Y1206007D1*
X3481993Y1199516D1*
X3474566Y1194121D1*
X3472515Y1192972D1*
X3472412Y1007764D1*
X3471713Y1003347D1*
X3470331Y999094D1*
X3469389Y997054D1*
X3474566Y993879D1*
X3481993Y988484D1*
X3488484Y981993D1*
X3493879Y974566D1*
X3498047Y966387D1*
X3500884Y957657D1*
X3502320Y948590D1*
Y939410D1*
X3500884Y930343D1*
X3498047Y921613D1*
X3493879Y913434D1*
X3488484Y906007D1*
X3481993Y899516D1*
X3474566Y894121D1*
X3466387Y889953D1*
X3457657Y887116D1*
X3448590Y885680D1*
X3439410D1*
X3430343Y887116D1*
X3421613Y889953D1*
X3413434Y894121D1*
X3406007Y899516D1*
X3399516Y906007D1*
X3394121Y913434D1*
X3392972Y915485D1*
X3095098Y915500D1*
X3091327Y909615D1*
X3085366Y902634D1*
X3078385Y896673D1*
X3070558Y891876D1*
X3062077Y888363D1*
X3053151Y886220D1*
X3044000Y885500D1*
X3034849Y886220D1*
X3025923Y888363D1*
X3020489Y890471D1*
X3020412Y493764D1*
X3019713Y489347D1*
X3018331Y485093D1*
X3016300Y481109D1*
X3013672Y477491D1*
X2992509Y456328D1*
X2988891Y453700D1*
X2984907Y451669D1*
X2980653Y450287D1*
X2976236Y449588D1*
X2882136Y449500D1*
X1307764Y449588D1*
X1303347Y450287D1*
X1299093Y451669D1*
X1295109Y453700D1*
X1291491Y456328D1*
X1259982Y487713D1*
X1253151Y486220D1*
X1244000Y485500D1*
X1234849Y486220D1*
X1225923Y488363D1*
X1217442Y491876D1*
X1209615Y496673D1*
X1202634Y502634D1*
X1196673Y509615D1*
X1194007Y513637D1*
X1188484Y506007D1*
X1181993Y499516D1*
X1174566Y494121D1*
X1166387Y489953D1*
X1157657Y487116D1*
X1148590Y485680D1*
X1139410D1*
X1130343Y487116D1*
X1121613Y489953D1*
X1113434Y494121D1*
X1106007Y499516D1*
X1099516Y506007D1*
X1094121Y513434D1*
X1089953Y521613D1*
X1087116Y530343D1*
X1085680Y539410D1*
Y548590D1*
X1087116Y557657D1*
X1089953Y566387D1*
X1094121Y574566D1*
X1099516Y581993D1*
X1106007Y588484D1*
X1113434Y593879D1*
X1121613Y598047D1*
X1130343Y600884D1*
X1139410Y602320D1*
X1148590D1*
X1157657Y600884D1*
X1166387Y598047D1*
X1174566Y593879D1*
X1181993Y588484D1*
X1188484Y581993D1*
X1193993Y574363D1*
X1199516Y581993D1*
X1206007Y588484D1*
X1213434Y593879D1*
X1221613Y598047D1*
X1230343Y600884D1*
X1239410Y602320D1*
X1248590D1*
X1257657Y600884D1*
X1266387Y598047D1*
X1274566Y593879D1*
X1281993Y588484D1*
X1288484Y581993D1*
X1293993Y574363D1*
X1299516Y581993D1*
X1306007Y588484D1*
X1313434Y593879D1*
X1321613Y598047D1*
X1330343Y600884D1*
X1339410Y602320D1*
X1348590D1*
X1357657Y600884D1*
X1366387Y598047D1*
X1374566Y593879D1*
X1381993Y588484D1*
X1388484Y581993D1*
X1393993Y574363D1*
X1399516Y581993D1*
X1406007Y588484D1*
X1413434Y593879D1*
X1421613Y598047D1*
X1430343Y600884D1*
X1439410Y602320D1*
X1448590D1*
X1457657Y600884D1*
X1466387Y598047D1*
X1474566Y593879D1*
X1481993Y588484D1*
X1488484Y581993D1*
X1493879Y574566D1*
X1495028Y572515D1*
X2362169Y572500D1*
X2363500Y580373D1*
Y888869D1*
X2357657Y887116D1*
X2348590Y885680D1*
X2339410D1*
X2330343Y887116D1*
X2321613Y889953D1*
X2313434Y894121D1*
X2306007Y899516D1*
X2299516Y906007D1*
X2294007Y913637D1*
X2290231Y908154D1*
X2285376Y902644D1*
X2279868Y897786D1*
X2273795Y893656D1*
X2267252Y890320D1*
X2260343Y887829D1*
X2253176Y886224D1*
X2245865Y885530D1*
X2238524Y885757D1*
X2231270Y886902D1*
X2224216Y888947D1*
X2217474Y891860D1*
X2211150Y895594D1*
X2205344Y900091D1*
X2200147Y905281D1*
X2195641Y911081D1*
X2191898Y917399D1*
X2188975Y924137D1*
X2186920Y931188D1*
X2185765Y938440D1*
X2185527Y945781D1*
X2186211Y953093D1*
X2187806Y960262D1*
X2190286Y967175D1*
X2193613Y973722D1*
X2197734Y979801D1*
X2202585Y985316D1*
X2208088Y990180D1*
X2214157Y994315D1*
X2220696Y997658D1*
X2227603Y1000155D1*
X2234768Y1001767D1*
X2242079Y1002468D1*
X2249420Y1002248D1*
X2256675Y1001110D1*
X2263731Y999072D1*
X2270476Y996166D1*
X2276803Y992437D1*
X2282614Y987946D1*
X2287816Y982761D1*
X2292327Y976966D1*
X2293996Y974362D1*
X2299516Y981993D1*
X2306007Y988484D1*
X2313434Y993879D1*
X2321613Y998047D1*
X2330343Y1000884D1*
X2339410Y1002320D1*
X2348590D1*
X2357657Y1000884D1*
X2363508Y999109D1*
X2363500Y1188861D1*
X2357657Y1187116D1*
X2348590Y1185680D1*
X2339410D1*
X2330343Y1187116D1*
X2321613Y1189953D1*
X2313434Y1194121D1*
X2306007Y1199516D1*
X2299516Y1206007D1*
X2294007Y1213637D1*
X2288484Y1206007D1*
X2281993Y1199516D1*
X2274566Y1194121D1*
X2272515Y1192972D1*
X2272412Y1159764D1*
X2271713Y1155347D1*
X2270331Y1151094D1*
X2268300Y1147109D1*
X2265672Y1143491D1*
X2244509Y1122328D1*
X2240891Y1119700D1*
X2236907Y1117669D1*
X2232653Y1116287D1*
X2228236Y1115588D1*
X2195104Y1115500D1*
X2191327Y1109615D1*
X2185366Y1102634D1*
X2178385Y1096673D1*
X2174363Y1094007D1*
X2181993Y1088484D1*
X2188484Y1081993D1*
X2193879Y1074566D1*
X2198047Y1066387D1*
X2200884Y1057657D1*
X2202320Y1048590D1*
Y1039410D1*
X695028Y2615485D2*
X691327Y2609615D1*
X685366Y2602634D1*
X678385Y2596673D1*
X670558Y2591876D1*
X662077Y2588363D1*
X653151Y2586220D1*
X644000Y2585500D1*
X634849Y2586220D1*
X625923Y2588363D1*
X617442Y2591876D1*
X609615Y2596673D1*
X606500Y2599127D1*
Y2088869D1*
X613434Y2093879D1*
X621613Y2098047D1*
X630343Y2100884D1*
X639410Y2102320D1*
X648590D1*
X657657Y2100884D1*
X666387Y2098047D1*
X674566Y2093879D1*
X681993Y2088484D1*
X688484Y2081993D1*
X693993Y2074363D1*
X699516Y2081993D1*
X706007Y2088484D1*
X709178Y2090983D1*
X690973Y2090972D1*
Y2197027D1*
X797028D1*
Y2168643D1*
X801100Y2175169D1*
X806504Y2181496D1*
X812831Y2186900D1*
X819926Y2191248D1*
X827614Y2194432D1*
X835705Y2196375D1*
X844000Y2197028D1*
X852295Y2196375D1*
X860386Y2194432D1*
X868074Y2191248D1*
X875169Y2186900D1*
X881496Y2181496D1*
X886900Y2175169D1*
X891248Y2168074D1*
X893976Y2161622D1*
X896752Y2168074D1*
X901100Y2175169D1*
X906504Y2181496D1*
X912831Y2186900D1*
X919926Y2191248D1*
X927614Y2194432D1*
X935705Y2196375D1*
X944000Y2197028D1*
X952295Y2196375D1*
X960386Y2194432D1*
X968074Y2191248D1*
X975169Y2186900D1*
X981496Y2181496D1*
X986900Y2175169D1*
X991248Y2168074D1*
X993976Y2161622D1*
X996752Y2168074D1*
X1001100Y2175169D1*
X1006504Y2181496D1*
X1012831Y2186900D1*
X1019926Y2191248D1*
X1027614Y2194432D1*
X1035705Y2196375D1*
X1044000Y2197028D1*
X1052295Y2196375D1*
X1060386Y2194432D1*
X1068074Y2191248D1*
X1075169Y2186900D1*
X1081496Y2181496D1*
X1086900Y2175169D1*
X1091248Y2168074D1*
X1093976Y2161622D1*
X1096752Y2168074D1*
X1101100Y2175169D1*
X1106504Y2181496D1*
X1112831Y2186900D1*
X1119926Y2191248D1*
X1127614Y2194432D1*
X1135705Y2196375D1*
X1144000Y2197028D1*
X1152295Y2196375D1*
X1160386Y2194432D1*
X1168074Y2191248D1*
X1175169Y2186900D1*
X1181496Y2181496D1*
X1186900Y2175169D1*
X1191248Y2168074D1*
X1193976Y2161622D1*
X1196752Y2168074D1*
X1201100Y2175169D1*
X1206504Y2181496D1*
X1212831Y2186900D1*
X1219926Y2191248D1*
X1227614Y2194432D1*
X1235705Y2196375D1*
X1244000Y2197028D1*
X1252295Y2196375D1*
X1260386Y2194432D1*
X1268074Y2191248D1*
X1275169Y2186900D1*
X1281496Y2181496D1*
X1286900Y2175169D1*
X1291248Y2168074D1*
X1293976Y2161622D1*
X1296752Y2168074D1*
X1301100Y2175169D1*
X1306504Y2181496D1*
X1312831Y2186900D1*
X1319926Y2191248D1*
X1327614Y2194432D1*
X1335705Y2196375D1*
X1344000Y2197028D1*
X1352295Y2196375D1*
X1360386Y2194432D1*
X1368074Y2191248D1*
X1375169Y2186900D1*
X1381496Y2181496D1*
X1386900Y2175169D1*
X1391248Y2168074D1*
X1394432Y2160386D1*
X1396375Y2152295D1*
X1397028Y2144000D1*
X1396375Y2135705D1*
X1394432Y2127614D1*
X1391248Y2119926D1*
X1386900Y2112831D1*
X1381496Y2106504D1*
X1375169Y2101100D1*
X1368627Y2097062D1*
X1374566Y2093879D1*
X1381993Y2088484D1*
X1388484Y2081993D1*
X1393993Y2074363D1*
X1399516Y2081993D1*
X1406007Y2088484D1*
X1413434Y2093879D1*
X1421613Y2098047D1*
X1430343Y2100884D1*
X1439410Y2102320D1*
X1448590D1*
X1457657Y2100884D1*
X1466387Y2098047D1*
X1474566Y2093879D1*
X1481993Y2088484D1*
X1488484Y2081993D1*
X1493879Y2074566D1*
X1498047Y2066387D1*
X1500884Y2057657D1*
X1502320Y2048590D1*
Y2039410D1*
X1500884Y2030343D1*
X1498047Y2021613D1*
X1493879Y2013434D1*
X1488484Y2006007D1*
X1481993Y1999516D1*
X1474566Y1994121D1*
X1466387Y1989953D1*
X1457657Y1987116D1*
X1448590Y1985680D1*
X1439410D1*
X1430343Y1987116D1*
X1428081Y1987754D1*
X1420484Y1980179D1*
X1420500Y1797564D1*
X1427603Y1800155D1*
X1434768Y1801767D1*
X1442079Y1802468D1*
X1449420Y1802248D1*
X1456675Y1801110D1*
X1463731Y1799072D1*
X1470476Y1796166D1*
X1476803Y1792437D1*
X1482614Y1787946D1*
X1487816Y1782761D1*
X1492327Y1776966D1*
X1496077Y1770651D1*
X1499005Y1763916D1*
X1501067Y1756867D1*
X1502230Y1749615D1*
X1502471Y1742163D1*
X1501780Y1734851D1*
X1500179Y1727684D1*
X1497692Y1720774D1*
X1494358Y1714229D1*
X1490231Y1708154D1*
X1485376Y1702644D1*
X1479868Y1697786D1*
X1474364Y1694005D1*
X1481993Y1688484D1*
X1488484Y1681993D1*
X1493879Y1674566D1*
X1498047Y1666387D1*
X1500884Y1657657D1*
X1502320Y1648590D1*
Y1639410D1*
X1500884Y1630343D1*
X1498047Y1621613D1*
X1493879Y1613434D1*
X1488484Y1606007D1*
X1481993Y1599516D1*
X1474566Y1594121D1*
X1466387Y1589953D1*
X1457657Y1587116D1*
X1448590Y1585680D1*
X1439410D1*
X1430343Y1587116D1*
X1421613Y1589953D1*
X1420489Y1590471D1*
X1420500Y1538791D1*
X1428373Y1537461D1*
X1759476D1*
X1759477Y1593484D1*
X1923503D1*
X1923500Y1665260D1*
X1919311Y1655627D1*
X1916068Y1649837D1*
X1912381Y1644318D1*
X1908272Y1639106D1*
X1903767Y1634233D1*
X1898894Y1629728D1*
X1893682Y1625619D1*
X1888163Y1621932D1*
X1882373Y1618689D1*
X1876346Y1615910D1*
X1870119Y1613613D1*
X1863732Y1611812D1*
X1857222Y1610517D1*
X1850632Y1609737D1*
X1844000Y1609476D1*
X1837368Y1609737D1*
X1830778Y1610517D1*
X1824268Y1611812D1*
X1817881Y1613613D1*
X1811654Y1615910D1*
X1805627Y1618689D1*
X1799837Y1621932D1*
X1794318Y1625619D1*
X1789106Y1629728D1*
X1784233Y1634233D1*
X1779728Y1639106D1*
X1775619Y1644318D1*
X1771932Y1649837D1*
X1768689Y1655627D1*
X1765910Y1661654D1*
X1763613Y1667881D1*
X1761812Y1674268D1*
X1760517Y1680778D1*
X1759737Y1687368D1*
X1759476Y1694000D1*
X1759737Y1700632D1*
X1760517Y1707222D1*
X1761812Y1713732D1*
X1763613Y1720119D1*
X1765910Y1726346D1*
X1768689Y1732373D1*
X1771932Y1738163D1*
X1775619Y1743682D1*
X1779728Y1748894D1*
X1784233Y1753767D1*
X1789106Y1758272D1*
X1794318Y1762381D1*
X1799837Y1766068D1*
X1805627Y1769311D1*
X1811654Y1772090D1*
X1817881Y1774387D1*
X1824268Y1776188D1*
X1830778Y1777483D1*
X1837368Y1778263D1*
X1844000Y1778524D1*
X1850632Y1778263D1*
X1857222Y1777483D1*
X1863732Y1776188D1*
X1870119Y1774387D1*
X1876346Y1772090D1*
X1882373Y1769311D1*
X1888163Y1766068D1*
X1893682Y1762381D1*
X1898894Y1758272D1*
X1903767Y1753767D1*
X1908272Y1748894D1*
X1912381Y1743682D1*
X1916068Y1738163D1*
X1919311Y1732373D1*
X1923498Y1722527D1*
X1923500Y1850350D1*
X1919311Y1840666D1*
X1916068Y1834876D1*
X1912381Y1829358D1*
X1908272Y1824146D1*
X1903767Y1819272D1*
X1898894Y1814767D1*
X1893682Y1810658D1*
X1888163Y1806971D1*
X1882373Y1803728D1*
X1876346Y1800950D1*
X1870119Y1798653D1*
X1863732Y1796851D1*
X1857222Y1795556D1*
X1850632Y1794776D1*
X1844000Y1794516D1*
X1837368Y1794776D1*
X1830778Y1795556D1*
X1824268Y1796851D1*
X1817881Y1798653D1*
X1811654Y1800950D1*
X1805627Y1803728D1*
X1799837Y1806971D1*
X1794318Y1810658D1*
X1789106Y1814767D1*
X1784233Y1819272D1*
X1779728Y1824146D1*
X1775619Y1829358D1*
X1771932Y1834876D1*
X1768689Y1840666D1*
X1765910Y1846694D1*
X1763613Y1852920D1*
X1761812Y1859308D1*
X1760517Y1865817D1*
X1759737Y1872408D1*
X1759476Y1879039D1*
X1759737Y1885671D1*
X1760517Y1892262D1*
X1761812Y1898771D1*
X1763613Y1905159D1*
X1765910Y1911385D1*
X1768689Y1917412D1*
X1771932Y1923203D1*
X1775619Y1928721D1*
X1779728Y1933933D1*
X1784233Y1938807D1*
X1789106Y1943312D1*
X1794318Y1947420D1*
X1799837Y1951108D1*
X1805627Y1954350D1*
X1811654Y1957129D1*
X1817881Y1959426D1*
X1824268Y1961228D1*
X1830778Y1962522D1*
X1837368Y1963302D1*
X1844000Y1963563D1*
X1850632Y1963302D1*
X1857222Y1962522D1*
X1863732Y1961228D1*
X1870119Y1959426D1*
X1876346Y1957129D1*
X1882373Y1954350D1*
X1888163Y1951108D1*
X1893682Y1947420D1*
X1898894Y1943312D1*
X1903767Y1938807D1*
X1908272Y1933933D1*
X1912381Y1928721D1*
X1916068Y1923203D1*
X1919311Y1917412D1*
X1923498Y1907567D1*
X1923500Y2203379D1*
X1919040Y2207854D1*
X1914186Y2202554D1*
X1909426Y2198154D1*
X1904336Y2194141D1*
X1898946Y2190539D1*
X1893290Y2187372D1*
X1887403Y2184658D1*
X1881322Y2182415D1*
X1875083Y2180655D1*
X1868725Y2179390D1*
X1862288Y2178629D1*
X1846625Y2178374D1*
X1832189D1*
X1825712Y2178629D1*
X1819275Y2179390D1*
X1812917Y2180655D1*
X1806678Y2182415D1*
X1800597Y2184658D1*
X1794710Y2187372D1*
X1789054Y2190539D1*
X1783664Y2194141D1*
X1778574Y2198154D1*
X1773814Y2202554D1*
X1769414Y2207314D1*
X1765400Y2212404D1*
X1761799Y2217794D1*
X1758632Y2223450D1*
X1755918Y2229337D1*
X1753674Y2235418D1*
X1751915Y2241657D1*
X1750650Y2248015D1*
X1749888Y2254452D1*
X1749634Y2260929D1*
X1749888Y2267406D1*
X1750650Y2273844D1*
X1751915Y2280201D1*
X1753674Y2286440D1*
X1755918Y2292522D1*
X1758632Y2298408D1*
X1761799Y2304064D1*
X1765400Y2309454D1*
X1769414Y2314544D1*
X1773814Y2319304D1*
X1778574Y2323705D1*
X1783664Y2327718D1*
X1789054Y2331319D1*
X1794710Y2334486D1*
X1800597Y2337200D1*
X1806678Y2339444D1*
X1812917Y2341203D1*
X1819275Y2342468D1*
X1825712Y2343230D1*
X1841376Y2343484D1*
X1862288Y2343230D1*
X1868725Y2342468D1*
X1875083Y2341203D1*
X1881322Y2339444D1*
X1887403Y2337200D1*
X1893290Y2334486D1*
X1898946Y2331319D1*
X1904336Y2327718D1*
X1909426Y2323705D1*
X1914186Y2319304D1*
X1918586Y2314544D1*
X1922600Y2309454D1*
X1926201Y2304064D1*
X1929368Y2298408D1*
X1932082Y2292522D1*
X1934326Y2286440D1*
X1936732Y2276948D1*
X1941845Y2278530D1*
X1948587Y2279598D1*
X1955413D1*
X1962155Y2278530D1*
X1968647Y2276421D1*
X1974729Y2273322D1*
X1980251Y2269310D1*
X1985078Y2264483D1*
X1989090Y2258961D1*
X1992189Y2252879D1*
X1994298Y2246387D1*
X1995366Y2239645D1*
Y2232819D1*
X1994298Y2226077D1*
X1992189Y2219586D1*
X1989090Y2213504D1*
X1985078Y2207981D1*
X1980496Y2203381D1*
X1980412Y1449764D1*
X1979713Y1445347D1*
X1978331Y1441093D1*
X1976300Y1437109D1*
X1973672Y1433491D1*
X1907195Y1366890D1*
X1536862Y996557D1*
X1542521Y996969D1*
X2118996Y1573276D1*
X2123884Y1576827D1*
X2129267Y1579569D1*
X2135012Y1581436D1*
X2140979Y1582381D1*
X2189932Y1582500D1*
X2328050D1*
X2336999Y1591447D1*
X2331621Y1592438D1*
X2323707Y1595009D1*
X2316293Y1598787D1*
X2309561Y1603678D1*
X2303678Y1609561D1*
X2298787Y1616293D1*
X2295009Y1623707D1*
X2294024Y1626378D1*
X2291248Y1619926D1*
X2286900Y1612831D1*
X2281496Y1606504D1*
X2275169Y1601100D1*
X2268074Y1596752D1*
X2260386Y1593568D1*
X2252295Y1591625D1*
X2244000Y1590972D1*
X2235705Y1591625D1*
X2227614Y1593568D1*
X2219926Y1596752D1*
X2212831Y1601100D1*
X2206504Y1606504D1*
X2201100Y1612831D1*
X2196752Y1619926D1*
X2194024Y1626378D1*
X2191248Y1619926D1*
X2186900Y1612831D1*
X2181496Y1606504D1*
X2175169Y1601100D1*
X2168074Y1596752D1*
X2160386Y1593568D1*
X2152295Y1591625D1*
X2144000Y1590972D1*
X2135705Y1591625D1*
X2127614Y1593568D1*
X2119926Y1596752D1*
X2112831Y1601100D1*
X2106504Y1606504D1*
X2101100Y1612831D1*
X2096752Y1619926D1*
X2093568Y1627614D1*
X2091625Y1635705D1*
X2090972Y1644000D1*
X2091625Y1652295D1*
X2093568Y1660386D1*
X2096752Y1668074D1*
X2101100Y1675169D1*
X2106504Y1681496D1*
X2112831Y1686900D1*
X2119373Y1690938D1*
X2113434Y1694121D1*
X2106007Y1699516D1*
X2099516Y1706007D1*
X2094121Y1713434D1*
X2089953Y1721613D1*
X2087116Y1730343D1*
X2085680Y1739410D1*
Y1748590D1*
X2087116Y1757657D1*
X2089953Y1766387D1*
X2094121Y1774566D1*
X2099516Y1781993D1*
X2106007Y1788484D1*
X2113434Y1793879D1*
X2121613Y1798047D1*
X2130343Y1800884D1*
X2139410Y1802320D1*
X2148590D1*
X2157657Y1800884D1*
X2166387Y1798047D1*
X2174566Y1793879D1*
X2181993Y1788484D1*
X2188484Y1781993D1*
X2193993Y1774363D1*
X2199516Y1781993D1*
X2206007Y1788484D1*
X2213434Y1793879D1*
X2221613Y1798047D1*
X2230343Y1800884D1*
X2239410Y1802320D1*
X2248590D1*
X2257657Y1800884D1*
X2266387Y1798047D1*
X2274566Y1793879D1*
X2281993Y1788484D1*
X2288484Y1781993D1*
X2293993Y1774363D1*
X2299516Y1781993D1*
X2306007Y1788484D1*
X2313434Y1793879D1*
X2321613Y1798047D1*
X2330343Y1800884D1*
X2339410Y1802320D1*
X2348590D1*
X2357657Y1800884D1*
X2366387Y1798047D1*
X2374566Y1793879D1*
X2381993Y1788484D1*
X2388484Y1781993D1*
X2393879Y1774566D1*
X2398047Y1766387D1*
X2400884Y1757657D1*
X2402320Y1748590D1*
Y1739410D1*
X2400884Y1730343D1*
X2398047Y1721613D1*
X2393879Y1713434D1*
X2388484Y1706007D1*
X2381993Y1699516D1*
X2374566Y1694121D1*
X2368587Y1690967D1*
X2375169Y1686900D1*
X2381496Y1681496D1*
X2386900Y1675169D1*
X2391248Y1668074D1*
X2393976Y1661622D1*
X2396752Y1668074D1*
X2401100Y1675169D1*
X2405499Y1680409D1*
X2405500Y1799989D1*
X2399516Y1806007D1*
X2394121Y1813434D1*
X2389953Y1821613D1*
X2387116Y1830343D1*
X2385680Y1839410D1*
Y1848590D1*
X2387116Y1857657D1*
X2389953Y1866387D1*
X2394121Y1874566D1*
X2399516Y1881993D1*
X2406007Y1888484D1*
X2413637Y1893993D1*
X2408176Y1897752D1*
X2402664Y1902604D1*
X2397803Y1908110D1*
X2393670Y1914181D1*
X2390331Y1920722D1*
X2387837Y1927630D1*
X2386229Y1934796D1*
X2385531Y1942107D1*
X2385754Y1949448D1*
X2386896Y1956703D1*
X2388937Y1963758D1*
X2391847Y1970501D1*
X2395578Y1976827D1*
X2400073Y1982635D1*
X2405260Y1987834D1*
X2411057Y1992343D1*
X2417374Y1996089D1*
X2424110Y1999015D1*
X2431160Y2001074D1*
X2438413Y2002233D1*
X2445753Y2002474D1*
X2453065Y2001793D1*
X2460235Y2000202D1*
X2467149Y1997725D1*
X2473698Y1994401D1*
X2479779Y1990283D1*
X2485296Y1985435D1*
X2490162Y1979934D1*
X2494301Y1973867D1*
X2497647Y1967329D1*
X2500147Y1960424D1*
X2501301Y1955750D1*
X2505500Y1962373D1*
Y2078027D1*
X2214724Y2368996D1*
X2211173Y2373884D1*
X2208431Y2379267D1*
X2206564Y2385012D1*
X2205619Y2390979D1*
X2205500Y2439932D1*
Y2605466D1*
X2059950Y2605500D1*
X1769004Y2314724D1*
X1764116Y2311173D1*
X1758733Y2308431D1*
X1752988Y2306564D1*
X1747021Y2305619D1*
X1698068Y2305500D1*
X1090979Y2305619D1*
X1085012Y2306564D1*
X1079267Y2308431D1*
X1073884Y2311173D1*
X1068996Y2314724D1*
X1034298Y2349255D1*
X1014724Y2368996D1*
X1011173Y2373884D1*
X1008430Y2379267D1*
X1006564Y2385012D1*
X1005619Y2390979D1*
X1005500Y2407528D1*
X1001100Y2412831D1*
X996752Y2419926D1*
X994024Y2426378D1*
X991248Y2419926D1*
X986900Y2412831D1*
X981496Y2406504D1*
X975169Y2401100D1*
X968074Y2396752D1*
X960386Y2393568D1*
X952295Y2391625D1*
X944000Y2390972D1*
X935705Y2391625D1*
X927614Y2393568D1*
X919926Y2396752D1*
X912831Y2401100D1*
X906504Y2406504D1*
X901100Y2412831D1*
X896752Y2419926D1*
X894024Y2426378D1*
X891248Y2419926D1*
X886900Y2412831D1*
X881496Y2406504D1*
X875169Y2401100D1*
X868074Y2396752D1*
X860386Y2393568D1*
X852295Y2391625D1*
X844000Y2390972D1*
X835705Y2391625D1*
X827614Y2393568D1*
X819926Y2396752D1*
X812831Y2401100D1*
X806504Y2406504D1*
X801100Y2412831D1*
X796752Y2419926D1*
X794024Y2426378D1*
X791248Y2419926D1*
X786900Y2412831D1*
X781496Y2406504D1*
X775169Y2401100D1*
X768074Y2396752D1*
X760386Y2393568D1*
X752295Y2391625D1*
X744000Y2390972D1*
X735705Y2391625D1*
X727614Y2393568D1*
X719926Y2396752D1*
X712831Y2401100D1*
X706504Y2406504D1*
X701100Y2412831D1*
X696752Y2419926D1*
X693568Y2427614D1*
X691625Y2435705D1*
X690972Y2444000D1*
X691625Y2452295D1*
X693568Y2460386D1*
X696752Y2468074D1*
X701100Y2475169D1*
X706504Y2481496D1*
X712831Y2486900D1*
X719373Y2490938D1*
X713434Y2494121D1*
X706007Y2499516D1*
X699516Y2506007D1*
X694121Y2513434D1*
X689953Y2521613D1*
X687116Y2530343D1*
X685680Y2539410D1*
Y2548590D1*
X687116Y2557657D1*
X689953Y2566387D1*
X694121Y2574566D1*
X699516Y2581993D1*
X706007Y2588484D1*
X713434Y2593879D1*
X721613Y2598047D1*
X730343Y2600884D1*
X739410Y2602320D1*
X748590D1*
X757657Y2600884D1*
X766387Y2598047D1*
X774566Y2593879D1*
X781993Y2588484D1*
X788484Y2581993D1*
X793993Y2574363D1*
X799516Y2581993D1*
X806007Y2588484D1*
X813434Y2593879D1*
X821613Y2598047D1*
X830343Y2600884D1*
X839410Y2602320D1*
X848590D1*
X857657Y2600884D1*
X866387Y2598047D1*
X874566Y2593879D1*
X881993Y2588484D1*
X888484Y2581993D1*
X893993Y2574363D1*
X899516Y2581993D1*
X906007Y2588484D1*
X913434Y2593879D1*
X921613Y2598047D1*
X930343Y2600884D1*
X939410Y2602320D1*
X948590D1*
X957657Y2600884D1*
X966387Y2598047D1*
X974566Y2593879D1*
X981993Y2588484D1*
X988484Y2581993D1*
X993879Y2574566D1*
X998047Y2566387D1*
X1000884Y2557657D1*
X1002320Y2548590D1*
Y2539410D1*
X1000884Y2530343D1*
X998047Y2521613D1*
X993879Y2513434D1*
X988484Y2506007D1*
X981993Y2499516D1*
X974566Y2494121D1*
X968587Y2490967D1*
X975169Y2486900D1*
X981496Y2481496D1*
X986900Y2475169D1*
X991248Y2468074D1*
X993976Y2461622D1*
X996752Y2468074D1*
X1001100Y2475169D1*
X1005499Y2480409D1*
X1005500Y2599989D1*
X999516Y2606007D1*
X994121Y2613434D1*
X990381Y2620684D1*
X986939Y2618606D1*
X982807Y2616895D1*
X978458Y2615851D1*
X973991Y2615500D1*
X695072D1*
X2902320Y1039410D2*
X2900884Y1030343D1*
X2898047Y1021613D1*
X2893879Y1013434D1*
X2888484Y1006007D1*
X2881993Y999516D1*
X2874566Y994121D1*
X2866387Y989953D1*
X2857657Y987116D1*
X2848590Y985680D1*
X2839410D1*
X2830343Y987116D1*
X2821613Y989953D1*
X2813434Y994121D1*
X2806007Y999516D1*
X2799516Y1006007D1*
X2794121Y1013434D1*
X2792972Y1015485D1*
X2659764Y1015588D1*
X2655347Y1016287D1*
X2651094Y1017669D1*
X2647109Y1019700D1*
X2643491Y1022328D1*
X2622328Y1043491D1*
X2619700Y1047109D1*
X2617669Y1051094D1*
X2616287Y1055347D1*
X2615588Y1059764D1*
X2615500Y1153864D1*
Y1192941D1*
X2609615Y1196673D1*
X2602634Y1202634D1*
X2596673Y1209615D1*
X2594007Y1213637D1*
X2588484Y1206007D1*
X2581993Y1199516D1*
X2574566Y1194121D1*
X2566387Y1189953D1*
X2557657Y1187116D1*
X2548590Y1185680D1*
X2539410D1*
X2530343Y1187116D1*
X2521613Y1189953D1*
X2513434Y1194121D1*
X2506007Y1199516D1*
X2499516Y1206007D1*
X2494121Y1213434D1*
X2489953Y1221613D1*
X2487116Y1230343D1*
X2485680Y1239410D1*
Y1248590D1*
X2487116Y1257657D1*
X2489953Y1266387D1*
X2494121Y1274566D1*
X2499516Y1281993D1*
X2506007Y1288484D1*
X2513434Y1293879D1*
X2519413Y1297033D1*
X2512831Y1301100D1*
X2506504Y1306504D1*
X2501100Y1312831D1*
X2496752Y1319926D1*
X2494024Y1326378D1*
X2491248Y1319926D1*
X2486900Y1312831D1*
X2482501Y1307591D1*
X2482500Y1188011D1*
X2488484Y1181993D1*
X2493879Y1174566D1*
X2498047Y1166387D1*
X2500884Y1157657D1*
X2502320Y1148590D1*
Y1139410D1*
X2500884Y1130343D1*
X2498047Y1121613D1*
X2493879Y1113434D1*
X2488484Y1106007D1*
X2481993Y1099516D1*
X2474363Y1094007D1*
X2479779Y1090283D1*
X2485296Y1085435D1*
X2490162Y1079934D1*
X2494301Y1073867D1*
X2497647Y1067329D1*
X2500147Y1060424D1*
X2501763Y1053260D1*
X2502468Y1045949D1*
X2502241Y1038496D1*
X2501092Y1031242D1*
X2499044Y1024190D1*
X2496128Y1017449D1*
X2492390Y1011127D1*
X2487890Y1005323D1*
X2482698Y1000129D1*
X2476896Y995626D1*
X2470576Y991885D1*
X2463837Y988966D1*
X2456785Y986914D1*
X2449532Y985762D1*
X2442191Y985528D1*
X2434879Y986215D1*
X2427711Y987814D1*
X2420505Y990430D1*
X2420412Y559764D1*
X2419713Y555347D1*
X2418331Y551094D1*
X2416300Y547109D1*
X2413672Y543491D1*
X2392509Y522328D1*
X2388891Y519700D1*
X2384906Y517669D1*
X2380653Y516287D1*
X2376236Y515588D1*
X2282136Y515500D1*
X1495089D1*
X1491327Y509615D1*
X1488873Y506500D1*
X2962216D1*
X2963500Y514373D1*
Y888824D1*
X2957657Y887116D1*
X2948590Y885680D1*
X2939410D1*
X2930343Y887116D1*
X2921613Y889953D1*
X2913434Y894121D1*
X2906007Y899516D1*
X2899516Y906007D1*
X2894121Y913434D1*
X2889953Y921613D1*
X2887116Y930343D1*
X2885680Y939410D1*
Y948590D1*
X2887116Y957657D1*
X2889953Y966387D1*
X2894121Y974566D1*
X2899516Y981993D1*
X2906007Y988484D1*
X2913434Y993879D1*
X2915485Y995028D1*
X2915588Y1088838D1*
X2916287Y1093256D1*
X2917669Y1097509D1*
X2919700Y1101494D1*
X2922328Y1105112D1*
X2988805Y1171712D1*
X3012073Y1194980D1*
X3006007Y1199516D1*
X2999516Y1206007D1*
X2994007Y1213637D1*
X2988484Y1206007D1*
X2981993Y1199516D1*
X2974566Y1194121D1*
X2966387Y1189953D1*
X2957657Y1187116D1*
X2948590Y1185680D1*
X2939410D1*
X2930343Y1187116D1*
X2921613Y1189953D1*
X2913434Y1194121D1*
X2906007Y1199516D1*
X2899516Y1206007D1*
X2894121Y1213434D1*
X2889953Y1221613D1*
X2887116Y1230343D1*
X2885680Y1239410D1*
Y1248590D1*
X2887116Y1257657D1*
X2889953Y1266387D1*
X2894121Y1274566D1*
X2899516Y1281993D1*
X2906007Y1288484D1*
X2909178Y1290983D1*
X2890973Y1290972D1*
Y1343255D1*
X2883059Y1343162D1*
X2876318Y1344229D1*
X2869826Y1346339D1*
X2863744Y1349438D1*
X2858221Y1353450D1*
X2853395Y1358277D1*
X2849383Y1363799D1*
X2846284Y1369881D1*
X2844174Y1376373D1*
X2843107Y1383115D1*
Y1389941D1*
X2844174Y1396682D1*
X2846284Y1403174D1*
X2847351Y1405489D1*
X2567003Y1405500D1*
X2562666Y1401905D1*
X2556846Y1398338D1*
X2552304Y1396377D1*
X2560386Y1394432D1*
X2568074Y1391248D1*
X2575169Y1386900D1*
X2581496Y1381496D1*
X2586900Y1375169D1*
X2591248Y1368074D1*
X2593976Y1361622D1*
X2596752Y1368074D1*
X2601100Y1375169D1*
X2606504Y1381496D1*
X2612831Y1386900D1*
X2619926Y1391248D1*
X2627614Y1394432D1*
X2635705Y1396375D1*
X2644000Y1397028D1*
X2652295Y1396375D1*
X2660386Y1394432D1*
X2668074Y1391248D1*
X2675169Y1386900D1*
X2681496Y1381496D1*
X2686900Y1375169D1*
X2691248Y1368074D1*
X2693976Y1361622D1*
X2696752Y1368074D1*
X2701100Y1375169D1*
X2706504Y1381496D1*
X2712831Y1386900D1*
X2719926Y1391248D1*
X2727614Y1394432D1*
X2735705Y1396375D1*
X2744000Y1397028D1*
X2752295Y1396375D1*
X2760386Y1394432D1*
X2768074Y1391248D1*
X2775169Y1386900D1*
X2781496Y1381496D1*
X2786900Y1375169D1*
X2791248Y1368074D1*
X2794432Y1360386D1*
X2796375Y1352295D1*
X2797028Y1344000D1*
X2796375Y1335705D1*
X2794432Y1327614D1*
X2791248Y1319926D1*
X2786900Y1312831D1*
X2781496Y1306504D1*
X2775169Y1301100D1*
X2772505Y1299320D1*
X2772500Y1295090D1*
X2778385Y1291327D1*
X2785366Y1285366D1*
X2791327Y1278385D1*
X2796124Y1270558D1*
X2799637Y1262077D1*
X2801780Y1253151D1*
X2802500Y1244000D1*
X2801780Y1234849D1*
X2799637Y1225923D1*
X2796124Y1217442D1*
X2791327Y1209615D1*
X2785366Y1202634D1*
X2778385Y1196673D1*
X2772515Y1192972D1*
X2772500Y1173775D1*
X2780373Y1172500D1*
X2792896D1*
X2796673Y1178385D1*
X2802634Y1185366D1*
X2809615Y1191327D1*
X2817442Y1196124D1*
X2825923Y1199637D1*
X2834849Y1201780D1*
X2844000Y1202500D1*
X2853151Y1201780D1*
X2862077Y1199637D1*
X2870558Y1196124D1*
X2878385Y1191327D1*
X2885366Y1185366D1*
X2891327Y1178385D1*
X2896124Y1170558D1*
X2899637Y1162077D1*
X2901780Y1153151D1*
X2902500Y1144000D1*
X2901780Y1134849D1*
X2899637Y1125923D1*
X2896124Y1117442D1*
X2891327Y1109615D1*
X2885366Y1102634D1*
X2878385Y1096673D1*
X2874363Y1094007D1*
X2881993Y1088484D1*
X2888484Y1081993D1*
X2893879Y1074566D1*
X2898047Y1066387D1*
X2900884Y1057657D1*
X2902320Y1048590D1*
Y1039410D1*
X2102320Y1939410D2*
X2100884Y1930343D1*
X2098047Y1921613D1*
X2093879Y1913434D1*
X2088484Y1906007D1*
X2081993Y1899516D1*
X2074363Y1894007D1*
X2081993Y1888484D1*
X2088484Y1881993D1*
X2093879Y1874566D1*
X2098047Y1866387D1*
X2100884Y1857657D1*
X2102320Y1848590D1*
Y1839410D1*
X2100884Y1830343D1*
X2098047Y1821613D1*
X2093879Y1813434D1*
X2088484Y1806007D1*
X2081993Y1799516D1*
X2074566Y1794121D1*
X2066387Y1789953D1*
X2057657Y1787116D1*
X2048590Y1785680D1*
X2039410D1*
X2030343Y1787116D1*
X2021613Y1789953D1*
X2013434Y1794121D1*
X2006007Y1799516D1*
X1999516Y1806007D1*
X1994121Y1813434D1*
X1989953Y1821613D1*
X1987116Y1830343D1*
X1985680Y1839410D1*
Y1848590D1*
X1987116Y1857657D1*
X1989953Y1866387D1*
X1994121Y1874566D1*
X1999516Y1881993D1*
X2006007Y1888484D1*
X2013637Y1893993D1*
X2006007Y1899516D1*
X1999516Y1906007D1*
X1994121Y1913434D1*
X1989953Y1921613D1*
X1987116Y1930343D1*
X1985680Y1939410D1*
Y1948590D1*
X1987116Y1957657D1*
X1989953Y1966387D1*
X1994121Y1974566D1*
X1999516Y1981993D1*
X2006007Y1988484D1*
X2013434Y1993879D1*
X2021613Y1998047D1*
X2030343Y2000884D1*
X2039410Y2002320D1*
X2048590D1*
X2057657Y2000884D1*
X2066387Y1998047D1*
X2074566Y1993879D1*
X2081993Y1988484D1*
X2088484Y1981993D1*
X2093879Y1974566D1*
X2098047Y1966387D1*
X2100884Y1957657D1*
X2102320Y1948590D1*
Y1939410D1*
X3452320Y3239410D2*
X3450884Y3230343D1*
X3448047Y3221613D1*
X3443879Y3213434D1*
X3438484Y3206007D1*
X3431993Y3199516D1*
X3424363Y3194007D1*
X3431993Y3188484D1*
X3438484Y3181993D1*
X3443879Y3174566D1*
X3448047Y3166387D1*
X3450884Y3157657D1*
X3452320Y3148590D1*
Y3139410D1*
X3450884Y3130343D1*
X3448047Y3121613D1*
X3443879Y3113434D1*
X3438484Y3106007D1*
X3431993Y3099516D1*
X3424566Y3094121D1*
X3422515Y3092972D1*
X3422500Y2888684D1*
X3428439Y2884322D1*
X3434322Y2878439D1*
X3439213Y2871707D1*
X3440970Y2868571D1*
X3440973Y2897027D1*
X3547028D1*
Y2790972D1*
X3440973D1*
Y2819400D1*
X3436900Y2812831D1*
X3431496Y2806504D1*
X3425169Y2801100D1*
X3418074Y2796752D1*
X3410386Y2793568D1*
X3402295Y2791625D1*
X3394000Y2790972D1*
X3386819Y2791493D1*
X3613672Y2564509D1*
X3616300Y2560891D1*
X3618331Y2556906D1*
X3619713Y2552653D1*
X3620412Y2548236D1*
X3620500Y2454136D1*
Y1524915D1*
X3655509Y1559956D1*
X3655500Y3278032D1*
X3528057Y3405496D1*
X3240979Y3405619D1*
X3235012Y3406564D1*
X3229267Y3408431D1*
X3223884Y3411173D1*
X3218996Y3414724D1*
X3185541Y3448012D1*
X3178009Y3449393D1*
X3167786Y3452714D1*
X3158209Y3457594D1*
X3149513Y3463912D1*
X3141912Y3471513D1*
X3136983Y3478130D1*
X3132103Y3479384D1*
X3126521Y3481696D1*
X3121370Y3484853D1*
X3116776Y3488776D1*
X2994550Y3611003D1*
X2984010Y3611004D1*
X2986298Y3604155D1*
X2987366Y3597413D1*
X2987379Y3590920D1*
X3163672Y3414509D1*
X3166300Y3410891D1*
X3168331Y3406907D1*
X3169713Y3402653D1*
X3170413Y3398227D1*
X3171613Y3398047D1*
X3180343Y3400884D1*
X3189410Y3402320D1*
X3198590D1*
X3207657Y3400884D1*
X3216387Y3398047D1*
X3224566Y3393879D1*
X3231993Y3388484D1*
X3238484Y3381993D1*
X3243879Y3374566D1*
X3248047Y3366387D1*
X3250884Y3357657D1*
X3252320Y3348590D1*
Y3339410D1*
X3250884Y3330343D1*
X3248047Y3321613D1*
X3243879Y3313434D1*
X3238484Y3306007D1*
X3231993Y3299516D1*
X3224566Y3294121D1*
X3216387Y3289953D1*
X3207657Y3287116D1*
X3198590Y3285680D1*
X3189410D1*
X3180343Y3287116D1*
X3171613Y3289953D1*
X3170489Y3290471D1*
X3170412Y3107764D1*
X3169713Y3103347D1*
X3168331Y3099093D1*
X3167389Y3097054D1*
X3167374Y3096089D1*
X3174110Y3099015D1*
X3181160Y3101074D1*
X3188413Y3102233D1*
X3195753Y3102474D1*
X3203065Y3101793D1*
X3210235Y3100202D1*
X3217149Y3097725D1*
X3223698Y3094401D1*
X3229779Y3090283D1*
X3235296Y3085435D1*
X3240162Y3079934D1*
X3244301Y3073867D1*
X3247647Y3067329D1*
X3250147Y3060424D1*
X3251763Y3053260D1*
X3252468Y3045949D1*
X3252241Y3038496D1*
X3251092Y3031242D1*
X3249044Y3024190D1*
X3246128Y3017449D1*
X3242390Y3011127D1*
X3237890Y3005323D1*
X3232698Y3000129D1*
X3226896Y2995626D1*
X3220576Y2991885D1*
X3213837Y2988966D1*
X3206785Y2986914D1*
X3199532Y2985762D1*
X3192191Y2985528D1*
X3184879Y2986215D1*
X3177711Y2987814D1*
X3170799Y2990297D1*
X3164253Y2993627D1*
X3158176Y2997752D1*
X3152664Y3002604D1*
X3147803Y3008110D1*
X3144004Y3013637D1*
X3138484Y3006007D1*
X3131993Y2999516D1*
X3124566Y2994121D1*
X3116387Y2989953D1*
X3107657Y2987116D1*
X3098590Y2985680D1*
X3089410D1*
X3080343Y2987116D1*
X3071613Y2989953D1*
X3063434Y2994121D1*
X3056007Y2999516D1*
X3049516Y3006007D1*
X3044121Y3013434D1*
X3039953Y3021613D1*
X3037116Y3030343D1*
X3035680Y3039410D1*
Y3048590D1*
X3037116Y3057657D1*
X3038891Y3063508D1*
X2928539Y3063500D1*
X2928524Y2924437D1*
X2759477D1*
Y3063488D1*
X2649145Y3063500D1*
X2650884Y3057657D1*
X2652320Y3048590D1*
Y3039410D1*
X2650884Y3030343D1*
X2648047Y3021613D1*
X2643879Y3013434D1*
X2638484Y3006007D1*
X2631993Y2999516D1*
X2624566Y2994121D1*
X2616387Y2989953D1*
X2607657Y2987116D1*
X2598590Y2985680D1*
X2589410D1*
X2580343Y2987116D1*
X2571613Y2989953D1*
X2563434Y2994121D1*
X2556007Y2999516D1*
X2549516Y3006007D1*
X2544121Y3013434D1*
X2539953Y3021613D1*
X2537116Y3030343D1*
X2535680Y3039410D1*
Y3048590D1*
X2537116Y3057657D1*
X2538891Y3063508D1*
X2319799Y3063500D1*
X2318500Y3055627D1*
Y2890524D1*
X2323707Y2892991D1*
X2331621Y2895562D1*
X2339840Y2896864D1*
X2348160D1*
X2356379Y2895562D1*
X2364293Y2892991D1*
X2371707Y2889213D1*
X2378439Y2884322D1*
X2384322Y2878439D1*
X2389213Y2871707D1*
X2392991Y2864293D1*
X2393976Y2861622D1*
X2396752Y2868074D1*
X2401100Y2875169D1*
X2406504Y2881496D1*
X2412831Y2886900D1*
X2419926Y2891248D1*
X2427614Y2894432D1*
X2435705Y2896375D1*
X2444000Y2897028D1*
X2452295Y2896375D1*
X2460386Y2894432D1*
X2468074Y2891248D1*
X2475169Y2886900D1*
X2481496Y2881496D1*
X2486900Y2875169D1*
X2490970Y2868571D1*
X2490973Y2897027D1*
X2597028D1*
Y2790972D1*
X2490973D1*
Y2819400D1*
X2486900Y2812831D1*
X2481496Y2806504D1*
X2475169Y2801100D1*
X2468074Y2796752D1*
X2460386Y2793568D1*
X2452295Y2791625D1*
X2444000Y2790972D1*
X2436819Y2791493D1*
X2482674Y2745631D1*
X3276236Y2745538D1*
X3280653Y2744839D1*
X3284907Y2743457D1*
X3288891Y2741426D1*
X3292509Y2738798D1*
X3313672Y2717635D1*
X3316300Y2714017D1*
X3318331Y2710032D1*
X3319713Y2705779D1*
X3320412Y2701362D1*
X3320500Y2607262D1*
Y2097599D1*
X3325923Y2099637D1*
X3334849Y2101780D1*
X3344000Y2102500D1*
X3353151Y2101780D1*
X3362077Y2099637D1*
X3370558Y2096124D1*
X3378385Y2091327D1*
X3385366Y2085366D1*
X3391327Y2078385D1*
X3393993Y2074363D1*
X3399516Y2081993D1*
X3406007Y2088484D1*
X3413434Y2093879D1*
X3421613Y2098047D1*
X3430343Y2100884D1*
X3439410Y2102320D1*
X3448590D1*
X3457657Y2100884D1*
X3466387Y2098047D1*
X3474566Y2093879D1*
X3481993Y2088484D1*
X3488484Y2081993D1*
X3493993Y2074363D1*
X3499516Y2081993D1*
X3506007Y2088484D1*
X3513434Y2093879D1*
X3521613Y2098047D1*
X3530343Y2100884D1*
X3539410Y2102320D1*
X3548590D1*
X3557657Y2100884D1*
X3563508Y2099109D1*
X3563500Y2534194D1*
X3305446Y2792249D1*
X3298160Y2791136D1*
X3289840D1*
X3281621Y2792438D1*
X3273707Y2795009D1*
X3266293Y2798787D1*
X3259561Y2803678D1*
X3253678Y2809561D1*
X3248787Y2816293D1*
X3245009Y2823707D1*
X3242438Y2831621D1*
X3241136Y2839840D1*
Y2848160D1*
X3242438Y2856379D1*
X3245009Y2864293D1*
X3248787Y2871707D1*
X3253678Y2878439D1*
X3259561Y2884322D1*
X3266293Y2889213D1*
X3273707Y2892991D1*
X3281621Y2895562D1*
X3289840Y2896864D1*
X3298160D1*
X3306379Y2895562D1*
X3314293Y2892991D1*
X3321707Y2889213D1*
X3328439Y2884322D1*
X3334322Y2878439D1*
X3339213Y2871707D1*
X3342991Y2864293D1*
X3343976Y2861622D1*
X3346752Y2868074D1*
X3351100Y2875169D1*
X3356504Y2881496D1*
X3362831Y2886900D1*
X3365495Y2888680D1*
X3365500Y3092929D1*
X3359615Y3096673D1*
X3352634Y3102634D1*
X3346673Y3109615D1*
X3344007Y3113637D1*
X3338484Y3106007D1*
X3331993Y3099516D1*
X3324566Y3094121D1*
X3316387Y3089953D1*
X3307657Y3087116D1*
X3298590Y3085680D1*
X3289410D1*
X3280343Y3087116D1*
X3271613Y3089953D1*
X3263434Y3094121D1*
X3256007Y3099516D1*
X3249516Y3106007D1*
X3244121Y3113434D1*
X3239953Y3121613D1*
X3237116Y3130343D1*
X3235680Y3139410D1*
Y3148590D1*
X3237116Y3157657D1*
X3239953Y3166387D1*
X3244121Y3174566D1*
X3249516Y3181993D1*
X3256007Y3188484D1*
X3263637Y3193993D1*
X3256007Y3199516D1*
X3249516Y3206007D1*
X3244121Y3213434D1*
X3239953Y3221613D1*
X3237116Y3230343D1*
X3235680Y3239410D1*
Y3248590D1*
X3237116Y3257657D1*
X3239953Y3266387D1*
X3244121Y3274566D1*
X3249516Y3281993D1*
X3256007Y3288484D1*
X3263434Y3293879D1*
X3271613Y3298047D1*
X3280343Y3300884D1*
X3289410Y3302320D1*
X3298590D1*
X3307657Y3300884D1*
X3316387Y3298047D1*
X3324566Y3293879D1*
X3331993Y3288484D1*
X3338484Y3281993D1*
X3343993Y3274363D1*
X3349516Y3281993D1*
X3356007Y3288484D1*
X3363434Y3293879D1*
X3371613Y3298047D1*
X3380343Y3300884D1*
X3389410Y3302320D1*
X3398590D1*
X3407657Y3300884D1*
X3416387Y3298047D1*
X3424566Y3293879D1*
X3431993Y3288484D1*
X3438484Y3281993D1*
X3443879Y3274566D1*
X3448047Y3266387D1*
X3450884Y3257657D1*
X3452320Y3248590D1*
Y3239410D1*
X1302320Y1439410D2*
X1300884Y1430343D1*
X1298047Y1421613D1*
X1293879Y1413434D1*
X1288484Y1406007D1*
X1281993Y1399516D1*
X1274566Y1394121D1*
X1266387Y1389953D1*
X1257657Y1387116D1*
X1248590Y1385680D1*
X1239410D1*
X1230343Y1387116D1*
X1221613Y1389953D1*
X1213434Y1394121D1*
X1206007Y1399516D1*
X1199516Y1406007D1*
X1194121Y1413434D1*
X1189953Y1421613D1*
X1187116Y1430343D1*
X1185680Y1439410D1*
Y1448590D1*
X1187116Y1457657D1*
X1189953Y1466387D1*
X1194121Y1474566D1*
X1199516Y1481993D1*
X1206007Y1488484D1*
X1213637Y1493993D1*
X1208176Y1497752D1*
X1202664Y1502604D1*
X1197803Y1508110D1*
X1193670Y1514181D1*
X1190331Y1520722D1*
X1187837Y1527630D1*
X1186229Y1534796D1*
X1185531Y1542107D1*
X1185754Y1549448D1*
X1186896Y1556703D1*
X1188937Y1563758D1*
X1191847Y1570501D1*
X1195578Y1576827D1*
X1200073Y1582635D1*
X1205260Y1587834D1*
X1211057Y1592343D1*
X1217374Y1596089D1*
X1224110Y1599015D1*
X1231160Y1601074D1*
X1238413Y1602233D1*
X1245753Y1602474D1*
X1253065Y1601793D1*
X1260235Y1600202D1*
X1267149Y1597725D1*
X1273698Y1594401D1*
X1279779Y1590283D1*
X1285296Y1585435D1*
X1290162Y1579934D1*
X1294301Y1573867D1*
X1297647Y1567329D1*
X1300147Y1560424D1*
X1301763Y1553260D1*
X1302468Y1545949D1*
X1302241Y1538496D1*
X1301092Y1531242D1*
X1299044Y1524190D1*
X1296128Y1517449D1*
X1292390Y1511127D1*
X1287890Y1505323D1*
X1282698Y1500129D1*
X1276896Y1495626D1*
X1274364Y1494005D1*
X1281993Y1488484D1*
X1288484Y1481993D1*
X1293879Y1474566D1*
X1298047Y1466387D1*
X1300884Y1457657D1*
X1302320Y1448590D1*
Y1439410D1*
X3220494Y1997566D2*
X3227603Y2000155D1*
X3234768Y2001767D1*
X3242079Y2002468D1*
X3249420Y2002248D1*
X3256675Y2001110D1*
X3263493Y1999153D1*
X3263500Y2687301D1*
X3255627Y2688626D1*
X3014019D1*
X3014940Y2683362D1*
X3015028Y2589262D1*
Y2005893D1*
X3019605Y2001251D1*
X3023617Y1995729D1*
X3026716Y1989647D1*
X3028826Y1983155D1*
X3029893Y1976413D1*
Y1969587D1*
X3028826Y1962845D1*
X3026716Y1956353D1*
X3023617Y1950271D1*
X3019605Y1944749D1*
X3014779Y1939922D1*
X3009256Y1935910D1*
X3003174Y1932811D1*
X2996682Y1930702D1*
X2989941Y1929634D1*
X2983115D1*
X2976373Y1930702D1*
X2969881Y1932811D1*
X2963799Y1935910D1*
X2958277Y1939922D1*
X2953450Y1944749D1*
X2949438Y1950271D1*
X2946339Y1956353D1*
X2944229Y1962845D1*
X2943162Y1969587D1*
Y1976413D1*
X2944229Y1983155D1*
X2946339Y1989647D1*
X2949438Y1995729D1*
X2953450Y2001251D1*
X2958032Y2005851D1*
X2958027Y2669333D1*
X2950155Y2670626D1*
X2925933D1*
X2929368Y2664550D1*
X2932082Y2658663D1*
X2934326Y2652582D1*
X2936085Y2646343D1*
X2937350Y2639985D1*
X2938112Y2633548D1*
X2938366Y2627071D1*
X2938112Y2620594D1*
X2937350Y2614156D1*
X2936085Y2607799D1*
X2934326Y2601560D1*
X2932082Y2595478D1*
X2929368Y2589592D1*
X2926201Y2583936D1*
X2922600Y2578546D1*
X2918586Y2573456D1*
X2914186Y2568696D1*
X2909426Y2564295D1*
X2904336Y2560282D1*
X2898946Y2556681D1*
X2893290Y2553514D1*
X2887403Y2550800D1*
X2881322Y2548556D1*
X2875083Y2546797D1*
X2868725Y2545532D1*
X2862288Y2544770D1*
X2846625Y2544516D1*
X2832189D1*
X2825712Y2544770D1*
X2819275Y2545532D1*
X2812917Y2546797D1*
X2806678Y2548556D1*
X2800597Y2550800D1*
X2794710Y2553514D1*
X2789054Y2556681D1*
X2783664Y2560282D1*
X2778574Y2564295D1*
X2773814Y2568696D1*
X2769414Y2573456D1*
X2765400Y2578546D1*
X2761799Y2583936D1*
X2758632Y2589592D1*
X2755918Y2595478D1*
X2753674Y2601560D1*
X2751915Y2607799D1*
X2750650Y2614156D1*
X2749888Y2620594D1*
X2749634Y2627071D1*
X2749888Y2633548D1*
X2750650Y2639985D1*
X2751915Y2646343D1*
X2753674Y2652582D1*
X2755918Y2658663D1*
X2758632Y2664550D1*
X2762066Y2670606D1*
X2305764Y2670714D1*
X2301347Y2671413D1*
X2297093Y2672795D1*
X2293109Y2674826D1*
X2289491Y2677454D1*
X2282500Y2683633D1*
Y2409927D1*
X2565130Y2127317D1*
X2567910Y2132729D1*
X2571922Y2138251D1*
X2576749Y2143078D1*
X2582271Y2147090D1*
X2588353Y2150189D1*
X2594845Y2152298D1*
X2601587Y2153366D1*
X2608413D1*
X2615155Y2152298D1*
X2621647Y2150189D1*
X2627729Y2147090D1*
X2633251Y2143078D1*
X2637851Y2138496D1*
X2676236Y2138412D1*
X2680653Y2137713D1*
X2684906Y2136331D1*
X2688891Y2134300D1*
X2692509Y2131672D1*
X2713672Y2110509D1*
X2716300Y2106891D1*
X2718331Y2102906D1*
X2719714Y2098645D1*
X2721613Y2098047D1*
X2730343Y2100884D1*
X2739410Y2102320D1*
X2748590D1*
X2757657Y2100884D1*
X2766387Y2098047D1*
X2774566Y2093879D1*
X2781993Y2088484D1*
X2788484Y2081993D1*
X2793993Y2074363D1*
X2799516Y2081993D1*
X2806007Y2088484D1*
X2813434Y2093879D1*
X2821613Y2098047D1*
X2830343Y2100884D1*
X2839410Y2102320D1*
X2848590D1*
X2857657Y2100884D1*
X2866387Y2098047D1*
X2874566Y2093879D1*
X2881993Y2088484D1*
X2888484Y2081993D1*
X2893879Y2074566D1*
X2898047Y2066387D1*
X2900884Y2057657D1*
X2902320Y2048590D1*
Y2039410D1*
X2900884Y2030343D1*
X2898047Y2021613D1*
X2893879Y2013434D1*
X2888484Y2006007D1*
X2881993Y1999516D1*
X2874566Y1994121D1*
X2866387Y1989953D1*
X2857657Y1987116D1*
X2848590Y1985680D1*
X2839410D1*
X2830343Y1987116D1*
X2821613Y1989953D1*
X2813434Y1994121D1*
X2806007Y1999516D1*
X2799516Y2006007D1*
X2794007Y2013637D1*
X2788484Y2006007D1*
X2781993Y1999516D1*
X2774566Y1994121D1*
X2766387Y1989953D1*
X2757657Y1987116D1*
X2748590Y1985680D1*
X2739410D1*
X2730343Y1987116D1*
X2721613Y1989953D1*
X2720489Y1990471D1*
X2720500Y1916778D1*
X2728373Y1915500D1*
X3058471D1*
X3054910Y1920496D1*
X3051811Y1926578D1*
X3049702Y1933070D1*
X3048634Y1939811D1*
X3048621Y1946304D1*
X3037328Y1957715D1*
X3034700Y1961333D1*
X3032669Y1965318D1*
X3031287Y1969571D1*
X3030588Y1973988D1*
X3030500Y2068088D1*
X3030588Y2484071D1*
X3031287Y2488488D1*
X3032669Y2492741D1*
X3034700Y2496726D1*
X3037328Y2500344D1*
X3059798Y2522997D1*
X3057495Y2532590D1*
X3056720Y2542425D1*
X3057495Y2552260D1*
X3059798Y2561853D1*
X3063573Y2570968D1*
X3068728Y2579379D1*
X3075135Y2586881D1*
X3082636Y2593288D1*
X3091048Y2598443D1*
X3100163Y2602218D1*
X3109756Y2604521D1*
X3119591Y2605295D1*
X3129426Y2604521D1*
X3139018Y2602218D1*
X3148133Y2598443D1*
X3156545Y2593288D1*
X3164046Y2586881D1*
X3170012Y2579940D1*
X3175353Y2582614D1*
X3181845Y2584723D1*
X3188587Y2585791D1*
X3195413D1*
X3202155Y2584723D1*
X3208647Y2582614D1*
X3214729Y2579515D1*
X3220251Y2575503D1*
X3225078Y2570676D1*
X3229090Y2565154D1*
X3232189Y2559072D1*
X3234298Y2552580D1*
X3235366Y2545838D1*
Y2539012D1*
X3234298Y2532270D1*
X3232189Y2525778D1*
X3229090Y2519697D1*
X3225078Y2514174D1*
X3220251Y2509348D1*
X3214729Y2505335D1*
X3208647Y2502236D1*
X3202155Y2500127D1*
X3195413Y2499059D1*
X3188587D1*
X3181845Y2500127D1*
X3175353Y2502236D1*
X3170028Y2504912D1*
X3164046Y2497969D1*
X3158680Y2493246D1*
X3164046Y2488456D1*
X3170454Y2480954D1*
X3175608Y2472542D1*
X3179384Y2463428D1*
X3181687Y2453835D1*
X3182461Y2444000D1*
X3181687Y2434165D1*
X3179384Y2424572D1*
X3175608Y2415458D1*
X3171386Y2408441D1*
X3182461Y2408445D1*
Y2323005D1*
X3213672Y2291675D1*
X3216300Y2288057D1*
X3218331Y2284072D1*
X3219713Y2279819D1*
X3220412Y2275401D1*
X3220500Y2181302D1*
Y1997539D1*
X3190471Y1120489D2*
X3188363Y1125923D1*
X3186220Y1134849D1*
X3185500Y1144000D1*
X3186220Y1153151D1*
X3188363Y1162077D1*
X3191876Y1170558D1*
X3196673Y1178385D1*
X3202634Y1185366D1*
X3205493Y1188009D1*
X3205500Y1307524D1*
X3201100Y1312831D1*
X3196752Y1319926D1*
X3194024Y1326378D1*
X3190911Y1319275D1*
X3187045Y1313032D1*
X3182354Y1307382D1*
X3176928Y1302435D1*
X3170870Y1298284D1*
X3164297Y1295011D1*
X3157335Y1292676D1*
X3150116Y1291326D1*
X3142781Y1290986D1*
X3135469Y1291663D1*
X3128321Y1293343D1*
X3121473Y1295995D1*
X3120500Y1296472D1*
Y1121824D1*
X3128373Y1120504D1*
X3190416D1*
X3302471Y1042163D2*
X3301780Y1034851D1*
X3300179Y1027684D1*
X3297570Y1020505D1*
X3414164Y1020500D1*
X3415500Y1028373D1*
Y1192902D1*
X3409615Y1196673D1*
X3402634Y1202634D1*
X3396673Y1209615D1*
X3391876Y1217442D1*
X3388363Y1225923D1*
X3386220Y1234849D1*
X3385500Y1244000D1*
X3386220Y1253151D1*
X3388363Y1262077D1*
X3388891Y1263508D1*
X3343107Y1263500D1*
X3341818Y1255627D1*
X3341730Y1107770D1*
X3341030Y1103353D1*
X3339648Y1099100D1*
X3337618Y1095115D1*
X3334989Y1091497D1*
X3313824Y1070332D1*
X3310206Y1067704D1*
X3306221Y1065673D1*
X3301968Y1064291D1*
X3299765Y1063854D1*
X3299604Y1062179D1*
X3301443Y1055069D1*
X3302377Y1047784D1*
X3302471Y1042163D1*
X3190428Y1020506D2*
X3187837Y1027630D1*
X3186229Y1034796D1*
X3185531Y1042107D1*
X3185754Y1049448D1*
X3186896Y1056703D1*
X3188852Y1063506D1*
X3107764Y1063592D1*
X3103347Y1064291D1*
X3099093Y1065673D1*
X3095109Y1067704D1*
X3091491Y1070332D1*
X3070328Y1091495D1*
X3067700Y1095113D1*
X3065669Y1099097D1*
X3064287Y1103351D1*
X3063588Y1107768D1*
X3063500Y1165804D1*
X2972476Y1074774D1*
X2972500Y995062D1*
X2991491Y1013672D1*
X2995109Y1016300D1*
X2999093Y1018331D1*
X3003347Y1019713D1*
X3007764Y1020412D1*
X3101864Y1020500D1*
X3190462D1*
X3288314Y3876139D2*
X3282966Y3884902D1*
X3278853Y3894832D1*
X3276343Y3905284D1*
X3275500Y3916000D1*
X3276343Y3926716D1*
X3278853Y3937168D1*
X3282966Y3947098D1*
X3284208Y3949316D1*
X3275627Y3955500D1*
X3249970D1*
X3255034Y3947098D1*
X3259147Y3937168D1*
X3261657Y3926716D1*
X3262500Y3916000D1*
X3261657Y3905284D1*
X3261243Y3903203D1*
X3288236Y3876211D1*
X2412500Y3930064D2*
Y3888940D1*
X2426722Y3903169D1*
X2425711Y3910626D1*
Y3921374D1*
X2427393Y3931991D1*
X2430714Y3942214D1*
X2435594Y3951791D1*
X2438314Y3955861D1*
X2412496Y3930049D1*
X1826300Y759083D2*
X1817680Y759760D1*
X1809289Y761774D1*
X1801316Y765077D1*
X1793958Y769586D1*
X1787395Y775191D1*
X1781791Y781753D1*
X1777282Y789111D1*
X1773979Y797084D1*
X1771964Y805475D1*
X1771287Y814079D1*
X1771964Y822682D1*
X1773979Y831073D1*
X1777282Y839046D1*
X1781791Y846405D1*
X1787395Y852967D1*
X1793958Y858571D1*
X1794617Y859012D1*
X1786219Y864471D1*
X1780157Y869250D1*
X1774489Y874489D1*
X1769250Y880157D1*
X1764471Y886219D1*
X1760183Y892637D1*
X1756411Y899371D1*
X1753180Y906381D1*
X1750508Y913623D1*
X1748413Y921052D1*
X1746907Y928622D1*
X1746000Y936287D1*
X1745697Y944000D1*
X1746000Y951713D1*
X1746907Y959378D1*
X1748413Y966948D1*
X1750508Y974377D1*
X1753180Y981619D1*
X1756411Y988629D1*
X1760183Y995363D1*
X1764471Y1001781D1*
X1769250Y1007843D1*
X1774489Y1013511D1*
X1780157Y1018750D1*
X1786219Y1023529D1*
X1792637Y1027817D1*
X1799371Y1031589D1*
X1806381Y1034820D1*
X1813623Y1037492D1*
X1821052Y1039587D1*
X1828622Y1041093D1*
X1836287Y1042000D1*
X1844000Y1042303D1*
X1851713Y1042000D1*
X1859378Y1041093D1*
X1866948Y1039587D1*
X1874377Y1037492D1*
X1881619Y1034820D1*
X1888629Y1031589D1*
X1895363Y1027817D1*
X1901781Y1023529D1*
X1907843Y1018750D1*
X1913511Y1013511D1*
X1918750Y1007843D1*
X1923529Y1001781D1*
X1927817Y995363D1*
X1931589Y988629D1*
X1934820Y981619D1*
X1937492Y974377D1*
X1939587Y966948D1*
X1941093Y959378D1*
X1942000Y951713D1*
X1942303Y944000D1*
X1942000Y936287D1*
X1941093Y928622D1*
X1939587Y921052D1*
X1937492Y913623D1*
X1934820Y906381D1*
X1931589Y899371D1*
X1927817Y892637D1*
X1923529Y886219D1*
X1918750Y880157D1*
X1913511Y874489D1*
X1907843Y869250D1*
X1901781Y864471D1*
X1893338Y859048D1*
X1897434Y855898D1*
X1903536Y849796D1*
X1908608Y842814D1*
X1912526Y835125D1*
X1915193Y826917D1*
X1916543Y818394D1*
Y809764D1*
X1915193Y801240D1*
X1912526Y793033D1*
X1908608Y785343D1*
X1903536Y778362D1*
X1897434Y772259D1*
X1890452Y767187D1*
X1882763Y763269D1*
X1874555Y760602D1*
X1866031Y759252D1*
X1843344Y759083D1*
X1826284Y759118D1*
X1815228Y749842D1*
X1822504Y750835D1*
X1842819Y750964D1*
X1865281Y750849D1*
X1872561Y749885D1*
X1879648Y747959D1*
X1886415Y745107D1*
X1892741Y741378D1*
X1898515Y736840D1*
X1903632Y731573D1*
X1908002Y725671D1*
X1911547Y719239D1*
X1914203Y712393D1*
X1915923Y705254D1*
X1916677Y697949D1*
X1916437Y690466D1*
X1915216Y683225D1*
X1913041Y676210D1*
X1909951Y669548D1*
X1906001Y663358D1*
X1901261Y657748D1*
X1895817Y652820D1*
X1889764Y648662D1*
X1883211Y645347D1*
X1876275Y642934D1*
X1869079Y641468D1*
X1861717Y640972D1*
X1822647Y641093D1*
X1815369Y642066D1*
X1808285Y644001D1*
X1801521Y646862D1*
X1795200Y650599D1*
X1789432Y655145D1*
X1784322Y660419D1*
X1779959Y666327D1*
X1776423Y672763D1*
X1773776Y679613D1*
X1772065Y686754D1*
X1771321Y694060D1*
X1771556Y701400D1*
X1772768Y708643D1*
X1774933Y715660D1*
X1778015Y722326D1*
X1781957Y728522D1*
X1786689Y734137D1*
X1792127Y739072D1*
X1798174Y743238D1*
X1804723Y746562D1*
X1811656Y748984D1*
X1815228Y749842D1*
X3773700Y798074D2*
X3771964Y805475D1*
X3771287Y814079D1*
X3771964Y822682D1*
X3773979Y831073D1*
X3777282Y839046D1*
X3781791Y846405D1*
X3787395Y852967D1*
X3793958Y858571D1*
X3794617Y859012D1*
X3786219Y864471D1*
X3780157Y869250D1*
X3774489Y874489D1*
X3769250Y880157D1*
X3764471Y886219D1*
X3760183Y892637D1*
X3756411Y899371D1*
X3753180Y906381D1*
X3750508Y913623D1*
X3748413Y921052D1*
X3746907Y928622D1*
X3746000Y936287D1*
X3745697Y944000D1*
X3746000Y951713D1*
X3746907Y959378D1*
X3748413Y966948D1*
X3750508Y974377D1*
X3753180Y981619D1*
X3756411Y988629D1*
X3760183Y995363D1*
X3764471Y1001781D1*
X3769250Y1007843D1*
X3774489Y1013511D1*
X3780157Y1018750D1*
X3786219Y1023529D1*
X3792637Y1027817D1*
X3799371Y1031589D1*
X3806381Y1034820D1*
X3813623Y1037492D1*
X3821052Y1039587D1*
X3828622Y1041093D1*
X3836287Y1042000D1*
X3844000Y1042303D1*
X3851713Y1042000D1*
X3859378Y1041093D1*
X3866948Y1039587D1*
X3874377Y1037492D1*
X3881619Y1034820D1*
X3888629Y1031589D1*
X3895363Y1027817D1*
X3901781Y1023529D1*
X3907843Y1018750D1*
X3913511Y1013511D1*
X3921308Y1004599D1*
X3921303Y1391330D1*
X3888215Y1424440D1*
X3759477Y1424437D1*
Y1593484D1*
X3928524D1*
Y1464767D1*
X3971475Y1421667D1*
X3974104Y1418049D1*
X3976134Y1414064D1*
X3977516Y1409811D1*
X3978215Y1405394D1*
X3978303Y1311294D1*
X3978215Y785343D1*
X3977516Y780926D1*
X3976134Y776672D1*
X3974104Y772687D1*
X3971475Y769069D1*
X3950313Y747907D1*
X3946694Y745278D1*
X3942710Y743248D1*
X3938456Y741866D1*
X3934039Y741166D1*
X3893156Y741079D1*
X3898515Y736840D1*
X3903632Y731573D1*
X3908002Y725671D1*
X3911547Y719239D1*
X3914203Y712393D1*
X3915923Y705254D1*
X3916677Y697949D1*
X3916437Y690466D1*
X3915216Y683225D1*
X3913041Y676210D1*
X3909951Y669548D1*
X3906001Y663358D1*
X3901261Y657748D1*
X3895817Y652820D1*
X3889764Y648662D1*
X3883211Y645347D1*
X3876275Y642934D1*
X3869079Y641468D1*
X3861717Y640972D1*
X3822647Y641093D1*
X3815369Y642066D1*
X3808285Y644001D1*
X3801521Y646862D1*
X3795200Y650599D1*
X3789432Y655145D1*
X3784322Y660419D1*
X3779959Y666327D1*
X3776423Y672763D1*
X3773776Y679613D1*
X3772065Y686754D1*
X3771321Y694060D1*
X3771556Y701400D1*
X3772768Y708643D1*
X3774933Y715660D1*
X3778015Y722326D1*
X3781957Y728522D1*
X3786689Y734137D1*
X3792127Y739072D1*
X3794830Y741077D1*
X3360477Y741166D1*
X3356059Y741866D1*
X3351806Y743248D1*
X3347821Y745278D1*
X3344203Y747907D1*
X3295085Y796901D1*
X3288587Y796925D1*
X3281845Y797993D1*
X3275353Y800103D1*
X3269271Y803201D1*
X3263749Y807214D1*
X3258922Y812040D1*
X3254910Y817563D1*
X3251811Y823645D1*
X3249702Y830136D1*
X3248634Y836878D1*
Y843704D1*
X3249702Y850446D1*
X3251811Y856938D1*
X3254910Y863020D1*
X3258922Y868542D1*
X3263749Y873369D1*
X3269271Y877381D1*
X3275353Y880480D1*
X3281845Y882589D1*
X3288587Y883657D1*
X3295413D1*
X3302155Y882589D1*
X3308647Y880480D1*
X3314729Y877381D1*
X3320251Y873369D1*
X3325078Y868542D1*
X3329090Y863020D1*
X3332189Y856938D1*
X3334298Y850446D1*
X3335366Y843704D1*
X3335379Y837212D1*
X3374496Y798100D1*
X3773694Y798079D1*
X826300Y759083D2*
X817680Y759760D1*
X809289Y761774D1*
X801316Y765077D1*
X793958Y769586D1*
X787395Y775191D1*
X781791Y781753D1*
X777282Y789111D1*
X773979Y797084D1*
X771964Y805475D1*
X771287Y814079D1*
X771964Y822682D1*
X773979Y831073D1*
X777282Y839046D1*
X781791Y846405D1*
X787395Y852967D1*
X793958Y858571D1*
X794617Y859012D1*
X786219Y864471D1*
X780157Y869250D1*
X774489Y874489D1*
X769250Y880157D1*
X764471Y886219D1*
X760183Y892637D1*
X756411Y899371D1*
X753180Y906381D1*
X750508Y913623D1*
X748413Y921052D1*
X746907Y928622D1*
X746000Y936287D1*
X745697Y944000D1*
X746000Y951713D1*
X746907Y959378D1*
X748413Y966948D1*
X750508Y974377D1*
X753180Y981619D1*
X756411Y988629D1*
X760183Y995363D1*
X764471Y1001781D1*
X769250Y1007843D1*
X774489Y1013511D1*
X780157Y1018750D1*
X786219Y1023529D1*
X792637Y1027817D1*
X799371Y1031589D1*
X806381Y1034820D1*
X813623Y1037492D1*
X821052Y1039587D1*
X828622Y1041093D1*
X836287Y1042000D1*
X844000Y1042303D1*
X851713Y1042000D1*
X859378Y1041093D1*
X866948Y1039587D1*
X874377Y1037492D1*
X881619Y1034820D1*
X888629Y1031589D1*
X895363Y1027817D1*
X901781Y1023529D1*
X907843Y1018750D1*
X913511Y1013511D1*
X918750Y1007843D1*
X923529Y1001781D1*
X927817Y995363D1*
X931589Y988629D1*
X934820Y981619D1*
X937492Y974377D1*
X939587Y966948D1*
X941093Y959378D1*
X942000Y951713D1*
X942303Y944000D1*
X942000Y936287D1*
X941093Y928622D1*
X939587Y921052D1*
X937492Y913623D1*
X934820Y906381D1*
X931589Y899371D1*
X927817Y892637D1*
X923529Y886219D1*
X918750Y880157D1*
X913511Y874489D1*
X907843Y869250D1*
X901781Y864471D1*
X893338Y859048D1*
X897434Y855898D1*
X903536Y849796D1*
X908608Y842814D1*
X912526Y835125D1*
X915193Y826917D1*
X916543Y818394D1*
Y809764D1*
X915193Y801240D1*
X912526Y793033D1*
X908608Y785343D1*
X903536Y778362D1*
X897434Y772259D1*
X890452Y767187D1*
X882763Y763269D1*
X874555Y760602D1*
X866031Y759252D1*
X843344Y759083D1*
X826283Y759119D1*
X815228Y749842D1*
X822504Y750835D1*
X842819Y750964D1*
X865281Y750849D1*
X872561Y749885D1*
X879648Y747959D1*
X886415Y745107D1*
X892741Y741378D1*
X898515Y736840D1*
X903632Y731573D1*
X908002Y725671D1*
X911547Y719239D1*
X914203Y712393D1*
X915923Y705254D1*
X916677Y697949D1*
X916437Y690466D1*
X915216Y683225D1*
X913041Y676210D1*
X909951Y669548D1*
X906001Y663358D1*
X901261Y657748D1*
X895817Y652820D1*
X889764Y648662D1*
X883211Y645347D1*
X876275Y642934D1*
X869079Y641468D1*
X861717Y640972D1*
X822647Y641093D1*
X815369Y642066D1*
X808285Y644001D1*
X801521Y646862D1*
X795200Y650599D1*
X789432Y655145D1*
X784322Y660419D1*
X779959Y666327D1*
X776423Y672763D1*
X773776Y679613D1*
X772065Y686754D1*
X771321Y694060D1*
X771556Y701400D1*
X772768Y708643D1*
X774933Y715660D1*
X778015Y722326D1*
X781957Y728522D1*
X786689Y734137D1*
X792127Y739072D1*
X798174Y743238D1*
X804723Y746562D1*
X811656Y748984D1*
X815228Y749842D1*
X1502320Y1339410D2*
X1500884Y1330343D1*
X1498047Y1321613D1*
X1493879Y1313434D1*
X1488484Y1306007D1*
X1481993Y1299516D1*
X1474566Y1294121D1*
X1468587Y1290967D1*
X1475169Y1286900D1*
X1481496Y1281496D1*
X1486900Y1275169D1*
X1491248Y1268074D1*
X1493976Y1261622D1*
X1496752Y1268074D1*
X1501100Y1275169D1*
X1506504Y1281496D1*
X1512831Y1286900D1*
X1519926Y1291248D1*
X1527614Y1294432D1*
X1535705Y1296375D1*
X1544000Y1297028D1*
X1552295Y1296375D1*
X1560386Y1294432D1*
X1568074Y1291248D1*
X1575169Y1286900D1*
X1581496Y1281496D1*
X1586900Y1275169D1*
X1591248Y1268074D1*
X1594432Y1260386D1*
X1596375Y1252295D1*
X1597028Y1244000D1*
X1596375Y1235705D1*
X1594432Y1227614D1*
X1591248Y1219926D1*
X1586900Y1212831D1*
X1581496Y1206504D1*
X1575169Y1201100D1*
X1568074Y1196752D1*
X1560386Y1193568D1*
X1552295Y1191625D1*
X1544000Y1190972D1*
X1535705Y1191625D1*
X1527614Y1193568D1*
X1519926Y1196752D1*
X1512831Y1201100D1*
X1506504Y1206504D1*
X1501100Y1212831D1*
X1496752Y1219926D1*
X1494024Y1226378D1*
X1491248Y1219926D1*
X1486900Y1212831D1*
X1481496Y1206504D1*
X1475169Y1201100D1*
X1468074Y1196752D1*
X1460386Y1193568D1*
X1452295Y1191625D1*
X1444016Y1190973D1*
X1442847Y1186558D1*
X1440235Y1180251D1*
X1436669Y1174431D1*
X1432236Y1169241D1*
X1429972Y1167149D1*
X1429976Y1109895D1*
X1434554Y1105251D1*
X1438566Y1099729D1*
X1441665Y1093647D1*
X1443774Y1087155D1*
X1444842Y1080413D1*
Y1073587D1*
X1443774Y1066845D1*
X1441665Y1060353D1*
X1438566Y1054271D1*
X1434554Y1048749D1*
X1429727Y1043922D1*
X1424205Y1039910D1*
X1418123Y1036811D1*
X1411631Y1034702D1*
X1404889Y1033634D1*
X1398063D1*
X1391322Y1034702D1*
X1384830Y1036811D1*
X1378748Y1039910D1*
X1373225Y1043922D1*
X1368399Y1048749D1*
X1364387Y1054271D1*
X1361288Y1060353D1*
X1359178Y1066845D1*
X1358110Y1073587D1*
Y1080413D1*
X1359178Y1087155D1*
X1361288Y1093647D1*
X1364387Y1099729D1*
X1368399Y1105251D1*
X1372980Y1109851D1*
X1372976Y1167105D1*
X1368399Y1171749D1*
X1364387Y1177271D1*
X1361288Y1183353D1*
X1359178Y1189845D1*
X1358551Y1192999D1*
X1352295Y1191625D1*
X1344000Y1190972D1*
X1335705Y1191625D1*
X1327614Y1193568D1*
X1319926Y1196752D1*
X1312831Y1201100D1*
X1306504Y1206504D1*
X1301100Y1212831D1*
X1296752Y1219926D1*
X1294024Y1226378D1*
X1291248Y1219926D1*
X1286900Y1212831D1*
X1281496Y1206504D1*
X1275169Y1201100D1*
X1268074Y1196752D1*
X1260386Y1193568D1*
X1252295Y1191625D1*
X1244000Y1190972D1*
X1235705Y1191625D1*
X1227614Y1193568D1*
X1219926Y1196752D1*
X1212831Y1201100D1*
X1206504Y1206504D1*
X1201100Y1212831D1*
X1196752Y1219926D1*
X1193568Y1227614D1*
X1191625Y1235705D1*
X1190972Y1244000D1*
X1191625Y1252295D1*
X1193568Y1260386D1*
X1196752Y1268074D1*
X1201100Y1275169D1*
X1206504Y1281496D1*
X1212831Y1286900D1*
X1219926Y1291248D1*
X1227614Y1294432D1*
X1235705Y1296375D1*
X1244000Y1297028D1*
X1252295Y1296375D1*
X1260386Y1294432D1*
X1268074Y1291248D1*
X1275169Y1286900D1*
X1281496Y1281496D1*
X1286900Y1275169D1*
X1291248Y1268074D1*
X1293976Y1261622D1*
X1296752Y1268074D1*
X1301100Y1275169D1*
X1306504Y1281496D1*
X1312831Y1286900D1*
X1319373Y1290938D1*
X1313434Y1294121D1*
X1306007Y1299516D1*
X1299516Y1306007D1*
X1294121Y1313434D1*
X1289953Y1321613D1*
X1287116Y1330343D1*
X1285680Y1339410D1*
Y1348590D1*
X1287116Y1357657D1*
X1289953Y1366387D1*
X1294121Y1374566D1*
X1299516Y1381993D1*
X1306007Y1388484D1*
X1313434Y1393879D1*
X1321613Y1398047D1*
X1330343Y1400884D1*
X1339410Y1402320D1*
X1348590D1*
X1357657Y1400884D1*
X1366387Y1398047D1*
X1374566Y1393879D1*
X1381993Y1388484D1*
X1388484Y1381993D1*
X1393993Y1374363D1*
X1399516Y1381993D1*
X1406007Y1388484D1*
X1413434Y1393879D1*
X1421613Y1398047D1*
X1430343Y1400884D1*
X1439410Y1402320D1*
X1448590D1*
X1457657Y1400884D1*
X1466387Y1398047D1*
X1474566Y1393879D1*
X1481993Y1388484D1*
X1488484Y1381993D1*
X1493879Y1374566D1*
X1498047Y1366387D1*
X1500884Y1357657D1*
X1502320Y1348590D1*
Y1339410D1*
Y2839410D2*
X1500884Y2830343D1*
X1498047Y2821613D1*
X1493879Y2813434D1*
X1488484Y2806007D1*
X1481993Y2799516D1*
X1474566Y2794121D1*
X1466387Y2789953D1*
X1457657Y2787116D1*
X1448590Y2785680D1*
X1439410D1*
X1430343Y2787116D1*
X1421613Y2789953D1*
X1413434Y2794121D1*
X1406007Y2799516D1*
X1399516Y2806007D1*
X1394007Y2813637D1*
X1388484Y2806007D1*
X1381993Y2799516D1*
X1374566Y2794121D1*
X1366387Y2789953D1*
X1357657Y2787116D1*
X1348590Y2785680D1*
X1339410D1*
X1330343Y2787116D1*
X1321613Y2789953D1*
X1313434Y2794121D1*
X1306007Y2799516D1*
X1299516Y2806007D1*
X1294007Y2813637D1*
X1290231Y2808154D1*
X1285376Y2802644D1*
X1279868Y2797786D1*
X1273795Y2793656D1*
X1267252Y2790320D1*
X1260343Y2787829D1*
X1253176Y2786224D1*
X1245865Y2785530D1*
X1238524Y2785757D1*
X1231270Y2786902D1*
X1224216Y2788947D1*
X1217474Y2791860D1*
X1211150Y2795594D1*
X1205344Y2800091D1*
X1200147Y2805281D1*
X1195641Y2811081D1*
X1191898Y2817399D1*
X1188975Y2824137D1*
X1186920Y2831188D1*
X1185765Y2838440D1*
X1185527Y2845781D1*
X1186211Y2853093D1*
X1187806Y2860262D1*
X1190286Y2867175D1*
X1193613Y2873722D1*
X1197734Y2879801D1*
X1202585Y2885316D1*
X1208088Y2890180D1*
X1214157Y2894315D1*
X1220696Y2897658D1*
X1227603Y2900155D1*
X1234768Y2901767D1*
X1242079Y2902468D1*
X1249420Y2902248D1*
X1256675Y2901110D1*
X1263731Y2899072D1*
X1270476Y2896166D1*
X1276803Y2892437D1*
X1282614Y2887946D1*
X1287816Y2882761D1*
X1292327Y2876966D1*
X1293996Y2874362D1*
X1299516Y2881993D1*
X1306007Y2888484D1*
X1313434Y2893879D1*
X1321613Y2898047D1*
X1330343Y2900884D1*
X1339410Y2902320D1*
X1348590D1*
X1357657Y2900884D1*
X1359919Y2900246D1*
X1490451Y3030632D1*
X1494069Y3033261D1*
X1498054Y3035291D1*
X1502307Y3036673D1*
X1506725Y3037373D1*
X1600824Y3037461D1*
X1759468D1*
X1759477Y3093484D1*
X1928524D1*
Y2924437D1*
X1759477D1*
Y2980452D1*
X1520791Y2980460D1*
X1442816Y2902511D1*
X1448590Y2902320D1*
X1457657Y2900884D1*
X1466387Y2898047D1*
X1474566Y2893879D1*
X1481993Y2888484D1*
X1488484Y2881993D1*
X1493879Y2874566D1*
X1498047Y2866387D1*
X1500884Y2857657D1*
X1502320Y2848590D1*
Y2839410D1*
X2152320Y3039410D2*
X2150884Y3030343D1*
X2148047Y3021613D1*
X2143879Y3013434D1*
X2138484Y3006007D1*
X2131993Y2999516D1*
X2124566Y2994121D1*
X2116387Y2989953D1*
X2107657Y2987116D1*
X2098590Y2985680D1*
X2089410D1*
X2080343Y2987116D1*
X2071613Y2989953D1*
X2063434Y2994121D1*
X2056007Y2999516D1*
X2049516Y3006007D1*
X2044121Y3013434D1*
X2039953Y3021613D1*
X2037116Y3030343D1*
X2035680Y3039410D1*
Y3048590D1*
X2037116Y3057657D1*
X2037754Y3059919D1*
X1932185Y3165510D1*
X1923582Y3165500D1*
X1919311Y3155627D1*
X1916068Y3149837D1*
X1912381Y3144318D1*
X1908272Y3139106D1*
X1903767Y3134233D1*
X1898894Y3129728D1*
X1893682Y3125619D1*
X1888163Y3121932D1*
X1882373Y3118689D1*
X1876346Y3115910D1*
X1870119Y3113613D1*
X1863732Y3111812D1*
X1857222Y3110517D1*
X1850632Y3109737D1*
X1844000Y3109476D1*
X1837368Y3109737D1*
X1830778Y3110517D1*
X1824268Y3111812D1*
X1817881Y3113613D1*
X1811654Y3115910D1*
X1805627Y3118689D1*
X1799837Y3121932D1*
X1794318Y3125619D1*
X1789106Y3129728D1*
X1784233Y3134233D1*
X1779728Y3139106D1*
X1775619Y3144318D1*
X1771932Y3149837D1*
X1768689Y3155627D1*
X1765910Y3161654D1*
X1763613Y3167881D1*
X1761812Y3174268D1*
X1760517Y3180778D1*
X1759737Y3187368D1*
X1759476Y3194000D1*
X1759737Y3200632D1*
X1760517Y3207222D1*
X1761812Y3213732D1*
X1763613Y3220119D1*
X1765910Y3226346D1*
X1768689Y3232373D1*
X1771932Y3238163D1*
X1775619Y3243682D1*
X1779728Y3248894D1*
X1784233Y3253767D1*
X1789106Y3258272D1*
X1794318Y3262381D1*
X1799837Y3266068D1*
X1805627Y3269311D1*
X1811654Y3272090D1*
X1817881Y3274387D1*
X1824268Y3276188D1*
X1830778Y3277483D1*
X1837368Y3278263D1*
X1844000Y3278524D1*
X1850632Y3278263D1*
X1857222Y3277483D1*
X1863732Y3276188D1*
X1870119Y3274387D1*
X1876346Y3272090D1*
X1882373Y3269311D1*
X1888163Y3266068D1*
X1893682Y3262381D1*
X1898894Y3258272D1*
X1903767Y3253767D1*
X1908272Y3248894D1*
X1912381Y3243682D1*
X1916068Y3238163D1*
X1919311Y3232373D1*
X1923516Y3222479D1*
X1946236Y3222412D1*
X1950653Y3221713D1*
X1954907Y3220331D1*
X1958891Y3218300D1*
X1962509Y3215672D1*
X2029110Y3149195D1*
X2078006Y3100300D1*
X2084849Y3101780D1*
X2094000Y3102500D1*
X2103151Y3101780D1*
X2112077Y3099637D1*
X2120558Y3096124D1*
X2128385Y3091327D1*
X2135366Y3085366D1*
X2141327Y3078385D1*
X2146124Y3070558D1*
X2149637Y3062077D1*
X2151780Y3053151D1*
X2152500Y3044000D1*
X2152320Y3039410D1*
Y3339410D2*
X2150884Y3330343D1*
X2148047Y3321613D1*
X2143879Y3313434D1*
X2138484Y3306007D1*
X2131993Y3299516D1*
X2124566Y3294121D1*
X2116387Y3289953D1*
X2107657Y3287116D1*
X2098590Y3285680D1*
X2089410D1*
X2080343Y3287116D1*
X2071613Y3289953D1*
X2063434Y3294121D1*
X2056007Y3299516D1*
X2049516Y3306007D1*
X2044121Y3313434D1*
X2039953Y3321613D1*
X2037116Y3330343D1*
X2035680Y3339410D1*
Y3348590D1*
X2037116Y3357657D1*
X2039953Y3366387D1*
X2044121Y3374566D1*
X2049516Y3381993D1*
X2056007Y3388484D1*
X2063434Y3393879D1*
X2071613Y3398047D1*
X2080343Y3400884D1*
X2089410Y3402320D1*
X2098590D1*
X2107657Y3400884D1*
X2116387Y3398047D1*
X2124566Y3393879D1*
X2131993Y3388484D1*
X2138484Y3381993D1*
X2143879Y3374566D1*
X2148047Y3366387D1*
X2150884Y3357657D1*
X2152320Y3348590D1*
Y3339410D1*
X2663504Y1988852D2*
X2656785Y1986914D1*
X2649532Y1985762D1*
X2642191Y1985528D1*
X2634879Y1986215D1*
X2627711Y1987814D1*
X2620799Y1990297D1*
X2614253Y1993627D1*
X2608176Y1997752D1*
X2602664Y2002604D1*
X2597803Y2008110D1*
X2593670Y2014181D1*
X2590331Y2020722D1*
X2587837Y2027630D1*
X2586229Y2034796D1*
X2585531Y2042107D1*
X2585754Y2049448D1*
X2586896Y2056703D1*
X2588937Y2063758D1*
X2591020Y2068804D1*
X2585251Y2071241D1*
X2582492Y2072786D1*
X2582381Y1940979D1*
X2581436Y1935012D1*
X2579569Y1929267D1*
X2576827Y1923884D1*
X2573276Y1918996D1*
X2538745Y1884298D1*
X2536943Y1882496D1*
X2674197Y1882500D1*
X2668943Y1888248D1*
X2666606Y1892061D1*
X2664895Y1896193D1*
X2663851Y1900542D1*
X2663500Y1905009D1*
Y1988861D1*
X2802320Y939410D2*
X2800884Y930343D1*
X2798047Y921613D1*
X2793879Y913434D1*
X2788484Y906007D1*
X2781993Y899516D1*
X2774566Y894121D1*
X2766387Y889953D1*
X2757657Y887116D1*
X2748590Y885680D1*
X2739410D1*
X2730343Y887116D1*
X2721613Y889953D1*
X2713434Y894121D1*
X2706007Y899516D1*
X2699516Y906007D1*
X2694007Y913637D1*
X2688484Y906007D1*
X2681993Y899516D1*
X2674566Y894121D1*
X2666387Y889953D1*
X2657657Y887116D1*
X2648590Y885680D1*
X2639410D1*
X2630343Y887116D1*
X2621613Y889953D1*
X2613434Y894121D1*
X2606007Y899516D1*
X2599516Y906007D1*
X2594007Y913637D1*
X2590231Y908154D1*
X2585376Y902644D1*
X2579868Y897786D1*
X2573795Y893656D1*
X2567252Y890320D1*
X2560343Y887829D1*
X2553176Y886224D1*
X2545865Y885530D1*
X2538524Y885757D1*
X2531270Y886902D1*
X2524216Y888947D1*
X2517474Y891860D1*
X2511150Y895594D1*
X2505344Y900091D1*
X2500147Y905281D1*
X2495641Y911081D1*
X2491898Y917399D1*
X2488975Y924137D1*
X2486920Y931188D1*
X2485765Y938440D1*
X2485527Y945781D1*
X2486211Y953093D1*
X2487806Y960262D1*
X2490286Y967175D1*
X2493613Y973722D1*
X2497734Y979801D1*
X2502585Y985316D1*
X2508088Y990180D1*
X2514157Y994315D1*
X2520696Y997658D1*
X2527603Y1000155D1*
X2534768Y1001767D1*
X2542079Y1002468D1*
X2549420Y1002248D1*
X2556675Y1001110D1*
X2563731Y999072D1*
X2570476Y996166D1*
X2576803Y992437D1*
X2582614Y987946D1*
X2587816Y982761D1*
X2592327Y976966D1*
X2593996Y974362D1*
X2599516Y981993D1*
X2606007Y988484D1*
X2613434Y993879D1*
X2621613Y998047D1*
X2630343Y1000884D1*
X2639410Y1002320D1*
X2648590D1*
X2657657Y1000884D1*
X2666387Y998047D1*
X2674566Y993879D1*
X2681993Y988484D1*
X2688484Y981993D1*
X2693993Y974363D1*
X2699516Y981993D1*
X2706007Y988484D1*
X2713434Y993879D1*
X2721613Y998047D1*
X2730343Y1000884D1*
X2739410Y1002320D1*
X2748590D1*
X2757657Y1000884D1*
X2766387Y998047D1*
X2774566Y993879D1*
X2781993Y988484D1*
X2788484Y981993D1*
X2793879Y974566D1*
X2798047Y966387D1*
X2800884Y957657D1*
X2802320Y948590D1*
Y939410D1*
X2193993Y2013637D2*
X2188484Y2006007D1*
X2181993Y1999516D1*
X2174566Y1994121D1*
X2166387Y1989953D1*
X2157657Y1987116D1*
X2148590Y1985680D1*
X2139410D1*
X2130343Y1987116D1*
X2121613Y1989953D1*
X2113434Y1994121D1*
X2106007Y1999516D1*
X2099516Y2006007D1*
X2094121Y2013434D1*
X2089953Y2021613D1*
X2087116Y2030343D1*
X2085680Y2039410D1*
Y2048590D1*
X2087116Y2057657D1*
X2089953Y2066387D1*
X2094121Y2074566D1*
X2099516Y2081993D1*
X2106007Y2088484D1*
X2113434Y2093879D1*
X2121613Y2098047D1*
X2130343Y2100884D1*
X2139410Y2102320D1*
X2148590D1*
X2157657Y2100884D1*
X2166387Y2098047D1*
X2174566Y2093879D1*
X2181993Y2088484D1*
X2188484Y2081993D1*
X2193993Y2074363D1*
X2199516Y2081993D1*
X2206007Y2088484D1*
X2213434Y2093879D1*
X2221613Y2098047D1*
X2230343Y2100884D1*
X2239410Y2102320D1*
X2248590D1*
X2257657Y2100884D1*
X2266387Y2098047D1*
X2274566Y2093879D1*
X2281993Y2088484D1*
X2288484Y2081993D1*
X2293993Y2074363D1*
X2297734Y2079801D1*
X2302585Y2085316D1*
X2308088Y2090180D1*
X2314157Y2094315D1*
X2320696Y2097658D1*
X2327603Y2100155D1*
X2334768Y2101767D1*
X2342079Y2102468D1*
X2349420Y2102248D1*
X2356675Y2101110D1*
X2363731Y2099072D1*
X2370476Y2096166D1*
X2376803Y2092437D1*
X2382614Y2087946D1*
X2387816Y2082761D1*
X2392327Y2076966D1*
X2396077Y2070651D1*
X2399005Y2063916D1*
X2401067Y2056867D1*
X2402230Y2049615D1*
X2402471Y2042163D1*
X2401780Y2034851D1*
X2400179Y2027684D1*
X2397692Y2020774D1*
X2394358Y2014229D1*
X2390231Y2008154D1*
X2385376Y2002644D1*
X2379868Y1997786D1*
X2373795Y1993656D1*
X2367252Y1990320D1*
X2360343Y1987829D1*
X2353176Y1986224D1*
X2345865Y1985530D1*
X2338524Y1985757D1*
X2331270Y1986902D1*
X2324216Y1988947D1*
X2317474Y1991860D1*
X2311150Y1995594D1*
X2305344Y2000091D1*
X2300147Y2005281D1*
X2295641Y2011081D1*
X2294004Y2013637D1*
X2288484Y2006007D1*
X2281993Y1999516D1*
X2274566Y1994121D1*
X2266387Y1989953D1*
X2257657Y1987116D1*
X2248590Y1985680D1*
X2239410D1*
X2230343Y1987116D1*
X2221613Y1989953D1*
X2213434Y1994121D1*
X2206007Y1999516D1*
X2199516Y2006007D1*
X2194007Y2013637D1*
X3552471Y3342163D2*
X3551780Y3334851D1*
X3550179Y3327684D1*
X3547692Y3320774D1*
X3544358Y3314229D1*
X3540231Y3308154D1*
X3535376Y3302644D1*
X3529868Y3297786D1*
X3523795Y3293656D1*
X3517252Y3290320D1*
X3510343Y3287829D1*
X3503176Y3286224D1*
X3495865Y3285530D1*
X3488524Y3285757D1*
X3481270Y3286902D1*
X3474216Y3288947D1*
X3467474Y3291860D1*
X3461150Y3295594D1*
X3455344Y3300091D1*
X3450147Y3305281D1*
X3445641Y3311081D1*
X3441898Y3317399D1*
X3438975Y3324137D1*
X3436920Y3331188D1*
X3435765Y3338440D1*
X3435527Y3345781D1*
X3436211Y3353093D1*
X3437806Y3360262D1*
X3440286Y3367175D1*
X3443613Y3373722D1*
X3447734Y3379801D1*
X3452585Y3385316D1*
X3458088Y3390180D1*
X3464157Y3394315D1*
X3470696Y3397658D1*
X3477603Y3400155D1*
X3484768Y3401767D1*
X3492079Y3402468D1*
X3499420Y3402248D1*
X3506675Y3401110D1*
X3513731Y3399072D1*
X3520476Y3396166D1*
X3526803Y3392437D1*
X3532614Y3387946D1*
X3537816Y3382761D1*
X3542327Y3376966D1*
X3546077Y3370651D1*
X3549005Y3363916D1*
X3551067Y3356867D1*
X3552230Y3349615D1*
X3552471Y3342163D1*
X3552320Y3039410D2*
X3550884Y3030343D1*
X3548047Y3021613D1*
X3543879Y3013434D1*
X3538484Y3006007D1*
X3531993Y2999516D1*
X3524566Y2994121D1*
X3516387Y2989953D1*
X3507657Y2987116D1*
X3498590Y2985680D1*
X3489410D1*
X3480343Y2987116D1*
X3471613Y2989953D1*
X3463434Y2994121D1*
X3456007Y2999516D1*
X3449516Y3006007D1*
X3444121Y3013434D1*
X3439953Y3021613D1*
X3437116Y3030343D1*
X3435680Y3039410D1*
Y3048590D1*
X3437116Y3057657D1*
X3439953Y3066387D1*
X3444121Y3074566D1*
X3449516Y3081993D1*
X3456007Y3088484D1*
X3463434Y3093879D1*
X3471613Y3098047D1*
X3480343Y3100884D1*
X3489410Y3102320D1*
X3498590D1*
X3507657Y3100884D1*
X3516387Y3098047D1*
X3524566Y3093879D1*
X3531993Y3088484D1*
X3538484Y3081993D1*
X3543879Y3074566D1*
X3548047Y3066387D1*
X3550884Y3057657D1*
X3552320Y3048590D1*
Y3039410D1*
X1352320Y3789410D2*
X1350884Y3780343D1*
X1348047Y3771613D1*
X1343879Y3763434D1*
X1338484Y3756007D1*
X1331993Y3749516D1*
X1324566Y3744121D1*
X1316387Y3739953D1*
X1307657Y3737116D1*
X1298590Y3735680D1*
X1289410D1*
X1280343Y3737116D1*
X1271613Y3739953D1*
X1263434Y3744121D1*
X1256007Y3749516D1*
X1249516Y3756007D1*
X1244121Y3763434D1*
X1239953Y3771613D1*
X1237116Y3780343D1*
X1235680Y3789410D1*
Y3798590D1*
X1237116Y3807657D1*
X1239953Y3816387D1*
X1244121Y3824566D1*
X1249516Y3831993D1*
X1256007Y3838484D1*
X1263434Y3843879D1*
X1271613Y3848047D1*
X1280343Y3850884D1*
X1289410Y3852320D1*
X1298590D1*
X1307657Y3850884D1*
X1316387Y3848047D1*
X1324566Y3843879D1*
X1331993Y3838484D1*
X1338484Y3831993D1*
X1343879Y3824566D1*
X1348047Y3816387D1*
X1350884Y3807657D1*
X1352320Y3798590D1*
Y3789410D1*
Y4089410D2*
X1350884Y4080343D1*
X1348047Y4071613D1*
X1343879Y4063434D1*
X1338484Y4056007D1*
X1331993Y4049516D1*
X1324566Y4044121D1*
X1322515Y4042972D1*
X1322412Y3959764D1*
X1321713Y3955347D1*
X1320331Y3951094D1*
X1318300Y3947109D1*
X1315672Y3943491D1*
X1294509Y3922328D1*
X1290891Y3919700D1*
X1286906Y3917669D1*
X1282653Y3916287D1*
X1278236Y3915588D1*
X1184136Y3915500D1*
X1175608Y3915458D1*
X1171386Y3908441D1*
X1182461Y3908445D1*
Y3782705D1*
X1056721D1*
Y3908445D1*
X1067737D1*
X1063573Y3915458D1*
X1059798Y3924572D1*
X1057495Y3934165D1*
X1056720Y3944000D1*
X1057495Y3953835D1*
X1059798Y3963428D1*
X1063573Y3972542D1*
X1068728Y3980954D1*
X1075135Y3988456D1*
X1080501Y3993180D1*
X1075135Y3997969D1*
X1068728Y4005471D1*
X1063573Y4013883D1*
X1059798Y4022997D1*
X1057495Y4032590D1*
X1056720Y4042425D1*
X1057495Y4052260D1*
X1059798Y4061853D1*
X1063573Y4070968D1*
X1068728Y4079379D1*
X1075135Y4086881D1*
X1082636Y4093288D1*
X1091048Y4098443D1*
X1100163Y4102218D1*
X1109756Y4104521D1*
X1119591Y4105295D1*
X1129426Y4104521D1*
X1139018Y4102218D1*
X1148133Y4098443D1*
X1156545Y4093288D1*
X1164046Y4086881D1*
X1170454Y4079379D1*
X1175608Y4070968D1*
X1179384Y4061853D1*
X1181687Y4052260D1*
X1182461Y4042425D1*
X1181687Y4032590D1*
X1179384Y4022997D1*
X1175608Y4013883D1*
X1170454Y4005471D1*
X1164046Y3997969D1*
X1158680Y3993246D1*
X1164046Y3988456D1*
X1170454Y3980954D1*
X1175632Y3972490D1*
X1264168Y3972500D1*
X1265500Y3980373D1*
Y4042919D1*
X1259615Y4046673D1*
X1252634Y4052634D1*
X1246673Y4059615D1*
X1241876Y4067442D1*
X1238363Y4075923D1*
X1236220Y4084849D1*
X1235500Y4094000D1*
X1236220Y4103151D1*
X1238363Y4112077D1*
X1241876Y4120558D1*
X1246673Y4128385D1*
X1252634Y4135366D1*
X1259615Y4141327D1*
X1267442Y4146124D1*
X1275923Y4149637D1*
X1284849Y4151780D1*
X1294000Y4152500D1*
X1303151Y4151780D1*
X1312077Y4149637D1*
X1320558Y4146124D1*
X1328385Y4141327D1*
X1335366Y4135366D1*
X1341327Y4128385D1*
X1346124Y4120558D1*
X1349637Y4112077D1*
X1351780Y4103151D1*
X1352500Y4094000D1*
X1352320Y4089410D1*
X832214Y3678375D2*
X825712Y3678629D1*
X819275Y3679390D1*
X812917Y3680655D1*
X806678Y3682415D1*
X800597Y3684658D1*
X794710Y3687372D1*
X789054Y3690539D1*
X783664Y3694141D1*
X778574Y3698154D1*
X773814Y3702554D1*
X769414Y3707314D1*
X765400Y3712404D1*
X761799Y3717794D1*
X758632Y3723450D1*
X755918Y3729337D1*
X753674Y3735418D1*
X751915Y3741657D1*
X750650Y3748015D1*
X749888Y3754452D1*
X749634Y3760929D1*
X749888Y3767406D1*
X750650Y3773844D1*
X751915Y3780201D1*
X753674Y3786440D1*
X755918Y3792522D1*
X758632Y3798408D1*
X761799Y3804064D1*
X765400Y3809454D1*
X769414Y3814544D1*
X773814Y3819304D1*
X778574Y3823705D1*
X783664Y3827718D1*
X789054Y3831319D1*
X794710Y3834486D1*
X800597Y3837200D1*
X806678Y3839444D1*
X812917Y3841203D1*
X819275Y3842468D1*
X825712Y3843230D1*
X841375Y3843484D1*
X862288Y3843230D1*
X868725Y3842468D1*
X875083Y3841203D1*
X881322Y3839444D1*
X887403Y3837200D1*
X893290Y3834486D1*
X898946Y3831319D1*
X904336Y3827718D1*
X909426Y3823705D1*
X914186Y3819304D1*
X918586Y3814544D1*
X922600Y3809454D1*
X926201Y3804064D1*
X929368Y3798408D1*
X932082Y3792522D1*
X934326Y3786440D1*
X936085Y3780201D1*
X937350Y3773844D1*
X938112Y3767406D1*
X938366Y3760929D1*
X938112Y3754452D1*
X937350Y3748015D1*
X936085Y3741657D1*
X934326Y3735418D1*
X932082Y3729337D1*
X929368Y3723450D1*
X926201Y3717794D1*
X922600Y3712404D1*
X918586Y3707314D1*
X914186Y3702554D1*
X909426Y3698154D1*
X904336Y3694141D1*
X898946Y3690539D1*
X893290Y3687372D1*
X887403Y3684658D1*
X881322Y3682415D1*
X875083Y3680655D1*
X868725Y3679390D1*
X862288Y3678629D1*
X846625Y3678374D1*
X832189Y3678410D1*
X832214Y4044517D2*
X825712Y4044770D1*
X819275Y4045532D1*
X812917Y4046797D1*
X806678Y4048556D1*
X800597Y4050800D1*
X794710Y4053514D1*
X789054Y4056681D1*
X783664Y4060282D1*
X778574Y4064295D1*
X773814Y4068696D1*
X769414Y4073456D1*
X765400Y4078546D1*
X761799Y4083936D1*
X758632Y4089592D1*
X755918Y4095478D1*
X753674Y4101560D1*
X751915Y4107799D1*
X750650Y4114156D1*
X749888Y4120594D1*
X749634Y4127071D1*
X749888Y4133548D1*
X750650Y4139985D1*
X751915Y4146343D1*
X753674Y4152582D1*
X755918Y4158663D1*
X758632Y4164550D1*
X761799Y4170206D1*
X765400Y4175596D1*
X769414Y4180686D1*
X773814Y4185446D1*
X778574Y4189846D1*
X783664Y4193859D1*
X789054Y4197461D1*
X794710Y4200628D1*
X800597Y4203342D1*
X806678Y4205585D1*
X812917Y4207345D1*
X819275Y4208610D1*
X825712Y4209371D1*
X841376Y4209626D1*
X862288Y4209371D1*
X868725Y4208610D1*
X875083Y4207345D1*
X881322Y4205585D1*
X887403Y4203342D1*
X893290Y4200628D1*
X898946Y4197461D1*
X904336Y4193859D1*
X909426Y4189846D1*
X914186Y4185446D1*
X918586Y4180686D1*
X922600Y4175596D1*
X926201Y4170206D1*
X929368Y4164550D1*
X932082Y4158663D1*
X934326Y4152582D1*
X936085Y4146343D1*
X937350Y4139985D1*
X938112Y4133548D1*
X938366Y4127071D1*
X938112Y4120594D1*
X937350Y4114156D1*
X936085Y4107799D1*
X934326Y4101560D1*
X932082Y4095478D1*
X929368Y4089592D1*
X926201Y4083936D1*
X922600Y4078546D1*
X918586Y4073456D1*
X914186Y4068696D1*
X909426Y4064295D1*
X904336Y4060282D1*
X898946Y4056681D1*
X893290Y4053514D1*
X887403Y4050800D1*
X881322Y4048556D1*
X875083Y4046797D1*
X868725Y4045532D1*
X862288Y4044770D1*
X846625Y4044516D1*
X832189Y4044551D1*
X2182267Y2537492D2*
X2180724Y2527748D1*
X2177675Y2518366D1*
X2173196Y2509576D1*
X2167397Y2501594D1*
X2160421Y2494618D1*
X2158680Y2493246D1*
X2164046Y2488456D1*
X2170454Y2480954D1*
X2175608Y2472542D1*
X2179384Y2463428D1*
X2181687Y2453835D1*
X2182461Y2444000D1*
X2181687Y2434165D1*
X2179384Y2424572D1*
X2175608Y2415458D1*
X2171386Y2408441D1*
X2182461Y2408445D1*
Y2282704D1*
X2056721D1*
Y2408445D1*
X2067737D1*
X2063573Y2415458D1*
X2059798Y2424572D1*
X2057495Y2434165D1*
X2056720Y2444000D1*
X2057495Y2453835D1*
X2059798Y2463428D1*
X2063573Y2472542D1*
X2068728Y2480954D1*
X2075135Y2488456D1*
X2080501Y2493180D1*
X2075135Y2497969D1*
X2068728Y2505471D1*
X2063573Y2513883D1*
X2059798Y2522997D1*
X2057495Y2532590D1*
X2056720Y2542425D1*
X2057495Y2552260D1*
X2059798Y2561853D1*
X2063573Y2570968D1*
X2068728Y2579379D1*
X2075135Y2586881D1*
X2082636Y2593288D1*
X2091048Y2598443D1*
X2100163Y2602218D1*
X2109756Y2604521D1*
X2119591Y2605295D1*
X2129426Y2604521D1*
X2139018Y2602218D1*
X2148133Y2598443D1*
X2156545Y2593288D1*
X2164046Y2586881D1*
X2170454Y2579379D1*
X2175608Y2570968D1*
X2179384Y2561853D1*
X2181687Y2552260D1*
X2182461Y2542425D1*
X2182267Y2537492D1*
X1832214Y2544517D2*
X1825712Y2544770D1*
X1819275Y2545532D1*
X1812917Y2546797D1*
X1806678Y2548556D1*
X1800597Y2550800D1*
X1794710Y2553514D1*
X1789054Y2556681D1*
X1783664Y2560282D1*
X1778574Y2564295D1*
X1773814Y2568696D1*
X1769414Y2573456D1*
X1765400Y2578546D1*
X1761799Y2583936D1*
X1758632Y2589592D1*
X1755918Y2595478D1*
X1753674Y2601560D1*
X1751915Y2607799D1*
X1750650Y2614156D1*
X1749888Y2620594D1*
X1749634Y2627071D1*
X1749888Y2633548D1*
X1750650Y2639985D1*
X1751915Y2646343D1*
X1753674Y2652582D1*
X1755918Y2658663D1*
X1758632Y2664550D1*
X1761799Y2670206D1*
X1765400Y2675596D1*
X1769414Y2680686D1*
X1773814Y2685446D1*
X1778574Y2689846D1*
X1783664Y2693859D1*
X1789054Y2697461D1*
X1794710Y2700628D1*
X1800597Y2703342D1*
X1806678Y2705585D1*
X1812917Y2707345D1*
X1819275Y2708610D1*
X1825712Y2709371D1*
X1841376Y2709626D1*
X1862288Y2709371D1*
X1868725Y2708610D1*
X1875083Y2707345D1*
X1881322Y2705585D1*
X1887403Y2703342D1*
X1893290Y2700628D1*
X1898946Y2697461D1*
X1904336Y2693859D1*
X1909426Y2689846D1*
X1914186Y2685446D1*
X1918586Y2680686D1*
X1922600Y2675596D1*
X1926201Y2670206D1*
X1929368Y2664550D1*
X1932082Y2658663D1*
X1934326Y2652582D1*
X1936085Y2646343D1*
X1937350Y2639985D1*
X1938112Y2633548D1*
X1938366Y2627071D1*
X1938112Y2620594D1*
X1937350Y2614156D1*
X1936085Y2607799D1*
X1934326Y2601560D1*
X1932082Y2595478D1*
X1929368Y2589592D1*
X1926201Y2583936D1*
X1922600Y2578546D1*
X1918586Y2573456D1*
X1914186Y2568696D1*
X1909426Y2564295D1*
X1904336Y2560282D1*
X1898946Y2556681D1*
X1893290Y2553514D1*
X1887403Y2550800D1*
X1881322Y2548556D1*
X1875083Y2546797D1*
X1868725Y2545532D1*
X1862288Y2544770D1*
X1846625Y2544515D1*
X1832189Y2544551D1*
X2182267Y4037492D2*
X2180724Y4027748D1*
X2177675Y4018366D1*
X2173196Y4009576D1*
X2167397Y4001594D1*
X2160421Y3994618D1*
X2158680Y3993246D1*
X2164046Y3988456D1*
X2170454Y3980954D1*
X2175608Y3972542D1*
X2179384Y3963428D1*
X2181687Y3953835D1*
X2182461Y3944000D1*
X2181687Y3934165D1*
X2179384Y3924572D1*
X2175608Y3915458D1*
X2171386Y3908441D1*
X2182461Y3908445D1*
Y3782705D1*
X2056720D1*
Y3908445D1*
X2067737D1*
X2063573Y3915458D1*
X2059798Y3924572D1*
X2057495Y3934165D1*
X2056720Y3944000D1*
X2057495Y3953835D1*
X2059798Y3963428D1*
X2063573Y3972542D1*
X2068728Y3980954D1*
X2075135Y3988456D1*
X2080501Y3993180D1*
X2075135Y3997969D1*
X2068728Y4005471D1*
X2063573Y4013883D1*
X2059798Y4022997D1*
X2057495Y4032590D1*
X2056720Y4042425D1*
X2057495Y4052260D1*
X2059798Y4061853D1*
X2063573Y4070968D1*
X2068728Y4079379D1*
X2075135Y4086881D1*
X2082636Y4093288D1*
X2091048Y4098443D1*
X2100163Y4102218D1*
X2109756Y4104521D1*
X2119591Y4105295D1*
X2129426Y4104521D1*
X2139018Y4102218D1*
X2148133Y4098443D1*
X2156545Y4093288D1*
X2164046Y4086881D1*
X2170454Y4079379D1*
X2175608Y4070968D1*
X2179384Y4061853D1*
X2181687Y4052260D1*
X2182461Y4042425D1*
X2182267Y4037492D1*
X1832214Y3678375D2*
X1825712Y3678629D1*
X1819275Y3679390D1*
X1812917Y3680655D1*
X1806678Y3682415D1*
X1800597Y3684658D1*
X1794710Y3687372D1*
X1789054Y3690539D1*
X1783664Y3694141D1*
X1778574Y3698154D1*
X1773814Y3702554D1*
X1769414Y3707314D1*
X1765400Y3712404D1*
X1761799Y3717794D1*
X1758632Y3723450D1*
X1755918Y3729337D1*
X1753674Y3735418D1*
X1751915Y3741657D1*
X1750650Y3748015D1*
X1749888Y3754452D1*
X1749634Y3760929D1*
X1749888Y3767406D1*
X1750650Y3773844D1*
X1751915Y3780201D1*
X1753674Y3786440D1*
X1755918Y3792522D1*
X1758632Y3798408D1*
X1761799Y3804064D1*
X1765400Y3809454D1*
X1769414Y3814544D1*
X1773814Y3819304D1*
X1778574Y3823705D1*
X1783664Y3827718D1*
X1789054Y3831319D1*
X1794710Y3834486D1*
X1800597Y3837200D1*
X1806678Y3839444D1*
X1812917Y3841203D1*
X1819275Y3842468D1*
X1825712Y3843230D1*
X1841375Y3843484D1*
X1862288Y3843230D1*
X1868725Y3842468D1*
X1875083Y3841203D1*
X1881322Y3839444D1*
X1887403Y3837200D1*
X1893290Y3834486D1*
X1898946Y3831319D1*
X1904336Y3827718D1*
X1909426Y3823705D1*
X1914186Y3819304D1*
X1918586Y3814544D1*
X1922600Y3809454D1*
X1926201Y3804064D1*
X1929368Y3798408D1*
X1932082Y3792522D1*
X1934326Y3786440D1*
X1936085Y3780201D1*
X1937350Y3773844D1*
X1938112Y3767406D1*
X1938366Y3760929D1*
X1938112Y3754452D1*
X1937350Y3748015D1*
X1936085Y3741657D1*
X1934326Y3735418D1*
X1932082Y3729337D1*
X1929368Y3723450D1*
X1926201Y3717794D1*
X1922600Y3712404D1*
X1918586Y3707314D1*
X1914186Y3702554D1*
X1909426Y3698154D1*
X1904336Y3694141D1*
X1898946Y3690539D1*
X1893290Y3687372D1*
X1887403Y3684658D1*
X1881322Y3682415D1*
X1875083Y3680655D1*
X1868725Y3679390D1*
X1862288Y3678629D1*
X1846625Y3678374D1*
X1832189Y3678410D1*
X1832214Y4044517D2*
X1825712Y4044770D1*
X1819275Y4045532D1*
X1812917Y4046797D1*
X1806678Y4048556D1*
X1800597Y4050800D1*
X1794710Y4053514D1*
X1789054Y4056681D1*
X1783664Y4060282D1*
X1778574Y4064295D1*
X1773814Y4068696D1*
X1769414Y4073456D1*
X1765400Y4078546D1*
X1761799Y4083936D1*
X1758632Y4089592D1*
X1755918Y4095478D1*
X1753674Y4101560D1*
X1751915Y4107799D1*
X1750650Y4114156D1*
X1749888Y4120594D1*
X1749634Y4127071D1*
X1749888Y4133548D1*
X1750650Y4139985D1*
X1751915Y4146343D1*
X1753674Y4152582D1*
X1755918Y4158663D1*
X1758632Y4164550D1*
X1761799Y4170206D1*
X1765400Y4175596D1*
X1769414Y4180686D1*
X1773814Y4185446D1*
X1778574Y4189846D1*
X1783664Y4193859D1*
X1789054Y4197461D1*
X1794710Y4200628D1*
X1800597Y4203342D1*
X1806678Y4205585D1*
X1812917Y4207345D1*
X1819275Y4208610D1*
X1825712Y4209371D1*
X1841375Y4209626D1*
X1862288Y4209371D1*
X1868725Y4208610D1*
X1875083Y4207345D1*
X1881322Y4205585D1*
X1887403Y4203342D1*
X1893290Y4200628D1*
X1898946Y4197461D1*
X1904336Y4193859D1*
X1909426Y4189846D1*
X1914186Y4185446D1*
X1918586Y4180686D1*
X1922600Y4175596D1*
X1926201Y4170206D1*
X1929368Y4164550D1*
X1932082Y4158663D1*
X1934326Y4152582D1*
X1936085Y4146343D1*
X1937350Y4139985D1*
X1938112Y4133548D1*
X1938366Y4127071D1*
X1938112Y4120594D1*
X1937350Y4114156D1*
X1936085Y4107799D1*
X1934326Y4101560D1*
X1932082Y4095478D1*
X1929368Y4089592D1*
X1926201Y4083936D1*
X1922600Y4078546D1*
X1918586Y4073456D1*
X1914186Y4068696D1*
X1909426Y4064295D1*
X1904336Y4060282D1*
X1898946Y4056681D1*
X1893290Y4053514D1*
X1887403Y4050800D1*
X1881322Y4048556D1*
X1875083Y4046797D1*
X1868725Y4045532D1*
X1862288Y4044770D1*
X1846625Y4044516D1*
X1832189Y4044552D1*
X2832214Y2178375D2*
X2825712Y2178629D1*
X2819275Y2179390D1*
X2812917Y2180655D1*
X2806678Y2182415D1*
X2800597Y2184658D1*
X2794710Y2187372D1*
X2789054Y2190539D1*
X2783664Y2194141D1*
X2778574Y2198154D1*
X2773814Y2202554D1*
X2769414Y2207314D1*
X2765400Y2212404D1*
X2761799Y2217794D1*
X2758632Y2223450D1*
X2755918Y2229337D1*
X2753674Y2235418D1*
X2751915Y2241657D1*
X2750650Y2248015D1*
X2749888Y2254452D1*
X2749634Y2260929D1*
X2749888Y2267406D1*
X2750650Y2273844D1*
X2751915Y2280201D1*
X2753674Y2286440D1*
X2755918Y2292522D1*
X2758632Y2298408D1*
X2761799Y2304064D1*
X2765400Y2309454D1*
X2769414Y2314544D1*
X2773814Y2319304D1*
X2778574Y2323705D1*
X2783664Y2327718D1*
X2789054Y2331319D1*
X2794710Y2334486D1*
X2800597Y2337200D1*
X2806678Y2339444D1*
X2812917Y2341203D1*
X2819275Y2342468D1*
X2825712Y2343230D1*
X2841375Y2343484D1*
X2862288Y2343230D1*
X2868725Y2342468D1*
X2875083Y2341203D1*
X2881322Y2339444D1*
X2887403Y2337200D1*
X2893290Y2334486D1*
X2898946Y2331319D1*
X2904336Y2327718D1*
X2909426Y2323705D1*
X2914186Y2319304D1*
X2918586Y2314544D1*
X2922600Y2309454D1*
X2926201Y2304064D1*
X2929368Y2298408D1*
X2932082Y2292522D1*
X2934326Y2286440D1*
X2936085Y2280201D1*
X2937350Y2273844D1*
X2938112Y2267406D1*
X2938366Y2260929D1*
X2938112Y2254452D1*
X2937350Y2248015D1*
X2936085Y2241657D1*
X2934326Y2235418D1*
X2932082Y2229337D1*
X2929368Y2223450D1*
X2926201Y2217794D1*
X2922600Y2212404D1*
X2918586Y2207314D1*
X2914186Y2202554D1*
X2909426Y2198154D1*
X2904336Y2194141D1*
X2898946Y2190539D1*
X2893290Y2187372D1*
X2887403Y2184658D1*
X2881322Y2182415D1*
X2875083Y2180655D1*
X2868725Y2179390D1*
X2862288Y2178629D1*
X2846625Y2178374D1*
X2832189Y2178410D1*
X4182267Y2537492D2*
X4180724Y2527748D1*
X4177675Y2518366D1*
X4173196Y2509576D1*
X4167397Y2501594D1*
X4160421Y2494618D1*
X4158680Y2493246D1*
X4164046Y2488456D1*
X4170454Y2480954D1*
X4175608Y2472542D1*
X4179384Y2463428D1*
X4181687Y2453835D1*
X4182461Y2444000D1*
X4181687Y2434165D1*
X4179384Y2424572D1*
X4175608Y2415458D1*
X4171386Y2408441D1*
X4182461Y2408445D1*
Y2282704D1*
X4056721D1*
Y2408445D1*
X4067737D1*
X4063573Y2415458D1*
X4059798Y2424572D1*
X4057495Y2434165D1*
X4056720Y2444000D1*
X4057495Y2453835D1*
X4059798Y2463428D1*
X4063573Y2472542D1*
X4068728Y2480954D1*
X4075135Y2488456D1*
X4080501Y2493180D1*
X4075135Y2497969D1*
X4068728Y2505471D1*
X4063573Y2513883D1*
X4059798Y2522997D1*
X4057495Y2532590D1*
X4056720Y2542425D1*
X4057495Y2552260D1*
X4059798Y2561853D1*
X4063573Y2570968D1*
X4068728Y2579379D1*
X4075135Y2586881D1*
X4082636Y2593288D1*
X4091048Y2598443D1*
X4100163Y2602218D1*
X4109756Y2604521D1*
X4119591Y2605295D1*
X4129426Y2604521D1*
X4139018Y2602218D1*
X4148133Y2598443D1*
X4156545Y2593288D1*
X4164046Y2586881D1*
X4170454Y2579379D1*
X4175608Y2570968D1*
X4179384Y2561853D1*
X4181687Y2552260D1*
X4182461Y2542425D1*
X4182267Y2537492D1*
X3832214Y2178375D2*
X3825712Y2178629D1*
X3819275Y2179390D1*
X3812917Y2180655D1*
X3806678Y2182415D1*
X3800597Y2184658D1*
X3794710Y2187372D1*
X3789054Y2190539D1*
X3783664Y2194141D1*
X3778574Y2198154D1*
X3773814Y2202554D1*
X3769414Y2207314D1*
X3765400Y2212404D1*
X3761799Y2217794D1*
X3758632Y2223450D1*
X3755918Y2229337D1*
X3753674Y2235418D1*
X3751915Y2241657D1*
X3750650Y2248015D1*
X3749888Y2254452D1*
X3749634Y2260929D1*
X3749888Y2267406D1*
X3750650Y2273844D1*
X3751915Y2280201D1*
X3753674Y2286440D1*
X3755918Y2292522D1*
X3758632Y2298408D1*
X3761799Y2304064D1*
X3765400Y2309454D1*
X3769414Y2314544D1*
X3773814Y2319304D1*
X3778574Y2323705D1*
X3783664Y2327718D1*
X3789054Y2331319D1*
X3794710Y2334486D1*
X3800597Y2337200D1*
X3806678Y2339444D1*
X3812917Y2341203D1*
X3819275Y2342468D1*
X3825712Y2343230D1*
X3841376Y2343484D1*
X3862288Y2343230D1*
X3868725Y2342468D1*
X3875083Y2341203D1*
X3881322Y2339444D1*
X3887403Y2337200D1*
X3893290Y2334486D1*
X3898946Y2331319D1*
X3904336Y2327718D1*
X3909426Y2323705D1*
X3914186Y2319304D1*
X3918586Y2314544D1*
X3922600Y2309454D1*
X3926201Y2304064D1*
X3929368Y2298408D1*
X3932082Y2292522D1*
X3934326Y2286440D1*
X3936085Y2280201D1*
X3937350Y2273844D1*
X3938112Y2267406D1*
X3938366Y2260929D1*
X3938112Y2254452D1*
X3937350Y2248015D1*
X3936085Y2241657D1*
X3934326Y2235418D1*
X3932082Y2229337D1*
X3929368Y2223450D1*
X3926201Y2217794D1*
X3922600Y2212404D1*
X3918586Y2207314D1*
X3914186Y2202554D1*
X3909426Y2198154D1*
X3904336Y2194141D1*
X3898946Y2190539D1*
X3893290Y2187372D1*
X3887403Y2184658D1*
X3881322Y2182415D1*
X3875083Y2180655D1*
X3868725Y2179390D1*
X3862288Y2178629D1*
X3846625Y2178374D1*
X3832189Y2178410D1*
X3832214Y2544517D2*
X3825712Y2544770D1*
X3819275Y2545532D1*
X3812917Y2546797D1*
X3806678Y2548556D1*
X3800597Y2550800D1*
X3794710Y2553514D1*
X3789054Y2556681D1*
X3783664Y2560282D1*
X3778574Y2564295D1*
X3773814Y2568696D1*
X3769414Y2573456D1*
X3765400Y2578546D1*
X3761799Y2583936D1*
X3758632Y2589592D1*
X3755918Y2595478D1*
X3753674Y2601560D1*
X3751915Y2607799D1*
X3750650Y2614156D1*
X3749888Y2620594D1*
X3749634Y2627071D1*
X3749888Y2633548D1*
X3750650Y2639985D1*
X3751915Y2646343D1*
X3753674Y2652582D1*
X3755918Y2658663D1*
X3758632Y2664550D1*
X3761799Y2670206D1*
X3765400Y2675596D1*
X3769414Y2680686D1*
X3773814Y2685446D1*
X3778574Y2689846D1*
X3783664Y2693859D1*
X3789054Y2697461D1*
X3794710Y2700628D1*
X3800597Y2703342D1*
X3806678Y2705585D1*
X3812917Y2707345D1*
X3819275Y2708610D1*
X3825712Y2709371D1*
X3841376Y2709626D1*
X3862288Y2709371D1*
X3868725Y2708610D1*
X3875083Y2707345D1*
X3881322Y2705585D1*
X3887403Y2703342D1*
X3893290Y2700628D1*
X3898946Y2697461D1*
X3904336Y2693859D1*
X3909426Y2689846D1*
X3914186Y2685446D1*
X3918586Y2680686D1*
X3922600Y2675596D1*
X3926201Y2670206D1*
X3929368Y2664550D1*
X3932082Y2658663D1*
X3934326Y2652582D1*
X3936085Y2646343D1*
X3937350Y2639985D1*
X3938112Y2633548D1*
X3938366Y2627071D1*
X3938112Y2620594D1*
X3937350Y2614156D1*
X3936085Y2607799D1*
X3934326Y2601560D1*
X3932082Y2595478D1*
X3929368Y2589592D1*
X3926201Y2583936D1*
X3922600Y2578546D1*
X3918586Y2573456D1*
X3914186Y2568696D1*
X3909426Y2564295D1*
X3904336Y2560282D1*
X3898946Y2556681D1*
X3893290Y2553514D1*
X3887403Y2550800D1*
X3881322Y2548556D1*
X3875083Y2546797D1*
X3868725Y2545532D1*
X3862288Y2544770D1*
X3846625Y2544515D1*
X3832189Y2544551D1*
X4182267Y4037492D2*
X4180724Y4027748D1*
X4177675Y4018366D1*
X4173196Y4009576D1*
X4167397Y4001594D1*
X4160421Y3994618D1*
X4158680Y3993246D1*
X4164046Y3988456D1*
X4170454Y3980954D1*
X4175608Y3972542D1*
X4179384Y3963428D1*
X4181687Y3953835D1*
X4182461Y3944000D1*
X4181687Y3934165D1*
X4179384Y3924572D1*
X4175608Y3915458D1*
X4171386Y3908441D1*
X4182461Y3908445D1*
Y3782705D1*
X4089499D1*
X4089416Y3408768D1*
X4088717Y3404351D1*
X4087335Y3400097D1*
X4085304Y3396113D1*
X4082676Y3392495D1*
X4016199Y3325894D1*
X3920413Y3230107D1*
X3924387Y3220119D1*
X3926188Y3213732D1*
X3927483Y3207222D1*
X3928263Y3200632D1*
X3928524Y3194000D1*
X3928263Y3187368D1*
X3927483Y3180778D1*
X3926188Y3174268D1*
X3924387Y3167881D1*
X3922090Y3161654D1*
X3919311Y3155627D1*
X3916068Y3149837D1*
X3912381Y3144318D1*
X3908272Y3139106D1*
X3903767Y3134233D1*
X3898894Y3129728D1*
X3893682Y3125619D1*
X3888163Y3121932D1*
X3882373Y3118689D1*
X3876346Y3115910D1*
X3870119Y3113613D1*
X3863732Y3111812D1*
X3857222Y3110517D1*
X3850632Y3109737D1*
X3844000Y3109476D1*
X3837368Y3109737D1*
X3830778Y3110517D1*
X3824268Y3111812D1*
X3817881Y3113613D1*
X3811654Y3115910D1*
X3805627Y3118689D1*
X3799837Y3121932D1*
X3794318Y3125619D1*
X3789106Y3129728D1*
X3784233Y3134233D1*
X3779728Y3139106D1*
X3775619Y3144318D1*
X3771932Y3149837D1*
X3768689Y3155627D1*
X3765910Y3161654D1*
X3763613Y3167881D1*
X3761812Y3174268D1*
X3760517Y3180778D1*
X3759737Y3187368D1*
X3759476Y3194000D1*
X3759737Y3200632D1*
X3760517Y3207222D1*
X3761812Y3213732D1*
X3763613Y3220119D1*
X3765910Y3226346D1*
X3768689Y3232373D1*
X3771932Y3238163D1*
X3775619Y3243682D1*
X3779728Y3248894D1*
X3784233Y3253767D1*
X3789106Y3258272D1*
X3794318Y3262381D1*
X3799837Y3266068D1*
X3805627Y3269311D1*
X3811654Y3272090D1*
X3817881Y3274387D1*
X3824268Y3276188D1*
X3830778Y3277483D1*
X3837368Y3278263D1*
X3844000Y3278524D1*
X3850632Y3278263D1*
X3857222Y3277483D1*
X3863732Y3276188D1*
X3870119Y3274387D1*
X3880089Y3270364D1*
X4032497Y3422803D1*
X4032592Y3986075D1*
X4033291Y3990492D1*
X4034673Y3994745D1*
X4036704Y3998730D1*
X4039332Y4002348D1*
X4059798Y4022997D1*
X4057495Y4032590D1*
X4056720Y4042425D1*
X4057495Y4052260D1*
X4059798Y4061853D1*
X4063573Y4070968D1*
X4068728Y4079379D1*
X4075135Y4086881D1*
X4082636Y4093288D1*
X4091048Y4098443D1*
X4100163Y4102218D1*
X4100924Y4102433D1*
X4091292Y4113319D1*
X4085817Y4120693D1*
X4080846Y4128417D1*
X4076401Y4136454D1*
X4072503Y4144771D1*
X4069168Y4153328D1*
X4066411Y4162089D1*
X4064244Y4171015D1*
X4062678Y4180065D1*
X4061718Y4189199D1*
X4061370Y4198377D1*
X4061635Y4207558D1*
X4062512Y4216701D1*
X4063996Y4225765D1*
X4066082Y4234709D1*
X4068760Y4243495D1*
X4072017Y4252083D1*
X4075840Y4260434D1*
X4080212Y4268511D1*
X4085113Y4276279D1*
X4090521Y4283703D1*
X4098123Y4292539D1*
X629945Y4292524D1*
X636320Y4285168D1*
X641828Y4277818D1*
X646833Y4270117D1*
X651314Y4262100D1*
X655250Y4253801D1*
X658624Y4245259D1*
X661421Y4236510D1*
X663628Y4227595D1*
X665235Y4218552D1*
X666236Y4209422D1*
X666631Y4199000D1*
X666325Y4189820D1*
X665407Y4180682D1*
X663881Y4171625D1*
X661755Y4162690D1*
X659038Y4153916D1*
X655741Y4145343D1*
X651880Y4137010D1*
X647472Y4128952D1*
X642536Y4121206D1*
X637095Y4113807D1*
X631172Y4106787D1*
X624794Y4100178D1*
X617990Y4094009D1*
X610789Y4088307D1*
X603224Y4083099D1*
X595329Y4078406D1*
X587138Y4074251D1*
X578688Y4070651D1*
X570017Y4067623D1*
X561163Y4065180D1*
X552166Y4063332D1*
X543066Y4062089D1*
X533904Y4061456D1*
X524719Y4061435D1*
X515553Y4062027D1*
X506448Y4063229D1*
X497442Y4065036D1*
X488578Y4067439D1*
X479893Y4070428D1*
X471427Y4073989D1*
X463217Y4078107D1*
X455301Y4082764D1*
X447712Y4087938D1*
X440486Y4093607D1*
X432477Y4100954D1*
X432484Y627146D1*
X439536Y633587D1*
X446711Y639321D1*
X454252Y644564D1*
X462126Y649292D1*
X470298Y653485D1*
X478732Y657123D1*
X487389Y660190D1*
X496231Y662673D1*
X505220Y664561D1*
X514314Y665845D1*
X523474Y666520D1*
X532659Y666583D1*
X541827Y666032D1*
X550938Y664872D1*
X559951Y663106D1*
X568827Y660743D1*
X577525Y657793D1*
X586007Y654270D1*
X594235Y650189D1*
X602173Y645568D1*
X609784Y640428D1*
X617036Y634792D1*
X623896Y628685D1*
X630334Y622134D1*
X636320Y615168D1*
X641828Y607818D1*
X646833Y600117D1*
X651314Y592100D1*
X655250Y583801D1*
X658624Y575259D1*
X661421Y566510D1*
X663628Y557595D1*
X665235Y548552D1*
X666236Y539422D1*
X666631Y529000D1*
X666325Y519820D1*
X665407Y510682D1*
X663881Y501625D1*
X661755Y492690D1*
X659038Y483916D1*
X655741Y475343D1*
X651880Y467010D1*
X647472Y458952D1*
X642536Y451206D1*
X637095Y443807D1*
X631172Y436787D1*
X627012Y432476D1*
X4100876Y432484D1*
X4091292Y443319D1*
X4085817Y450693D1*
X4080846Y458417D1*
X4076401Y466454D1*
X4072503Y474771D1*
X4069168Y483328D1*
X4066411Y492089D1*
X4064244Y501015D1*
X4062678Y510065D1*
X4061718Y519199D1*
X4061370Y528377D1*
X4061635Y537558D1*
X4062512Y546701D1*
X4063996Y555765D1*
X4066082Y564709D1*
X4068760Y573495D1*
X4072017Y582083D1*
X4075840Y590434D1*
X4080212Y598511D1*
X4085113Y606279D1*
X4090521Y613703D1*
X4096412Y620750D1*
X4102759Y627388D1*
X4109536Y633587D1*
X4116711Y639321D1*
X4124252Y644564D1*
X4132126Y649292D1*
X4140298Y653485D1*
X4148732Y657123D1*
X4157389Y660190D1*
X4166231Y662673D1*
X4175220Y664561D1*
X4184314Y665845D1*
X4193474Y666520D1*
X4202659Y666583D1*
X4211827Y666032D1*
X4220938Y664872D1*
X4229951Y663106D1*
X4238827Y660743D1*
X4247525Y657793D1*
X4256007Y654270D1*
X4264235Y650189D1*
X4272173Y645568D1*
X4279784Y640428D1*
X4287036Y634792D1*
X4292530Y629902D1*
X4292524Y4098006D1*
X4280789Y4088307D1*
X4273224Y4083099D1*
X4265329Y4078406D1*
X4257138Y4074251D1*
X4248688Y4070651D1*
X4240017Y4067623D1*
X4231163Y4065180D1*
X4222166Y4063332D1*
X4213066Y4062089D1*
X4203904Y4061456D1*
X4194719Y4061435D1*
X4185553Y4062027D1*
X4179044Y4062886D1*
X4180724Y4057102D1*
X4182267Y4047358D1*
Y4037492D1*
X3832214Y3678375D2*
X3825712Y3678629D1*
X3819275Y3679390D1*
X3812917Y3680655D1*
X3806678Y3682415D1*
X3800597Y3684658D1*
X3794710Y3687372D1*
X3789054Y3690539D1*
X3783664Y3694141D1*
X3778574Y3698154D1*
X3773814Y3702554D1*
X3769414Y3707314D1*
X3765400Y3712404D1*
X3761799Y3717794D1*
X3758632Y3723450D1*
X3755918Y3729337D1*
X3753674Y3735418D1*
X3751915Y3741657D1*
X3750650Y3748015D1*
X3749888Y3754452D1*
X3749634Y3760929D1*
X3749888Y3767406D1*
X3750650Y3773844D1*
X3751915Y3780201D1*
X3753674Y3786440D1*
X3755918Y3792522D1*
X3758632Y3798408D1*
X3761799Y3804064D1*
X3765400Y3809454D1*
X3769414Y3814544D1*
X3773814Y3819304D1*
X3778574Y3823705D1*
X3783664Y3827718D1*
X3789054Y3831319D1*
X3794710Y3834486D1*
X3800597Y3837200D1*
X3806678Y3839444D1*
X3812917Y3841203D1*
X3819275Y3842468D1*
X3825712Y3843230D1*
X3841375Y3843484D1*
X3862288Y3843230D1*
X3868725Y3842468D1*
X3875083Y3841203D1*
X3881322Y3839444D1*
X3887403Y3837200D1*
X3893290Y3834486D1*
X3898946Y3831319D1*
X3904336Y3827718D1*
X3909426Y3823705D1*
X3914186Y3819304D1*
X3918586Y3814544D1*
X3922600Y3809454D1*
X3926201Y3804064D1*
X3929368Y3798408D1*
X3932082Y3792522D1*
X3934326Y3786440D1*
X3936085Y3780201D1*
X3937350Y3773844D1*
X3938112Y3767406D1*
X3938366Y3760929D1*
X3938112Y3754452D1*
X3937350Y3748015D1*
X3936085Y3741657D1*
X3934326Y3735418D1*
X3932082Y3729337D1*
X3929368Y3723450D1*
X3926201Y3717794D1*
X3922600Y3712404D1*
X3918586Y3707314D1*
X3914186Y3702554D1*
X3909426Y3698154D1*
X3904336Y3694141D1*
X3898946Y3690539D1*
X3893290Y3687372D1*
X3887403Y3684658D1*
X3881322Y3682415D1*
X3875083Y3680655D1*
X3868725Y3679390D1*
X3862288Y3678629D1*
X3846625Y3678374D1*
X3832189Y3678410D1*
X3832214Y4044517D2*
X3825712Y4044770D1*
X3819275Y4045532D1*
X3812917Y4046797D1*
X3806678Y4048556D1*
X3800597Y4050800D1*
X3794710Y4053514D1*
X3789054Y4056681D1*
X3783664Y4060282D1*
X3778574Y4064295D1*
X3773814Y4068696D1*
X3769414Y4073456D1*
X3765400Y4078546D1*
X3761799Y4083936D1*
X3758632Y4089592D1*
X3755918Y4095478D1*
X3753674Y4101560D1*
X3751915Y4107799D1*
X3750650Y4114156D1*
X3749888Y4120594D1*
X3749634Y4127071D1*
X3749888Y4133548D1*
X3750650Y4139985D1*
X3751915Y4146343D1*
X3753674Y4152582D1*
X3755918Y4158663D1*
X3758632Y4164550D1*
X3761799Y4170206D1*
X3765400Y4175596D1*
X3769414Y4180686D1*
X3773814Y4185446D1*
X3778574Y4189846D1*
X3783664Y4193859D1*
X3789054Y4197461D1*
X3794710Y4200628D1*
X3800597Y4203342D1*
X3806678Y4205585D1*
X3812917Y4207345D1*
X3819275Y4208610D1*
X3825712Y4209371D1*
X3841375Y4209626D1*
X3862288Y4209371D1*
X3868725Y4208610D1*
X3875083Y4207345D1*
X3881322Y4205585D1*
X3887403Y4203342D1*
X3893290Y4200628D1*
X3898946Y4197461D1*
X3904336Y4193859D1*
X3909426Y4189846D1*
X3914186Y4185446D1*
X3918586Y4180686D1*
X3922600Y4175596D1*
X3926201Y4170206D1*
X3929368Y4164550D1*
X3932082Y4158663D1*
X3934326Y4152582D1*
X3936085Y4146343D1*
X3937350Y4139985D1*
X3938112Y4133548D1*
X3938366Y4127071D1*
X3938112Y4120594D1*
X3937350Y4114156D1*
X3936085Y4107799D1*
X3934326Y4101560D1*
X3932082Y4095478D1*
X3929368Y4089592D1*
X3926201Y4083936D1*
X3922600Y4078546D1*
X3918586Y4073456D1*
X3914186Y4068696D1*
X3909426Y4064295D1*
X3904336Y4060282D1*
X3898946Y4056681D1*
X3893290Y4053514D1*
X3887403Y4050800D1*
X3881322Y4048556D1*
X3875083Y4046797D1*
X3868725Y4045532D1*
X3862288Y4044770D1*
X3846625Y4044516D1*
X3832189Y4044552D1*
X768663Y3093484D2*
X928524D1*
Y2924437D1*
X759477D1*
Y3093484D1*
X768663D1*
X928263Y3187368D2*
X927483Y3180778D1*
X926188Y3174268D1*
X924387Y3167881D1*
X922090Y3161654D1*
X919311Y3155627D1*
X916068Y3149837D1*
X912381Y3144318D1*
X908272Y3139106D1*
X903767Y3134233D1*
X898894Y3129728D1*
X893682Y3125619D1*
X888163Y3121932D1*
X882373Y3118689D1*
X876346Y3115910D1*
X870119Y3113613D1*
X863732Y3111812D1*
X857222Y3110517D1*
X850632Y3109737D1*
X844000Y3109476D1*
X837368Y3109737D1*
X830778Y3110517D1*
X824268Y3111812D1*
X817881Y3113613D1*
X811654Y3115910D1*
X805627Y3118689D1*
X799837Y3121932D1*
X794318Y3125619D1*
X789106Y3129728D1*
X784233Y3134233D1*
X779728Y3139106D1*
X775619Y3144318D1*
X771932Y3149837D1*
X768689Y3155627D1*
X765910Y3161654D1*
X763613Y3167881D1*
X761812Y3174268D1*
X760517Y3180778D1*
X759737Y3187368D1*
X759476Y3194000D1*
X759737Y3200632D1*
X760517Y3207222D1*
X761812Y3213732D1*
X763613Y3220119D1*
X765910Y3226346D1*
X768689Y3232373D1*
X771932Y3238163D1*
X775619Y3243682D1*
X779728Y3248894D1*
X784233Y3253767D1*
X789106Y3258272D1*
X794318Y3262381D1*
X799837Y3266068D1*
X805627Y3269311D1*
X811654Y3272090D1*
X817881Y3274387D1*
X824268Y3276188D1*
X830778Y3277483D1*
X837368Y3278263D1*
X844000Y3278524D1*
X850632Y3278263D1*
X857222Y3277483D1*
X863732Y3276188D1*
X870119Y3274387D1*
X876346Y3272090D1*
X882373Y3269311D1*
X888163Y3266068D1*
X893682Y3262381D1*
X898894Y3258272D1*
X903767Y3253767D1*
X908272Y3248894D1*
X912381Y3243682D1*
X916068Y3238163D1*
X919311Y3232373D1*
X922090Y3226346D1*
X924387Y3220119D1*
X926188Y3213732D1*
X927483Y3207222D1*
X928263Y3200632D1*
X928524Y3194000D1*
X928263Y3187368D1*
X3768663Y3093484D2*
X3928524D1*
Y2924437D1*
X3759477D1*
Y3093484D1*
X3768663D1*
X3928263Y3372408D2*
X3927483Y3365817D1*
X3926188Y3359308D1*
X3924387Y3352920D1*
X3922090Y3346694D1*
X3919311Y3340666D1*
X3916068Y3334876D1*
X3912381Y3329358D1*
X3908272Y3324146D1*
X3903767Y3319272D1*
X3898894Y3314767D1*
X3893682Y3310658D1*
X3888163Y3306971D1*
X3882373Y3303728D1*
X3876346Y3300950D1*
X3870119Y3298653D1*
X3863732Y3296851D1*
X3857222Y3295556D1*
X3850632Y3294776D1*
X3844000Y3294516D1*
X3837368Y3294776D1*
X3830778Y3295556D1*
X3824268Y3296851D1*
X3817881Y3298653D1*
X3811654Y3300950D1*
X3805627Y3303728D1*
X3799837Y3306971D1*
X3794318Y3310658D1*
X3789106Y3314767D1*
X3784233Y3319272D1*
X3779728Y3324146D1*
X3775619Y3329358D1*
X3771932Y3334876D1*
X3768689Y3340666D1*
X3765910Y3346694D1*
X3763613Y3352920D1*
X3761812Y3359308D1*
X3760517Y3365817D1*
X3759737Y3372408D1*
X3759476Y3379039D1*
X3759737Y3385671D1*
X3760517Y3392262D1*
X3761812Y3398771D1*
X3763613Y3405159D1*
X3765910Y3411385D1*
X3768689Y3417412D1*
X3771932Y3423203D1*
X3775619Y3428721D1*
X3779728Y3433933D1*
X3784233Y3438807D1*
X3789106Y3443312D1*
X3794318Y3447420D1*
X3799837Y3451108D1*
X3805627Y3454350D1*
X3811654Y3457129D1*
X3817881Y3459426D1*
X3824268Y3461228D1*
X3830778Y3462522D1*
X3837368Y3463302D1*
X3844000Y3463563D1*
X3850632Y3463302D1*
X3857222Y3462522D1*
X3863732Y3461228D1*
X3870119Y3459426D1*
X3876346Y3457129D1*
X3882373Y3454350D1*
X3888163Y3451108D1*
X3893682Y3447420D1*
X3898894Y3443312D1*
X3903767Y3438807D1*
X3908272Y3433933D1*
X3912381Y3428721D1*
X3916068Y3423203D1*
X3919311Y3417412D1*
X3922090Y3411385D1*
X3924387Y3405159D1*
X3926188Y3398771D1*
X3927483Y3392262D1*
X3928263Y3385671D1*
X3928524Y3379039D1*
X3928263Y3372408D1*
Y1687368D2*
X3927483Y1680778D1*
X3926188Y1674268D1*
X3924387Y1667881D1*
X3922090Y1661654D1*
X3919311Y1655627D1*
X3916068Y1649837D1*
X3912381Y1644318D1*
X3908272Y1639106D1*
X3903767Y1634233D1*
X3898894Y1629728D1*
X3893682Y1625619D1*
X3888163Y1621932D1*
X3882373Y1618689D1*
X3876346Y1615910D1*
X3870119Y1613613D1*
X3863732Y1611812D1*
X3857222Y1610517D1*
X3850632Y1609737D1*
X3844000Y1609476D1*
X3837368Y1609737D1*
X3830778Y1610517D1*
X3824268Y1611812D1*
X3817881Y1613613D1*
X3811654Y1615910D1*
X3805627Y1618689D1*
X3799837Y1621932D1*
X3794318Y1625619D1*
X3789106Y1629728D1*
X3784233Y1634233D1*
X3779728Y1639106D1*
X3775619Y1644318D1*
X3771932Y1649837D1*
X3768689Y1655627D1*
X3765910Y1661654D1*
X3763613Y1667881D1*
X3761812Y1674268D1*
X3760517Y1680778D1*
X3759737Y1687368D1*
X3759476Y1694000D1*
X3759737Y1700632D1*
X3760517Y1707222D1*
X3761812Y1713732D1*
X3763613Y1720119D1*
X3765910Y1726346D1*
X3768689Y1732373D1*
X3771932Y1738163D1*
X3775619Y1743682D1*
X3779728Y1748894D1*
X3784233Y1753767D1*
X3789106Y1758272D1*
X3794318Y1762381D1*
X3799837Y1766068D1*
X3805627Y1769311D1*
X3811654Y1772090D1*
X3817881Y1774387D1*
X3824268Y1776188D1*
X3830778Y1777483D1*
X3837368Y1778263D1*
X3844000Y1778524D1*
X3850632Y1778263D1*
X3857222Y1777483D1*
X3863732Y1776188D1*
X3870119Y1774387D1*
X3876346Y1772090D1*
X3882373Y1769311D1*
X3888163Y1766068D1*
X3893682Y1762381D1*
X3898894Y1758272D1*
X3903767Y1753767D1*
X3908272Y1748894D1*
X3912381Y1743682D1*
X3916068Y1738163D1*
X3919311Y1732373D1*
X3922090Y1726346D1*
X3924387Y1720119D1*
X3926188Y1713732D1*
X3927483Y1707222D1*
X3928263Y1700632D1*
X3928524Y1694000D1*
X3928263Y1687368D1*
Y1872408D2*
X3927483Y1865817D1*
X3926188Y1859308D1*
X3924387Y1852920D1*
X3922090Y1846694D1*
X3919311Y1840666D1*
X3916068Y1834876D1*
X3912381Y1829358D1*
X3908272Y1824146D1*
X3903767Y1819272D1*
X3898894Y1814767D1*
X3893682Y1810658D1*
X3888163Y1806971D1*
X3882373Y1803728D1*
X3876346Y1800950D1*
X3870119Y1798653D1*
X3863732Y1796851D1*
X3857222Y1795556D1*
X3850632Y1794776D1*
X3844000Y1794516D1*
X3837368Y1794776D1*
X3830778Y1795556D1*
X3824268Y1796851D1*
X3817881Y1798653D1*
X3811654Y1800950D1*
X3805627Y1803728D1*
X3799837Y1806971D1*
X3794318Y1810658D1*
X3789106Y1814767D1*
X3784233Y1819272D1*
X3779728Y1824146D1*
X3775619Y1829358D1*
X3771932Y1834876D1*
X3768689Y1840666D1*
X3765910Y1846694D1*
X3763613Y1852920D1*
X3761812Y1859308D1*
X3760517Y1865817D1*
X3759737Y1872408D1*
X3759476Y1879039D1*
X3759737Y1885671D1*
X3760517Y1892262D1*
X3761812Y1898771D1*
X3763613Y1905159D1*
X3765910Y1911385D1*
X3768689Y1917412D1*
X3771932Y1923203D1*
X3775619Y1928721D1*
X3779728Y1933933D1*
X3784233Y1938807D1*
X3789106Y1943312D1*
X3794318Y1947420D1*
X3799837Y1951108D1*
X3805627Y1954350D1*
X3811654Y1957129D1*
X3817881Y1959426D1*
X3824268Y1961228D1*
X3830778Y1962522D1*
X3837368Y1963302D1*
X3844000Y1963563D1*
X3850632Y1963302D1*
X3857222Y1962522D1*
X3863732Y1961228D1*
X3870119Y1959426D1*
X3876346Y1957129D1*
X3882373Y1954350D1*
X3888163Y1951108D1*
X3893682Y1947420D1*
X3898894Y1943312D1*
X3903767Y1938807D1*
X3908272Y1933933D1*
X3912381Y1928721D1*
X3916068Y1923203D1*
X3919311Y1917412D1*
X3922090Y1911385D1*
X3924387Y1905159D1*
X3926188Y1898771D1*
X3927483Y1892262D1*
X3928263Y1885671D1*
X3928524Y1879039D1*
X3928263Y1872408D1*
X3113424Y1387317D2*
X3119259Y1390902D1*
X3125976Y1393870D1*
X3133038Y1395882D1*
X3140311Y1396899D1*
X3147654Y1396902D1*
X3154927Y1395890D1*
X3161991Y1393882D1*
X3168709Y1390919D1*
X3174954Y1387055D1*
X3180605Y1382366D1*
X3185554Y1376942D1*
X3189707Y1370885D1*
X3192983Y1364313D1*
X3193995Y1361651D1*
X3196752Y1368074D1*
X3201100Y1375169D1*
X3206504Y1381496D1*
X3212831Y1386900D1*
X3219926Y1391248D1*
X3227614Y1394432D1*
X3235705Y1396375D1*
X3239485Y1397029D1*
X3246970Y1405499D1*
X3095362Y1405500D1*
X3112159Y1388674D1*
X1044000Y2802464D2*
D17*
Y2744000D1*
X1102464D1*
X2335536Y3144000D2*
X2394000D1*
X1044000Y1844000D2*
Y1785536D1*
X985536Y1844000D2*
X1102464D1*
X1544000Y644000D2*
Y585536D1*
X1485536Y644000D2*
X1602464D1*
X1244000Y1602464D2*
Y1544000D1*
X1185536D2*
X1302464D1*
X3244000Y2002464D2*
Y1944000D1*
X2444000Y1044000D2*
Y985536D1*
Y1044000D2*
X2502464D1*
X2444000Y2002464D2*
Y1944000D1*
X2385536D2*
X2444000D1*
X3185536Y1044000D2*
X3302464D1*
X2994000Y3798960D2*
Y3744000D1*
X2939040D2*
X3048960D1*
X2694000Y3798960D2*
Y3744000D1*
X2639040D2*
X2748960D1*
X2594000Y4252464D2*
Y4194000D1*
X2694000Y4252464D2*
Y4194000D1*
X2794000Y4252464D2*
Y4194000D1*
Y4094000D2*
Y4035536D1*
X2694000Y4094000D2*
Y4035536D1*
X2594000Y4094000D2*
Y4035536D1*
X1844000Y750929D2*
Y641008D1*
X1771323Y695969D2*
X1916677D1*
X3844000D2*
Y641008D1*
X3771323Y695969D2*
X3916677D1*
X844000Y750929D2*
Y641008D1*
X771323Y695969D2*
X916677D1*
X3494000Y2896992D2*
Y2791008D1*
Y2844000D2*
X3546992D1*
X2544000Y2896992D2*
Y2791008D1*
Y2844000D2*
X2596992D1*
X744000Y1802464D2*
Y1685536D1*
X1444000Y1802464D2*
Y1744000D1*
X1502464D1*
X2244000Y1002464D2*
Y885536D1*
X2185536Y944000D2*
X2244000D1*
X1144000Y1802464D2*
Y1685536D1*
X1085536Y1744000D2*
X1144000D1*
X944000Y2902464D2*
Y2785536D1*
X2644000Y2044000D2*
Y1985536D1*
X2585536Y2044000D2*
X2644000D1*
X1244000Y2902464D2*
Y2785536D1*
X1185536Y2844000D2*
X1244000D1*
X2544000Y1002464D2*
Y885536D1*
X2485536Y944000D2*
X2544000D1*
X3194000Y3102464D2*
Y2985536D1*
Y3044000D2*
X3252464D1*
X2344000Y2102464D2*
Y1985536D1*
Y2044000D2*
X2402464D1*
X3494000Y3402464D2*
Y3285536D1*
X3435536Y3344000D2*
X3552464D1*
X2594000Y3402464D2*
Y3344000D1*
X2535536D2*
X2652464D1*
X1119591Y3845575D2*
Y3782740D1*
X1056756Y3845575D2*
X1182425D1*
X2119591D2*
Y3782741D1*
X2056756Y3845575D2*
X2182425D1*
X4119591D2*
Y3782741D1*
Y3845575D2*
X4182425D1*
X3144000Y1396992D2*
Y1291008D1*
D19*
X1544000Y1844000D3*
Y1944000D3*
X2144000Y1044000D3*
Y1144000D3*
X644000Y2744000D3*
Y2644000D3*
X2844000Y1044000D3*
Y1144000D3*
X2044000Y1944000D3*
Y1844000D3*
X3394000Y3244000D3*
Y3144000D3*
X2494000Y3244000D3*
Y3144000D3*
X1044000Y2744000D3*
Y2644000D3*
X3294000Y3144000D3*
Y3244000D3*
X2394000Y3144000D3*
Y3244000D3*
X1044000Y1944000D3*
Y1844000D3*
X1544000Y644000D3*
Y744000D3*
X1244000Y1444000D3*
Y1544000D3*
X3244000Y1944000D3*
Y1844000D3*
X2444000Y1144000D3*
Y1044000D3*
Y1944000D3*
Y1844000D3*
X3244000Y1144000D3*
Y1044000D3*
D20*
X2994000Y3666000D3*
D21*
Y3744000D3*
D20*
X2694000D3*
D21*
Y3666000D3*
D22*
X3344000Y3516000D3*
D23*
Y3916000D3*
D22*
X2344000D3*
D23*
Y3516000D3*
D24*
X3194000D3*
Y3916000D3*
X2494000Y3516000D3*
Y3916000D3*
D19*
X2594000Y4194000D3*
X2694000D3*
X2794000D3*
X2894000D3*
X2994000D3*
X3094000D3*
X3194000D3*
Y4094000D3*
X3094000D3*
X2994000D3*
X2894000D3*
X2794000D3*
X2694000D3*
X2594000D3*
X2494000D3*
D25*
Y4194000D3*
D26*
X1844000Y1132976D3*
Y814079D3*
Y695969D3*
X3844000Y1132976D3*
Y814079D3*
Y695969D3*
X844000Y1132976D3*
Y814079D3*
Y695969D3*
D27*
X3494000Y2844000D3*
D28*
X3394000D3*
X3294000D3*
D27*
X2544000D3*
D28*
X2444000D3*
X2344000D3*
D19*
X844000Y2044000D3*
Y1744000D3*
X944000D3*
Y2044000D3*
X744000D3*
Y1744000D3*
X1344000Y2044000D3*
Y1744000D3*
X1444000Y2044000D3*
Y1744000D3*
X2244000Y1244000D3*
Y944000D3*
X644000Y2044000D3*
Y1744000D3*
X1244000D3*
Y2044000D3*
X1144000D3*
Y1744000D3*
X1444000Y1344000D3*
Y1644000D3*
X744000Y2844000D3*
Y2544000D3*
X1444000D3*
Y2844000D3*
X1344000D3*
Y2544000D3*
Y1344000D3*
Y1644000D3*
X844000Y2544000D3*
Y2844000D3*
X944000Y2544000D3*
Y2844000D3*
X2094000Y3044000D3*
Y3344000D3*
X2644000Y1744000D3*
Y2044000D3*
X2744000Y944000D3*
Y1244000D3*
X2344000Y944000D3*
Y1244000D3*
X1244000Y2544000D3*
Y2844000D3*
X2644000Y1244000D3*
Y944000D3*
X2544000Y1244000D3*
Y944000D3*
X3194000Y3344000D3*
Y3044000D3*
X3094000D3*
Y3344000D3*
X2144000Y2044000D3*
Y1744000D3*
X2744000D3*
Y2044000D3*
X2844000D3*
Y1744000D3*
X2244000D3*
Y2044000D3*
X2344000Y1744000D3*
Y2044000D3*
X1244000Y844000D3*
Y544000D3*
X1144000Y844000D3*
Y544000D3*
X3444000Y1244000D3*
Y944000D3*
X3494000Y3344000D3*
Y3044000D3*
X1444000Y844000D3*
Y544000D3*
X1344000Y844000D3*
Y544000D3*
X3544000Y2044000D3*
Y1744000D3*
X2594000Y3344000D3*
Y3044000D3*
X3044000Y944000D3*
Y1244000D3*
X1294000Y3794000D3*
Y4094000D3*
X2944000Y1244000D3*
Y944000D3*
X3444000Y1744000D3*
Y2044000D3*
X3344000D3*
Y1744000D3*
X3144000D3*
Y2044000D3*
D29*
X1119591Y4042425D3*
Y3944000D3*
D30*
Y3845575D3*
D31*
X844000Y3760929D3*
Y4127071D3*
D29*
X2119591Y2542425D3*
Y2444000D3*
D30*
Y2345575D3*
D31*
X1844000Y2260929D3*
Y2627071D3*
D29*
X2119591Y4042425D3*
Y3944000D3*
D30*
Y3845575D3*
D31*
X1844000Y3760929D3*
Y4127071D3*
D29*
X3119591Y2542425D3*
Y2444000D3*
D30*
Y2345575D3*
D31*
X2844000Y2260929D3*
Y2627071D3*
D29*
X4119591Y2542425D3*
Y2444000D3*
D30*
Y2345575D3*
D31*
X3844000Y2260929D3*
Y2627071D3*
D29*
X4119591Y4042425D3*
Y3944000D3*
D30*
Y3845575D3*
D31*
X3844000Y3760929D3*
Y4127071D3*
D32*
X844000Y3008961D3*
D33*
Y3194000D3*
Y3379039D3*
D32*
X1844000Y3008961D3*
D33*
Y3194000D3*
Y3379039D3*
D32*
X2844000Y3008961D3*
D33*
Y3194000D3*
Y3379039D3*
D32*
X3844000Y3008961D3*
D33*
Y3194000D3*
Y3379039D3*
D32*
X1844000Y1508961D3*
D33*
Y1694000D3*
Y1879039D3*
D32*
X3844000Y1508961D3*
D33*
Y1694000D3*
Y1879039D3*
D27*
X744000Y2144000D3*
D28*
X844000D3*
X944000D3*
X1044000D3*
X1144000D3*
X1244000D3*
X1344000D3*
Y2444000D3*
X1244000D3*
X1144000D3*
X1044000D3*
X944000D3*
X844000D3*
X744000D3*
D27*
X2144000Y1344000D3*
D28*
X2244000D3*
X2344000D3*
X2444000D3*
X2544000D3*
X2644000D3*
X2744000D3*
Y1644000D3*
X2644000D3*
X2544000D3*
X2444000D3*
X2344000D3*
X2244000D3*
X2144000D3*
D27*
X2944000Y1344000D3*
D28*
X3044000D3*
X3144000D3*
X3244000D3*
X3344000D3*
X3444000D3*
X3544000D3*
Y1644000D3*
X3444000D3*
X3344000D3*
X3244000D3*
X3144000D3*
X3044000D3*
X2944000D3*
D27*
X1244000Y944000D3*
D28*
X1344000D3*
X1444000D3*
X1544000D3*
Y1244000D3*
X1444000D3*
X1344000D3*
X1244000D3*
M02*
