G04 DipTrace 3.2.0.1*
G04 BottomAssy.gbr*
%MOIN*%
G04 #@! TF.FileFunction,Drawing,Bot*
G04 #@! TF.Part,Single*
%ADD10C,0.009843*%
%ADD11C,0.005512*%
%ADD81C,0.006176*%
%FSLAX26Y26*%
G04*
G70*
G90*
G75*
G01*
G04 BotAssy*
%LPD*%
X2319300Y4194050D2*
D10*
X2294000D1*
X2319300Y4093950D2*
Y4194050D1*
Y4093950D2*
X2294000D1*
X3394000Y4194050D2*
X3368700D1*
Y4093950D2*
Y4194050D1*
X3394000Y4093950D2*
X3368700D1*
X3394000Y3969000D2*
Y4319000D1*
X2294000Y3969000D2*
Y4319000D1*
X3394000Y3969000D2*
X2294000D1*
X2763700Y4288900D2*
Y4319000D1*
X2924300Y4288900D2*
X2763700D1*
X2924300D2*
Y4319000D1*
X3394000D2*
X2924300D1*
X2763700D2*
X2294000D1*
X2845400Y3955433D2*
D81*
Y3924836D1*
X2847302Y3919088D1*
X2849247Y3917187D1*
X2853050Y3915241D1*
X2856896D1*
X2860699Y3917187D1*
X2862600Y3919088D1*
X2864546Y3924836D1*
Y3928638D1*
X2833049Y3947740D2*
X2829202Y3949685D1*
X2823454Y3955389D1*
Y3915241D1*
X394000Y394000D2*
D11*
X4331008D1*
Y4331008D1*
X394000D1*
Y394000D1*
M02*
