M48
INCH
T01C0.019
T02C0.0236
T03C0.0276
T04C0.035
T05C0.0354
T06C0.038
T07C0.0394
T08C0.047
T09C0.0472
T10C0.0591
T11C0.0728
T12C0.125
T13C0.1496
%
T01
X+024440Y+009440
X+024440Y+006940
X+025440Y+014440
X+024685Y+014870
X+028865Y+013865
X+032920Y+014870
X+033440Y+014870
X+033920Y+016940
X+031340Y+018870
X+030937Y+019376
X+031687Y+019438
X+029865Y+019730
X+027937Y+019501
X+025563Y+021563
X+021813Y+022938
X+021001Y+025375
X+015729Y+025440
X+015729Y+023985
X+014015Y+012000
X+014015Y+010770
X+014920Y+009865
X+031440Y+010440
X+032920Y+008403
X+040440Y+018940
X+031920Y+022208
X+030937Y+021563
X+027937Y+026250
X+029440Y+035940
T02
X+018617Y+011330G85X+018263Y+011330
X+018617Y+008141G85X+018263Y+008141
X+018617Y+006960G85X+018263Y+006960
X+008617Y+006960G85X+008263Y+006960
X+008617Y+008141G85X+008263Y+008141
X+008617Y+011330G85X+008263Y+011330
X+038617Y+011330G85X+038263Y+011330
X+038617Y+008141G85X+038263Y+008141
X+038617Y+006960G85X+038263Y+006960
T03
X+034940Y+028440
X+033940Y+028440
X+032940Y+028440
X+025440Y+028440
X+024440Y+028440
X+023440Y+028440
T04
X+015440Y+018440
X+015440Y+019440
X+014440Y+020440
X+013440Y+020440
X+012440Y+020440
X+011440Y+020440
X+010440Y+019440
X+010440Y+018440
X+009440Y+017440
X+008440Y+017440
X+007440Y+017440
X+006440Y+017440
X+006440Y+020440
X+007440Y+020440
X+008440Y+020440
X+009440Y+020440
X+011440Y+017440
X+012440Y+017440
X+013440Y+017440
X+014440Y+017440
X+014440Y+016440
X+013440Y+016440
X+012440Y+015440
X+012440Y+014440
X+013440Y+013440
X+014440Y+013440
X+014440Y+008440
X+013440Y+008440
X+012440Y+008440
X+011440Y+008440
X+011440Y+005440
X+012440Y+005440
X+013440Y+005440
X+014440Y+005440
X+015440Y+006440
X+015440Y+007440
X+021440Y+010440
X+021440Y+011440
X+022440Y+012440
X+023440Y+012440
X+024440Y+011440
X+024440Y+010440
X+025440Y+009440
X+026440Y+009440
X+027440Y+009440
X+028440Y+010440
X+028440Y+011440
X+027440Y+012440
X+026440Y+012440
X+025440Y+012440
X+023440Y+009440
X+022440Y+009440
X+029440Y+009440
X+030440Y+009440
X+032440Y+010440
X+032440Y+011440
X+034440Y+012440
X+034440Y+009440
X+030440Y+012440
X+029440Y+012440
X+028440Y+017440
X+027440Y+017440
X+026440Y+017440
X+024440Y+018440
X+024440Y+019440
X+023440Y+020440
X+022440Y+020440
X+021440Y+020440
X+020440Y+019440
X+020440Y+018440
X+021440Y+017440
X+022440Y+017440
X+023440Y+017440
X+026440Y+020440
X+027440Y+020440
X+028440Y+020440
X+031440Y+020440
X+032440Y+019440
X+032440Y+018440
X+033440Y+017440
X+034440Y+017440
X+035440Y+017440
X+035440Y+020440
X+034440Y+020440
X+033440Y+020440
X+031440Y+017440
X+030940Y+030440
X+031940Y+030440
X+032940Y+031440
X+032940Y+032440
X+033940Y+032440
X+033940Y+031440
X+034940Y+030440
X+034940Y+033440
X+031940Y+033440
X+030940Y+033440
X+025940Y+033440
X+024940Y+032440
X+024940Y+031440
X+023940Y+031440
X+023940Y+032440
X+025940Y+030440
X+020940Y+030440
X+020940Y+033440
X+014440Y+028440
X+013440Y+028440
X+012440Y+028440
X+010440Y+027440
X+010440Y+026440
X+009440Y+025440
X+008440Y+025440
X+007440Y+025440
X+006440Y+026440
X+006440Y+027440
X+007440Y+028440
X+008440Y+028440
X+009440Y+028440
X+012440Y+025440
X+013440Y+025440
X+014440Y+025440
X+012940Y+037940
X+012940Y+040940
T05
X+029940Y+036660
X+029940Y+037440
X+026940Y+037440
X+026940Y+036660
X+013440Y+024440
X+012440Y+024440
X+011440Y+024440
X+010440Y+024440
X+009440Y+024440
X+008440Y+024440
X+007440Y+024440
X+007440Y+021440
X+008440Y+021440
X+009440Y+021440
X+010440Y+021440
X+011440Y+021440
X+012440Y+021440
X+013440Y+021440
X+013440Y+012440
X+014440Y+012440
X+015440Y+012440
X+015440Y+009440
X+014440Y+009440
X+013440Y+009440
X+012440Y+009440
X+012440Y+012440
X+021440Y+013440
X+022440Y+013440
X+023440Y+013440
X+024440Y+013440
X+025440Y+013440
X+026440Y+013440
X+027440Y+013440
X+029440Y+013440
X+030440Y+013440
X+031440Y+013440
X+032440Y+013440
X+033440Y+013440
X+034440Y+013440
X+035440Y+013440
X+035440Y+016440
X+034440Y+016440
X+033440Y+016440
X+032440Y+016440
X+031440Y+016440
X+030440Y+016440
X+029440Y+016440
X+027440Y+016440
X+026440Y+016440
X+025440Y+016440
X+024440Y+016440
X+023440Y+016440
X+022440Y+016440
X+021440Y+016440
T06
X+025940Y+041940
X+025940Y+040940
X+024940Y+040940
X+024940Y+041940
X+026940Y+041940
X+026940Y+040940
X+027940Y+040940
X+028940Y+040940
X+029940Y+040940
X+029940Y+041940
X+028940Y+041940
X+027940Y+041940
X+030940Y+041940
X+030940Y+040940
X+031940Y+040940
X+031940Y+041940
T07
X+009424Y+036684
X+008440Y+036684
X+007456Y+036684
X+017456Y+036684
X+018440Y+036684
X+019424Y+036684
X+019424Y+021684
X+018440Y+021684
X+017456Y+021684
X+027456Y+021684
X+028440Y+021684
X+029424Y+021684
X+037456Y+021684
X+038440Y+021684
X+039424Y+021684
X+039424Y+036684
X+038440Y+036684
X+037456Y+036684
T08
X+031940Y+035160
X+031940Y+039160
X+024940Y+039160
X+024940Y+035160
T09
X+033440Y+035160
X+033440Y+039160
X+023440Y+039160
X+023440Y+035160
T10
X+006609Y+039322G85X+006609Y+039558
X+010271Y+039322G85X+010271Y+039558
X+016609Y+039322G85X+016609Y+039558
X+020271Y+039322G85X+020271Y+039558
X+020271Y+024322G85X+020271Y+024558
X+016609Y+024322G85X+016609Y+024558
X+026609Y+024322G85X+026609Y+024558
X+030271Y+024322G85X+030271Y+024558
X+036609Y+024322G85X+036609Y+024558
X+040271Y+024322G85X+040271Y+024558
X+040271Y+039322G85X+040271Y+039558
X+036609Y+039322G85X+036609Y+039558
T11
X+008440Y+030090
X+008440Y+031940
X+008440Y+033790
X+018440Y+033790
X+018440Y+031940
X+018440Y+030090
X+028440Y+030090
X+028440Y+031940
X+028440Y+033790
X+038440Y+033790
X+038440Y+031940
X+038440Y+030090
X+038440Y+018790
X+038440Y+016940
X+038440Y+015090
X+018440Y+015090
X+018440Y+016940
X+018440Y+018790
T12
X+005290Y+041990
X+041990Y+041990
X+041990Y+005290
X+005290Y+005290
T13
X+018440Y+009440
X+008440Y+009440
X+038440Y+009440
T00
M30
