G04 DipTrace 3.2.0.1*
G04 TopMask.gbr*
%MOIN*%
G04 #@! TF.FileFunction,Soldermask,Top*
G04 #@! TF.Part,Single*
%ADD36C,0.149606*%
%ADD37C,0.125*%
%ADD51C,0.130047*%
%ADD53R,0.130047X0.130047*%
%ADD55O,0.12611X0.149732*%
%ADD57R,0.08674X0.08674*%
%ADD59C,0.08674*%
%ADD61C,0.067055*%
%ADD63R,0.067055X0.067055*%
%ADD65O,0.106425X0.070992*%
%ADD67R,0.078X0.078*%
%ADD69C,0.098*%
%ADD71C,0.098*%
%ADD73R,0.098X0.098*%
%ADD75C,0.070992*%
%ADD77R,0.070992X0.070992*%
%ADD79C,0.078*%
%FSLAX26Y26*%
G04*
G70*
G90*
G75*
G01*
G04 TopMask*
%LPD*%
D79*
X1544000Y1844000D3*
Y1944000D3*
X2144000Y1044000D3*
Y1144000D3*
X644000Y2744000D3*
Y2644000D3*
X2844000Y1044000D3*
Y1144000D3*
X2044000Y1944000D3*
Y1844000D3*
X3394000Y3244000D3*
Y3144000D3*
X2494000Y3244000D3*
Y3144000D3*
X1044000Y2744000D3*
Y2644000D3*
X3294000Y3144000D3*
Y3244000D3*
X2394000Y3144000D3*
Y3244000D3*
X1044000Y1944000D3*
Y1844000D3*
X1544000Y644000D3*
Y744000D3*
X1244000Y1444000D3*
Y1544000D3*
X3244000Y1944000D3*
Y1844000D3*
X2444000Y1144000D3*
Y1044000D3*
Y1944000D3*
Y1844000D3*
X3244000Y1144000D3*
Y1044000D3*
D77*
X2994000Y3666000D3*
D75*
Y3744000D3*
D77*
X2694000D3*
D75*
Y3666000D3*
D73*
X3344000Y3516000D3*
D71*
Y3916000D3*
D73*
X2344000D3*
D71*
Y3516000D3*
D69*
X3194000D3*
Y3916000D3*
X2494000Y3516000D3*
Y3916000D3*
D79*
X2594000Y4194000D3*
X2694000D3*
X2794000D3*
X2894000D3*
X2994000D3*
X3094000D3*
X3194000D3*
Y4094000D3*
X3094000D3*
X2994000D3*
X2894000D3*
X2794000D3*
X2694000D3*
X2594000D3*
X2494000D3*
D67*
Y4194000D3*
D65*
X1844000Y1132976D3*
Y814079D3*
Y695969D3*
D36*
Y944000D3*
D65*
X3844000Y1132976D3*
Y814079D3*
Y695969D3*
D36*
Y944000D3*
D65*
X844000Y1132976D3*
Y814079D3*
Y695969D3*
D36*
Y944000D3*
D63*
X3494000Y2844000D3*
D61*
X3394000D3*
X3294000D3*
D63*
X2544000D3*
D61*
X2444000D3*
X2344000D3*
D79*
X844000Y2044000D3*
Y1744000D3*
X944000D3*
Y2044000D3*
X744000D3*
Y1744000D3*
X1344000Y2044000D3*
Y1744000D3*
X1444000Y2044000D3*
Y1744000D3*
X2244000Y1244000D3*
Y944000D3*
X644000Y2044000D3*
Y1744000D3*
X1244000D3*
Y2044000D3*
X1144000D3*
Y1744000D3*
X1444000Y1344000D3*
Y1644000D3*
X744000Y2844000D3*
Y2544000D3*
X1444000D3*
Y2844000D3*
X1344000D3*
Y2544000D3*
Y1344000D3*
Y1644000D3*
X844000Y2544000D3*
Y2844000D3*
X944000Y2544000D3*
Y2844000D3*
X2094000Y3044000D3*
Y3344000D3*
X2644000Y1744000D3*
Y2044000D3*
X2744000Y944000D3*
Y1244000D3*
X2344000Y944000D3*
Y1244000D3*
X1244000Y2544000D3*
Y2844000D3*
X2644000Y1244000D3*
Y944000D3*
X2544000Y1244000D3*
Y944000D3*
X3194000Y3344000D3*
Y3044000D3*
X3094000D3*
Y3344000D3*
X2144000Y2044000D3*
Y1744000D3*
X2744000D3*
Y2044000D3*
X2844000D3*
Y1744000D3*
X2244000D3*
Y2044000D3*
X2344000Y1744000D3*
Y2044000D3*
X1244000Y844000D3*
Y544000D3*
X1144000Y844000D3*
Y544000D3*
X3444000Y1244000D3*
Y944000D3*
X3494000Y3344000D3*
Y3044000D3*
X1444000Y844000D3*
Y544000D3*
X1344000Y844000D3*
Y544000D3*
X3544000Y2044000D3*
Y1744000D3*
X2594000Y3344000D3*
Y3044000D3*
X3044000Y944000D3*
Y1244000D3*
X1294000Y3794000D3*
Y4094000D3*
X2944000Y1244000D3*
Y944000D3*
X3444000Y1744000D3*
Y2044000D3*
X3344000D3*
Y1744000D3*
X3144000D3*
Y2044000D3*
D59*
X942425Y3668409D3*
X844000D3*
D57*
X745575D3*
D55*
X660929Y3944000D3*
X1027071D3*
D59*
X1942425Y2168409D3*
X1844000D3*
D57*
X1745575D3*
D55*
X1660929Y2444000D3*
X2027071D3*
D59*
X1942425Y3668409D3*
X1844000D3*
D57*
X1745575D3*
D55*
X1660929Y3944000D3*
X2027071D3*
D59*
X2942425Y2168409D3*
X2844000D3*
D57*
X2745575D3*
D55*
X2660929Y2444000D3*
X3027071D3*
D59*
X3942425Y2168409D3*
X3844000D3*
D57*
X3745575D3*
D55*
X3660929Y2444000D3*
X4027071D3*
D59*
X3942425Y3668409D3*
X3844000D3*
D57*
X3745575D3*
D55*
X3660929Y3944000D3*
X4027071D3*
D53*
X844000Y3008961D3*
D51*
Y3194000D3*
Y3379039D3*
D53*
X1844000Y3008961D3*
D51*
Y3194000D3*
Y3379039D3*
D53*
X2844000Y3008961D3*
D51*
Y3194000D3*
Y3379039D3*
D53*
X3844000Y3008961D3*
D51*
Y3194000D3*
Y3379039D3*
D53*
X1844000Y1508961D3*
D51*
Y1694000D3*
Y1879039D3*
D53*
X3844000Y1508961D3*
D51*
Y1694000D3*
Y1879039D3*
D63*
X744000Y2144000D3*
D61*
X844000D3*
X944000D3*
X1044000D3*
X1144000D3*
X1244000D3*
X1344000D3*
Y2444000D3*
X1244000D3*
X1144000D3*
X1044000D3*
X944000D3*
X844000D3*
X744000D3*
D63*
X2144000Y1344000D3*
D61*
X2244000D3*
X2344000D3*
X2444000D3*
X2544000D3*
X2644000D3*
X2744000D3*
Y1644000D3*
X2644000D3*
X2544000D3*
X2444000D3*
X2344000D3*
X2244000D3*
X2144000D3*
D63*
X2944000Y1344000D3*
D61*
X3044000D3*
X3144000D3*
X3244000D3*
X3344000D3*
X3444000D3*
X3544000D3*
Y1644000D3*
X3444000D3*
X3344000D3*
X3244000D3*
X3144000D3*
X3044000D3*
X2944000D3*
D63*
X1244000Y944000D3*
D61*
X1344000D3*
X1444000D3*
X1544000D3*
Y1244000D3*
X1444000D3*
X1344000D3*
X1244000D3*
D37*
X529000Y4199000D3*
X4199000D3*
Y529000D3*
X529000D3*
M02*
